G04*
G04 #@! TF.GenerationSoftware,Altium Limited,Altium Designer,25.0.1 (26)*
G04*
G04 Layer_Color=2752767*
%FSLAX25Y25*%
%MOIN*%
G70*
G04*
G04 #@! TF.SameCoordinates,5D196012-D927-4492-92D9-CD159FF3DA83*
G04*
G04*
G04 #@! TF.FilePolarity,Positive*
G04*
G01*
G75*
%ADD14C,0.00394*%
%ADD113C,0.00200*%
%ADD114C,0.00267*%
D14*
X90000Y195000D02*
G03*
X85000Y200000I-5000J0D01*
G01*
X80000Y-0D02*
G03*
X90000Y10000I0J10000D01*
G01*
X5000Y200000D02*
G03*
X0Y195000I0J-5000D01*
G01*
X-0Y10000D02*
G03*
X10000Y0I10000J0D01*
G01*
X-0Y195000D02*
X0Y10000D01*
X5000Y200000D02*
X85000Y200000D01*
X90000Y10000D02*
X90000Y195000D01*
X10000Y0D02*
X80000Y0D01*
D113*
X55578Y16964D02*
Y18564D01*
X57178D01*
Y16964D01*
X55578D01*
X32822D02*
Y18564D01*
X34422D01*
Y16964D01*
X32822D01*
X74200Y24200D02*
X74600Y25000D01*
X74200Y25800D01*
X75000Y25400D01*
X75800Y25800D01*
X75400Y25000D01*
X75800Y24200D01*
X75000Y24600D01*
X74200Y24200D01*
X0Y194200D02*
X400Y194600D01*
X800D01*
X400Y195000D01*
X800Y195400D01*
X400D01*
X0Y195800D01*
X-400Y195400D01*
X-800D01*
X-400Y195000D01*
X-800Y194600D01*
X-400D01*
X0Y194200D01*
Y184200D02*
X400Y184600D01*
X800D01*
X400Y185000D01*
X800Y185400D01*
X400D01*
X0Y185800D01*
X-400Y185400D01*
X-800D01*
X-400Y185000D01*
X-800Y184600D01*
X-400D01*
X0Y184200D01*
X74200Y44200D02*
X74600Y45000D01*
X74200Y45800D01*
X75000Y45400D01*
X75800Y45800D01*
X75400Y45000D01*
X75800Y44200D01*
X75000Y44600D01*
X74200Y44200D01*
X0Y174200D02*
X400Y174600D01*
X800D01*
X400Y175000D01*
X800Y175400D01*
X400D01*
X0Y175800D01*
X-400Y175400D01*
X-800D01*
X-400Y175000D01*
X-800Y174600D01*
X-400D01*
X0Y174200D01*
Y164200D02*
X400Y164600D01*
X800D01*
X400Y165000D01*
X800Y165400D01*
X400D01*
X0Y165800D01*
X-400Y165400D01*
X-800D01*
X-400Y165000D01*
X-800Y164600D01*
X-400D01*
X0Y164200D01*
Y154200D02*
X400Y154600D01*
X800D01*
X400Y155000D01*
X800Y155400D01*
X400D01*
X0Y155800D01*
X-400Y155400D01*
X-800D01*
X-400Y155000D01*
X-800Y154600D01*
X-400D01*
X0Y154200D01*
Y144200D02*
X400Y144600D01*
X800D01*
X400Y145000D01*
X800Y145400D01*
X400D01*
X0Y145800D01*
X-400Y145400D01*
X-800D01*
X-400Y145000D01*
X-800Y144600D01*
X-400D01*
X0Y144200D01*
Y134200D02*
X400Y134600D01*
X800D01*
X400Y135000D01*
X800Y135400D01*
X400D01*
X0Y135800D01*
X-400Y135400D01*
X-800D01*
X-400Y135000D01*
X-800Y134600D01*
X-400D01*
X0Y134200D01*
Y124200D02*
X400Y124600D01*
X800D01*
X400Y125000D01*
X800Y125400D01*
X400D01*
X0Y125800D01*
X-400Y125400D01*
X-800D01*
X-400Y125000D01*
X-800Y124600D01*
X-400D01*
X0Y124200D01*
Y114200D02*
X400Y114600D01*
X800D01*
X400Y115000D01*
X800Y115400D01*
X400D01*
X0Y115800D01*
X-400Y115400D01*
X-800D01*
X-400Y115000D01*
X-800Y114600D01*
X-400D01*
X0Y114200D01*
Y104200D02*
X400Y104600D01*
X800D01*
X400Y105000D01*
X800Y105400D01*
X400D01*
X0Y105800D01*
X-400Y105400D01*
X-800D01*
X-400Y105000D01*
X-800Y104600D01*
X-400D01*
X0Y104200D01*
Y94200D02*
X400Y94600D01*
X800D01*
X400Y95000D01*
X800Y95400D01*
X400D01*
X0Y95800D01*
X-400Y95400D01*
X-800D01*
X-400Y95000D01*
X-800Y94600D01*
X-400D01*
X0Y94200D01*
Y84200D02*
X400Y84600D01*
X800D01*
X400Y85000D01*
X800Y85400D01*
X400D01*
X0Y85800D01*
X-400Y85400D01*
X-800D01*
X-400Y85000D01*
X-800Y84600D01*
X-400D01*
X0Y84200D01*
Y74200D02*
X400Y74600D01*
X800D01*
X400Y75000D01*
X800Y75400D01*
X400D01*
X0Y75800D01*
X-400Y75400D01*
X-800D01*
X-400Y75000D01*
X-800Y74600D01*
X-400D01*
X0Y74200D01*
Y64200D02*
X400Y64600D01*
X800D01*
X400Y65000D01*
X800Y65400D01*
X400D01*
X0Y65800D01*
X-400Y65400D01*
X-800D01*
X-400Y65000D01*
X-800Y64600D01*
X-400D01*
X0Y64200D01*
X90000Y24200D02*
X90400Y24600D01*
X90800D01*
X90400Y25000D01*
X90800Y25400D01*
X90400D01*
X90000Y25800D01*
X89600Y25400D01*
X89200D01*
X89600Y25000D01*
X89200Y24600D01*
X89600D01*
X90000Y24200D01*
Y34200D02*
X90400Y34600D01*
X90800D01*
X90400Y35000D01*
X90800Y35400D01*
X90400D01*
X90000Y35800D01*
X89600Y35400D01*
X89200D01*
X89600Y35000D01*
X89200Y34600D01*
X89600D01*
X90000Y34200D01*
Y44200D02*
X90400Y44600D01*
X90800D01*
X90400Y45000D01*
X90800Y45400D01*
X90400D01*
X90000Y45800D01*
X89600Y45400D01*
X89200D01*
X89600Y45000D01*
X89200Y44600D01*
X89600D01*
X90000Y44200D01*
Y54200D02*
X90400Y54600D01*
X90800D01*
X90400Y55000D01*
X90800Y55400D01*
X90400D01*
X90000Y55800D01*
X89600Y55400D01*
X89200D01*
X89600Y55000D01*
X89200Y54600D01*
X89600D01*
X90000Y54200D01*
Y64200D02*
X90400Y64600D01*
X90800D01*
X90400Y65000D01*
X90800Y65400D01*
X90400D01*
X90000Y65800D01*
X89600Y65400D01*
X89200D01*
X89600Y65000D01*
X89200Y64600D01*
X89600D01*
X90000Y64200D01*
Y74200D02*
X90400Y74600D01*
X90800D01*
X90400Y75000D01*
X90800Y75400D01*
X90400D01*
X90000Y75800D01*
X89600Y75400D01*
X89200D01*
X89600Y75000D01*
X89200Y74600D01*
X89600D01*
X90000Y74200D01*
Y84200D02*
X90400Y84600D01*
X90800D01*
X90400Y85000D01*
X90800Y85400D01*
X90400D01*
X90000Y85800D01*
X89600Y85400D01*
X89200D01*
X89600Y85000D01*
X89200Y84600D01*
X89600D01*
X90000Y84200D01*
Y94200D02*
X90400Y94600D01*
X90800D01*
X90400Y95000D01*
X90800Y95400D01*
X90400D01*
X90000Y95800D01*
X89600Y95400D01*
X89200D01*
X89600Y95000D01*
X89200Y94600D01*
X89600D01*
X90000Y94200D01*
Y104200D02*
X90400Y104600D01*
X90800D01*
X90400Y105000D01*
X90800Y105400D01*
X90400D01*
X90000Y105800D01*
X89600Y105400D01*
X89200D01*
X89600Y105000D01*
X89200Y104600D01*
X89600D01*
X90000Y104200D01*
Y114200D02*
X90400Y114600D01*
X90800D01*
X90400Y115000D01*
X90800Y115400D01*
X90400D01*
X90000Y115800D01*
X89600Y115400D01*
X89200D01*
X89600Y115000D01*
X89200Y114600D01*
X89600D01*
X90000Y114200D01*
Y124200D02*
X90400Y124600D01*
X90800D01*
X90400Y125000D01*
X90800Y125400D01*
X90400D01*
X90000Y125800D01*
X89600Y125400D01*
X89200D01*
X89600Y125000D01*
X89200Y124600D01*
X89600D01*
X90000Y124200D01*
Y134200D02*
X90400Y134600D01*
X90800D01*
X90400Y135000D01*
X90800Y135400D01*
X90400D01*
X90000Y135800D01*
X89600Y135400D01*
X89200D01*
X89600Y135000D01*
X89200Y134600D01*
X89600D01*
X90000Y134200D01*
Y144200D02*
X90400Y144600D01*
X90800D01*
X90400Y145000D01*
X90800Y145400D01*
X90400D01*
X90000Y145800D01*
X89600Y145400D01*
X89200D01*
X89600Y145000D01*
X89200Y144600D01*
X89600D01*
X90000Y144200D01*
Y154200D02*
X90400Y154600D01*
X90800D01*
X90400Y155000D01*
X90800Y155400D01*
X90400D01*
X90000Y155800D01*
X89600Y155400D01*
X89200D01*
X89600Y155000D01*
X89200Y154600D01*
X89600D01*
X90000Y154200D01*
Y164200D02*
X90400Y164600D01*
X90800D01*
X90400Y165000D01*
X90800Y165400D01*
X90400D01*
X90000Y165800D01*
X89600Y165400D01*
X89200D01*
X89600Y165000D01*
X89200Y164600D01*
X89600D01*
X90000Y164200D01*
X90000Y194200D02*
X90400Y194600D01*
X90800D01*
X90400Y195000D01*
X90800Y195400D01*
X90400D01*
X90000Y195800D01*
X89600Y195400D01*
X89200D01*
X89600Y195000D01*
X89200Y194600D01*
X89600D01*
X90000Y194200D01*
Y184200D02*
X90400Y184600D01*
X90800D01*
X90400Y185000D01*
X90800Y185400D01*
X90400D01*
X90000Y185800D01*
X89600Y185400D01*
X89200D01*
X89600Y185000D01*
X89200Y184600D01*
X89600D01*
X90000Y184200D01*
X90000Y174200D02*
X90400Y174600D01*
X90800D01*
X90400Y175000D01*
X90800Y175400D01*
X90400D01*
X90000Y175800D01*
X89600Y175400D01*
X89200D01*
X89600Y175000D01*
X89200Y174600D01*
X89600D01*
X90000Y174200D01*
X9200Y9200D02*
X9600D01*
X10000Y9600D01*
X10400Y9200D01*
X10800D01*
Y9600D01*
X10400Y10000D01*
X10800Y10400D01*
Y10800D01*
X10400D01*
X10000Y10400D01*
X9600Y10800D01*
X9200D01*
Y10400D01*
X9600Y10000D01*
X9200Y9600D01*
Y9200D01*
X79200D02*
X79600D01*
X80000Y9600D01*
X80400Y9200D01*
X80800D01*
Y9600D01*
X80400Y10000D01*
X80800Y10400D01*
Y10800D01*
X80400D01*
X80000Y10400D01*
X79600Y10800D01*
X79200D01*
Y10400D01*
X79600Y10000D01*
X79200Y9600D01*
Y9200D01*
X36810Y17588D02*
X36010Y19188D01*
X37610D01*
X36810Y17588D01*
X79332Y110559D02*
X78532Y112159D01*
X80132D01*
X79332Y110559D01*
X49382Y150086D02*
X48581Y151686D01*
X50182D01*
X49382Y150086D01*
X12795Y140932D02*
X11995Y142532D01*
X13595D01*
X12795Y140932D01*
X78583Y140330D02*
X77783Y141929D01*
X79383D01*
X78583Y140330D01*
X12992Y149987D02*
X12192Y151587D01*
X13792D01*
X12992Y149987D01*
X53534Y147528D02*
X52734Y149128D01*
X54334D01*
X53534Y147528D01*
X16142Y24397D02*
X15342Y25997D01*
X16942D01*
X16142Y24397D01*
X62598Y58895D02*
X61798Y60495D01*
X63398D01*
X62598Y58895D01*
X64220Y62418D02*
X63420Y64018D01*
X65020D01*
X64220Y62418D01*
X65354Y60617D02*
X64554Y62217D01*
X66154D01*
X65354Y60617D01*
X77953Y56680D02*
X77153Y58280D01*
X78753D01*
X77953Y56680D01*
X64567Y57074D02*
X63767Y58674D01*
X65367D01*
X64567Y57074D01*
X10630Y40932D02*
X9830Y42532D01*
X11430D01*
X10630Y40932D01*
X14567D02*
X13767Y42532D01*
X15367D01*
X14567Y40932D01*
X56540Y58243D02*
X55740Y59843D01*
X57340D01*
X56540Y58243D01*
X5000Y24200D02*
X4200Y25800D01*
X5800D01*
X5000Y24200D01*
Y39200D02*
X4200Y40800D01*
X5800D01*
X5000Y39200D01*
X70472Y98019D02*
X69672Y99619D01*
X71272D01*
X70472Y98019D01*
X71033Y94279D02*
X70232Y95879D01*
X71833D01*
X71033Y94279D01*
X62500Y85231D02*
X61700Y86831D01*
X63300D01*
X62500Y85231D01*
X51425Y85347D02*
X50625Y86947D01*
X52226D01*
X51425Y85347D01*
X53740Y64751D02*
X52940Y66351D01*
X54540D01*
X53740Y64751D01*
X43504Y34043D02*
X42704Y35643D01*
X44304D01*
X43504Y34043D01*
X57874Y31090D02*
X57074Y32690D01*
X58674D01*
X57874Y31090D01*
Y28334D02*
X57074Y29934D01*
X58674D01*
X57874Y28334D01*
X23593Y61798D02*
X22793Y63398D01*
X24393D01*
X23593Y61798D01*
X66905Y96046D02*
X66105Y97646D01*
X67705D01*
X66905Y96046D01*
X32997Y98703D02*
X32197Y100303D01*
X33797D01*
X32997Y98703D01*
X54242Y92958D02*
X53442Y94558D01*
X55042D01*
X54242Y92958D01*
X12500Y83700D02*
X11700Y85300D01*
X13300D01*
X12500Y83700D01*
X24000Y85700D02*
X23200Y87300D01*
X24800D01*
X24000Y85700D01*
X20500Y97200D02*
X19700Y98800D01*
X21300D01*
X20500Y97200D01*
X19056Y105962D02*
X18256Y107562D01*
X19856D01*
X19056Y105962D01*
X51500Y98590D02*
X50700Y100190D01*
X52300D01*
X51500Y98590D01*
X29985Y85705D02*
X29185Y87305D01*
X30785D01*
X29985Y85705D01*
X54500Y101700D02*
X53700Y103300D01*
X55300D01*
X54500Y101700D01*
X70079Y103922D02*
X69279Y105523D01*
X70879D01*
X70079Y103922D01*
X69685Y106451D02*
X68885Y108051D01*
X70485D01*
X69685Y106451D01*
X67500Y102200D02*
X66700Y103800D01*
X68300D01*
X67500Y102200D01*
X41000Y62200D02*
X40200Y63800D01*
X41800D01*
X41000Y62200D01*
X59500Y58700D02*
X58700Y60300D01*
X60300D01*
X59500Y58700D01*
X15500Y140700D02*
X14700Y142300D01*
X16300D01*
X15500Y140700D01*
X77953Y52350D02*
X77153Y53950D01*
X78753D01*
X77953Y52350D01*
X75000Y66700D02*
X74200Y68300D01*
X75800D01*
X75000Y66700D01*
X77000D02*
X76200Y68300D01*
X77800D01*
X77000Y66700D01*
X80491Y70715D02*
X79691Y72315D01*
X81291D01*
X80491Y70715D01*
X35063Y53137D02*
X34263Y54737D01*
X35863D01*
X35063Y53137D01*
X53500Y53700D02*
X52700Y55300D01*
X54300D01*
X53500Y53700D01*
X15477Y77700D02*
X14677Y79300D01*
X16277D01*
X15477Y77700D01*
X34500Y33200D02*
X33700Y34800D01*
X35300D01*
X34500Y33200D01*
X35000Y50700D02*
X34200Y52300D01*
X35800D01*
X35000Y50700D01*
X31102Y51562D02*
X30302Y53162D01*
X31902D01*
X31102Y51562D01*
X51181Y145920D02*
X50381Y147520D01*
X51981D01*
X51181Y145920D01*
X65281Y14554D02*
X64481Y16154D01*
X66081D01*
X65281Y14554D01*
X63686Y112251D02*
X62886Y113851D01*
X64486D01*
X63686Y112251D01*
X52756Y154318D02*
X51956Y155918D01*
X53556D01*
X52756Y154318D01*
X18504Y44869D02*
X17704Y46469D01*
X19304D01*
X18504Y44869D01*
X28346Y56877D02*
X27547Y58477D01*
X29147D01*
X28346Y56877D01*
X66969Y42849D02*
X66169Y44449D01*
X67769D01*
X66969Y42849D01*
X17717Y55499D02*
X16917Y57099D01*
X18517D01*
X17717Y55499D01*
X8268Y49987D02*
X7468Y51587D01*
X9068D01*
X8268Y49987D01*
X18504D02*
X17704Y51587D01*
X19304D01*
X18504Y49987D01*
X35453Y146149D02*
X34653Y147749D01*
X36253D01*
X35453Y146149D01*
X71935Y19954D02*
X71135Y21554D01*
X72736D01*
X71935Y19954D01*
X70179Y44476D02*
X69379Y46076D01*
X70979D01*
X70179Y44476D01*
X19016Y89869D02*
X18216Y91469D01*
X19816D01*
X19016Y89869D01*
X76378Y152350D02*
X75578Y153950D01*
X77178D01*
X76378Y152350D01*
X74410Y150381D02*
X73610Y151981D01*
X75209D01*
X74410Y150381D01*
X9547Y196247D02*
X8747Y197847D01*
X10347D01*
X9547Y196247D01*
X12255Y166917D02*
X11455Y168517D01*
X13055D01*
X12255Y166917D01*
X19291Y150013D02*
X18491Y151613D01*
X20091D01*
X19291Y150013D01*
X33516Y137103D02*
X32716Y138703D01*
X34316D01*
X33516Y137103D01*
X18504Y152448D02*
X17704Y154048D01*
X19304D01*
X18504Y152448D01*
X30691Y134715D02*
X29890Y136315D01*
X31490D01*
X30691Y134715D01*
X18559Y161011D02*
X17759Y162611D01*
X19359D01*
X18559Y161011D01*
X16449Y170079D02*
X15649Y171678D01*
X17249D01*
X16449Y170079D01*
X77704Y195686D02*
X76904Y197286D01*
X78504D01*
X77704Y195686D01*
X71083Y196464D02*
X70283Y198064D01*
X71883D01*
X71083Y196464D01*
X13780Y159043D02*
X12979Y160643D01*
X14580D01*
X13780Y159043D01*
X18504Y157566D02*
X17704Y159166D01*
X19304D01*
X18504Y157566D01*
Y155007D02*
X17704Y156607D01*
X19304D01*
X18504Y155007D01*
X36300Y133449D02*
X35500Y135049D01*
X37100D01*
X36300Y133449D01*
X27152Y137266D02*
X26352Y138866D01*
X27952D01*
X27152Y137266D01*
X31890Y128728D02*
X31090Y130328D01*
X32690D01*
X31890Y128728D01*
X40059Y136177D02*
X39259Y137777D01*
X40859D01*
X40059Y136177D01*
X38811Y133943D02*
X38011Y135543D01*
X39611D01*
X38811Y133943D01*
X28268Y164239D02*
X27468Y165839D01*
X29068D01*
X28268Y164239D01*
Y169869D02*
X27468Y171469D01*
X29068D01*
X28268Y169869D01*
X59764Y184535D02*
X58964Y186135D01*
X60564D01*
X59764Y184535D01*
X22047Y133038D02*
X21247Y134638D01*
X22847D01*
X22047Y133038D01*
X32047Y126173D02*
X31247Y127773D01*
X32847D01*
X32047Y126173D01*
X26597Y146104D02*
X25797Y147704D01*
X27397D01*
X26597Y146104D01*
X33711Y149494D02*
X32911Y151094D01*
X34511D01*
X33711Y149494D01*
X65587Y24003D02*
X64787Y25603D01*
X66387D01*
X65587Y24003D01*
X52756Y14161D02*
X51956Y15761D01*
X53556D01*
X52756Y14161D01*
X40157Y17310D02*
X39358Y18910D01*
X40957D01*
X40157Y17310D01*
X50000Y16917D02*
X49200Y18517D01*
X50800D01*
X50000Y16917D01*
X25315Y56685D02*
X24515Y58285D01*
X26115D01*
X25315Y56685D01*
X37008Y101562D02*
X36208Y103162D01*
X37808D01*
X37008Y101562D01*
X62992Y106680D02*
X62192Y108280D01*
X63792D01*
X62992Y106680D01*
X63873Y109428D02*
X63073Y111028D01*
X64673D01*
X63873Y109428D01*
X67716Y114161D02*
X66917Y115761D01*
X68516D01*
X67716Y114161D01*
Y111405D02*
X66917Y113005D01*
X68516D01*
X67716Y111405D01*
X70423Y108964D02*
X69623Y110564D01*
X71223D01*
X70423Y108964D01*
X42707Y136453D02*
X41907Y138054D01*
X43507D01*
X42707Y136453D01*
X41112Y165291D02*
X40312Y166891D01*
X41912D01*
X41112Y165291D01*
X33520Y152341D02*
X32720Y153941D01*
X34320D01*
X33520Y152341D01*
X31496Y150775D02*
X30696Y152375D01*
X32296D01*
X31496Y150775D01*
X32557Y154712D02*
X31757Y156312D01*
X33357D01*
X32557Y154712D01*
X48819Y120853D02*
X48019Y122453D01*
X49619D01*
X48819Y120853D01*
X47244Y101562D02*
X46444Y103162D01*
X48044D01*
X47244Y101562D01*
X40945Y105105D02*
X40145Y106705D01*
X41745D01*
X40945Y105105D01*
X50000Y133452D02*
X49200Y135052D01*
X50800D01*
X50000Y133452D01*
X53937Y133846D02*
X53137Y135446D01*
X54737D01*
X53937Y133846D01*
X54724Y121247D02*
X53924Y122847D01*
X55524D01*
X54724Y121247D01*
X32047Y109629D02*
X31247Y111229D01*
X32847D01*
X32047Y109629D01*
X46457Y136602D02*
X45657Y138202D01*
X47257D01*
X46457Y136602D01*
X13386Y179121D02*
X12586Y180721D01*
X14186D01*
X13386Y179121D01*
X15748D02*
X14948Y180721D01*
X16548D01*
X15748Y179121D01*
X20079Y92507D02*
X19279Y94107D01*
X20879D01*
X20079Y92507D01*
X18917Y94791D02*
X18117Y96390D01*
X19717D01*
X18917Y94791D01*
X25197Y185027D02*
X24397Y186627D01*
X25997D01*
X25197Y185027D01*
X51181Y40932D02*
X50381Y42532D01*
X51981D01*
X51181Y40932D01*
X49213Y42507D02*
X48413Y44107D01*
X50013D01*
X49213Y42507D01*
X51181Y47625D02*
X50381Y49225D01*
X51981D01*
X51181Y47625D01*
X35433Y62192D02*
X34633Y63792D01*
X36233D01*
X35433Y62192D01*
X33071Y61011D02*
X32271Y62611D01*
X33871D01*
X33071Y61011D01*
X72835Y27940D02*
X72035Y29540D01*
X73635D01*
X72835Y27940D01*
X70866Y37783D02*
X70066Y39383D01*
X71666D01*
X70866Y37783D01*
Y40932D02*
X70066Y42532D01*
X71666D01*
X70866Y40932D01*
X62205Y46444D02*
X61405Y48044D01*
X63005D01*
X62205Y46444D01*
X62157Y50200D02*
X61357Y51800D01*
X62958D01*
X62157Y50200D01*
X43504Y36799D02*
X42704Y38399D01*
X44304D01*
X43504Y36799D01*
X19921Y2153D02*
X19121Y3753D01*
X20721D01*
X19921Y2153D01*
X70079D02*
X69279Y3753D01*
X70879D01*
X70079Y2153D01*
X60111Y17212D02*
X59311Y18812D01*
X60911D01*
X60111Y17212D01*
X29921Y17187D02*
X29121Y18787D01*
X30721D01*
X29921Y17187D01*
X73228Y148019D02*
X72428Y149619D01*
X74028D01*
X73228Y148019D01*
X70866Y130696D02*
X70066Y132296D01*
X71666D01*
X70866Y130696D01*
X25591Y120460D02*
X24791Y122060D01*
X26391D01*
X25591Y120460D01*
X70965Y119279D02*
X70165Y120879D01*
X71765D01*
X70965Y119279D01*
X9843Y119672D02*
X9042Y121272D01*
X10643D01*
X9843Y119672D01*
X9921Y127861D02*
X9121Y129461D01*
X10721D01*
X9921Y127861D01*
X10236Y130696D02*
X9436Y132296D01*
X11036D01*
X10236Y130696D01*
X25591Y123216D02*
X24791Y124816D01*
X26391D01*
X25591Y123216D01*
X64961Y121641D02*
X64161Y123241D01*
X65761D01*
X64961Y121641D01*
X63386Y119279D02*
X62586Y120879D01*
X64186D01*
X63386Y119279D01*
X65748Y129515D02*
X64948Y131115D01*
X66548D01*
X65748Y129515D01*
X64567Y127153D02*
X63767Y128753D01*
X65367D01*
X64567Y127153D01*
X63779Y124397D02*
X62980Y125997D01*
X64579D01*
X63779Y124397D01*
X64173Y116523D02*
X63373Y118123D01*
X64973D01*
X64173Y116523D01*
X71260Y146050D02*
X70460Y147650D01*
X72060D01*
X71260Y146050D01*
X32283Y166523D02*
X31484Y168123D01*
X33084D01*
X32283Y166523D01*
X22047Y114161D02*
X21247Y115761D01*
X22847D01*
X22047Y114161D01*
X25591D02*
X24791Y115761D01*
X26391D01*
X25591Y114161D01*
X79716Y116838D02*
X78917Y118438D01*
X80516D01*
X79716Y116838D01*
X46016Y27499D02*
X45216Y29099D01*
X46816D01*
X46016Y27499D01*
X43150Y27153D02*
X42350Y28753D01*
X43950D01*
X43150Y27153D01*
X72047Y77547D02*
X71247Y79146D01*
X72847D01*
X72047Y77547D01*
X57480Y172035D02*
X56680Y173635D01*
X58280D01*
X57480Y172035D01*
Y168098D02*
X56680Y169698D01*
X58280D01*
X57480Y168098D01*
X59055Y164161D02*
X58255Y165761D01*
X59855D01*
X59055Y164161D01*
X64173Y185027D02*
X63373Y186627D01*
X64973D01*
X64173Y185027D01*
X48888Y173088D02*
X48088Y174688D01*
X49688D01*
X48888Y173088D01*
X41112D02*
X40312Y174688D01*
X41912D01*
X41112Y173088D01*
X42913Y146838D02*
X42113Y148438D01*
X43713D01*
X42913Y146838D01*
X18917Y196464D02*
X18117Y198064D01*
X19717D01*
X18917Y196464D01*
X63447Y192348D02*
X62647Y193948D01*
X64247D01*
X63447Y192348D01*
X60236Y190539D02*
X59436Y192139D01*
X61036D01*
X60236Y190539D01*
X57589Y192413D02*
X56789Y194014D01*
X58389D01*
X57589Y192413D01*
X54388Y191105D02*
X53588Y192705D01*
X55188D01*
X54388Y191105D01*
X51116Y192655D02*
X50316Y194255D01*
X51916D01*
X51116Y192655D01*
X48425Y191326D02*
X47625Y192926D01*
X49225D01*
X48425Y191326D01*
X44819Y192523D02*
X44019Y194123D01*
X45619D01*
X44819Y192523D01*
X42126Y191326D02*
X41326Y192926D01*
X42926D01*
X42126Y191326D01*
X38851Y192611D02*
X38052Y194211D01*
X39652D01*
X38851Y192611D01*
X35319Y192699D02*
X34519Y194299D01*
X36119D01*
X35319Y192699D01*
X33858Y190145D02*
X33058Y191745D01*
X34658D01*
X33858Y190145D01*
X36614Y190539D02*
X35814Y192139D01*
X37414D01*
X36614Y190539D01*
X31830Y192501D02*
X31030Y194101D01*
X32631D01*
X31830Y192501D01*
X30709Y189357D02*
X29909Y190957D01*
X31509D01*
X30709Y189357D01*
X28740Y192113D02*
X27940Y193713D01*
X29540D01*
X28740Y192113D01*
X25591Y189751D02*
X24791Y191351D01*
X26391D01*
X25591Y189751D01*
X25599Y192413D02*
X24799Y194014D01*
X26399D01*
X25599Y192413D01*
X79528Y131090D02*
X78728Y132690D01*
X80328D01*
X79528Y131090D01*
X79350Y134161D02*
X78550Y135761D01*
X80150D01*
X79350Y134161D01*
X71476Y157487D02*
X70676Y159087D01*
X72276D01*
X71476Y157487D01*
X30236Y184633D02*
X29436Y186233D01*
X31036D01*
X30236Y184633D01*
X53858D02*
X53058Y186233D01*
X54658D01*
X53858Y184633D01*
X47953D02*
X47153Y186233D01*
X48753D01*
X47953Y184633D01*
X42047D02*
X41247Y186233D01*
X42847D01*
X42047Y184633D01*
X36142D02*
X35342Y186233D01*
X36942D01*
X36142Y184633D01*
X32283Y172428D02*
X31484Y174028D01*
X33084D01*
X32283Y172428D01*
X45472Y149795D02*
X44672Y151395D01*
X46272D01*
X45472Y149795D01*
X19685Y127940D02*
X18885Y129540D01*
X20485D01*
X19685Y127940D01*
X79744Y86917D02*
X78944Y88516D01*
X80544D01*
X79744Y86917D01*
Y107389D02*
X78944Y108989D01*
X80544D01*
X79744Y107389D01*
Y91641D02*
X78944Y93241D01*
X80544D01*
X79744Y91641D01*
D114*
X5800Y195000D02*
G03*
X5800Y195000I-800J0D01*
G01*
Y185000D02*
G03*
X5800Y185000I-800J0D01*
G01*
X85800Y145000D02*
G03*
X85800Y145000I-800J0D01*
G01*
Y155000D02*
G03*
X85800Y155000I-800J0D01*
G01*
Y165000D02*
G03*
X85800Y165000I-800J0D01*
G01*
Y175000D02*
G03*
X85800Y175000I-800J0D01*
G01*
Y135000D02*
G03*
X85800Y135000I-800J0D01*
G01*
Y125000D02*
G03*
X85800Y125000I-800J0D01*
G01*
Y115000D02*
G03*
X85800Y115000I-800J0D01*
G01*
Y105000D02*
G03*
X85800Y105000I-800J0D01*
G01*
Y65000D02*
G03*
X85800Y65000I-800J0D01*
G01*
Y75000D02*
G03*
X85800Y75000I-800J0D01*
G01*
Y85000D02*
G03*
X85800Y85000I-800J0D01*
G01*
Y95000D02*
G03*
X85800Y95000I-800J0D01*
G01*
Y25000D02*
G03*
X85800Y25000I-800J0D01*
G01*
Y35000D02*
G03*
X85800Y35000I-800J0D01*
G01*
Y45000D02*
G03*
X85800Y45000I-800J0D01*
G01*
Y55000D02*
G03*
X85800Y55000I-800J0D01*
G01*
X5800Y85000D02*
G03*
X5800Y85000I-800J0D01*
G01*
Y95000D02*
G03*
X5800Y95000I-800J0D01*
G01*
Y125000D02*
G03*
X5800Y125000I-800J0D01*
G01*
Y115000D02*
G03*
X5800Y115000I-800J0D01*
G01*
Y135000D02*
G03*
X5800Y135000I-800J0D01*
G01*
Y145000D02*
G03*
X5800Y145000I-800J0D01*
G01*
Y155000D02*
G03*
X5800Y155000I-800J0D01*
G01*
Y165000D02*
G03*
X5800Y165000I-800J0D01*
G01*
Y175000D02*
G03*
X5800Y175000I-800J0D01*
G01*
Y105000D02*
G03*
X5800Y105000I-800J0D01*
G01*
Y75000D02*
G03*
X5800Y75000I-800J0D01*
G01*
Y65000D02*
G03*
X5800Y65000I-800J0D01*
G01*
X85800Y185000D02*
G03*
X85800Y185000I-800J0D01*
G01*
Y195000D02*
G03*
X85800Y195000I-800J0D01*
G01*
M02*
