G04*
G04 #@! TF.GenerationSoftware,Altium Limited,Altium Designer,25.0.1 (26)*
G04*
G04 Layer_Color=8421504*
%FSLAX25Y25*%
%MOIN*%
G70*
G04*
G04 #@! TF.SameCoordinates,5D196012-D927-4492-92D9-CD159FF3DA83*
G04*
G04*
G04 #@! TF.FilePolarity,Positive*
G04*
G01*
G75*
%ADD14C,0.00394*%
%ADD17R,0.07087X0.04724*%
%ADD18R,0.07087X0.05709*%
%ADD19R,0.01181X0.05709*%
%ADD20R,0.03543X0.03150*%
%ADD21R,0.04331X0.02362*%
%ADD22R,0.12205X0.05512*%
%ADD23R,0.13386X0.05906*%
%ADD24R,0.04528X0.04134*%
%ADD25R,0.03347X0.07874*%
%ADD26R,0.02756X0.06693*%
%ADD27R,0.01378X0.02953*%
%ADD28R,0.02362X0.01968*%
%ADD29O,0.00984X0.03347*%
%ADD30O,0.03347X0.00984*%
%ADD31R,0.06496X0.06496*%
%ADD32C,0.02756*%
%ADD33R,0.02362X0.01575*%
%ADD34R,0.02953X0.08268*%
%ADD35R,0.02756X0.02756*%
%ADD36R,0.03150X0.01575*%
%ADD37R,0.01575X0.03150*%
%ADD38R,0.05709X0.05709*%
%ADD39R,0.03937X0.04331*%
%ADD40R,0.01968X0.02362*%
%ADD41R,0.04331X0.03937*%
G36*
X40079Y182697D02*
X34370D01*
Y186043D01*
X36732Y188406D01*
X40079D01*
Y182697D01*
D02*
G37*
D14*
X90000Y195000D02*
G03*
X85000Y200000I-5000J0D01*
G01*
X80000Y-0D02*
G03*
X90000Y10000I0J10000D01*
G01*
X5000Y200000D02*
G03*
X0Y195000I0J-5000D01*
G01*
X-0Y10000D02*
G03*
X10000Y0I10000J0D01*
G01*
X-0Y195000D02*
X0Y10000D01*
X5000Y200000D02*
X85000Y200000D01*
X90000Y10000D02*
X90000Y195000D01*
X10000Y0D02*
X80000Y0D01*
D17*
X64961Y3396D02*
D03*
X25039D02*
D03*
D18*
Y19852D02*
D03*
X64961D02*
D03*
D19*
X31713Y23455D02*
D03*
X32894Y23455D02*
D03*
X57106Y23455D02*
D03*
X58287Y23455D02*
D03*
X55039Y23455D02*
D03*
X53858Y23455D02*
D03*
X51890D02*
D03*
X49921D02*
D03*
X47953Y23455D02*
D03*
X45984D02*
D03*
X44016D02*
D03*
X42047D02*
D03*
X40079Y23455D02*
D03*
X38110D02*
D03*
X36142Y23455D02*
D03*
X34961Y23455D02*
D03*
D20*
X22972Y102697D02*
D03*
X29469Y107618D02*
D03*
X22972Y107618D02*
D03*
X29469Y102697D02*
D03*
D21*
X21890Y118347D02*
D03*
Y123858D02*
D03*
D22*
X7756Y55492D02*
D03*
Y29508D02*
D03*
D23*
X30000Y46437D02*
D03*
Y38563D02*
D03*
D24*
X24114Y95768D02*
D03*
Y90059D02*
D03*
X37303Y95768D02*
D03*
Y90059D02*
D03*
X47343Y95768D02*
D03*
Y90059D02*
D03*
X60532Y95768D02*
D03*
Y90059D02*
D03*
D25*
X69784Y30709D02*
D03*
X63287D02*
D03*
D26*
X39370Y78347D02*
D03*
X33858D02*
D03*
X69095D02*
D03*
X63583D02*
D03*
D27*
X25591Y70079D02*
D03*
X27559D02*
D03*
X29528D02*
D03*
Y75590D02*
D03*
X27559D02*
D03*
X25591D02*
D03*
X55315D02*
D03*
X57284D02*
D03*
X59252D02*
D03*
Y70079D02*
D03*
X57284D02*
D03*
X55315D02*
D03*
D28*
X42500Y88032D02*
D03*
Y91969D02*
D03*
X18504Y113098D02*
D03*
Y109161D02*
D03*
X22441Y131496D02*
D03*
Y127559D02*
D03*
X29134Y116142D02*
D03*
Y120079D02*
D03*
X12992Y124803D02*
D03*
Y120866D02*
D03*
X77165Y93701D02*
D03*
Y97638D02*
D03*
X76378Y131102D02*
D03*
Y135039D02*
D03*
X53937Y83465D02*
D03*
Y79528D02*
D03*
X25394Y79724D02*
D03*
Y83661D02*
D03*
X50000Y57874D02*
D03*
Y53937D02*
D03*
X39764Y57874D02*
D03*
Y53937D02*
D03*
X43307Y57874D02*
D03*
Y53937D02*
D03*
X70866Y50394D02*
D03*
Y54331D02*
D03*
X39764Y46063D02*
D03*
Y50000D02*
D03*
X46457Y53937D02*
D03*
Y57874D02*
D03*
X61024Y112992D02*
D03*
Y116929D02*
D03*
X12205Y194095D02*
D03*
Y198031D02*
D03*
X74000Y188031D02*
D03*
Y191969D02*
D03*
X57480Y83465D02*
D03*
Y79528D02*
D03*
X56299Y148425D02*
D03*
Y152362D02*
D03*
X59842Y148425D02*
D03*
Y152362D02*
D03*
X74410Y54331D02*
D03*
Y50394D02*
D03*
X74016Y171260D02*
D03*
Y167323D02*
D03*
X77559Y171260D02*
D03*
Y167323D02*
D03*
D29*
X57236Y43421D02*
D03*
X59205D02*
D03*
X61173D02*
D03*
X63142D02*
D03*
Y54642D02*
D03*
X61173D02*
D03*
X59205D02*
D03*
X57236D02*
D03*
D30*
X65799Y46079D02*
D03*
X65799Y48047D02*
D03*
Y50016D02*
D03*
Y51984D02*
D03*
X54579D02*
D03*
Y50016D02*
D03*
Y48047D02*
D03*
Y46079D02*
D03*
D31*
X60189Y49031D02*
D03*
D32*
X67736Y89917D02*
D03*
X72264Y100390D02*
D03*
X67736D02*
D03*
X72264Y89917D02*
D03*
D33*
X74016Y194882D02*
D03*
Y198031D02*
D03*
X24646Y13160D02*
D03*
Y10010D02*
D03*
X65354Y10010D02*
D03*
X65354Y13160D02*
D03*
X16142Y194882D02*
D03*
Y198031D02*
D03*
D34*
X35000Y113032D02*
D03*
X40000D02*
D03*
X45000D02*
D03*
X50000D02*
D03*
X55000D02*
D03*
Y128386D02*
D03*
X50000D02*
D03*
X45000D02*
D03*
X40000D02*
D03*
X35000D02*
D03*
D35*
X21575Y197264D02*
D03*
Y158287D02*
D03*
X68425Y197264D02*
D03*
Y158287D02*
D03*
D36*
X21772Y193524D02*
D03*
Y190374D02*
D03*
Y187224D02*
D03*
Y184075D02*
D03*
Y180925D02*
D03*
Y177776D02*
D03*
Y174626D02*
D03*
Y171476D02*
D03*
Y168327D02*
D03*
Y165177D02*
D03*
Y162028D02*
D03*
X68228D02*
D03*
Y165177D02*
D03*
Y168327D02*
D03*
Y171476D02*
D03*
Y174626D02*
D03*
Y177776D02*
D03*
Y180925D02*
D03*
Y184075D02*
D03*
Y187224D02*
D03*
Y190374D02*
D03*
Y193524D02*
D03*
D37*
X26102Y158484D02*
D03*
X29252D02*
D03*
X32402D02*
D03*
X35551D02*
D03*
X38701D02*
D03*
X41850D02*
D03*
X45000D02*
D03*
X48150D02*
D03*
X51299D02*
D03*
X54449D02*
D03*
X57598D02*
D03*
X60748D02*
D03*
X63898D02*
D03*
Y197067D02*
D03*
X60748D02*
D03*
X57598D02*
D03*
X54449D02*
D03*
X51299D02*
D03*
X48150D02*
D03*
X45000D02*
D03*
X41850D02*
D03*
X38701D02*
D03*
X35551D02*
D03*
X32402D02*
D03*
X29252D02*
D03*
X26102D02*
D03*
D38*
X45000Y177776D02*
D03*
Y185551D02*
D03*
X52776D02*
D03*
Y177776D02*
D03*
Y170000D02*
D03*
X45000D02*
D03*
X37224D02*
D03*
Y177776D02*
D03*
D39*
X44882Y42716D02*
D03*
X44882Y49409D02*
D03*
X14567Y183267D02*
D03*
X14567Y189960D02*
D03*
X75591Y31693D02*
D03*
X75591Y38385D02*
D03*
D40*
X16142Y173622D02*
D03*
X12205D02*
D03*
X29528Y112205D02*
D03*
X25591D02*
D03*
X73228Y109449D02*
D03*
X77165D02*
D03*
X73228Y112992D02*
D03*
X77165D02*
D03*
X12992Y131496D02*
D03*
X16929D02*
D03*
X12992Y127953D02*
D03*
X16929D02*
D03*
X77165Y138976D02*
D03*
X73228D02*
D03*
X17968Y87000D02*
D03*
X14031D02*
D03*
X73228Y105905D02*
D03*
X77165D02*
D03*
X73228Y116535D02*
D03*
X77165D02*
D03*
X73228Y120079D02*
D03*
X77165D02*
D03*
X60039Y65748D02*
D03*
X56102D02*
D03*
X60039Y62205D02*
D03*
X56102D02*
D03*
X30315Y66142D02*
D03*
X26378D02*
D03*
X30315Y62598D02*
D03*
X26378D02*
D03*
X21654Y83071D02*
D03*
X17717D02*
D03*
X47441Y75984D02*
D03*
X51378D02*
D03*
X47441Y68504D02*
D03*
X51378D02*
D03*
Y64961D02*
D03*
X47441D02*
D03*
X29331Y79724D02*
D03*
X25394D02*
D03*
X17717Y79528D02*
D03*
X21654D02*
D03*
X17717Y75984D02*
D03*
X21654D02*
D03*
Y68504D02*
D03*
X17717D02*
D03*
Y64961D02*
D03*
X21654D02*
D03*
X47441Y72441D02*
D03*
X51378D02*
D03*
X17717D02*
D03*
X21654D02*
D03*
X13032Y135000D02*
D03*
X16969D02*
D03*
X46457Y135039D02*
D03*
X42520D02*
D03*
X16969Y138500D02*
D03*
X13032D02*
D03*
X12205Y177165D02*
D03*
X16142D02*
D03*
D41*
X72048Y71654D02*
D03*
X65355Y71654D02*
D03*
X72048Y66536D02*
D03*
X65355Y66536D02*
D03*
X41536Y66536D02*
D03*
X34843Y66536D02*
D03*
X41536Y71654D02*
D03*
X34843Y71654D02*
D03*
X53741Y36221D02*
D03*
X47048D02*
D03*
X59645Y38189D02*
D03*
X66338D02*
D03*
M02*
