G04*
G04 #@! TF.GenerationSoftware,Altium Limited,Altium Designer,25.0.1 (26)*
G04*
G04 Layer_Color=8388736*
%FSLAX25Y25*%
%MOIN*%
G70*
G04*
G04 #@! TF.SameCoordinates,5D196012-D927-4492-92D9-CD159FF3DA83*
G04*
G04*
G04 #@! TF.FilePolarity,Positive*
G04*
G01*
G75*
%ADD10C,0.00984*%
%ADD14C,0.00394*%
%ADD111C,0.01000*%
%ADD112C,0.00600*%
D10*
X-222442Y-194884D02*
X-226378D01*
Y-200787D01*
X-222442D01*
X-226378Y-197836D02*
X-224410D01*
X-220474Y-202755D02*
Y-196852D01*
X-217523D01*
X-216539Y-197836D01*
Y-199803D01*
X-217523Y-200787D01*
X-220474D01*
X-213587D02*
X-211619D01*
X-210635Y-199803D01*
Y-197836D01*
X-211619Y-196852D01*
X-213587D01*
X-214571Y-197836D01*
Y-199803D01*
X-213587Y-200787D01*
X-208667Y-196852D02*
X-204731Y-200787D01*
X-206699Y-198819D01*
X-204731Y-196852D01*
X-208667Y-200787D01*
X-202764Y-196852D02*
Y-199803D01*
X-201780Y-200787D01*
X-198828D01*
Y-201771D01*
X-199812Y-202755D01*
X-200796D01*
X-198828Y-200787D02*
Y-196852D01*
X-189972Y-200787D02*
Y-195868D01*
Y-197836D01*
X-190956D01*
X-188988D01*
X-189972D01*
Y-195868D01*
X-188988Y-194884D01*
X-186037Y-200787D02*
X-184069D01*
X-185053D01*
Y-196852D01*
X-186037D01*
X-181117Y-200787D02*
X-179149D01*
X-180133D01*
Y-194884D01*
X-181117D01*
X-176197Y-200787D02*
X-174230D01*
X-175213D01*
Y-194884D01*
X-176197D01*
X-168326Y-200787D02*
X-170294D01*
X-171278Y-199803D01*
Y-197836D01*
X-170294Y-196852D01*
X-168326D01*
X-167342Y-197836D01*
Y-198819D01*
X-171278D01*
X-161438Y-194884D02*
Y-200787D01*
X-164390D01*
X-165374Y-199803D01*
Y-197836D01*
X-164390Y-196852D01*
X-161438D01*
X-149631Y-200787D02*
X-150615Y-199803D01*
X-151599Y-200787D01*
X-152583D01*
X-153567Y-199803D01*
Y-198819D01*
X-152583Y-197836D01*
X-153567Y-196852D01*
Y-195868D01*
X-152583Y-194884D01*
X-151599D01*
X-150615Y-195868D01*
Y-196852D01*
X-151599Y-197836D01*
X-150615Y-198819D01*
Y-199803D01*
X-149631Y-197836D02*
X-150615Y-198819D01*
X-152583Y-197836D02*
X-151599D01*
X-137824Y-196852D02*
X-140776D01*
X-141760Y-197836D01*
Y-199803D01*
X-140776Y-200787D01*
X-137824D01*
X-134872Y-196852D02*
X-132904D01*
X-131920Y-197836D01*
Y-200787D01*
X-134872D01*
X-135856Y-199803D01*
X-134872Y-198819D01*
X-131920D01*
X-129953Y-202755D02*
Y-196852D01*
X-127001D01*
X-126017Y-197836D01*
Y-199803D01*
X-127001Y-200787D01*
X-129953D01*
X-124049Y-202755D02*
Y-196852D01*
X-121097D01*
X-120113Y-197836D01*
Y-199803D01*
X-121097Y-200787D01*
X-124049D01*
X-115193D02*
X-117161D01*
X-118145Y-199803D01*
Y-197836D01*
X-117161Y-196852D01*
X-115193D01*
X-114209Y-197836D01*
Y-198819D01*
X-118145D01*
X-108306Y-194884D02*
Y-200787D01*
X-111258D01*
X-112242Y-199803D01*
Y-197836D01*
X-111258Y-196852D01*
X-108306D01*
X-100435D02*
X-98467Y-200787D01*
X-96499Y-196852D01*
X-94531Y-200787D02*
X-92563D01*
X-93547D01*
Y-196852D01*
X-94531D01*
X-88627D02*
X-86659D01*
X-85676Y-197836D01*
Y-200787D01*
X-88627D01*
X-89611Y-199803D01*
X-88627Y-198819D01*
X-85676D01*
X-83708Y-200787D02*
X-80756D01*
X-79772Y-199803D01*
X-80756Y-198819D01*
X-82724D01*
X-83708Y-197836D01*
X-82724Y-196852D01*
X-79772D01*
X-71900Y-200787D02*
X-69933D01*
X-70916D01*
Y-196852D01*
X-71900D01*
X-65997Y-200787D02*
Y-195868D01*
Y-197836D01*
X-66981D01*
X-65013D01*
X-65997D01*
Y-195868D01*
X-65013Y-194884D01*
X-52222D02*
Y-200787D01*
X-55173D01*
X-56157Y-199803D01*
Y-197836D01*
X-55173Y-196852D01*
X-52222D01*
X-50254D02*
Y-200787D01*
Y-198819D01*
X-49270Y-197836D01*
X-48286Y-196852D01*
X-47302D01*
X-44350Y-200787D02*
X-42382D01*
X-43366D01*
Y-196852D01*
X-44350D01*
X-39431Y-200787D02*
X-37463D01*
X-38447D01*
Y-194884D01*
X-39431D01*
X-34511Y-200787D02*
X-32543D01*
X-33527D01*
Y-194884D01*
X-34511D01*
X-19752D02*
Y-200787D01*
X-22704D01*
X-23688Y-199803D01*
Y-197836D01*
X-22704Y-196852D01*
X-19752D01*
X-17784Y-200787D02*
X-15816D01*
X-16800D01*
Y-196852D01*
X-17784D01*
X-11880D02*
X-9913D01*
X-8929Y-197836D01*
Y-200787D01*
X-11880D01*
X-12864Y-199803D01*
X-11880Y-198819D01*
X-8929D01*
X-6961Y-200787D02*
Y-196852D01*
X-5977D01*
X-4993Y-197836D01*
Y-200787D01*
Y-197836D01*
X-4009Y-196852D01*
X-3025Y-197836D01*
Y-200787D01*
X1895D02*
X-73D01*
X-1057Y-199803D01*
Y-197836D01*
X-73Y-196852D01*
X1895D01*
X2878Y-197836D01*
Y-198819D01*
X-1057D01*
X5830Y-195868D02*
Y-196852D01*
X4846D01*
X6814D01*
X5830D01*
Y-199803D01*
X6814Y-200787D01*
X12718D02*
X10750D01*
X9766Y-199803D01*
Y-197836D01*
X10750Y-196852D01*
X12718D01*
X13702Y-197836D01*
Y-198819D01*
X9766D01*
X15670Y-196852D02*
Y-200787D01*
Y-198819D01*
X16654Y-197836D01*
X17638Y-196852D01*
X18621D01*
X30429Y-200787D02*
X27477Y-197836D01*
X30429Y-194884D01*
X33380Y-195868D02*
X34364Y-194884D01*
X36332D01*
X37316Y-195868D01*
Y-199803D01*
X36332Y-200787D01*
X34364D01*
X33380Y-199803D01*
Y-195868D01*
X39284Y-200787D02*
Y-199803D01*
X40268D01*
Y-200787D01*
X39284D01*
X44204Y-195868D02*
X45188Y-194884D01*
X47155D01*
X48140Y-195868D01*
Y-196852D01*
X47155Y-197836D01*
X46172D01*
X47155D01*
X48140Y-198819D01*
Y-199803D01*
X47155Y-200787D01*
X45188D01*
X44204Y-199803D01*
X50107Y-200787D02*
Y-196852D01*
X51091D01*
X52075Y-197836D01*
Y-200787D01*
Y-197836D01*
X53059Y-196852D01*
X54043Y-197836D01*
Y-200787D01*
X56011D02*
Y-196852D01*
X56995D01*
X57979Y-197836D01*
Y-200787D01*
Y-197836D01*
X58963Y-196852D01*
X59947Y-197836D01*
Y-200787D01*
X-226378Y-171262D02*
Y-177165D01*
X-223426D01*
X-222442Y-176181D01*
Y-175198D01*
X-223426Y-174214D01*
X-226378D01*
X-223426D01*
X-222442Y-173230D01*
Y-172246D01*
X-223426Y-171262D01*
X-226378D01*
X-220474Y-177165D02*
X-218507D01*
X-219490D01*
Y-171262D01*
X-220474D01*
X-214571Y-173230D02*
X-212603D01*
X-211619Y-174214D01*
Y-177165D01*
X-214571D01*
X-215555Y-176181D01*
X-214571Y-175198D01*
X-211619D01*
X-205715Y-173230D02*
X-208667D01*
X-209651Y-174214D01*
Y-176181D01*
X-208667Y-177165D01*
X-205715D01*
X-203748D02*
Y-171262D01*
Y-175198D02*
X-200796Y-173230D01*
X-203748Y-175198D02*
X-200796Y-177165D01*
X-188005Y-172246D02*
X-188988Y-171262D01*
X-190956D01*
X-191940Y-172246D01*
Y-173230D01*
X-190956Y-174214D01*
X-188988D01*
X-188005Y-175198D01*
Y-176181D01*
X-188988Y-177165D01*
X-190956D01*
X-191940Y-176181D01*
X-186037Y-177165D02*
X-184069D01*
X-185053D01*
Y-173230D01*
X-186037D01*
X-181117Y-177165D02*
X-179149D01*
X-180133D01*
Y-171262D01*
X-181117D01*
X-176197Y-177165D02*
Y-171262D01*
Y-175198D02*
X-173246Y-173230D01*
X-176197Y-175198D02*
X-173246Y-177165D01*
X-170294D02*
X-167342D01*
X-166358Y-176181D01*
X-167342Y-175198D01*
X-169310D01*
X-170294Y-174214D01*
X-169310Y-173230D01*
X-166358D01*
X-160454D02*
X-163406D01*
X-164390Y-174214D01*
Y-176181D01*
X-163406Y-177165D01*
X-160454D01*
X-158487Y-173230D02*
Y-177165D01*
Y-175198D01*
X-157503Y-174214D01*
X-156519Y-173230D01*
X-155535D01*
X-149631Y-177165D02*
X-151599D01*
X-152583Y-176181D01*
Y-174214D01*
X-151599Y-173230D01*
X-149631D01*
X-148647Y-174214D01*
Y-175198D01*
X-152583D01*
X-143728Y-177165D02*
X-145695D01*
X-146679Y-176181D01*
Y-174214D01*
X-145695Y-173230D01*
X-143728D01*
X-142744Y-174214D01*
Y-175198D01*
X-146679D01*
X-140776Y-177165D02*
Y-173230D01*
X-137824D01*
X-136840Y-174214D01*
Y-177165D01*
X-226378Y-184057D02*
X-225394Y-183073D01*
X-223426D01*
X-222442Y-184057D01*
Y-187993D01*
X-223426Y-188976D01*
X-225394D01*
X-226378Y-187993D01*
Y-184057D01*
X-220474Y-188976D02*
Y-187993D01*
X-219490D01*
Y-188976D01*
X-220474D01*
X-215555Y-184057D02*
X-214571Y-183073D01*
X-212603D01*
X-211619Y-184057D01*
Y-185041D01*
X-212603Y-186025D01*
X-211619Y-187009D01*
Y-187993D01*
X-212603Y-188976D01*
X-214571D01*
X-215555Y-187993D01*
Y-187009D01*
X-214571Y-186025D01*
X-215555Y-185041D01*
Y-184057D01*
X-214571Y-186025D02*
X-212603D01*
X-209651Y-188976D02*
Y-185041D01*
X-208667D01*
X-207683Y-186025D01*
Y-188976D01*
Y-186025D01*
X-206699Y-185041D01*
X-205715Y-186025D01*
Y-188976D01*
X-203748D02*
Y-185041D01*
X-202764D01*
X-201780Y-186025D01*
Y-188976D01*
Y-186025D01*
X-200796Y-185041D01*
X-199812Y-186025D01*
Y-188976D01*
X-191940Y-183073D02*
X-188005D01*
X-189972D01*
Y-188976D01*
X-186037Y-183073D02*
Y-188976D01*
Y-186025D01*
X-185053Y-185041D01*
X-183085D01*
X-182101Y-186025D01*
Y-188976D01*
X-180133D02*
X-178165D01*
X-179149D01*
Y-185041D01*
X-180133D01*
X-171278D02*
X-174230D01*
X-175213Y-186025D01*
Y-187993D01*
X-174230Y-188976D01*
X-171278D01*
X-169310D02*
Y-183073D01*
Y-187009D02*
X-166358Y-185041D01*
X-169310Y-187009D02*
X-166358Y-188976D01*
X-163406D02*
Y-185041D01*
X-160454D01*
X-159470Y-186025D01*
Y-188976D01*
X-154551D02*
X-156519D01*
X-157503Y-187993D01*
Y-186025D01*
X-156519Y-185041D01*
X-154551D01*
X-153567Y-186025D01*
Y-187009D01*
X-157503D01*
X-151599Y-188976D02*
X-148647D01*
X-147663Y-187993D01*
X-148647Y-187009D01*
X-150615D01*
X-151599Y-186025D01*
X-150615Y-185041D01*
X-147663D01*
X-145695Y-188976D02*
X-142744D01*
X-141760Y-187993D01*
X-142744Y-187009D01*
X-144711D01*
X-145695Y-186025D01*
X-144711Y-185041D01*
X-141760D01*
X-226378Y-159451D02*
Y-165354D01*
X-224410Y-163386D01*
X-222442Y-165354D01*
Y-159451D01*
X-220474D02*
Y-165354D01*
Y-162402D01*
X-219490Y-161419D01*
X-217523D01*
X-216539Y-162402D01*
Y-165354D01*
X-214571D02*
X-212603D01*
X-213587D01*
Y-161419D01*
X-214571D01*
X-208667Y-160435D02*
Y-161419D01*
X-209651D01*
X-207683D01*
X-208667D01*
Y-164370D01*
X-207683Y-165354D01*
X-201780D02*
X-203748D01*
X-204731Y-164370D01*
Y-162402D01*
X-203748Y-161419D01*
X-201780D01*
X-200796Y-162402D01*
Y-163386D01*
X-204731D01*
X-188988Y-160435D02*
X-189972Y-159451D01*
X-191940D01*
X-192924Y-160435D01*
Y-161419D01*
X-191940Y-162402D01*
X-189972D01*
X-188988Y-163386D01*
Y-164370D01*
X-189972Y-165354D01*
X-191940D01*
X-192924Y-164370D01*
X-186037Y-165354D02*
X-184069D01*
X-183085Y-164370D01*
Y-162402D01*
X-184069Y-161419D01*
X-186037D01*
X-187021Y-162402D01*
Y-164370D01*
X-186037Y-165354D01*
X-181117D02*
X-179149D01*
X-180133D01*
Y-159451D01*
X-181117D01*
X-172262D02*
Y-165354D01*
X-175213D01*
X-176197Y-164370D01*
Y-162402D01*
X-175213Y-161419D01*
X-172262D01*
X-167342Y-165354D02*
X-169310D01*
X-170294Y-164370D01*
Y-162402D01*
X-169310Y-161419D01*
X-167342D01*
X-166358Y-162402D01*
Y-163386D01*
X-170294D01*
X-164390Y-161419D02*
Y-165354D01*
Y-163386D01*
X-163406Y-162402D01*
X-162422Y-161419D01*
X-161438D01*
X-152583Y-165354D02*
Y-159451D01*
X-150615Y-161419D01*
X-148647Y-159451D01*
Y-165354D01*
X-145695Y-161419D02*
X-143728D01*
X-142744Y-162402D01*
Y-165354D01*
X-145695D01*
X-146679Y-164370D01*
X-145695Y-163386D01*
X-142744D01*
X-140776Y-165354D02*
X-137824D01*
X-136840Y-164370D01*
X-137824Y-163386D01*
X-139792D01*
X-140776Y-162402D01*
X-139792Y-161419D01*
X-136840D01*
X-134872Y-165354D02*
Y-159451D01*
Y-163386D02*
X-131920Y-161419D01*
X-134872Y-163386D02*
X-131920Y-165354D01*
D14*
X30077Y-6905D02*
Y-4937D01*
X31389Y-6905D01*
Y-4937D01*
X32373Y-6905D02*
X33029D01*
X33357Y-6577D01*
Y-5921D01*
X33029Y-5593D01*
X32373D01*
X32045Y-5921D01*
Y-6577D01*
X32373Y-6905D01*
X35981D02*
Y-5593D01*
X36309D01*
X36637Y-5921D01*
Y-6905D01*
Y-5921D01*
X36965Y-5593D01*
X37293Y-5921D01*
Y-6905D01*
X38276D02*
X38932D01*
X39260Y-6577D01*
Y-5921D01*
X38932Y-5593D01*
X38276D01*
X37949Y-5921D01*
Y-6577D01*
X38276Y-6905D01*
X39916Y-5593D02*
Y-6577D01*
X40244Y-6905D01*
X41228D01*
Y-5593D01*
X41884Y-6905D02*
X42868D01*
X43196Y-6577D01*
X42868Y-6249D01*
X42212D01*
X41884Y-5921D01*
X42212Y-5593D01*
X43196D01*
X44836Y-6905D02*
X44180D01*
X43852Y-6577D01*
Y-5921D01*
X44180Y-5593D01*
X44836D01*
X45164Y-5921D01*
Y-6249D01*
X43852D01*
X45820Y-4937D02*
Y-6905D01*
X46804D01*
X47132Y-6577D01*
Y-6249D01*
Y-5921D01*
X46804Y-5593D01*
X45820D01*
X47788Y-6905D02*
X48444D01*
X48116D01*
Y-5593D01*
X47788D01*
X49756Y-5265D02*
Y-5593D01*
X49428D01*
X50084D01*
X49756D01*
Y-6577D01*
X50084Y-6905D01*
X52052D02*
X51396D01*
X51068Y-6577D01*
Y-5921D01*
X51396Y-5593D01*
X52052D01*
X52380Y-5921D01*
Y-6249D01*
X51068D01*
X53035Y-6905D02*
X54019D01*
X54347Y-6577D01*
X54019Y-6249D01*
X53363D01*
X53035Y-5921D01*
X53363Y-5593D01*
X54347D01*
X56971Y-6905D02*
X57627D01*
X57299D01*
Y-5593D01*
X56971D01*
X58611Y-6905D02*
Y-5593D01*
X59595D01*
X59923Y-5921D01*
Y-6905D01*
X36309Y-8571D02*
Y-8899D01*
X35981D01*
X36637D01*
X36309D01*
Y-9883D01*
X36637Y-10211D01*
X37620Y-8243D02*
Y-10211D01*
Y-9227D01*
X37949Y-8899D01*
X38605D01*
X38932Y-9227D01*
Y-10211D01*
X39588D02*
X40244D01*
X39916D01*
Y-8899D01*
X39588D01*
X41228Y-10211D02*
X42212D01*
X42540Y-9883D01*
X42212Y-9555D01*
X41556D01*
X41228Y-9227D01*
X41556Y-8899D01*
X42540D01*
X45164D02*
Y-10211D01*
Y-9555D01*
X45492Y-9227D01*
X45820Y-8899D01*
X46148D01*
X48116Y-10211D02*
X47460D01*
X47132Y-9883D01*
Y-9227D01*
X47460Y-8899D01*
X48116D01*
X48444Y-9227D01*
Y-9555D01*
X47132D01*
X49756Y-10867D02*
X50084D01*
X50412Y-10539D01*
Y-8899D01*
X49428D01*
X49100Y-9227D01*
Y-9883D01*
X49428Y-10211D01*
X50412D01*
X51068D02*
X51723D01*
X51396D01*
Y-8899D01*
X51068D01*
X53035Y-10211D02*
X53691D01*
X54019Y-9883D01*
Y-9227D01*
X53691Y-8899D01*
X53035D01*
X52707Y-9227D01*
Y-9883D01*
X53035Y-10211D01*
X54675D02*
Y-8899D01*
X55659D01*
X55987Y-9227D01*
Y-10211D01*
X32875Y207052D02*
Y209019D01*
X34186Y207052D01*
Y209019D01*
X35170Y207052D02*
X35826D01*
X36154Y207380D01*
Y208036D01*
X35826Y208364D01*
X35170D01*
X34842Y208036D01*
Y207380D01*
X35170Y207052D01*
X38778D02*
Y208364D01*
X39106D01*
X39434Y208036D01*
Y207052D01*
Y208036D01*
X39762Y208364D01*
X40090Y208036D01*
Y207052D01*
X41074D02*
X41730D01*
X42058Y207380D01*
Y208036D01*
X41730Y208364D01*
X41074D01*
X40746Y208036D01*
Y207380D01*
X41074Y207052D01*
X42714Y208364D02*
Y207380D01*
X43042Y207052D01*
X44026D01*
Y208364D01*
X44682Y207052D02*
X45666D01*
X45994Y207380D01*
X45666Y207708D01*
X45010D01*
X44682Y208036D01*
X45010Y208364D01*
X45994D01*
X47633Y207052D02*
X46977D01*
X46650Y207380D01*
Y208036D01*
X46977Y208364D01*
X47633D01*
X47962Y208036D01*
Y207708D01*
X46650D01*
X48617Y209019D02*
Y207052D01*
X49601D01*
X49929Y207380D01*
Y207708D01*
Y208036D01*
X49601Y208364D01*
X48617D01*
X50585Y207052D02*
X51241D01*
X50913D01*
Y208364D01*
X50585D01*
X52553Y208692D02*
Y208364D01*
X52225D01*
X52881D01*
X52553D01*
Y207380D01*
X52881Y207052D01*
X54849D02*
X54193D01*
X53865Y207380D01*
Y208036D01*
X54193Y208364D01*
X54849D01*
X55177Y208036D01*
Y207708D01*
X53865D01*
X55833Y207052D02*
X56817D01*
X57145Y207380D01*
X56817Y207708D01*
X56161D01*
X55833Y208036D01*
X56161Y208364D01*
X57145D01*
X59769Y207052D02*
X60425D01*
X60097D01*
Y208364D01*
X59769D01*
X61409Y207052D02*
Y208364D01*
X62392D01*
X62720Y208036D01*
Y207052D01*
X39106Y205385D02*
Y205057D01*
X38778D01*
X39434D01*
X39106D01*
Y204073D01*
X39434Y203745D01*
X40418Y205713D02*
Y203745D01*
Y204729D01*
X40746Y205057D01*
X41402D01*
X41730Y204729D01*
Y203745D01*
X42386D02*
X43042D01*
X42714D01*
Y205057D01*
X42386D01*
X44026Y203745D02*
X45010D01*
X45338Y204073D01*
X45010Y204401D01*
X44354D01*
X44026Y204729D01*
X44354Y205057D01*
X45338D01*
X47962D02*
Y203745D01*
Y204401D01*
X48289Y204729D01*
X48617Y205057D01*
X48945D01*
X50913Y203745D02*
X50257D01*
X49929Y204073D01*
Y204729D01*
X50257Y205057D01*
X50913D01*
X51241Y204729D01*
Y204401D01*
X49929D01*
X52553Y203089D02*
X52881D01*
X53209Y203417D01*
Y205057D01*
X52225D01*
X51897Y204729D01*
Y204073D01*
X52225Y203745D01*
X53209D01*
X53865D02*
X54521D01*
X54193D01*
Y205057D01*
X53865D01*
X55833Y203745D02*
X56489D01*
X56817Y204073D01*
Y204729D01*
X56489Y205057D01*
X55833D01*
X55505Y204729D01*
Y204073D01*
X55833Y203745D01*
X57473D02*
Y205057D01*
X58457D01*
X58785Y204729D01*
Y203745D01*
X90000Y195000D02*
G03*
X85000Y200000I-5000J0D01*
G01*
X80000Y-0D02*
G03*
X90000Y10000I0J10000D01*
G01*
X5000Y200000D02*
G03*
X0Y195000I0J-5000D01*
G01*
X-0Y10000D02*
G03*
X10000Y0I10000J0D01*
G01*
X-0Y195000D02*
X0Y10000D01*
X5000Y200000D02*
X85000Y200000D01*
X90000Y10000D02*
X90000Y195000D01*
X10000Y0D02*
X80000Y0D01*
D111*
X17047Y202696D02*
X72953D01*
X17047D02*
X19047Y201196D01*
X17047Y202696D02*
X19047Y204196D01*
X17047Y199902D02*
Y204902D01*
X70953Y201196D02*
X72953Y202696D01*
X70953Y204196D02*
X72953Y202696D01*
Y199902D02*
Y204902D01*
X62567Y-4228D02*
X64567Y-2728D01*
X62567Y-1228D02*
X64567Y-2728D01*
X25433D02*
X64567D01*
X25433D02*
X27433Y-4228D01*
X25433Y-2728D02*
X27433Y-1228D01*
X64567Y-5522D02*
Y-522D01*
X25433Y-5522D02*
Y-522D01*
X84000Y218000D02*
X90000Y220000D01*
X84000Y222000D02*
X90000Y220000D01*
X0D02*
X6000Y222000D01*
X0Y220000D02*
X6000Y218000D01*
X58496Y220000D02*
X90000D01*
X0D02*
X28304D01*
X90000Y210945D02*
Y221000D01*
X0Y25945D02*
Y221000D01*
X-20000Y200000D02*
X-18000Y194000D01*
X-22000D02*
X-20000Y200000D01*
X-22000Y6000D02*
X-20000Y0D01*
X-18000Y6000D01*
X-20000Y113496D02*
Y200000D01*
Y0D02*
Y83304D01*
X-21000Y200000D02*
X-7008D01*
X-21000Y0D02*
X-2008D01*
D112*
X33903Y216401D02*
X29904D01*
X33903Y220400D01*
Y221399D01*
X32903Y222399D01*
X30904D01*
X29904Y221399D01*
X39901Y216401D02*
X35902D01*
X39901Y220400D01*
Y221399D01*
X38901Y222399D01*
X36902D01*
X35902Y221399D01*
X41901Y216401D02*
Y217401D01*
X42900D01*
Y216401D01*
X41901D01*
X46899Y221399D02*
X47899Y222399D01*
X49898D01*
X50898Y221399D01*
Y220400D01*
X49898Y219400D01*
X50898Y218400D01*
Y217401D01*
X49898Y216401D01*
X47899D01*
X46899Y217401D01*
Y218400D01*
X47899Y219400D01*
X46899Y220400D01*
Y221399D01*
X47899Y219400D02*
X49898D01*
X56896Y222399D02*
X54896Y221399D01*
X52897Y219400D01*
Y217401D01*
X53897Y216401D01*
X55896D01*
X56896Y217401D01*
Y218400D01*
X55896Y219400D01*
X52897D01*
X-22399Y88903D02*
Y84904D01*
X-19400D01*
X-20400Y86904D01*
Y87903D01*
X-19400Y88903D01*
X-17401D01*
X-16401Y87903D01*
Y85904D01*
X-17401Y84904D01*
X-21399Y90902D02*
X-22399Y91902D01*
Y93901D01*
X-21399Y94901D01*
X-17401D01*
X-16401Y93901D01*
Y91902D01*
X-17401Y90902D01*
X-21399D01*
X-16401Y96900D02*
X-17401D01*
Y97900D01*
X-16401D01*
Y96900D01*
X-21399Y101899D02*
X-22399Y102899D01*
Y104898D01*
X-21399Y105898D01*
X-20400D01*
X-19400Y104898D01*
X-18400Y105898D01*
X-17401D01*
X-16401Y104898D01*
Y102899D01*
X-17401Y101899D01*
X-18400D01*
X-19400Y102899D01*
X-20400Y101899D01*
X-21399D01*
X-19400Y102899D02*
Y104898D01*
X-21399Y107897D02*
X-22399Y108897D01*
Y110896D01*
X-21399Y111896D01*
X-17401D01*
X-16401Y110896D01*
Y108897D01*
X-17401Y107897D01*
X-21399D01*
M02*
