G04*
G04 #@! TF.GenerationSoftware,Altium Limited,Altium Designer,25.0.1 (26)*
G04*
G04 Layer_Color=128*
%FSLAX25Y25*%
%MOIN*%
G70*
G04*
G04 #@! TF.SameCoordinates,5D196012-D927-4492-92D9-CD159FF3DA83*
G04*
G04*
G04 #@! TF.FilePolarity,Positive*
G04*
G01*
G75*
%ADD14C,0.00394*%
%ADD113C,0.00200*%
D14*
X90000Y195000D02*
G03*
X85000Y200000I-5000J0D01*
G01*
X80000Y-0D02*
G03*
X90000Y10000I0J10000D01*
G01*
X5000Y200000D02*
G03*
X0Y195000I0J-5000D01*
G01*
X-0Y10000D02*
G03*
X10000Y0I10000J0D01*
G01*
X-0Y195000D02*
X0Y10000D01*
X5000Y200000D02*
X85000Y200000D01*
X90000Y10000D02*
X90000Y195000D01*
X10000Y0D02*
X80000Y0D01*
D113*
X55098Y17764D02*
X57657D01*
X56378Y16484D02*
Y19043D01*
X32342Y17764D02*
X34902D01*
X33622Y16484D02*
Y19043D01*
X3228Y195000D02*
X6772D01*
X5000Y193228D02*
Y196772D01*
X3228Y185000D02*
X6772D01*
X5000Y183228D02*
Y186772D01*
X83228Y145000D02*
X86772D01*
X85000Y143228D02*
Y146772D01*
X83228Y155000D02*
X86772D01*
X85000Y153228D02*
Y156772D01*
X83228Y165000D02*
X86772D01*
X85000Y163228D02*
Y166772D01*
X83228Y175000D02*
X86772D01*
X85000Y173228D02*
Y176772D01*
X83228Y135000D02*
X86772D01*
X85000Y133228D02*
Y136772D01*
X83228Y125000D02*
X86772D01*
X85000Y123228D02*
Y126772D01*
X83228Y115000D02*
X86772D01*
X85000Y113228D02*
Y116772D01*
X83228Y105000D02*
X86772D01*
X85000Y103228D02*
Y106772D01*
X83228Y65000D02*
X86772D01*
X85000Y63228D02*
Y66772D01*
X83228Y75000D02*
X86772D01*
X85000Y73228D02*
Y76772D01*
X83228Y85000D02*
X86772D01*
X85000Y83228D02*
Y86772D01*
X83228Y95000D02*
X86772D01*
X85000Y93228D02*
Y96772D01*
X83228Y25000D02*
X86772D01*
X85000Y23228D02*
Y26772D01*
X83228Y35000D02*
X86772D01*
X85000Y33228D02*
Y36772D01*
X83228Y45000D02*
X86772D01*
X85000Y43228D02*
Y46772D01*
X83228Y55000D02*
X86772D01*
X85000Y53228D02*
Y56772D01*
X3228Y85000D02*
X6772D01*
X5000Y83228D02*
Y86772D01*
X3228Y95000D02*
X6772D01*
X5000Y93228D02*
Y96772D01*
X3228Y125000D02*
X6772D01*
X5000Y123228D02*
Y126772D01*
X3228Y115000D02*
X6772D01*
X5000Y113228D02*
Y116772D01*
X3228Y135000D02*
X6772D01*
X5000Y133228D02*
Y136772D01*
X3228Y145000D02*
X6772D01*
X5000Y143228D02*
Y146772D01*
X3228Y155000D02*
X6772D01*
X5000Y153228D02*
Y156772D01*
X3228Y165000D02*
X6772D01*
X5000Y163228D02*
Y166772D01*
X3228Y175000D02*
X6772D01*
X5000Y173228D02*
Y176772D01*
X3228Y105000D02*
X6772D01*
X5000Y103228D02*
Y106772D01*
X3228Y75000D02*
X6772D01*
X5000Y73228D02*
Y76772D01*
X3228Y65000D02*
X6772D01*
X5000Y63228D02*
Y66772D01*
X83228Y185000D02*
X86772D01*
X85000Y183228D02*
Y186772D01*
X83228Y195000D02*
X86772D01*
X85000Y193228D02*
Y196772D01*
X73500Y25000D02*
X76500D01*
X75000Y23500D02*
Y26500D01*
X-1575Y195000D02*
X1575D01*
X0Y193425D02*
Y196575D01*
X-1575Y185000D02*
X1575D01*
X0Y183425D02*
Y186575D01*
X73500Y45000D02*
X76500D01*
X75000Y43500D02*
Y46500D01*
X-1575Y175000D02*
X1575D01*
X0Y173425D02*
Y176575D01*
X-1575Y165000D02*
X1575D01*
X0Y163425D02*
Y166575D01*
X-1575Y155000D02*
X1575D01*
X0Y153425D02*
Y156575D01*
X-1575Y145000D02*
X1575D01*
X0Y143425D02*
Y146575D01*
X-1575Y135000D02*
X1575D01*
X0Y133425D02*
Y136575D01*
X-1575Y125000D02*
X1575D01*
X0Y123425D02*
Y126575D01*
X-1575Y115000D02*
X1575D01*
X0Y113425D02*
Y116575D01*
X-1575Y105000D02*
X1575D01*
X0Y103425D02*
Y106575D01*
X-1575Y95000D02*
X1575D01*
X0Y93425D02*
Y96575D01*
X-1575Y85000D02*
X1575D01*
X0Y83425D02*
Y86575D01*
X-1575Y75000D02*
X1575D01*
X0Y73425D02*
Y76575D01*
X-1575Y65000D02*
X1575D01*
X0Y63425D02*
Y66575D01*
X88425Y25000D02*
X91575D01*
X90000Y23425D02*
Y26575D01*
X88425Y35000D02*
X91575D01*
X90000Y33425D02*
Y36575D01*
X88425Y45000D02*
X91575D01*
X90000Y43425D02*
Y46575D01*
X88425Y55000D02*
X91575D01*
X90000Y53425D02*
Y56575D01*
X88425Y65000D02*
X91575D01*
X90000Y63425D02*
Y66575D01*
X88425Y75000D02*
X91575D01*
X90000Y73425D02*
Y76575D01*
X88425Y85000D02*
X91575D01*
X90000Y83425D02*
Y86575D01*
X88425Y95000D02*
X91575D01*
X90000Y93425D02*
Y96575D01*
X88425Y105000D02*
X91575D01*
X90000Y103425D02*
Y106575D01*
X88425Y115000D02*
X91575D01*
X90000Y113425D02*
Y116575D01*
X88425Y125000D02*
X91575D01*
X90000Y123425D02*
Y126575D01*
X88425Y135000D02*
X91575D01*
X90000Y133425D02*
Y136575D01*
X88425Y145000D02*
X91575D01*
X90000Y143425D02*
Y146575D01*
X88425Y155000D02*
X91575D01*
X90000Y153425D02*
Y156575D01*
X88425Y165000D02*
X91575D01*
X90000Y163425D02*
Y166575D01*
X88425Y195000D02*
X91575D01*
X90000Y193425D02*
Y196575D01*
X88425Y185000D02*
X91575D01*
X90000Y183425D02*
Y186575D01*
X88425Y175000D02*
X91575D01*
X90000Y173425D02*
Y176575D01*
X5000Y10000D02*
X15000D01*
X10000Y5000D02*
Y15000D01*
X75000Y10000D02*
X85000D01*
X80000Y5000D02*
Y15000D01*
X36317Y18388D02*
X37302D01*
X36810Y17896D02*
Y18880D01*
X78840Y111359D02*
X79824D01*
X79332Y110867D02*
Y111852D01*
X48889Y150886D02*
X49874D01*
X49382Y150394D02*
Y151379D01*
X12303Y141732D02*
X13287D01*
X12795Y141240D02*
Y142224D01*
X78091Y141130D02*
X79075D01*
X78583Y140637D02*
Y141622D01*
X12500Y150787D02*
X13484D01*
X12992Y150295D02*
Y151279D01*
X53042Y148328D02*
X54026D01*
X53534Y147836D02*
Y148820D01*
X15650Y25197D02*
X16634D01*
X16142Y24705D02*
Y25689D01*
X62106Y59695D02*
X63090D01*
X62598Y59203D02*
Y60187D01*
X63728Y63218D02*
X64712D01*
X64220Y62726D02*
Y63710D01*
X64862Y61417D02*
X65847D01*
X65354Y60925D02*
Y61909D01*
X77461Y57480D02*
X78445D01*
X77953Y56988D02*
Y57972D01*
X64075Y57874D02*
X65059D01*
X64567Y57382D02*
Y58366D01*
X10138Y41732D02*
X11122D01*
X10630Y41240D02*
Y42224D01*
X14075Y41732D02*
X15059D01*
X14567Y41240D02*
Y42224D01*
X56048Y59043D02*
X57032D01*
X56540Y58551D02*
Y59535D01*
X4508Y25000D02*
X5492D01*
X5000Y24508D02*
Y25492D01*
X4508Y40000D02*
X5492D01*
X5000Y39508D02*
Y40492D01*
X69980Y98819D02*
X70965D01*
X70472Y98327D02*
Y99311D01*
X70540Y95079D02*
X71525D01*
X71033Y94587D02*
Y95571D01*
X62008Y86031D02*
X62992D01*
X62500Y85539D02*
Y86523D01*
X50933Y86147D02*
X51918D01*
X51425Y85655D02*
Y86639D01*
X53248Y65551D02*
X54232D01*
X53740Y65059D02*
Y66043D01*
X43012Y34843D02*
X43996D01*
X43504Y34351D02*
Y35335D01*
X57382Y31890D02*
X58366D01*
X57874Y31398D02*
Y32382D01*
X57382Y29134D02*
X58366D01*
X57874Y28642D02*
Y29626D01*
X23100Y62598D02*
X24085D01*
X23593Y62106D02*
Y63090D01*
X66413Y96846D02*
X67397D01*
X66905Y96354D02*
Y97338D01*
X32505Y99503D02*
X33489D01*
X32997Y99011D02*
Y99995D01*
X53750Y93758D02*
X54734D01*
X54242Y93266D02*
Y94250D01*
X12008Y84500D02*
X12992D01*
X12500Y84008D02*
Y84992D01*
X23508Y86500D02*
X24492D01*
X24000Y86008D02*
Y86992D01*
X20008Y98000D02*
X20992D01*
X20500Y97508D02*
Y98492D01*
X18564Y106762D02*
X19548D01*
X19056Y106270D02*
Y107254D01*
X51008Y99390D02*
X51992D01*
X51500Y98898D02*
Y99882D01*
X29493Y86505D02*
X30477D01*
X29985Y86013D02*
Y86997D01*
X54008Y102500D02*
X54992D01*
X54500Y102008D02*
Y102992D01*
X69587Y104722D02*
X70571D01*
X70079Y104230D02*
Y105215D01*
X69193Y107251D02*
X70177D01*
X69685Y106759D02*
Y107743D01*
X67008Y103000D02*
X67992D01*
X67500Y102508D02*
Y103492D01*
X40508Y63000D02*
X41492D01*
X41000Y62508D02*
Y63492D01*
X59008Y59500D02*
X59992D01*
X59500Y59008D02*
Y59992D01*
X15008Y141500D02*
X15992D01*
X15500Y141008D02*
Y141992D01*
X77461Y53150D02*
X78445D01*
X77953Y52658D02*
Y53642D01*
X74508Y67500D02*
X75492D01*
X75000Y67008D02*
Y67992D01*
X76508Y67500D02*
X77492D01*
X77000Y67008D02*
Y67992D01*
X79999Y71515D02*
X80983D01*
X80491Y71022D02*
Y72007D01*
X34571Y53937D02*
X35555D01*
X35063Y53445D02*
Y54429D01*
X53008Y54500D02*
X53992D01*
X53500Y54008D02*
Y54992D01*
X14985Y78500D02*
X15969D01*
X15477Y78008D02*
Y78992D01*
X34008Y34000D02*
X34992D01*
X34500Y33508D02*
Y34492D01*
X34508Y51500D02*
X35492D01*
X35000Y51008D02*
Y51992D01*
X30610Y52362D02*
X31594D01*
X31102Y51870D02*
Y52854D01*
X50689Y146720D02*
X51673D01*
X51181Y146228D02*
Y147212D01*
X64789Y15354D02*
X65773D01*
X65281Y14862D02*
Y15846D01*
X63194Y113051D02*
X64178D01*
X63686Y112559D02*
Y113543D01*
X52264Y155118D02*
X53248D01*
X52756Y154626D02*
Y155610D01*
X18012Y45669D02*
X18996D01*
X18504Y45177D02*
Y46161D01*
X27854Y57677D02*
X28839D01*
X28346Y57185D02*
Y58169D01*
X66477Y43649D02*
X67461D01*
X66969Y43157D02*
Y44141D01*
X17224Y56299D02*
X18209D01*
X17717Y55807D02*
Y56791D01*
X7776Y50787D02*
X8760D01*
X8268Y50295D02*
Y51279D01*
X18012Y50787D02*
X18996D01*
X18504Y50295D02*
Y51279D01*
X34961Y146949D02*
X35945D01*
X35453Y146457D02*
Y147441D01*
X71443Y20754D02*
X72428D01*
X71935Y20262D02*
Y21247D01*
X69687Y45276D02*
X70671D01*
X70179Y44783D02*
Y45768D01*
X18524Y90669D02*
X19508D01*
X19016Y90177D02*
Y91161D01*
X75886Y153150D02*
X76870D01*
X76378Y152657D02*
Y153642D01*
X73917Y151181D02*
X74902D01*
X74410Y150689D02*
Y151673D01*
X9055Y197047D02*
X10039D01*
X9547Y196555D02*
Y197539D01*
X11762Y167717D02*
X12747D01*
X12255Y167224D02*
Y168209D01*
X18799Y150813D02*
X19783D01*
X19291Y150321D02*
Y151305D01*
X33024Y137903D02*
X34008D01*
X33516Y137411D02*
Y138395D01*
X18012Y153248D02*
X18996D01*
X18504Y152756D02*
Y153740D01*
X30198Y135515D02*
X31183D01*
X30691Y135023D02*
Y136007D01*
X18067Y161811D02*
X19051D01*
X18559Y161319D02*
Y162303D01*
X15957Y170879D02*
X16941D01*
X16449Y170386D02*
Y171371D01*
X77211Y196486D02*
X78196D01*
X77704Y195994D02*
Y196978D01*
X70591Y197264D02*
X71575D01*
X71083Y196772D02*
Y197756D01*
X13287Y159843D02*
X14272D01*
X13780Y159350D02*
Y160335D01*
X18012Y158366D02*
X18996D01*
X18504Y157874D02*
Y158858D01*
X18012Y155807D02*
X18996D01*
X18504Y155315D02*
Y156299D01*
X35808Y134249D02*
X36792D01*
X36300Y133757D02*
Y134741D01*
X26660Y138066D02*
X27644D01*
X27152Y137574D02*
Y138558D01*
X31398Y129528D02*
X32382D01*
X31890Y129035D02*
Y130020D01*
X39567Y136977D02*
X40551D01*
X40059Y136485D02*
Y137469D01*
X38319Y134743D02*
X39303D01*
X38811Y134251D02*
Y135235D01*
X27776Y165039D02*
X28760D01*
X28268Y164547D02*
Y165532D01*
X27776Y170669D02*
X28760D01*
X28268Y170177D02*
Y171161D01*
X59272Y185335D02*
X60256D01*
X59764Y184843D02*
Y185827D01*
X21555Y133838D02*
X22539D01*
X22047Y133346D02*
Y134330D01*
X31555Y126973D02*
X32539D01*
X32047Y126481D02*
Y127465D01*
X26105Y146904D02*
X27089D01*
X26597Y146412D02*
Y147396D01*
X33219Y150294D02*
X34203D01*
X33711Y149802D02*
Y150786D01*
X65095Y24803D02*
X66079D01*
X65587Y24311D02*
Y25295D01*
X52264Y14961D02*
X53248D01*
X52756Y14469D02*
Y15453D01*
X39665Y18110D02*
X40650D01*
X40157Y17618D02*
Y18602D01*
X49508Y17717D02*
X50492D01*
X50000Y17224D02*
Y18209D01*
X24823Y57485D02*
X25807D01*
X25315Y56993D02*
Y57977D01*
X36516Y102362D02*
X37500D01*
X37008Y101870D02*
Y102854D01*
X62500Y107480D02*
X63484D01*
X62992Y106988D02*
Y107972D01*
X63381Y110228D02*
X64365D01*
X63873Y109736D02*
Y110720D01*
X67224Y114961D02*
X68209D01*
X67716Y114469D02*
Y115453D01*
X67224Y112205D02*
X68209D01*
X67716Y111713D02*
Y112697D01*
X69931Y109764D02*
X70915D01*
X70423Y109272D02*
Y110256D01*
X42215Y137253D02*
X43199D01*
X42707Y136761D02*
Y137746D01*
X40620Y166091D02*
X41604D01*
X41112Y165599D02*
Y166583D01*
X33028Y153141D02*
X34012D01*
X33520Y152649D02*
Y153633D01*
X31004Y151575D02*
X31988D01*
X31496Y151083D02*
Y152067D01*
X32065Y155512D02*
X33049D01*
X32557Y155020D02*
Y156004D01*
X48327Y121653D02*
X49311D01*
X48819Y121161D02*
Y122146D01*
X46752Y102362D02*
X47736D01*
X47244Y101870D02*
Y102854D01*
X40453Y105905D02*
X41437D01*
X40945Y105413D02*
Y106398D01*
X49508Y134252D02*
X50492D01*
X50000Y133760D02*
Y134744D01*
X53445Y134646D02*
X54429D01*
X53937Y134153D02*
Y135138D01*
X54232Y122047D02*
X55216D01*
X54724Y121555D02*
Y122539D01*
X31555Y110429D02*
X32539D01*
X32047Y109937D02*
Y110921D01*
X45965Y137402D02*
X46949D01*
X46457Y136909D02*
Y137894D01*
X12894Y179921D02*
X13878D01*
X13386Y179429D02*
Y180413D01*
X15256Y179921D02*
X16240D01*
X15748Y179429D02*
Y180413D01*
X19587Y93307D02*
X20571D01*
X20079Y92815D02*
Y93799D01*
X18425Y95591D02*
X19409D01*
X18917Y95098D02*
Y96083D01*
X24705Y185827D02*
X25689D01*
X25197Y185335D02*
Y186319D01*
X50689Y41732D02*
X51673D01*
X51181Y41240D02*
Y42224D01*
X48720Y43307D02*
X49705D01*
X49213Y42815D02*
Y43799D01*
X50689Y48425D02*
X51673D01*
X51181Y47933D02*
Y48917D01*
X34941Y62992D02*
X35925D01*
X35433Y62500D02*
Y63484D01*
X32579Y61811D02*
X33563D01*
X33071Y61319D02*
Y62303D01*
X72342Y28740D02*
X73327D01*
X72835Y28248D02*
Y29232D01*
X70374Y38583D02*
X71358D01*
X70866Y38091D02*
Y39075D01*
X70374Y41732D02*
X71358D01*
X70866Y41240D02*
Y42224D01*
X61713Y47244D02*
X62697D01*
X62205Y46752D02*
Y47736D01*
X61665Y51000D02*
X62650D01*
X62157Y50508D02*
Y51492D01*
X43012Y37599D02*
X43996D01*
X43504Y37107D02*
Y38091D01*
X19429Y2953D02*
X20413D01*
X19921Y2461D02*
Y3445D01*
X69587Y2953D02*
X70571D01*
X70079Y2461D02*
Y3445D01*
X59619Y18012D02*
X60603D01*
X60111Y17520D02*
Y18504D01*
X29429Y17987D02*
X30413D01*
X29921Y17494D02*
Y18479D01*
X72736Y148819D02*
X73721D01*
X73228Y148327D02*
Y149311D01*
X70374Y131496D02*
X71358D01*
X70866Y131004D02*
Y131988D01*
X25098Y121260D02*
X26083D01*
X25591Y120768D02*
Y121752D01*
X70472Y120079D02*
X71457D01*
X70965Y119587D02*
Y120571D01*
X9350Y120472D02*
X10335D01*
X9843Y119980D02*
Y120965D01*
X9429Y128661D02*
X10413D01*
X9921Y128169D02*
Y129154D01*
X9744Y131496D02*
X10728D01*
X10236Y131004D02*
Y131988D01*
X25098Y124016D02*
X26083D01*
X25591Y123524D02*
Y124508D01*
X64468Y122441D02*
X65453D01*
X64961Y121949D02*
Y122933D01*
X62894Y120079D02*
X63878D01*
X63386Y119587D02*
Y120571D01*
X65256Y130315D02*
X66240D01*
X65748Y129823D02*
Y130807D01*
X64075Y127953D02*
X65059D01*
X64567Y127461D02*
Y128445D01*
X63287Y125197D02*
X64272D01*
X63779Y124705D02*
Y125689D01*
X63681Y117323D02*
X64665D01*
X64173Y116831D02*
Y117815D01*
X70768Y146850D02*
X71752D01*
X71260Y146358D02*
Y147343D01*
X31791Y167323D02*
X32776D01*
X32283Y166831D02*
Y167815D01*
X21555Y114961D02*
X22539D01*
X22047Y114469D02*
Y115453D01*
X25098Y114961D02*
X26083D01*
X25591Y114469D02*
Y115453D01*
X79224Y117638D02*
X80209D01*
X79716Y117146D02*
Y118130D01*
X45524Y28299D02*
X46508D01*
X46016Y27807D02*
Y28791D01*
X42658Y27953D02*
X43642D01*
X43150Y27461D02*
Y28445D01*
X71555Y78347D02*
X72539D01*
X72047Y77854D02*
Y78839D01*
X56988Y172835D02*
X57972D01*
X57480Y172343D02*
Y173327D01*
X56988Y168898D02*
X57972D01*
X57480Y168405D02*
Y169390D01*
X58563Y164961D02*
X59547D01*
X59055Y164469D02*
Y165453D01*
X63681Y185827D02*
X64665D01*
X64173Y185335D02*
Y186319D01*
X48396Y173888D02*
X49380D01*
X48888Y173396D02*
Y174380D01*
X40620Y173888D02*
X41604D01*
X41112Y173396D02*
Y174380D01*
X42421Y147638D02*
X43406D01*
X42913Y147146D02*
Y148130D01*
X18425Y197264D02*
X19409D01*
X18917Y196772D02*
Y197756D01*
X62955Y193148D02*
X63939D01*
X63447Y192656D02*
Y193640D01*
X59744Y191339D02*
X60728D01*
X60236Y190847D02*
Y191831D01*
X57097Y193213D02*
X58081D01*
X57589Y192721D02*
Y193706D01*
X53896Y191905D02*
X54880D01*
X54388Y191413D02*
Y192397D01*
X50624Y193455D02*
X51609D01*
X51116Y192963D02*
Y193947D01*
X47933Y192126D02*
X48917D01*
X48425Y191634D02*
Y192618D01*
X44327Y193323D02*
X45311D01*
X44819Y192831D02*
Y193815D01*
X41634Y192126D02*
X42618D01*
X42126Y191634D02*
Y192618D01*
X38359Y193411D02*
X39344D01*
X38851Y192919D02*
Y193903D01*
X34827Y193499D02*
X35811D01*
X35319Y193007D02*
Y193991D01*
X33366Y190945D02*
X34350D01*
X33858Y190453D02*
Y191437D01*
X36122Y191339D02*
X37106D01*
X36614Y190847D02*
Y191831D01*
X31338Y193301D02*
X32323D01*
X31830Y192809D02*
Y193793D01*
X30217Y190157D02*
X31201D01*
X30709Y189665D02*
Y190650D01*
X28248Y192913D02*
X29232D01*
X28740Y192421D02*
Y193405D01*
X25098Y190551D02*
X26083D01*
X25591Y190059D02*
Y191043D01*
X25107Y193213D02*
X26092D01*
X25599Y192721D02*
Y193706D01*
X79035Y131890D02*
X80020D01*
X79528Y131398D02*
Y132382D01*
X78858Y134961D02*
X79843D01*
X79350Y134468D02*
Y135453D01*
X70984Y158287D02*
X71969D01*
X71476Y157795D02*
Y158780D01*
X29744Y185433D02*
X30728D01*
X30236Y184941D02*
Y185925D01*
X53366Y185433D02*
X54350D01*
X53858Y184941D02*
Y185925D01*
X47461Y185433D02*
X48445D01*
X47953Y184941D02*
Y185925D01*
X41555Y185433D02*
X42539D01*
X42047Y184941D02*
Y185925D01*
X35650Y185433D02*
X36634D01*
X36142Y184941D02*
Y185925D01*
X31791Y173228D02*
X32776D01*
X32283Y172736D02*
Y173721D01*
X44980Y150595D02*
X45964D01*
X45472Y150103D02*
Y151087D01*
X19193Y128740D02*
X20177D01*
X19685Y128248D02*
Y129232D01*
X79252Y87717D02*
X80236D01*
X79744Y87224D02*
Y88209D01*
X79252Y108189D02*
X80236D01*
X79744Y107697D02*
Y108681D01*
X79252Y92441D02*
X80236D01*
X79744Y91949D02*
Y92933D01*
M02*
