M48
;Layer_Color=9474304
;FILE_FORMAT=2:5
INCH,LZ
;TYPE=PLATED
T01F00S00C0.00984
T02F00S00C0.03000
T03F00S00C0.03150
T04F00S00C0.03543
T05F00S00C0.10000
;TYPE=NON_PLATED
T06F00S00C0.02559
%
T01
X0019921Y0002953
X0029921Y0017987
X003681Y0018388
X0040157Y001811
X005Y0017717
X0052756Y0014961
X0060111Y0018012
X0065281Y0015354
X0065587Y0024803
X0071935Y0020754
X0072835Y002874
X0070866Y0038583
Y0041732
X0070179Y0045276
X0066969Y0043649
X0062205Y0047244
X0062157Y0051
X0062598Y0059695
X00595Y00595
X005654Y0059043
X00535Y00545
X0051181Y0048425
Y0041732
X0049213Y0043307
X0043504Y0037599
Y0034843
X004315Y0027953
X0046016Y0028299
X0057874Y0029134
Y003189
X00345Y0034
X0035Y00515
X0035063Y0053937
X0031102Y0052362
X0028346Y0057677
X0025315Y0057485
X0017717Y0056299
X0018504Y0050787
Y0045669
X0014567Y0041732
X001063
X0005Y004
X0008268Y0050787
X0005Y0025
X0016142Y0025197
X0070079Y0002953
X0077953Y005315
Y005748
X0064567Y0057874
X0065354Y0061417
X006422Y0063218
X005374Y0065551
X0041Y0063
X0035433Y0062992
X0033071Y0061811
X0023593Y0062598
X0015477Y00785
X00125Y00845
X0019016Y0090669
X0020079Y0093307
X0018917Y0095591
X00205Y0098
X0019056Y0106762
X0022047Y0114961
X0025591
Y012126
Y0124016
X0032047Y0126973
X003189Y0129528
X0030691Y0135515
X0033516Y0137903
X00363Y0134249
X0038811Y0134743
X0040059Y0136977
X0042707Y0137253
X0046457Y0137402
X005Y0134252
X0053937Y0134646
X0054724Y0122047
X0048819Y0121653
X0063386Y0120079
X0064173Y0117323
X0063686Y0113051
X0063873Y0110228
X0062992Y010748
X0069685Y0107251
X0070079Y0104722
X00675Y0103
X0066905Y0096846
X0070472Y0098819
X0071033Y0095079
X0079744Y0092441
Y0087717
X0080491Y0071515
X0077Y00675
X0075
X0072047Y0078347
X00625Y0086031
X0051425Y0086147
X0054242Y0093758
X00515Y009939
X00545Y01025
X0047244Y0102362
X0040945Y0105905
X0037008Y0102362
X0032997Y0099503
X0032047Y0110429
X0029985Y0086505
X0024Y00865
X0019685Y012874
X0022047Y0133838
X0027152Y0138066
X0026597Y0146904
X0035453Y0146949
X0033711Y0150294
X003352Y0153141
X0032557Y0155512
X0031496Y0151575
X0019291Y0150813
X0018504Y0153248
Y0155807
Y0158366
X0018559Y0161811
X001378Y0159843
X0012255Y0167717
X0016449Y0170879
X0015748Y0179921
X0013386
X0025197Y0185827
X0025591Y0190551
X0025599Y0193213
X002874Y0192913
X003183Y0193301
X0035319Y0193499
X0036614Y0191339
X0033858Y0190945
X0030709Y0190157
X0030236Y0185433
X0036142
X0042047
X0047953
X0053858
X0059764Y0185335
X0064173Y0185827
X0063447Y0193148
X0060236Y0191339
X0057589Y0193213
X0054388Y0191905
X0051116Y0193455
X0048425Y0192126
X0044819Y0193323
X0042126Y0192126
X0038851Y0193411
X0041112Y0173888
X0048888
X005748Y0172835
Y0168898
X0059055Y0164961
X0052756Y0155118
X0053534Y0148328
X0051181Y014672
X0049382Y0150886
X0045472Y0150595
X0042913Y0147638
X0041112Y0166091
X0032283Y0167323
Y0173228
X0028268Y0170669
Y0165039
X0012992Y0150787
X0012795Y0141732
X00155Y01415
X0010236Y0131496
X0009921Y0128661
X0009843Y0120472
X0064961Y0122441
X0063779Y0125197
X0064567Y0127953
X0065748Y0130315
X0070866Y0131496
X0079528Y013189
X007935Y0134961
X0078583Y014113
X0073228Y0148819
X007441Y0151181
X0076378Y015315
X0071476Y0158287
X007126Y014685
X0070965Y0120079
X0067716Y0114961
Y0112205
X0070423Y0109764
X0079332Y0111359
X0079744Y0108189
X0079716Y0117638
X0077704Y0196486
X0071083Y0197264
X0018917
X0009547Y0197047
T02
X0075Y0025
Y0045
T03
X009Y0025
Y0035
Y0045
Y0055
Y0065
Y0075
Y0085
Y0095
Y0105
Y0115
Y0125
Y0135
Y0145
Y0155
Y0165
Y0175
X009Y0185
Y0195
X0
Y0185
Y0175
Y0165
Y0155
Y0145
Y0135
Y0125
Y0115
Y0105
Y0095
Y0085
Y0075
Y0065
T04
X0085Y0025
Y0035
Y0045
Y0055
Y0065
Y0075
Y0085
Y0095
Y0105
Y0115
Y0125
Y0135
Y0145
Y0155
Y0165
Y0175
X0085Y0185
Y0195
X0005
Y0185
Y0175
Y0165
Y0155
Y0145
Y0135
Y0125
Y0115
Y0105
Y0095
Y0085
Y0075
Y0065
T05
X001Y001
X008
T06
X0033622Y0017764
X0056378
M30
