G04*
G04 #@! TF.GenerationSoftware,Altium Limited,Altium Designer,25.0.1 (26)*
G04*
G04 Layer_Color=128*
%FSLAX25Y25*%
%MOIN*%
G70*
G04*
G04 #@! TF.SameCoordinates,5D196012-D927-4492-92D9-CD159FF3DA83*
G04*
G04*
G04 #@! TF.FilePolarity,Positive*
G04*
G01*
G75*
%ADD14C,0.00394*%
%ADD28R,0.02362X0.01968*%
%ADD40R,0.01968X0.02362*%
%ADD41R,0.04331X0.03937*%
%ADD91R,0.02953X0.01575*%
%ADD92R,0.22520X0.22520*%
%ADD93O,0.00984X0.05709*%
%ADD94O,0.05709X0.00984*%
%ADD95C,0.04724*%
%ADD96C,0.03150*%
%ADD97R,0.09843X0.12598*%
%ADD98R,0.01378X0.07087*%
D14*
X528401Y200000D02*
G03*
X523401Y195000I-0J-5000D01*
G01*
X523401Y10000D02*
G03*
X533401Y-0I10000J-0D01*
G01*
X613401Y195000D02*
G03*
X608401Y200000I-5000J0D01*
G01*
X603401Y0D02*
G03*
X613401Y10000I0J10000D01*
G01*
X613401Y195000D02*
X613401Y10000D01*
X608401Y200000D02*
X528401Y200000D01*
X523401Y10000D02*
X523401Y195000D01*
X603401Y0D02*
X533401Y0D01*
D28*
X568125Y73622D02*
D03*
Y69685D02*
D03*
X570094Y20154D02*
D03*
Y16217D02*
D03*
X566157D02*
D03*
Y20154D02*
D03*
X562771Y152913D02*
D03*
Y156850D02*
D03*
X561039Y69685D02*
D03*
Y73622D02*
D03*
X557495Y69685D02*
D03*
Y73622D02*
D03*
X543480Y71496D02*
D03*
Y75433D02*
D03*
X566708Y152913D02*
D03*
Y156850D02*
D03*
X577338Y152913D02*
D03*
Y156850D02*
D03*
X573795Y152913D02*
D03*
Y156850D02*
D03*
X570251Y152913D02*
D03*
Y156850D02*
D03*
X601196Y148031D02*
D03*
X601196Y144095D02*
D03*
X597653Y148031D02*
D03*
Y144095D02*
D03*
X591747Y153543D02*
D03*
Y149606D02*
D03*
X560645Y21654D02*
D03*
Y17717D02*
D03*
X548047Y18504D02*
D03*
Y22441D02*
D03*
X539936Y71496D02*
D03*
Y75433D02*
D03*
X536393Y71496D02*
D03*
Y75433D02*
D03*
X538204Y60630D02*
D03*
Y64567D02*
D03*
X541747Y60630D02*
D03*
Y64567D02*
D03*
X545291Y60630D02*
D03*
Y64567D02*
D03*
X538204Y53150D02*
D03*
Y57087D02*
D03*
X541747Y53150D02*
D03*
Y57087D02*
D03*
X543716Y34252D02*
D03*
Y30315D02*
D03*
X600409Y28346D02*
D03*
Y32283D02*
D03*
X546866Y55118D02*
D03*
Y51181D02*
D03*
X564582Y73622D02*
D03*
Y69685D02*
D03*
D40*
X573244Y149606D02*
D03*
X577180D02*
D03*
X574582Y75630D02*
D03*
X578519D02*
D03*
X592929Y42126D02*
D03*
X588991D02*
D03*
X592929Y33465D02*
D03*
X588991D02*
D03*
D41*
X552180Y25984D02*
D03*
X558873Y25984D02*
D03*
D91*
X554720Y49862D02*
D03*
X554720Y44941D02*
D03*
Y40020D02*
D03*
X554720Y35098D02*
D03*
X582082Y49862D02*
D03*
X582082Y44941D02*
D03*
Y40020D02*
D03*
X582082Y35098D02*
D03*
D92*
X568401Y112126D02*
D03*
D93*
X592810Y81713D02*
D03*
X591236D02*
D03*
X589661D02*
D03*
X588086D02*
D03*
X586511D02*
D03*
X584936D02*
D03*
X583362D02*
D03*
X581787D02*
D03*
X580212Y81713D02*
D03*
X578637D02*
D03*
X577062Y81713D02*
D03*
X575488D02*
D03*
X573913D02*
D03*
X572338D02*
D03*
X570763D02*
D03*
X569188D02*
D03*
X567614D02*
D03*
X566039D02*
D03*
X564464Y81713D02*
D03*
X562889Y81713D02*
D03*
X561314Y81713D02*
D03*
X559739Y81713D02*
D03*
X558165Y81713D02*
D03*
X556590Y81713D02*
D03*
X555015D02*
D03*
X553440D02*
D03*
X551865D02*
D03*
X550291D02*
D03*
X548716D02*
D03*
X547141D02*
D03*
X545566D02*
D03*
X543992Y81713D02*
D03*
Y142539D02*
D03*
X545566D02*
D03*
X547141D02*
D03*
X548716D02*
D03*
X550291D02*
D03*
X551865D02*
D03*
X553440D02*
D03*
X555015D02*
D03*
X556590D02*
D03*
X558165D02*
D03*
X559739D02*
D03*
X561314D02*
D03*
X562889D02*
D03*
X564464D02*
D03*
X566039D02*
D03*
X567614D02*
D03*
X569188D02*
D03*
X570763D02*
D03*
X572338D02*
D03*
X573913D02*
D03*
X575488D02*
D03*
X577062D02*
D03*
X578637D02*
D03*
X580212D02*
D03*
X581787D02*
D03*
X583362D02*
D03*
X584936D02*
D03*
X586511D02*
D03*
X588086D02*
D03*
X589661D02*
D03*
X591236D02*
D03*
X592810D02*
D03*
D94*
X537988Y87717D02*
D03*
Y89291D02*
D03*
Y90866D02*
D03*
Y92441D02*
D03*
Y94016D02*
D03*
Y95591D02*
D03*
Y97165D02*
D03*
Y98740D02*
D03*
Y100315D02*
D03*
Y101890D02*
D03*
Y103465D02*
D03*
Y105039D02*
D03*
Y106614D02*
D03*
Y108189D02*
D03*
Y109764D02*
D03*
Y111339D02*
D03*
Y112913D02*
D03*
Y114488D02*
D03*
Y116063D02*
D03*
Y117638D02*
D03*
Y119213D02*
D03*
Y120787D02*
D03*
Y122362D02*
D03*
Y123937D02*
D03*
Y125512D02*
D03*
Y127087D02*
D03*
Y128661D02*
D03*
Y130236D02*
D03*
Y131811D02*
D03*
Y133386D02*
D03*
Y134961D02*
D03*
Y136535D02*
D03*
X598814D02*
D03*
X598814Y134961D02*
D03*
Y133386D02*
D03*
Y131811D02*
D03*
Y130236D02*
D03*
Y128661D02*
D03*
Y127087D02*
D03*
Y125512D02*
D03*
Y123937D02*
D03*
X598814Y122362D02*
D03*
X598814Y120787D02*
D03*
X598814Y119213D02*
D03*
X598814Y117638D02*
D03*
X598814Y116063D02*
D03*
X598814Y114488D02*
D03*
Y112913D02*
D03*
Y111339D02*
D03*
Y109764D02*
D03*
Y108189D02*
D03*
Y106614D02*
D03*
Y105039D02*
D03*
Y103465D02*
D03*
X598814Y101890D02*
D03*
Y100315D02*
D03*
X598814Y98740D02*
D03*
Y97165D02*
D03*
Y95591D02*
D03*
Y94016D02*
D03*
Y92441D02*
D03*
Y90866D02*
D03*
Y89291D02*
D03*
Y87717D02*
D03*
D95*
X608401Y30000D02*
D03*
Y40000D02*
D03*
D96*
X589385Y46457D02*
D03*
X548116Y40551D02*
D03*
X548440Y34252D02*
D03*
X589385Y29134D02*
D03*
Y37795D02*
D03*
X547259Y46850D02*
D03*
D97*
X540055Y187894D02*
D03*
X596747D02*
D03*
D98*
X547732Y180413D02*
D03*
X551669D02*
D03*
X555606D02*
D03*
X559543D02*
D03*
X563480D02*
D03*
X567417D02*
D03*
X571354D02*
D03*
X575291D02*
D03*
X579228D02*
D03*
X583165D02*
D03*
X587102D02*
D03*
X549700D02*
D03*
X553637D02*
D03*
X557574D02*
D03*
X561511D02*
D03*
X565448D02*
D03*
X569385D02*
D03*
X573322D02*
D03*
X577259D02*
D03*
X581196D02*
D03*
X585133D02*
D03*
X589070D02*
D03*
M02*
