G04*
G04 #@! TF.GenerationSoftware,Altium Limited,Altium Designer,25.0.1 (26)*
G04*
G04 Layer_Color=8388736*
%FSLAX25Y25*%
%MOIN*%
G70*
G04*
G04 #@! TF.SameCoordinates,5D196012-D927-4492-92D9-CD159FF3DA83*
G04*
G04*
G04 #@! TF.FilePolarity,Negative*
G04*
G01*
G75*
%ADD14C,0.00394*%
%ADD42R,0.07323X0.04961*%
%ADD43R,0.07323X0.05945*%
%ADD44R,0.01417X0.05945*%
%ADD45R,0.03780X0.03386*%
%ADD46R,0.04567X0.02598*%
%ADD47R,0.12441X0.05748*%
%ADD48R,0.13622X0.06142*%
%ADD49R,0.04764X0.04370*%
%ADD50R,0.03583X0.08110*%
%ADD51R,0.02992X0.06929*%
%ADD52R,0.01614X0.03189*%
%ADD53R,0.02598X0.02205*%
%ADD54O,0.01221X0.03583*%
%ADD55O,0.03583X0.01221*%
%ADD56R,0.06732X0.06732*%
%ADD57C,0.02992*%
%ADD58R,0.02598X0.01811*%
%ADD59R,0.03189X0.08504*%
%ADD60R,0.02992X0.02992*%
%ADD61R,0.03386X0.01811*%
%ADD62R,0.01811X0.03386*%
%ADD63R,0.05945X0.05945*%
%ADD64R,0.04173X0.04567*%
%ADD65R,0.02205X0.02598*%
%ADD66R,0.04567X0.04173*%
%ADD67C,0.02795*%
%ADD68C,0.06142*%
%ADD69R,0.06142X0.06142*%
%ADD70C,0.06236*%
%ADD71R,0.05236X0.06142*%
%ADD72R,0.06142X0.06142*%
%ADD73C,0.15236*%
G36*
X40472Y182303D02*
X33976D01*
Y186240D01*
X36535Y188799D01*
X40472D01*
Y182303D01*
D02*
G37*
D14*
X90000Y195000D02*
G03*
X85000Y200000I-5000J0D01*
G01*
X80000Y-0D02*
G03*
X90000Y10000I0J10000D01*
G01*
X5000Y200000D02*
G03*
X0Y195000I0J-5000D01*
G01*
X-0Y10000D02*
G03*
X10000Y0I10000J0D01*
G01*
X-0Y195000D02*
X0Y10000D01*
X5000Y200000D02*
X85000Y200000D01*
X90000Y10000D02*
X90000Y195000D01*
X10000Y0D02*
X80000Y0D01*
D42*
X64961Y3396D02*
D03*
X25039D02*
D03*
D43*
Y19852D02*
D03*
X64961D02*
D03*
D44*
X31713Y23455D02*
D03*
X32894Y23455D02*
D03*
X57106Y23455D02*
D03*
X58287Y23455D02*
D03*
X55039Y23455D02*
D03*
X53858Y23455D02*
D03*
X51890D02*
D03*
X49921D02*
D03*
X47953Y23455D02*
D03*
X45984D02*
D03*
X44016D02*
D03*
X42047D02*
D03*
X40079Y23455D02*
D03*
X38110D02*
D03*
X36142Y23455D02*
D03*
X34961Y23455D02*
D03*
D45*
X22972Y102697D02*
D03*
X29469Y107618D02*
D03*
X22972Y107618D02*
D03*
X29469Y102697D02*
D03*
D46*
X21890Y118347D02*
D03*
Y123858D02*
D03*
D47*
X7756Y55492D02*
D03*
Y29508D02*
D03*
D48*
X30000Y46437D02*
D03*
Y38563D02*
D03*
D49*
X24114Y95768D02*
D03*
Y90059D02*
D03*
X37303Y95768D02*
D03*
Y90059D02*
D03*
X47343Y95768D02*
D03*
Y90059D02*
D03*
X60532Y95768D02*
D03*
Y90059D02*
D03*
D50*
X69784Y30709D02*
D03*
X63287D02*
D03*
D51*
X39370Y78347D02*
D03*
X33858D02*
D03*
X69095D02*
D03*
X63583D02*
D03*
D52*
X25591Y70079D02*
D03*
X27559D02*
D03*
X29528D02*
D03*
Y75590D02*
D03*
X27559D02*
D03*
X25591D02*
D03*
X55315D02*
D03*
X57284D02*
D03*
X59252D02*
D03*
Y70079D02*
D03*
X57284D02*
D03*
X55315D02*
D03*
D53*
X42500Y88032D02*
D03*
Y91969D02*
D03*
X18504Y113098D02*
D03*
Y109161D02*
D03*
X22441Y131496D02*
D03*
Y127559D02*
D03*
X29134Y116142D02*
D03*
Y120079D02*
D03*
X12992Y124803D02*
D03*
Y120866D02*
D03*
X77165Y93701D02*
D03*
Y97638D02*
D03*
X76378Y131102D02*
D03*
Y135039D02*
D03*
X53937Y83465D02*
D03*
Y79528D02*
D03*
X25394Y79724D02*
D03*
Y83661D02*
D03*
X50000Y57874D02*
D03*
Y53937D02*
D03*
X39764Y57874D02*
D03*
Y53937D02*
D03*
X43307Y57874D02*
D03*
Y53937D02*
D03*
X70866Y50394D02*
D03*
Y54331D02*
D03*
X39764Y46063D02*
D03*
Y50000D02*
D03*
X46457Y53937D02*
D03*
Y57874D02*
D03*
X61024Y112992D02*
D03*
Y116929D02*
D03*
X12205Y194095D02*
D03*
Y198031D02*
D03*
X74000Y188031D02*
D03*
Y191969D02*
D03*
X57480Y83465D02*
D03*
Y79528D02*
D03*
X56299Y148425D02*
D03*
Y152362D02*
D03*
X59842Y148425D02*
D03*
Y152362D02*
D03*
X74410Y54331D02*
D03*
Y50394D02*
D03*
X74016Y171260D02*
D03*
Y167323D02*
D03*
X77559Y171260D02*
D03*
Y167323D02*
D03*
D54*
X57236Y43421D02*
D03*
X59205D02*
D03*
X61173D02*
D03*
X63142D02*
D03*
Y54642D02*
D03*
X61173D02*
D03*
X59205D02*
D03*
X57236D02*
D03*
D55*
X65799Y46079D02*
D03*
X65799Y48047D02*
D03*
Y50016D02*
D03*
Y51984D02*
D03*
X54579D02*
D03*
Y50016D02*
D03*
Y48047D02*
D03*
Y46079D02*
D03*
D56*
X60189Y49031D02*
D03*
D57*
X67736Y89917D02*
D03*
X72264Y100390D02*
D03*
X67736D02*
D03*
X72264Y89917D02*
D03*
D58*
X74016Y194882D02*
D03*
Y198031D02*
D03*
X24646Y13160D02*
D03*
Y10010D02*
D03*
X65354Y10010D02*
D03*
X65354Y13160D02*
D03*
X16142Y194882D02*
D03*
Y198031D02*
D03*
D59*
X35000Y113032D02*
D03*
X40000D02*
D03*
X45000D02*
D03*
X50000D02*
D03*
X55000D02*
D03*
Y128386D02*
D03*
X50000D02*
D03*
X45000D02*
D03*
X40000D02*
D03*
X35000D02*
D03*
D60*
X21575Y197264D02*
D03*
Y158287D02*
D03*
X68425Y197264D02*
D03*
Y158287D02*
D03*
D61*
X21772Y193524D02*
D03*
Y190374D02*
D03*
Y187224D02*
D03*
Y184075D02*
D03*
Y180925D02*
D03*
Y177776D02*
D03*
Y174626D02*
D03*
Y171476D02*
D03*
Y168327D02*
D03*
Y165177D02*
D03*
Y162028D02*
D03*
X68228D02*
D03*
Y165177D02*
D03*
Y168327D02*
D03*
Y171476D02*
D03*
Y174626D02*
D03*
Y177776D02*
D03*
Y180925D02*
D03*
Y184075D02*
D03*
Y187224D02*
D03*
Y190374D02*
D03*
Y193524D02*
D03*
D62*
X26102Y158484D02*
D03*
X29252D02*
D03*
X32402D02*
D03*
X35551D02*
D03*
X38701D02*
D03*
X41850D02*
D03*
X45000D02*
D03*
X48150D02*
D03*
X51299D02*
D03*
X54449D02*
D03*
X57598D02*
D03*
X60748D02*
D03*
X63898D02*
D03*
Y197067D02*
D03*
X60748D02*
D03*
X57598D02*
D03*
X54449D02*
D03*
X51299D02*
D03*
X48150D02*
D03*
X45000D02*
D03*
X41850D02*
D03*
X38701D02*
D03*
X35551D02*
D03*
X32402D02*
D03*
X29252D02*
D03*
X26102D02*
D03*
D63*
X45000Y177776D02*
D03*
Y185551D02*
D03*
X52776D02*
D03*
Y177776D02*
D03*
Y170000D02*
D03*
X45000D02*
D03*
X37224D02*
D03*
Y177776D02*
D03*
D64*
X44882Y42716D02*
D03*
X44882Y49409D02*
D03*
X14567Y183267D02*
D03*
X14567Y189960D02*
D03*
X75591Y31693D02*
D03*
X75591Y38385D02*
D03*
D65*
X16142Y173622D02*
D03*
X12205D02*
D03*
X29528Y112205D02*
D03*
X25591D02*
D03*
X73228Y109449D02*
D03*
X77165D02*
D03*
X73228Y112992D02*
D03*
X77165D02*
D03*
X12992Y131496D02*
D03*
X16929D02*
D03*
X12992Y127953D02*
D03*
X16929D02*
D03*
X77165Y138976D02*
D03*
X73228D02*
D03*
X17968Y87000D02*
D03*
X14031D02*
D03*
X73228Y105905D02*
D03*
X77165D02*
D03*
X73228Y116535D02*
D03*
X77165D02*
D03*
X73228Y120079D02*
D03*
X77165D02*
D03*
X60039Y65748D02*
D03*
X56102D02*
D03*
X60039Y62205D02*
D03*
X56102D02*
D03*
X30315Y66142D02*
D03*
X26378D02*
D03*
X30315Y62598D02*
D03*
X26378D02*
D03*
X21654Y83071D02*
D03*
X17717D02*
D03*
X47441Y75984D02*
D03*
X51378D02*
D03*
X47441Y68504D02*
D03*
X51378D02*
D03*
Y64961D02*
D03*
X47441D02*
D03*
X29331Y79724D02*
D03*
X25394D02*
D03*
X17717Y79528D02*
D03*
X21654D02*
D03*
X17717Y75984D02*
D03*
X21654D02*
D03*
Y68504D02*
D03*
X17717D02*
D03*
Y64961D02*
D03*
X21654D02*
D03*
X47441Y72441D02*
D03*
X51378D02*
D03*
X17717D02*
D03*
X21654D02*
D03*
X13032Y135000D02*
D03*
X16969D02*
D03*
X46457Y135039D02*
D03*
X42520D02*
D03*
X16969Y138500D02*
D03*
X13032D02*
D03*
X12205Y177165D02*
D03*
X16142D02*
D03*
D66*
X72048Y71654D02*
D03*
X65355Y71654D02*
D03*
X72048Y66536D02*
D03*
X65355Y66536D02*
D03*
X41536Y66536D02*
D03*
X34843Y66536D02*
D03*
X41536Y71654D02*
D03*
X34843Y71654D02*
D03*
X53741Y36221D02*
D03*
X47048D02*
D03*
X59645Y38189D02*
D03*
X66338D02*
D03*
D67*
X56378Y17764D02*
D03*
X33622D02*
D03*
D68*
X5000Y195000D02*
D03*
X85000Y145000D02*
D03*
Y155000D02*
D03*
Y165000D02*
D03*
Y135000D02*
D03*
Y125000D02*
D03*
Y115000D02*
D03*
Y105000D02*
D03*
Y65000D02*
D03*
Y75000D02*
D03*
Y85000D02*
D03*
Y95000D02*
D03*
Y25000D02*
D03*
Y35000D02*
D03*
Y45000D02*
D03*
Y55000D02*
D03*
X5000Y85000D02*
D03*
Y95000D02*
D03*
Y125000D02*
D03*
Y115000D02*
D03*
Y135000D02*
D03*
Y145000D02*
D03*
Y155000D02*
D03*
Y165000D02*
D03*
Y105000D02*
D03*
Y75000D02*
D03*
Y65000D02*
D03*
X85000Y195000D02*
D03*
D69*
X5000Y185000D02*
D03*
X85000Y175000D02*
D03*
X5000Y175000D02*
D03*
X85000Y185000D02*
D03*
D70*
X75000Y25000D02*
D03*
Y45000D02*
D03*
D71*
X2500Y195000D02*
D03*
Y165000D02*
D03*
Y155000D02*
D03*
Y145000D02*
D03*
Y135000D02*
D03*
Y125000D02*
D03*
Y115000D02*
D03*
Y105000D02*
D03*
Y95000D02*
D03*
Y85000D02*
D03*
Y75000D02*
D03*
Y65000D02*
D03*
X87500Y25000D02*
D03*
Y35000D02*
D03*
Y45000D02*
D03*
Y55000D02*
D03*
Y65000D02*
D03*
Y75000D02*
D03*
Y85000D02*
D03*
Y95000D02*
D03*
Y105000D02*
D03*
Y115000D02*
D03*
Y125000D02*
D03*
Y135000D02*
D03*
Y145000D02*
D03*
Y155000D02*
D03*
Y165000D02*
D03*
X87500Y195000D02*
D03*
D72*
X2756Y185000D02*
D03*
Y175000D02*
D03*
X87244Y185000D02*
D03*
X87244Y175000D02*
D03*
D73*
X10000Y10000D02*
D03*
X80000D02*
D03*
M02*
