G04*
G04 #@! TF.GenerationSoftware,Altium Limited,Altium Designer,25.0.1 (26)*
G04*
G04 Layer_Physical_Order=2*
G04 Layer_Color=36540*
%FSLAX25Y25*%
%MOIN*%
G70*
G04*
G04 #@! TF.SameCoordinates,5D196012-D927-4492-92D9-CD159FF3DA83*
G04*
G04*
G04 #@! TF.FilePolarity,Positive*
G04*
G01*
G75*
%ADD13C,0.00787*%
%ADD14C,0.00394*%
%ADD16C,0.01968*%
%ADD83C,0.05906*%
%ADD85C,0.06000*%
%ADD86R,0.05000X0.05906*%
%ADD89C,0.01968*%
G36*
X48231Y154532D02*
X50197Y152566D01*
X50132Y150391D01*
X48745Y150074D01*
X47238Y151581D01*
X46712D01*
X46364Y151930D01*
X45785Y152170D01*
X45158D01*
X44580Y151930D01*
X44137Y151487D01*
X43897Y150908D01*
Y150282D01*
X44137Y149703D01*
X44294Y149546D01*
Y145676D01*
X48231Y141739D01*
X52168D01*
X55120Y138786D01*
X71853D01*
X75790Y134849D01*
Y117132D01*
X79724Y113198D01*
Y110240D01*
X79118Y109634D01*
X78852Y109524D01*
X78409Y109081D01*
X78299Y108815D01*
X76774Y107290D01*
Y73825D01*
X74805Y71857D01*
X68900D01*
X58073Y82684D01*
Y86621D01*
X57842Y86852D01*
X57828Y86921D01*
X57654Y87182D01*
X57654Y87182D01*
X53717Y91119D01*
X53717Y91119D01*
X53457Y91293D01*
X53387Y91307D01*
X53152Y91542D01*
X49215D01*
X48981Y91308D01*
X48905Y91293D01*
X48645Y91119D01*
X45692Y88166D01*
X45518Y87906D01*
X45503Y87830D01*
X45278Y87605D01*
Y62161D01*
X44147Y61030D01*
X41341D01*
X40357Y62014D01*
Y92526D01*
X45278Y97447D01*
X58073Y97447D01*
X61026Y94495D01*
Y86621D01*
X61036Y86611D01*
X60925Y86345D01*
Y85718D01*
X61165Y85139D01*
X61608Y84696D01*
X62187Y84457D01*
X62813D01*
X63080Y84567D01*
X71853Y75794D01*
X72837D01*
X73821Y76778D01*
Y79731D01*
X72837Y80715D01*
Y125006D01*
X67323Y130521D01*
Y130628D01*
X67083Y131207D01*
X66640Y131650D01*
X66061Y131890D01*
X65954D01*
X65947Y131896D01*
X46262D01*
X42934Y135224D01*
X43130Y135724D01*
X43599Y135918D01*
X44042Y136361D01*
X44282Y136940D01*
Y137567D01*
X44042Y138145D01*
X43599Y138589D01*
X43020Y138828D01*
X42394D01*
X41815Y138589D01*
X41341Y138810D01*
Y152566D01*
X43309Y154534D01*
X48231Y154532D01*
D02*
G37*
G36*
X56102Y156496D02*
Y152559D01*
X53446Y149903D01*
X53221D01*
X52642Y149663D01*
X52199Y149220D01*
X51959Y148641D01*
Y148545D01*
X51550Y148272D01*
X51494Y148295D01*
X50868D01*
X50289Y148055D01*
X49846Y147612D01*
X49606Y147033D01*
Y146406D01*
X49846Y145828D01*
X50289Y145385D01*
X50868Y145145D01*
X51494D01*
X52073Y145385D01*
X52516Y145828D01*
X52912Y145906D01*
X56102Y142717D01*
X78740D01*
X79724Y141732D01*
Y140748D01*
X78740Y139764D01*
X55278D01*
X52735Y142306D01*
X52475Y142481D01*
X52383Y142499D01*
X52165Y142717D01*
X48388D01*
X45276Y145829D01*
Y151074D01*
X45768Y151308D01*
X45909Y151249D01*
X46145Y151014D01*
X46405Y150840D01*
X46712Y150778D01*
X46905D01*
X48177Y149507D01*
X48252Y149457D01*
X48318Y149395D01*
X48381Y149370D01*
X48437Y149332D01*
X48526Y149315D01*
X48610Y149283D01*
X48678Y149285D01*
X48745Y149271D01*
X48833Y149289D01*
X48923Y149292D01*
X49048Y149320D01*
X49068Y149312D01*
X49695D01*
X50274Y149551D01*
X50346Y149624D01*
X50362Y149631D01*
X50418Y149641D01*
X50504Y149695D01*
X50597Y149736D01*
X50635Y149777D01*
X50683Y149807D01*
X50742Y149890D01*
X50812Y149964D01*
X50832Y150016D01*
X50865Y150062D01*
X50888Y150161D01*
X50924Y150257D01*
X50922Y150313D01*
X50928Y150338D01*
X51181Y150591D01*
Y152559D01*
X50959Y152781D01*
X50947Y152851D01*
X50941Y152861D01*
X50939Y152873D01*
X50858Y152993D01*
X50781Y153116D01*
X50771Y153123D01*
X50765Y153133D01*
X48798Y155099D01*
X48669Y155186D01*
X48538Y155273D01*
X48538Y155273D01*
X48538Y155273D01*
X48449Y155291D01*
X48228Y155512D01*
X43307D01*
X43088Y155293D01*
X43003Y155276D01*
X43002Y155276D01*
X43002Y155276D01*
X42871Y155189D01*
X42742Y155102D01*
X42742Y155102D01*
X42742Y155102D01*
X40773Y153133D01*
X40599Y152873D01*
X40582Y152787D01*
X40354Y152559D01*
Y138552D01*
X39746D01*
X39167Y138312D01*
X38724Y137869D01*
X38484Y137291D01*
Y136664D01*
X38154Y136176D01*
X37919Y136078D01*
X37476Y135635D01*
X37197Y135580D01*
X37192Y135584D01*
X36613Y135824D01*
X35987D01*
X35408Y135584D01*
X34965Y135141D01*
X34725Y134563D01*
Y133936D01*
X34965Y133357D01*
X35408Y132914D01*
X35987Y132675D01*
X36613D01*
X37192Y132914D01*
X37635Y133357D01*
X37914Y133413D01*
X37919Y133408D01*
X38498Y133168D01*
X39124D01*
X39703Y133408D01*
X40146Y133851D01*
X40386Y134430D01*
Y135056D01*
X40409Y135097D01*
X40940Y135241D01*
X45276Y130905D01*
X51181D01*
X61811Y120276D01*
Y119765D01*
X62051Y119187D01*
X62494Y118744D01*
X62619Y118692D01*
X62838Y118215D01*
X62598Y117636D01*
Y117010D01*
X62838Y116431D01*
X63281Y115988D01*
X63860Y115748D01*
X64486D01*
X65065Y115988D01*
X65234Y116157D01*
X65899Y116187D01*
X66338Y115748D01*
X66142Y115274D01*
Y114647D01*
X66382Y114069D01*
X66546Y113904D01*
X66792Y113583D01*
X66546Y113261D01*
X66382Y113097D01*
X66142Y112518D01*
Y111891D01*
X66382Y111313D01*
X66825Y110870D01*
X67403Y110630D01*
X68030D01*
X68609Y110870D01*
X68738Y111000D01*
X69088Y110656D01*
X68849Y110077D01*
Y109450D01*
X68958Y109187D01*
X68793Y108586D01*
X68350Y108143D01*
X68110Y107564D01*
Y106938D01*
X68350Y106359D01*
X68606Y106103D01*
X68744Y105614D01*
X68504Y105036D01*
Y104821D01*
X68012Y104493D01*
X67813Y104575D01*
X67187D01*
X66608Y104335D01*
X66165Y103892D01*
X65925Y103313D01*
Y102687D01*
X66165Y102108D01*
X66608Y101665D01*
X67187Y101425D01*
X67813D01*
X68392Y101665D01*
X68835Y102108D01*
X69075Y102687D01*
Y102901D01*
X69567Y103230D01*
X69766Y103148D01*
X70392D01*
X70971Y103387D01*
X71358Y103775D01*
X71619Y103733D01*
X71850Y103624D01*
Y96887D01*
X71441Y96614D01*
X71346Y96653D01*
X70719D01*
X70140Y96414D01*
X69697Y95971D01*
X69458Y95392D01*
Y94766D01*
X69697Y94187D01*
X70140Y93744D01*
X70719Y93504D01*
X71346D01*
X71441Y93543D01*
X71850Y93270D01*
Y80709D01*
X72081Y80478D01*
X72095Y80408D01*
X72269Y80147D01*
X72835Y79582D01*
Y77199D01*
X72407Y76772D01*
X72010Y76772D01*
X63647Y85135D01*
X63387Y85309D01*
X63295Y85327D01*
X62008Y86614D01*
Y95472D01*
X55846Y101634D01*
X56075Y102187D01*
Y102813D01*
X55835Y103392D01*
X55392Y103835D01*
X54813Y104075D01*
X54187D01*
X53634Y103846D01*
X40354Y117126D01*
X11811D01*
X8858Y120079D01*
Y121063D01*
X17717Y129921D01*
Y138779D01*
X20669Y141732D01*
X36417D01*
X38386Y143701D01*
Y153543D01*
X42323Y157480D01*
X55118D01*
X56102Y156496D01*
D02*
G37*
G36*
X17379Y198595D02*
X17560Y198103D01*
X17343Y197577D01*
Y196950D01*
X17582Y196372D01*
X18025Y195929D01*
X18604Y195689D01*
X19231D01*
X19809Y195929D01*
X20252Y196372D01*
X20492Y196950D01*
Y197577D01*
X20274Y198103D01*
X20456Y198595D01*
X69544Y198595D01*
X69726Y198103D01*
X69508Y197577D01*
Y196950D01*
X69748Y196372D01*
X70191Y195929D01*
X70769Y195689D01*
X71396D01*
X71975Y195929D01*
X72418Y196372D01*
X72658Y196950D01*
Y197577D01*
X72440Y198103D01*
X72622Y198595D01*
X82464D01*
X82473Y198560D01*
X82535Y198103D01*
X81850Y197417D01*
X81331Y196520D01*
X81063Y195518D01*
Y194482D01*
X81331Y193480D01*
X81850Y192583D01*
X82583Y191850D01*
X83480Y191331D01*
X84016Y191188D01*
Y191063D01*
X88595D01*
Y188937D01*
X81063D01*
Y181063D01*
X88595D01*
Y178937D01*
X81063D01*
Y171063D01*
X88595D01*
Y168937D01*
X84016D01*
Y168812D01*
X83480Y168669D01*
X82583Y168150D01*
X81850Y167417D01*
X81331Y166520D01*
X81063Y165518D01*
Y164482D01*
X81331Y163480D01*
X81850Y162583D01*
X82583Y161850D01*
X83480Y161331D01*
X84016Y161188D01*
Y161063D01*
X88595D01*
Y158937D01*
X84016D01*
Y158812D01*
X83480Y158669D01*
X82583Y158150D01*
X81850Y157417D01*
X81331Y156520D01*
X81063Y155518D01*
Y154482D01*
X81331Y153480D01*
X81850Y152583D01*
X82583Y151850D01*
X83480Y151331D01*
X84016Y151188D01*
Y151063D01*
X88595D01*
Y148937D01*
X84016D01*
Y148812D01*
X83480Y148669D01*
X82583Y148150D01*
X81850Y147417D01*
X81331Y146520D01*
X81063Y145518D01*
Y144482D01*
X81331Y143480D01*
X81850Y142583D01*
X82583Y141850D01*
X83480Y141331D01*
X84016Y141188D01*
Y141063D01*
X88595D01*
Y138937D01*
X84016D01*
Y138812D01*
X83480Y138669D01*
X82583Y138150D01*
X81850Y137417D01*
X81331Y136520D01*
X81063Y135518D01*
Y134482D01*
X81331Y133480D01*
X81850Y132583D01*
X82583Y131850D01*
X83480Y131331D01*
X84016Y131188D01*
Y131063D01*
X88595D01*
Y128937D01*
X84016D01*
Y128812D01*
X83480Y128669D01*
X82583Y128150D01*
X81850Y127417D01*
X81331Y126520D01*
X81063Y125518D01*
Y124482D01*
X81331Y123480D01*
X81850Y122583D01*
X82583Y121850D01*
X83480Y121331D01*
X84016Y121188D01*
Y121063D01*
X88595D01*
Y118937D01*
X84016D01*
Y118812D01*
X83480Y118669D01*
X82583Y118150D01*
X81850Y117417D01*
X81331Y116520D01*
X81063Y115518D01*
Y114482D01*
X81331Y113480D01*
X81850Y112583D01*
X82583Y111850D01*
X83480Y111331D01*
X84016Y111188D01*
Y111063D01*
X88595D01*
Y108937D01*
X84016D01*
Y108812D01*
X83480Y108669D01*
X82583Y108150D01*
X81850Y107417D01*
X81331Y106520D01*
X81063Y105518D01*
Y104482D01*
X81331Y103480D01*
X81850Y102583D01*
X82583Y101850D01*
X83480Y101331D01*
X84016Y101188D01*
Y101063D01*
X88595D01*
Y98937D01*
X84016D01*
Y98812D01*
X83480Y98669D01*
X82583Y98150D01*
X81850Y97417D01*
X81331Y96520D01*
X81063Y95518D01*
Y94482D01*
X81223Y93885D01*
X80782Y93631D01*
X80636Y93776D01*
X80057Y94016D01*
X79431D01*
X78852Y93776D01*
X78409Y93333D01*
X78169Y92754D01*
Y92128D01*
X78409Y91549D01*
X78852Y91106D01*
X79431Y90866D01*
X80057D01*
X80636Y91106D01*
X81079Y91549D01*
X81319Y92128D01*
Y92518D01*
X81811Y92650D01*
X81850Y92583D01*
X82583Y91850D01*
X83480Y91331D01*
X84016Y91188D01*
Y91063D01*
X88595D01*
Y88937D01*
X84016D01*
Y88812D01*
X83480Y88669D01*
X82583Y88150D01*
X81850Y87417D01*
X81339Y87469D01*
X81319Y87482D01*
Y88030D01*
X81079Y88609D01*
X80636Y89052D01*
X80057Y89291D01*
X79431D01*
X78852Y89052D01*
X78409Y88609D01*
X78169Y88030D01*
Y87403D01*
X78409Y86825D01*
X78852Y86382D01*
X79431Y86142D01*
X80057D01*
X80636Y86382D01*
X80839Y86585D01*
X81280Y86330D01*
X81063Y85518D01*
Y84482D01*
X81331Y83480D01*
X81850Y82583D01*
X82583Y81850D01*
X83480Y81331D01*
X84016Y81188D01*
Y81063D01*
X88595D01*
X88595Y78937D01*
X84016D01*
Y78812D01*
X83480Y78669D01*
X82583Y78150D01*
X81850Y77417D01*
X81331Y76520D01*
X81063Y75518D01*
Y74482D01*
X81331Y73480D01*
X81389Y73380D01*
X81047Y72989D01*
X80804Y73089D01*
X80178D01*
X79599Y72850D01*
X79156Y72407D01*
X78916Y71828D01*
Y71201D01*
X79156Y70622D01*
X79599Y70179D01*
X80178Y69940D01*
X80804D01*
X81383Y70179D01*
X81826Y70622D01*
X82066Y71201D01*
Y71671D01*
X82525Y71907D01*
X82583Y71850D01*
X83480Y71331D01*
X84016Y71188D01*
Y71063D01*
X88595D01*
Y68937D01*
X84016D01*
Y68812D01*
X83480Y68669D01*
X82583Y68150D01*
X81850Y67417D01*
X81331Y66520D01*
X81063Y65518D01*
Y64482D01*
X81331Y63480D01*
X81850Y62583D01*
X82583Y61850D01*
X83480Y61331D01*
X84016Y61188D01*
Y61063D01*
X88595D01*
Y58937D01*
X84016D01*
Y58812D01*
X83480Y58669D01*
X82583Y58150D01*
X81850Y57417D01*
X81331Y56520D01*
X81063Y55518D01*
Y54482D01*
X81331Y53480D01*
X81850Y52583D01*
X82583Y51850D01*
X83480Y51331D01*
X84016Y51188D01*
Y51063D01*
X88595D01*
Y48937D01*
X84016D01*
Y48812D01*
X83480Y48669D01*
X82583Y48150D01*
X81850Y47417D01*
X81331Y46520D01*
X81063Y45518D01*
Y44482D01*
X81331Y43480D01*
X81850Y42583D01*
X82583Y41850D01*
X83480Y41331D01*
X84016Y41188D01*
Y41063D01*
X88595D01*
Y38953D01*
X88000D01*
Y35000D01*
Y31047D01*
X88595D01*
Y28937D01*
X84016D01*
Y28812D01*
X83480Y28669D01*
X82583Y28150D01*
X81850Y27417D01*
X81331Y26520D01*
X81063Y25518D01*
Y24482D01*
X81331Y23480D01*
X81850Y22583D01*
X82583Y21850D01*
X83480Y21331D01*
X84016Y21188D01*
Y21063D01*
X88595D01*
Y12706D01*
X88103Y12608D01*
X87519Y14019D01*
X86590Y15408D01*
X85408Y16590D01*
X84019Y17519D01*
X82475Y18158D01*
X80836Y18484D01*
X79164D01*
X77525Y18158D01*
X75981Y17519D01*
X74592Y16590D01*
X73410Y15408D01*
X72481Y14019D01*
X71842Y12475D01*
X71516Y10836D01*
Y9164D01*
X71842Y7525D01*
X72481Y5981D01*
X73410Y4592D01*
X74592Y3410D01*
X75981Y2481D01*
X77392Y1897D01*
X77294Y1405D01*
X71454Y1405D01*
X71250Y1897D01*
X71414Y2061D01*
X71653Y2639D01*
Y3266D01*
X71414Y3845D01*
X70971Y4288D01*
X70392Y4527D01*
X69766D01*
X69187Y4288D01*
X68744Y3845D01*
X68504Y3266D01*
Y2639D01*
X68744Y2061D01*
X68907Y1897D01*
X68703Y1405D01*
X21297Y1405D01*
X21093Y1897D01*
X21256Y2061D01*
X21496Y2639D01*
Y3266D01*
X21256Y3845D01*
X20813Y4288D01*
X20234Y4527D01*
X19608D01*
X19029Y4288D01*
X18586Y3845D01*
X18346Y3266D01*
Y2639D01*
X18586Y2061D01*
X18750Y1897D01*
X18546Y1405D01*
X12706Y1405D01*
X12608Y1897D01*
X14019Y2481D01*
X15408Y3410D01*
X16590Y4592D01*
X17519Y5981D01*
X18158Y7525D01*
X18484Y9164D01*
Y10836D01*
X18158Y12475D01*
X17519Y14019D01*
X16590Y15408D01*
X15408Y16590D01*
X14019Y17519D01*
X12475Y18158D01*
X10836Y18484D01*
X9164D01*
X7525Y18158D01*
X5981Y17519D01*
X4592Y16590D01*
X3410Y15408D01*
X2481Y14019D01*
X1897Y12608D01*
X1405Y12706D01*
X1405Y61063D01*
X4482D01*
X4482Y61063D01*
X5518D01*
X5518Y61063D01*
X5984D01*
Y61188D01*
X6520Y61331D01*
X7417Y61850D01*
X8150Y62583D01*
X8669Y63480D01*
X8937Y64482D01*
Y65518D01*
X8669Y66520D01*
X8150Y67417D01*
X7417Y68150D01*
X6520Y68669D01*
X5984Y68812D01*
Y68937D01*
X1405D01*
Y71063D01*
X5984D01*
Y71188D01*
X6520Y71331D01*
X7417Y71850D01*
X8150Y72583D01*
X8669Y73480D01*
X8937Y74482D01*
Y75518D01*
X8669Y76520D01*
X8150Y77417D01*
X8085Y77483D01*
X8273Y77937D01*
X11811D01*
X11811Y77937D01*
X12118Y77998D01*
X12379Y78172D01*
X13617Y79411D01*
X14034Y79132D01*
X13902Y78813D01*
Y78187D01*
X13961Y78045D01*
Y77756D01*
X13961Y77756D01*
X14022Y77449D01*
X14196Y77188D01*
X28725Y62660D01*
Y59295D01*
X28660Y59252D01*
X28033D01*
X27454Y59012D01*
X27056Y58614D01*
X26978Y58568D01*
X26472Y58554D01*
X26207Y58820D01*
X25628Y59059D01*
X25002D01*
X24423Y58820D01*
X23980Y58377D01*
X23740Y57798D01*
Y57171D01*
X23980Y56593D01*
X24423Y56150D01*
X25002Y55910D01*
X25628D01*
X26207Y56150D01*
X26605Y56548D01*
X26683Y56594D01*
X27189Y56608D01*
X27454Y56342D01*
X28033Y56102D01*
X28660D01*
X28725Y56059D01*
Y54128D01*
X28742Y54040D01*
X28745Y53951D01*
X28772Y53888D01*
X28786Y53821D01*
X28835Y53746D01*
X28872Y53665D01*
X28922Y53618D01*
X28960Y53560D01*
X29034Y53511D01*
X29099Y53449D01*
X29443Y53232D01*
X29559Y52750D01*
X29528Y52675D01*
Y52049D01*
X29559Y51974D01*
X29443Y51492D01*
X29099Y51275D01*
X29034Y51214D01*
X28960Y51164D01*
X28922Y51107D01*
X28872Y51060D01*
X28835Y50978D01*
X28786Y50904D01*
X28772Y50836D01*
X28745Y50774D01*
X28742Y50684D01*
X28725Y50596D01*
Y28543D01*
X28786Y28236D01*
X28960Y27976D01*
X28960Y27976D01*
X34865Y22070D01*
X35126Y21896D01*
X35433Y21835D01*
X61024D01*
X61024Y21835D01*
X61331Y21896D01*
X61591Y22070D01*
X65293Y25772D01*
X68565D01*
X69645Y24692D01*
X69754Y24620D01*
X69857Y24540D01*
X69883Y24533D01*
X69905Y24518D01*
X70034Y24493D01*
X70160Y24459D01*
X70186Y24462D01*
X70213Y24457D01*
X70341Y24483D01*
X70470Y24499D01*
X70565Y24531D01*
X71092Y24191D01*
X71287Y23462D01*
X71657Y22821D01*
X71650Y22717D01*
X71452Y22262D01*
X71443Y22255D01*
X71043Y22089D01*
X70600Y21646D01*
X70361Y21068D01*
Y20441D01*
X70600Y19862D01*
X71043Y19419D01*
X71622Y19180D01*
X72249D01*
X72828Y19419D01*
X73270Y19862D01*
X73510Y20441D01*
Y20765D01*
X73967Y21152D01*
X74476Y21016D01*
X75524D01*
X76538Y21287D01*
X77446Y21812D01*
X78188Y22554D01*
X78713Y23462D01*
X78984Y24475D01*
Y25525D01*
X78713Y26538D01*
X78188Y27446D01*
X77959Y27676D01*
X78023Y28164D01*
X78157Y28242D01*
X78236Y28311D01*
X78324Y28369D01*
X78353Y28413D01*
X78393Y28448D01*
X78439Y28542D01*
X78498Y28630D01*
X78508Y28682D01*
X78531Y28729D01*
X78538Y28834D01*
X78559Y28937D01*
Y30512D01*
X78498Y30819D01*
X78324Y31080D01*
X78324Y31080D01*
X76355Y33048D01*
X76095Y33222D01*
X75787Y33283D01*
X69230D01*
X61826Y40687D01*
Y45626D01*
X61892Y45669D01*
X62518D01*
X63097Y45909D01*
X63540Y46352D01*
X63779Y46931D01*
Y47557D01*
X63540Y48136D01*
X63097Y48579D01*
X62518Y48819D01*
X61892D01*
X61826Y48862D01*
Y49413D01*
X61844Y49425D01*
X62471D01*
X63050Y49665D01*
X63493Y50108D01*
X63732Y50687D01*
Y51313D01*
X63493Y51892D01*
X63050Y52335D01*
X62471Y52575D01*
X61844D01*
X61826Y52587D01*
Y57867D01*
X62236Y58141D01*
X62285Y58120D01*
X62912D01*
X63490Y58360D01*
X63933Y58803D01*
X64173Y59382D01*
Y59710D01*
X64198Y59742D01*
X64665Y59998D01*
X65041Y59842D01*
X65668D01*
X66246Y60082D01*
X66689Y60525D01*
X66929Y61104D01*
Y61731D01*
X66689Y62309D01*
X66246Y62752D01*
X65795Y62939D01*
Y63531D01*
X65555Y64110D01*
X65112Y64553D01*
X64878Y64650D01*
X64976Y65142D01*
X66597D01*
X76204Y55535D01*
X76464Y55361D01*
X76772Y55300D01*
X78740D01*
X79047Y55361D01*
X79308Y55535D01*
X79482Y55795D01*
X79543Y56102D01*
Y60039D01*
X79543Y60039D01*
X79482Y60347D01*
X79308Y60607D01*
X79308Y60607D01*
X69353Y70562D01*
X69557Y71054D01*
X74805D01*
X74805Y71054D01*
X75113Y71115D01*
X75373Y71289D01*
X77342Y73258D01*
X77516Y73518D01*
X77577Y73825D01*
Y106957D01*
X78866Y108247D01*
X79040Y108508D01*
X79090Y108626D01*
X79307Y108843D01*
X79426Y108893D01*
X79686Y109067D01*
X80292Y109673D01*
X80466Y109933D01*
X80527Y110240D01*
Y110327D01*
X80667Y110467D01*
X80907Y111046D01*
Y111673D01*
X80667Y112251D01*
X80527Y112391D01*
Y113198D01*
X80527Y113198D01*
X80466Y113505D01*
X80292Y113766D01*
X76592Y117465D01*
Y134849D01*
X76531Y135156D01*
X76357Y135417D01*
X76357Y135417D01*
X73268Y138506D01*
X73456Y138961D01*
X78740D01*
X78740Y138961D01*
X79047Y139022D01*
X79308Y139196D01*
X80292Y140180D01*
X80466Y140441D01*
X80527Y140748D01*
Y141732D01*
X80527Y141732D01*
X80466Y142040D01*
X80292Y142300D01*
X80292Y142300D01*
X79308Y143284D01*
X79308Y143284D01*
X79047Y143458D01*
X78740Y143519D01*
X56435D01*
X53480Y146474D01*
X53414Y146518D01*
X53358Y146574D01*
X53285Y146604D01*
X53220Y146648D01*
X53142Y146664D01*
X53069Y146694D01*
X52990D01*
X52912Y146709D01*
X52756Y147033D01*
X52516Y147612D01*
X52527Y147977D01*
X52571Y148043D01*
X52627Y148099D01*
X52657Y148172D01*
X52701Y148238D01*
X52716Y148315D01*
X52747Y148388D01*
Y148444D01*
X52880Y148765D01*
X53097Y148982D01*
X53381Y149100D01*
X53446D01*
X53753Y149161D01*
X54014Y149335D01*
X56670Y151991D01*
X56844Y152252D01*
X56905Y152559D01*
Y156496D01*
X56905Y156496D01*
X56844Y156803D01*
X56670Y157064D01*
X55686Y158048D01*
X55425Y158222D01*
X55118Y158283D01*
X42323D01*
X42323Y158283D01*
X42016Y158222D01*
X41755Y158048D01*
X37818Y154111D01*
X37644Y153850D01*
X37583Y153543D01*
Y144033D01*
X36085Y142535D01*
X20669D01*
X20669Y142535D01*
X20362Y142474D01*
X20102Y142300D01*
X17149Y139347D01*
X16975Y139087D01*
X16914Y138779D01*
Y130254D01*
X8291Y121631D01*
X8117Y121370D01*
X8055Y121063D01*
Y120079D01*
X8117Y119772D01*
X8291Y119511D01*
X8291Y119511D01*
X11243Y116558D01*
X11504Y116384D01*
X11811Y116323D01*
X20487D01*
X20712Y115853D01*
X20472Y115274D01*
Y114647D01*
X20712Y114069D01*
X21155Y113626D01*
X21734Y113386D01*
X22361D01*
X22939Y113626D01*
X23382Y114069D01*
X23561Y114500D01*
X24077D01*
X24256Y114069D01*
X24699Y113626D01*
X25277Y113386D01*
X25904D01*
X26483Y113626D01*
X26926Y114069D01*
X27165Y114647D01*
Y115274D01*
X26926Y115853D01*
X27151Y116323D01*
X40022D01*
X53067Y103278D01*
X53107Y103252D01*
X52925Y102813D01*
Y102187D01*
X53165Y101608D01*
X53608Y101165D01*
X54187Y100925D01*
X54813D01*
X55251Y101107D01*
X55278Y101067D01*
X57603Y98742D01*
X57399Y98250D01*
X53231D01*
X52936Y98742D01*
X53075Y99076D01*
Y99703D01*
X52835Y100282D01*
X52392Y100725D01*
X51813Y100964D01*
X51187D01*
X50608Y100725D01*
X50165Y100282D01*
X49925Y99703D01*
Y99076D01*
X50064Y98742D01*
X49769Y98250D01*
X45278D01*
X44971Y98189D01*
X44710Y98015D01*
X44710Y98015D01*
X39789Y93094D01*
X39615Y92833D01*
X39554Y92526D01*
Y77382D01*
X39099Y77194D01*
X31080Y85213D01*
X30819Y85387D01*
X30512Y85448D01*
X21986D01*
X18832Y88602D01*
X19036Y89095D01*
X19329D01*
X19908Y89334D01*
X20351Y89777D01*
X20591Y90356D01*
Y90983D01*
X20470Y91273D01*
X20412Y91613D01*
X20716Y91867D01*
X20971Y91972D01*
X21414Y92415D01*
X21654Y92994D01*
Y93620D01*
X21414Y94199D01*
X20971Y94642D01*
X20777Y94722D01*
X20492Y95277D01*
Y95904D01*
X20446Y96016D01*
X20719Y96425D01*
X20813D01*
X21392Y96665D01*
X21835Y97108D01*
X22075Y97687D01*
Y98313D01*
X21835Y98892D01*
X21392Y99335D01*
X20813Y99575D01*
X20187D01*
X19608Y99335D01*
X19165Y98892D01*
X18925Y98313D01*
Y97687D01*
X18972Y97575D01*
X18698Y97165D01*
X18604D01*
X18025Y96926D01*
X17582Y96483D01*
X17343Y95904D01*
Y95277D01*
X17582Y94699D01*
X18025Y94256D01*
X18219Y94175D01*
X18504Y93620D01*
Y92994D01*
X18624Y92704D01*
X18682Y92364D01*
X18378Y92110D01*
X18124Y92004D01*
X17681Y91561D01*
X17441Y90983D01*
Y90690D01*
X16949Y90486D01*
X16316Y91119D01*
X16055Y91293D01*
X15748Y91354D01*
X7510D01*
X7382Y91829D01*
X7417Y91850D01*
X8150Y92583D01*
X8669Y93480D01*
X8937Y94482D01*
Y95518D01*
X8669Y96520D01*
X8150Y97417D01*
X7417Y98150D01*
X6520Y98669D01*
X5984Y98812D01*
Y98937D01*
X1405D01*
Y101063D01*
X5984D01*
Y101188D01*
X6520Y101331D01*
X7417Y101850D01*
X8150Y102583D01*
X8669Y103480D01*
X8937Y104482D01*
Y105518D01*
X8669Y106520D01*
X8150Y107417D01*
X7417Y108150D01*
X6520Y108669D01*
X5984Y108812D01*
Y108937D01*
X1405D01*
Y111063D01*
X5984D01*
Y111188D01*
X6520Y111331D01*
X7417Y111850D01*
X8150Y112583D01*
X8669Y113480D01*
X8937Y114482D01*
Y115518D01*
X8669Y116520D01*
X8150Y117417D01*
X7417Y118150D01*
X6520Y118669D01*
X5984Y118812D01*
Y118937D01*
X5518D01*
X5518Y118937D01*
X4482D01*
X4482Y118937D01*
X1405D01*
Y121063D01*
X5984D01*
Y121188D01*
X6520Y121331D01*
X7417Y121850D01*
X8150Y122583D01*
X8669Y123480D01*
X8937Y124482D01*
Y125518D01*
X8669Y126520D01*
X8150Y127417D01*
X7417Y128150D01*
X6520Y128669D01*
X5984Y128812D01*
Y128937D01*
X1405D01*
Y131063D01*
X4482D01*
X4482Y131063D01*
X5518D01*
X5518Y131063D01*
X5984D01*
Y131188D01*
X6520Y131331D01*
X7417Y131850D01*
X8150Y132583D01*
X8669Y133480D01*
X8937Y134482D01*
Y135518D01*
X8669Y136520D01*
X8150Y137417D01*
X7417Y138150D01*
X6520Y138669D01*
X5984Y138812D01*
Y138937D01*
X1405D01*
Y141063D01*
X5984D01*
Y141188D01*
X6520Y141331D01*
X7417Y141850D01*
X8150Y142583D01*
X8669Y143480D01*
X8937Y144482D01*
Y145518D01*
X8669Y146520D01*
X8150Y147417D01*
X7417Y148150D01*
X6520Y148669D01*
X5984Y148812D01*
Y148937D01*
X1405D01*
Y151063D01*
X5984D01*
Y151188D01*
X6520Y151331D01*
X7417Y151850D01*
X8150Y152583D01*
X8669Y153480D01*
X8937Y154482D01*
Y155518D01*
X8669Y156520D01*
X8150Y157417D01*
X7417Y158150D01*
X6520Y158669D01*
X5984Y158812D01*
Y158937D01*
X1405D01*
Y161063D01*
X5984D01*
Y161188D01*
X6520Y161331D01*
X7417Y161850D01*
X8150Y162583D01*
X8669Y163480D01*
X8937Y164482D01*
Y165518D01*
X8669Y166520D01*
X8150Y167417D01*
X7417Y168150D01*
X6520Y168669D01*
X5984Y168812D01*
Y168937D01*
X1405D01*
Y171063D01*
X8937D01*
Y178937D01*
X1405D01*
Y181063D01*
X8937D01*
Y188937D01*
X1405D01*
Y191063D01*
X5984D01*
Y191188D01*
X6520Y191331D01*
X7417Y191850D01*
X8150Y192583D01*
X8669Y193480D01*
X8937Y194482D01*
Y195063D01*
X9234Y195473D01*
X9860D01*
X10439Y195712D01*
X10882Y196155D01*
X11122Y196734D01*
Y197361D01*
X10882Y197939D01*
X10719Y198103D01*
X10922Y198595D01*
X17379D01*
D02*
G37*
G36*
X57087Y86614D02*
Y81693D01*
X78740Y60039D01*
Y56102D01*
X76772D01*
X66929Y65945D01*
X62008D01*
X61781Y66171D01*
X61765Y66252D01*
X61591Y66513D01*
X61591Y66513D01*
X53150Y74954D01*
Y86614D01*
X52923Y86841D01*
X52907Y86921D01*
X52733Y87182D01*
X52473Y87356D01*
X52437Y87363D01*
X52318Y87482D01*
X52256Y87508D01*
X52165Y87598D01*
X52037D01*
X51739Y87722D01*
X51112D01*
X50814Y87598D01*
X50197D01*
X49970Y87372D01*
X49890Y87356D01*
X49629Y87182D01*
X48645Y86198D01*
X48471Y85937D01*
X48455Y85856D01*
X48228Y85630D01*
Y62992D01*
X48455Y62766D01*
X48471Y62685D01*
X48645Y62424D01*
X55118Y55951D01*
Y54285D01*
X52999Y52165D01*
X49213Y52165D01*
X46260Y49213D01*
Y41339D01*
X50197Y37402D01*
X54134D01*
X59055Y32480D01*
Y31201D01*
X58268Y30675D01*
X58187Y30709D01*
X57561D01*
X56982Y30469D01*
X56539Y30026D01*
X56299Y29447D01*
Y28821D01*
X56114Y28543D01*
X53150D01*
X44882Y36811D01*
X45079Y37286D01*
Y37912D01*
X44839Y38491D01*
X44396Y38934D01*
X43817Y39174D01*
X43191D01*
X42996Y39093D01*
X42323Y39613D01*
Y54134D01*
X42096Y54360D01*
X42080Y54441D01*
X41906Y54702D01*
X35918Y60690D01*
X36141Y61581D01*
X36325Y61657D01*
X36768Y62100D01*
X37008Y62679D01*
Y63305D01*
X36768Y63884D01*
X36325Y64327D01*
X35746Y64567D01*
X35120D01*
X34541Y64327D01*
X34395Y64181D01*
X18284Y80292D01*
X18024Y80466D01*
X17943Y80482D01*
X17717Y80709D01*
X13780D01*
X11811Y78740D01*
X6253D01*
X5984Y78812D01*
Y78937D01*
X1405D01*
Y81047D01*
X2000D01*
Y85000D01*
Y88953D01*
X1405D01*
Y90551D01*
X15748D01*
X21654Y84646D01*
X30512D01*
X39370Y75787D01*
Y61024D01*
X40354Y60039D01*
X44291Y60039D01*
X46260Y62008D01*
Y87598D01*
X49213Y90551D01*
X53149Y90551D01*
X57087Y86614D01*
D02*
G37*
G36*
X52165Y74803D02*
X61024Y65945D01*
Y52093D01*
X60822Y51892D01*
X60583Y51313D01*
Y50687D01*
X60822Y50108D01*
X61024Y49907D01*
Y48290D01*
X60870Y48136D01*
X60630Y47557D01*
Y46931D01*
X60870Y46352D01*
X61024Y46198D01*
Y40354D01*
X68898Y32480D01*
X75787D01*
X77756Y30512D01*
Y28937D01*
X76968Y28482D01*
X76544Y28727D01*
X75527Y29000D01*
X75500D01*
Y25000D01*
X74500D01*
Y27914D01*
X72034Y25448D01*
X72051Y25644D01*
X72044Y25843D01*
X72012Y26044D01*
X71956Y26247D01*
X71875Y26452D01*
X71770Y26658D01*
X71640Y26867D01*
X71539Y27005D01*
X71273Y26544D01*
X71013Y25573D01*
X70847Y25475D01*
X70213Y25260D01*
X68898Y26575D01*
X64961D01*
X61024Y22638D01*
X35433D01*
X29528Y28543D01*
Y50596D01*
X29871Y50813D01*
X30315Y50984D01*
X30789Y50787D01*
X31416D01*
X31994Y51027D01*
X32437Y51470D01*
X32677Y52049D01*
Y52675D01*
X32437Y53254D01*
X31994Y53697D01*
X31416Y53937D01*
X30789D01*
X30315Y53741D01*
X29871Y53911D01*
X29528Y54128D01*
Y56631D01*
X29682Y56785D01*
X29921Y57364D01*
Y57990D01*
X29682Y58569D01*
X29528Y58723D01*
Y62992D01*
X14764Y77756D01*
Y78740D01*
X15748Y79724D01*
X17717D01*
X33939Y63501D01*
X33858Y63305D01*
Y62679D01*
X34098Y62100D01*
X34449Y61749D01*
Y61024D01*
X41339Y54134D01*
Y38386D01*
X41929Y37795D01*
Y37286D01*
X42169Y36707D01*
X42576Y36221D01*
X42169Y35735D01*
X41929Y35156D01*
Y34530D01*
X42169Y33951D01*
X42612Y33508D01*
X43191Y33268D01*
X43817D01*
X44396Y33508D01*
X44839Y33951D01*
X45715Y34009D01*
X52165Y27559D01*
X58187D01*
X58766Y27799D01*
X59209Y28242D01*
X59449Y28821D01*
Y28937D01*
X60039Y29528D01*
Y33465D01*
X55118Y38386D01*
X51181D01*
X47244Y42323D01*
Y48228D01*
X50197Y51181D01*
X53150D01*
X56102Y54134D01*
Y56102D01*
X49213Y62992D01*
Y85630D01*
X50197Y86614D01*
X52165D01*
Y74803D01*
D02*
G37*
%LPC*%
G36*
X46770Y138976D02*
X46143D01*
X45565Y138737D01*
X45122Y138294D01*
X44882Y137715D01*
Y137088D01*
X45122Y136510D01*
X45565Y136066D01*
X46143Y135827D01*
X46770D01*
X47349Y136066D01*
X47792Y136510D01*
X48031Y137088D01*
Y137715D01*
X47792Y138294D01*
X47349Y138737D01*
X46770Y138976D01*
D02*
G37*
G36*
X54250Y136221D02*
X53624D01*
X53045Y135981D01*
X52602Y135538D01*
X52362Y134959D01*
Y134332D01*
X52602Y133754D01*
X53045Y133311D01*
X53624Y133071D01*
X54250D01*
X54829Y133311D01*
X55272Y133754D01*
X55512Y134332D01*
Y134959D01*
X55272Y135538D01*
X54829Y135981D01*
X54250Y136221D01*
D02*
G37*
G36*
X50313Y135827D02*
X49687D01*
X49108Y135587D01*
X48665Y135144D01*
X48425Y134565D01*
Y133939D01*
X48665Y133360D01*
X49108Y132917D01*
X49687Y132677D01*
X50313D01*
X50892Y132917D01*
X51335Y133360D01*
X51575Y133939D01*
Y134565D01*
X51335Y135144D01*
X50892Y135587D01*
X50313Y135827D01*
D02*
G37*
G36*
X71179Y133071D02*
X70553D01*
X69974Y132831D01*
X69531Y132388D01*
X69291Y131809D01*
Y131183D01*
X69531Y130604D01*
X69974Y130161D01*
X70553Y129921D01*
X71179D01*
X71758Y130161D01*
X72201Y130604D01*
X72441Y131183D01*
Y131809D01*
X72201Y132388D01*
X71758Y132831D01*
X71179Y133071D01*
D02*
G37*
G36*
X54555Y95333D02*
X53929D01*
X53350Y95093D01*
X52907Y94650D01*
X52667Y94071D01*
Y93445D01*
X52907Y92866D01*
X53350Y92423D01*
X53929Y92183D01*
X54555D01*
X55134Y92423D01*
X55577Y92866D01*
X55817Y93445D01*
Y94071D01*
X55577Y94650D01*
X55134Y95093D01*
X54555Y95333D01*
D02*
G37*
G36*
X53069Y156693D02*
X52443D01*
X51864Y156453D01*
X51421Y156010D01*
X51181Y155431D01*
Y154805D01*
X51421Y154226D01*
X51864Y153783D01*
X52443Y153543D01*
X53069D01*
X53648Y153783D01*
X54091Y154226D01*
X54331Y154805D01*
Y155431D01*
X54091Y156010D01*
X53648Y156453D01*
X53069Y156693D01*
D02*
G37*
G36*
X27466Y139641D02*
X26839D01*
X26260Y139401D01*
X25817Y138958D01*
X25578Y138380D01*
Y137753D01*
X25817Y137174D01*
X26260Y136731D01*
X26839Y136492D01*
X27466D01*
X28044Y136731D01*
X28487Y137174D01*
X28727Y137753D01*
Y138380D01*
X28487Y138958D01*
X28044Y139401D01*
X27466Y139641D01*
D02*
G37*
G36*
X33829Y139478D02*
X33203D01*
X32624Y139238D01*
X32181Y138795D01*
X31941Y138216D01*
Y137590D01*
X32181Y137011D01*
X32624Y136568D01*
X33203Y136328D01*
X33829D01*
X34408Y136568D01*
X34851Y137011D01*
X35091Y137590D01*
Y138216D01*
X34851Y138795D01*
X34408Y139238D01*
X33829Y139478D01*
D02*
G37*
G36*
X31004Y137090D02*
X30377D01*
X29798Y136850D01*
X29355Y136407D01*
X29116Y135829D01*
Y135202D01*
X29355Y134623D01*
X29798Y134180D01*
X30377Y133941D01*
X31004D01*
X31582Y134180D01*
X32026Y134623D01*
X32265Y135202D01*
Y135829D01*
X32026Y136407D01*
X31582Y136850D01*
X31004Y137090D01*
D02*
G37*
G36*
X22361Y135413D02*
X21734D01*
X21155Y135173D01*
X20712Y134730D01*
X20472Y134151D01*
Y133525D01*
X20712Y132946D01*
X21155Y132503D01*
X21734Y132263D01*
X22361D01*
X22939Y132503D01*
X23382Y132946D01*
X23622Y133525D01*
Y134151D01*
X23382Y134730D01*
X22939Y135173D01*
X22361Y135413D01*
D02*
G37*
G36*
X32203Y131102D02*
X31576D01*
X30998Y130863D01*
X30555Y130420D01*
X30315Y129841D01*
Y129214D01*
X30555Y128636D01*
X30998Y128192D01*
X30772Y127925D01*
X30712Y127865D01*
X30472Y127287D01*
Y126660D01*
X30712Y126081D01*
X31155Y125638D01*
X31734Y125399D01*
X32361D01*
X32939Y125638D01*
X33382Y126081D01*
X33622Y126660D01*
Y127287D01*
X33382Y127865D01*
X32939Y128308D01*
X33165Y128576D01*
X33225Y128636D01*
X33465Y129214D01*
Y129841D01*
X33225Y130420D01*
X32782Y130863D01*
X32203Y131102D01*
D02*
G37*
G36*
X55038Y123622D02*
X54411D01*
X53832Y123382D01*
X53389Y122939D01*
X53150Y122361D01*
Y121734D01*
X53389Y121155D01*
X53832Y120712D01*
X54411Y120472D01*
X55038D01*
X55616Y120712D01*
X56059Y121155D01*
X56299Y121734D01*
Y122361D01*
X56059Y122939D01*
X55616Y123382D01*
X55038Y123622D01*
D02*
G37*
G36*
X49132Y123228D02*
X48506D01*
X47927Y122989D01*
X47484Y122546D01*
X47244Y121967D01*
Y121340D01*
X47484Y120762D01*
X47927Y120318D01*
X48506Y120079D01*
X49132D01*
X49711Y120318D01*
X50154Y120762D01*
X50394Y121340D01*
Y121967D01*
X50154Y122546D01*
X49711Y122989D01*
X49132Y123228D01*
D02*
G37*
G36*
X25904Y125591D02*
X25277D01*
X24699Y125351D01*
X24256Y124908D01*
X24016Y124329D01*
Y123703D01*
X24256Y123124D01*
X24420Y122959D01*
X24666Y122638D01*
X24420Y122316D01*
X24256Y122152D01*
X24016Y121573D01*
Y120947D01*
X24256Y120368D01*
X24699Y119925D01*
X25277Y119685D01*
X25904D01*
X26483Y119925D01*
X26926Y120368D01*
X27165Y120947D01*
Y121573D01*
X26926Y122152D01*
X26761Y122316D01*
X26515Y122638D01*
X26761Y122959D01*
X26926Y123124D01*
X27165Y123703D01*
Y124329D01*
X26926Y124908D01*
X26483Y125351D01*
X25904Y125591D01*
D02*
G37*
G36*
X63999Y114626D02*
X63373D01*
X62794Y114386D01*
X62351Y113943D01*
X62111Y113365D01*
Y112738D01*
X62351Y112159D01*
X62794Y111716D01*
X62658Y111240D01*
X62538Y111120D01*
X62298Y110541D01*
Y109915D01*
X62538Y109336D01*
X62285Y108892D01*
X62100Y108815D01*
X61657Y108372D01*
X61417Y107794D01*
Y107167D01*
X61657Y106588D01*
X62100Y106145D01*
X62679Y105905D01*
X63305D01*
X63884Y106145D01*
X64327Y106588D01*
X64567Y107167D01*
Y107794D01*
X64327Y108372D01*
X64580Y108816D01*
X64765Y108893D01*
X65208Y109336D01*
X65448Y109915D01*
Y110541D01*
X65208Y111120D01*
X64765Y111563D01*
X64901Y112039D01*
X65021Y112159D01*
X65261Y112738D01*
Y113365D01*
X65021Y113943D01*
X64578Y114386D01*
X63999Y114626D01*
D02*
G37*
G36*
X67219Y98421D02*
X66592D01*
X66013Y98181D01*
X65570Y97738D01*
X65330Y97159D01*
Y96533D01*
X65570Y95954D01*
X66013Y95511D01*
X66592Y95271D01*
X67219D01*
X67797Y95511D01*
X68240Y95954D01*
X68480Y96533D01*
Y97159D01*
X68240Y97738D01*
X67797Y98181D01*
X67219Y98421D01*
D02*
G37*
G36*
X78017Y198061D02*
X77390D01*
X76811Y197821D01*
X76369Y197378D01*
X76129Y196799D01*
Y196173D01*
X76369Y195594D01*
X76811Y195151D01*
X77390Y194911D01*
X78017D01*
X78596Y195151D01*
X79039Y195594D01*
X79278Y196173D01*
Y196799D01*
X79039Y197378D01*
X78596Y197821D01*
X78017Y198061D01*
D02*
G37*
G36*
X35632Y195073D02*
X35006D01*
X34427Y194834D01*
X33984Y194391D01*
X33800Y193947D01*
X33303Y193895D01*
X33288Y193898D01*
X33166Y194193D01*
X32723Y194636D01*
X32144Y194876D01*
X31517D01*
X30939Y194636D01*
X30495Y194193D01*
X30451Y194086D01*
X29882Y193999D01*
X29632Y194248D01*
X29053Y194488D01*
X28427D01*
X27848Y194248D01*
X27537Y193937D01*
X27053Y193976D01*
X26972Y194015D01*
X26934Y194106D01*
X26491Y194549D01*
X25913Y194788D01*
X25286D01*
X24707Y194549D01*
X24264Y194106D01*
X24025Y193527D01*
Y192900D01*
X24264Y192322D01*
X24699Y191887D01*
X24699Y191886D01*
X24256Y191443D01*
X24016Y190864D01*
Y190238D01*
X24256Y189659D01*
X24699Y189216D01*
X25277Y188976D01*
X25904D01*
X26483Y189216D01*
X26926Y189659D01*
X27165Y190238D01*
Y190864D01*
X26926Y191443D01*
X26572Y191797D01*
X26881Y192183D01*
X27287Y192151D01*
X27368Y192112D01*
X27405Y192021D01*
X27848Y191578D01*
X28427Y191339D01*
X29001D01*
X29056Y191296D01*
X29147Y191190D01*
X29318Y190916D01*
X29134Y190471D01*
Y189844D01*
X29374Y189265D01*
X29817Y188822D01*
X30395Y188583D01*
X31022D01*
X31601Y188822D01*
X32044Y189265D01*
X32211Y189669D01*
X32678Y189819D01*
X32763Y189813D01*
X32966Y189610D01*
X33545Y189370D01*
X34172D01*
X34750Y189610D01*
X35193Y190053D01*
X35593Y190132D01*
X35722Y190004D01*
X36301Y189764D01*
X36927D01*
X37506Y190004D01*
X37949Y190446D01*
X38189Y191025D01*
Y191448D01*
X38478Y191769D01*
X38644Y191836D01*
X39165D01*
X39744Y192076D01*
X40059Y192391D01*
X40551Y192211D01*
Y191813D01*
X40791Y191234D01*
X41234Y190791D01*
X41813Y190551D01*
X42439D01*
X43018Y190791D01*
X43461Y191234D01*
X43622Y191622D01*
X43791Y191825D01*
X44193Y191878D01*
X44506Y191748D01*
X45133D01*
X45711Y191988D01*
X46154Y192431D01*
X46394Y193010D01*
Y193637D01*
X46154Y194215D01*
X45711Y194658D01*
X45133Y194898D01*
X44506D01*
X43927Y194658D01*
X43484Y194215D01*
X43323Y193827D01*
X43154Y193624D01*
X42752Y193571D01*
X42439Y193701D01*
X41813D01*
X41234Y193461D01*
X40918Y193146D01*
X40426Y193326D01*
Y193724D01*
X40187Y194303D01*
X39744Y194746D01*
X39165Y194986D01*
X38538D01*
X37960Y194746D01*
X37516Y194303D01*
X37350Y193900D01*
X37341Y193898D01*
X36837Y193949D01*
X36654Y194391D01*
X36211Y194834D01*
X35632Y195073D01*
D02*
G37*
G36*
X51430Y195030D02*
X50803D01*
X50224Y194790D01*
X49781Y194347D01*
X49574Y193847D01*
X49515Y193757D01*
X49049Y193572D01*
X48739Y193701D01*
X48112D01*
X47533Y193461D01*
X47090Y193018D01*
X46850Y192439D01*
Y191813D01*
X47090Y191234D01*
X47533Y190791D01*
X48112Y190551D01*
X48739D01*
X49317Y190791D01*
X49760Y191234D01*
X49967Y191734D01*
X50027Y191823D01*
X50492Y192009D01*
X50803Y191880D01*
X51430D01*
X52008Y192120D01*
X52451Y192563D01*
X52857Y192326D01*
X52813Y192218D01*
Y191592D01*
X53053Y191013D01*
X53496Y190570D01*
X54075Y190330D01*
X54701D01*
X55280Y190570D01*
X55723Y191013D01*
X55963Y191592D01*
Y191917D01*
X56455Y192121D01*
X56697Y191878D01*
X57276Y191639D01*
X57902D01*
X58207Y191765D01*
X58232Y191759D01*
X58661Y191421D01*
Y191025D01*
X58901Y190446D01*
X59344Y190004D01*
X59923Y189764D01*
X60549D01*
X61128Y190004D01*
X61571Y190446D01*
X61811Y191025D01*
Y191652D01*
X61571Y192231D01*
X61128Y192674D01*
X60549Y192913D01*
X59923D01*
X59618Y192787D01*
X59593Y192794D01*
X59164Y193132D01*
Y193527D01*
X58924Y194106D01*
X58481Y194549D01*
X57902Y194788D01*
X57276D01*
X56697Y194549D01*
X56254Y194106D01*
X56014Y193527D01*
Y193202D01*
X55522Y192998D01*
X55280Y193240D01*
X54701Y193480D01*
X54075D01*
X53496Y193240D01*
X53053Y192797D01*
X52647Y193034D01*
X52691Y193142D01*
Y193768D01*
X52451Y194347D01*
X52008Y194790D01*
X51430Y195030D01*
D02*
G37*
G36*
X63760Y194722D02*
X63134D01*
X62555Y194483D01*
X62112Y194040D01*
X61872Y193461D01*
Y192834D01*
X62112Y192256D01*
X62555Y191813D01*
X63134Y191573D01*
X63760D01*
X64339Y191813D01*
X64782Y192256D01*
X65022Y192834D01*
Y193461D01*
X64782Y194040D01*
X64339Y194483D01*
X63760Y194722D01*
D02*
G37*
G36*
X25510Y187402D02*
X24884D01*
X24305Y187162D01*
X23862Y186719D01*
X23622Y186140D01*
Y185513D01*
X23862Y184935D01*
X24305Y184492D01*
X24884Y184252D01*
X25510D01*
X26089Y184492D01*
X26532Y184935D01*
X26772Y185513D01*
Y186140D01*
X26532Y186719D01*
X26089Y187162D01*
X25510Y187402D01*
D02*
G37*
G36*
X54172Y187008D02*
X53545D01*
X52966Y186768D01*
X52523Y186325D01*
X52284Y185746D01*
Y185120D01*
X52523Y184541D01*
X52966Y184098D01*
X53545Y183858D01*
X54172D01*
X54750Y184098D01*
X55193Y184541D01*
X55433Y185120D01*
Y185746D01*
X55193Y186325D01*
X54750Y186768D01*
X54172Y187008D01*
D02*
G37*
G36*
X48266D02*
X47640D01*
X47061Y186768D01*
X46618Y186325D01*
X46378Y185746D01*
Y185120D01*
X46618Y184541D01*
X47061Y184098D01*
X47640Y183858D01*
X48266D01*
X48845Y184098D01*
X49288Y184541D01*
X49528Y185120D01*
Y185746D01*
X49288Y186325D01*
X48845Y186768D01*
X48266Y187008D01*
D02*
G37*
G36*
X42360D02*
X41734D01*
X41155Y186768D01*
X40712Y186325D01*
X40472Y185746D01*
Y185120D01*
X40712Y184541D01*
X41155Y184098D01*
X41734Y183858D01*
X42360D01*
X42939Y184098D01*
X43382Y184541D01*
X43622Y185120D01*
Y185746D01*
X43382Y186325D01*
X42939Y186768D01*
X42360Y187008D01*
D02*
G37*
G36*
X36455D02*
X35829D01*
X35250Y186768D01*
X34807Y186325D01*
X34567Y185746D01*
Y185120D01*
X34807Y184541D01*
X35250Y184098D01*
X35829Y183858D01*
X36455D01*
X37034Y184098D01*
X37477Y184541D01*
X37716Y185120D01*
Y185746D01*
X37477Y186325D01*
X37034Y186768D01*
X36455Y187008D01*
D02*
G37*
G36*
X30549D02*
X29923D01*
X29344Y186768D01*
X28901Y186325D01*
X28661Y185746D01*
Y185120D01*
X28901Y184541D01*
X29344Y184098D01*
X29923Y183858D01*
X30549D01*
X31128Y184098D01*
X31571Y184541D01*
X31811Y185120D01*
Y185746D01*
X31571Y186325D01*
X31128Y186768D01*
X30549Y187008D01*
D02*
G37*
G36*
X60077Y186909D02*
X59451D01*
X58872Y186670D01*
X58429Y186227D01*
X58189Y185648D01*
Y185021D01*
X58429Y184443D01*
X58872Y184000D01*
X59451Y183760D01*
X60077D01*
X60656Y184000D01*
X61099Y184443D01*
X61339Y185021D01*
Y185648D01*
X61099Y186227D01*
X60656Y186670D01*
X60077Y186909D01*
D02*
G37*
G36*
X49182Y175364D02*
X48594D01*
X48052Y175139D01*
X47636Y174724D01*
X47411Y174181D01*
Y173594D01*
X47636Y173052D01*
X48052Y172636D01*
X48594Y172411D01*
X49182D01*
X49724Y172636D01*
X50139Y173052D01*
X50364Y173594D01*
Y174181D01*
X50139Y174724D01*
X49724Y175139D01*
X49182Y175364D01*
D02*
G37*
G36*
X41406D02*
X40819D01*
X40276Y175139D01*
X39861Y174724D01*
X39636Y174181D01*
Y173594D01*
X39861Y173052D01*
X40276Y172636D01*
X40819Y172411D01*
X41406D01*
X41949Y172636D01*
X42364Y173052D01*
X42589Y173594D01*
Y174181D01*
X42364Y174724D01*
X41949Y175139D01*
X41406Y175364D01*
D02*
G37*
G36*
X32597Y174803D02*
X31970D01*
X31391Y174563D01*
X30948Y174120D01*
X30709Y173542D01*
Y172915D01*
X30948Y172336D01*
X31391Y171893D01*
X31970Y171653D01*
X32597D01*
X33176Y171893D01*
X33619Y172336D01*
X33858Y172915D01*
Y173542D01*
X33619Y174120D01*
X33176Y174563D01*
X32597Y174803D01*
D02*
G37*
G36*
X57794Y174409D02*
X57167D01*
X56588Y174170D01*
X56145Y173727D01*
X55905Y173148D01*
Y172521D01*
X56145Y171943D01*
X56588Y171500D01*
X57167Y171260D01*
X57794D01*
X58372Y171500D01*
X58815Y171943D01*
X59055Y172521D01*
Y173148D01*
X58815Y173727D01*
X58372Y174170D01*
X57794Y174409D01*
D02*
G37*
G36*
X16763Y172453D02*
X16136D01*
X15557Y172213D01*
X15114Y171771D01*
X14875Y171192D01*
Y170565D01*
X15114Y169986D01*
X15557Y169543D01*
X16136Y169304D01*
X16763D01*
X17341Y169543D01*
X17784Y169986D01*
X18024Y170565D01*
Y171192D01*
X17784Y171771D01*
X17341Y172213D01*
X16763Y172453D01*
D02*
G37*
G36*
X28581Y172244D02*
X27955D01*
X27376Y172004D01*
X26933Y171561D01*
X26693Y170983D01*
Y170356D01*
X26933Y169777D01*
X27376Y169334D01*
X27955Y169095D01*
X28581D01*
X29160Y169334D01*
X29603Y169777D01*
X29842Y170356D01*
Y170983D01*
X29603Y171561D01*
X29160Y172004D01*
X28581Y172244D01*
D02*
G37*
G36*
X57794Y170472D02*
X57167D01*
X56588Y170233D01*
X56145Y169790D01*
X55905Y169211D01*
Y168584D01*
X56145Y168006D01*
X56588Y167563D01*
X57167Y167323D01*
X57794D01*
X58372Y167563D01*
X58815Y168006D01*
X59055Y168584D01*
Y169211D01*
X58815Y169790D01*
X58372Y170233D01*
X57794Y170472D01*
D02*
G37*
G36*
X12568Y169291D02*
X11941D01*
X11363Y169052D01*
X10920Y168609D01*
X10680Y168030D01*
Y167403D01*
X10920Y166824D01*
X11193Y166551D01*
X11144Y166501D01*
X11113Y166428D01*
X11069Y166362D01*
X11054Y166284D01*
X11024Y166211D01*
Y166132D01*
X11008Y166055D01*
Y160491D01*
X11024Y160414D01*
Y160335D01*
X11054Y160262D01*
X11069Y160184D01*
X11113Y160118D01*
X11144Y160045D01*
X11215Y159843D01*
X11144Y159640D01*
X11113Y159567D01*
X11069Y159501D01*
X11054Y159423D01*
X11024Y159350D01*
Y159271D01*
X11008Y159194D01*
Y152476D01*
X11030Y152365D01*
X11040Y152252D01*
X11061Y152212D01*
X11069Y152169D01*
X11133Y152075D01*
X11185Y151974D01*
X11219Y151945D01*
X11243Y151909D01*
X11338Y151846D01*
X11425Y151772D01*
X11646Y151652D01*
X11417Y151101D01*
Y150474D01*
X11646Y149923D01*
X11425Y149802D01*
X11338Y149729D01*
X11243Y149666D01*
X11219Y149629D01*
X11185Y149601D01*
X11133Y149500D01*
X11069Y149406D01*
X11061Y149362D01*
X11040Y149323D01*
X11030Y149210D01*
X11008Y149098D01*
Y140748D01*
X11069Y140441D01*
X11243Y140180D01*
X11504Y140006D01*
X11811Y139945D01*
X13780D01*
X14087Y140006D01*
X14347Y140180D01*
X14521Y140441D01*
X14582Y140748D01*
Y143368D01*
X18284Y147070D01*
X18458Y147331D01*
X18519Y147638D01*
Y151673D01*
X18817D01*
X19396Y151913D01*
X19839Y152356D01*
X20079Y152935D01*
Y153247D01*
X20126Y153578D01*
X20533Y153725D01*
X22305D01*
X27096Y148934D01*
X26968Y148621D01*
X26855Y148479D01*
X26284D01*
X25705Y148239D01*
X25262Y147796D01*
X25022Y147217D01*
Y146591D01*
X25262Y146012D01*
X25705Y145569D01*
X26284Y145329D01*
X26910D01*
X27489Y145569D01*
X27932Y146012D01*
X28172Y146591D01*
Y147217D01*
X28081Y147437D01*
X28447Y147838D01*
X28543Y147819D01*
X32460D01*
X32767Y147880D01*
X33028Y148054D01*
X33202Y148315D01*
X33373Y148729D01*
X33398Y148719D01*
X34025D01*
X34604Y148959D01*
X35046Y149402D01*
X35286Y149981D01*
Y150557D01*
X35662Y150671D01*
X35703Y150693D01*
X35740Y150700D01*
X35801Y150741D01*
X35873Y150770D01*
X35877Y150773D01*
X35905Y150801D01*
X35938Y150819D01*
X35963Y150849D01*
X36001Y150875D01*
X36044Y150939D01*
X36099Y150994D01*
X36117Y151037D01*
X36137Y151061D01*
X36146Y151092D01*
X36175Y151135D01*
X36190Y151211D01*
X36220Y151283D01*
X36220Y151336D01*
X36228Y151360D01*
X36225Y151387D01*
X36236Y151442D01*
Y160433D01*
X36175Y160740D01*
X36001Y161001D01*
X36001Y161001D01*
X31656Y165346D01*
X31935Y165763D01*
X31970Y165748D01*
X32597D01*
X33176Y165988D01*
X33619Y166431D01*
X33858Y167010D01*
Y167636D01*
X33619Y168215D01*
X33176Y168658D01*
X32597Y168898D01*
X31970D01*
X31391Y168658D01*
X30948Y168215D01*
X30709Y167636D01*
Y167010D01*
X30817Y166748D01*
X30745Y166619D01*
X30443Y166364D01*
X30391Y166369D01*
X30277Y166392D01*
X30236Y166383D01*
X30193Y166387D01*
X30083Y166353D01*
X29970Y166331D01*
X29935Y166307D01*
X29894Y166294D01*
X29529Y166096D01*
X29152Y166396D01*
X29317Y166689D01*
X29363Y166831D01*
X29412Y166973D01*
X29411Y166980D01*
X29413Y166987D01*
X29402Y167136D01*
X29393Y167285D01*
X29389Y167292D01*
X29389Y167300D01*
X29321Y167433D01*
X29255Y167567D01*
X29072Y167808D01*
X29031Y167845D01*
X29000Y167891D01*
X28915Y167948D01*
X28837Y168016D01*
X28786Y168034D01*
X28740Y168065D01*
X28639Y168085D01*
X28541Y168118D01*
X28486Y168115D01*
X28433Y168126D01*
X13796D01*
X13790Y168124D01*
X13590Y168609D01*
X13147Y169052D01*
X12568Y169291D01*
D02*
G37*
G36*
X41425Y167666D02*
X40799D01*
X40220Y167426D01*
X39777Y166983D01*
X39537Y166405D01*
Y165778D01*
X39777Y165199D01*
X40220Y164756D01*
X40799Y164516D01*
X41425D01*
X42004Y164756D01*
X42447Y165199D01*
X42687Y165778D01*
Y166405D01*
X42447Y166983D01*
X42004Y167426D01*
X41425Y167666D01*
D02*
G37*
G36*
X59368Y166535D02*
X58742D01*
X58163Y166296D01*
X57720Y165853D01*
X57480Y165274D01*
Y164647D01*
X57720Y164069D01*
X58163Y163626D01*
X58742Y163386D01*
X59368D01*
X59947Y163626D01*
X60390Y164069D01*
X60630Y164647D01*
Y165274D01*
X60390Y165853D01*
X59947Y166296D01*
X59368Y166535D01*
D02*
G37*
G36*
X71790Y159862D02*
X71163D01*
X70584Y159623D01*
X70141Y159179D01*
X69902Y158601D01*
Y157974D01*
X70141Y157395D01*
X70584Y156952D01*
X71163Y156713D01*
X71790D01*
X72368Y156952D01*
X72811Y157395D01*
X73051Y157974D01*
Y158601D01*
X72811Y159179D01*
X72368Y159623D01*
X71790Y159862D01*
D02*
G37*
G36*
X35766Y148524D02*
X35140D01*
X34561Y148284D01*
X34118Y147841D01*
X33878Y147262D01*
Y146636D01*
X34118Y146057D01*
X34561Y145614D01*
X35140Y145374D01*
X35766D01*
X36345Y145614D01*
X36788Y146057D01*
X37027Y146636D01*
Y147262D01*
X36788Y147841D01*
X36345Y148284D01*
X35766Y148524D01*
D02*
G37*
G36*
X76691Y154724D02*
X76065D01*
X75486Y154485D01*
X75043Y154042D01*
X74803Y153463D01*
Y153211D01*
X74735Y152824D01*
X74348Y152756D01*
X74096D01*
X73517Y152516D01*
X73074Y152073D01*
X72835Y151494D01*
Y150868D01*
X72987Y150501D01*
X72915Y150394D01*
X72336Y150154D01*
X71893Y149711D01*
X71653Y149132D01*
Y148880D01*
X71585Y148494D01*
X71199Y148425D01*
X70947D01*
X70368Y148185D01*
X69925Y147742D01*
X69685Y147164D01*
Y146537D01*
X69925Y145958D01*
X70368Y145515D01*
X70947Y145276D01*
X71573D01*
X72152Y145515D01*
X72595Y145958D01*
X72835Y146537D01*
Y146789D01*
X72903Y147176D01*
X73289Y147244D01*
X73542D01*
X74120Y147484D01*
X74563Y147927D01*
X74803Y148506D01*
Y149132D01*
X74651Y149499D01*
X74723Y149606D01*
X75301Y149846D01*
X75744Y150289D01*
X75984Y150868D01*
Y151120D01*
X76053Y151506D01*
X76439Y151575D01*
X76691D01*
X77270Y151815D01*
X77713Y152258D01*
X77953Y152836D01*
Y153463D01*
X77713Y154042D01*
X77270Y154485D01*
X76691Y154724D01*
D02*
G37*
G36*
X79841Y133465D02*
X79214D01*
X78636Y133225D01*
X78193Y132782D01*
X77953Y132203D01*
Y131577D01*
X78193Y130998D01*
X78636Y130555D01*
X79214Y130315D01*
X79841D01*
X80420Y130555D01*
X80863Y130998D01*
X81102Y131577D01*
Y132203D01*
X80863Y132782D01*
X80420Y133225D01*
X79841Y133465D01*
D02*
G37*
G36*
X10549Y133071D02*
X9923D01*
X9344Y132831D01*
X8901Y132388D01*
X8661Y131809D01*
Y131183D01*
X8901Y130604D01*
X8992Y130514D01*
X9029Y129997D01*
X8947Y129915D01*
X8586Y129553D01*
X8347Y128975D01*
Y128348D01*
X8586Y127769D01*
X9029Y127326D01*
X9608Y127087D01*
X10234D01*
X10813Y127326D01*
X11256Y127769D01*
X11496Y128348D01*
Y128975D01*
X11256Y129553D01*
X11166Y129644D01*
X11128Y130161D01*
X11210Y130243D01*
X11571Y130604D01*
X11811Y131183D01*
Y131809D01*
X11571Y132388D01*
X11128Y132831D01*
X10549Y133071D01*
D02*
G37*
G36*
X32361Y112004D02*
X31734D01*
X31155Y111764D01*
X30712Y111321D01*
X30472Y110742D01*
Y110116D01*
X30712Y109537D01*
X31155Y109094D01*
X31734Y108854D01*
X32361D01*
X32939Y109094D01*
X33382Y109537D01*
X33622Y110116D01*
Y110742D01*
X33382Y111321D01*
X32939Y111764D01*
X32361Y112004D01*
D02*
G37*
G36*
X19370Y108337D02*
X18743D01*
X18164Y108097D01*
X17721Y107654D01*
X17481Y107075D01*
Y106449D01*
X17721Y105870D01*
X18164Y105427D01*
X18743Y105187D01*
X19370D01*
X19948Y105427D01*
X20391Y105870D01*
X20631Y106449D01*
Y107075D01*
X20391Y107654D01*
X19948Y108097D01*
X19370Y108337D01*
D02*
G37*
G36*
X41258Y107480D02*
X40632D01*
X40053Y107241D01*
X39610Y106798D01*
X39370Y106219D01*
Y105592D01*
X39610Y105014D01*
X40053Y104570D01*
X40632Y104331D01*
X41258D01*
X41837Y104570D01*
X42280Y105014D01*
X42520Y105592D01*
Y106219D01*
X42280Y106798D01*
X41837Y107241D01*
X41258Y107480D01*
D02*
G37*
G36*
X47557Y103937D02*
X46931D01*
X46352Y103697D01*
X45909Y103254D01*
X45669Y102675D01*
Y102049D01*
X45909Y101470D01*
X46352Y101027D01*
X46931Y100787D01*
X47557D01*
X48136Y101027D01*
X48579Y101470D01*
X48819Y102049D01*
Y102675D01*
X48579Y103254D01*
X48136Y103697D01*
X47557Y103937D01*
D02*
G37*
G36*
X37321D02*
X36695D01*
X36116Y103697D01*
X35673Y103254D01*
X35433Y102675D01*
Y102049D01*
X35673Y101470D01*
X36116Y101027D01*
X36695Y100787D01*
X37321D01*
X37900Y101027D01*
X38343Y101470D01*
X38583Y102049D01*
Y102675D01*
X38343Y103254D01*
X37900Y103697D01*
X37321Y103937D01*
D02*
G37*
G36*
X23906Y64173D02*
X23279D01*
X22701Y63933D01*
X22257Y63490D01*
X22018Y62912D01*
Y62285D01*
X22257Y61706D01*
X22701Y61263D01*
X23279Y61024D01*
X23906D01*
X24485Y61263D01*
X24928Y61706D01*
X25167Y62285D01*
Y62912D01*
X24928Y63490D01*
X24485Y63933D01*
X23906Y64173D01*
D02*
G37*
G36*
X18030Y57874D02*
X17403D01*
X16825Y57634D01*
X16382Y57191D01*
X16142Y56612D01*
Y55986D01*
X16382Y55407D01*
X16825Y54964D01*
X17403Y54724D01*
X18030D01*
X18609Y54964D01*
X19052Y55407D01*
X19291Y55986D01*
Y56612D01*
X19052Y57191D01*
X18609Y57634D01*
X18030Y57874D01*
D02*
G37*
G36*
X78266Y54724D02*
X77640D01*
X77061Y54485D01*
X76618Y54042D01*
X76378Y53463D01*
Y52836D01*
X76618Y52258D01*
X77061Y51815D01*
X77640Y51575D01*
X78266D01*
X78845Y51815D01*
X79288Y52258D01*
X79528Y52836D01*
Y53463D01*
X79288Y54042D01*
X78845Y54485D01*
X78266Y54724D01*
D02*
G37*
G36*
X18817Y52362D02*
X18191D01*
X17612Y52122D01*
X17169Y51679D01*
X16929Y51101D01*
Y50474D01*
X17169Y49895D01*
X17612Y49452D01*
X18191Y49213D01*
X18817D01*
X19396Y49452D01*
X19839Y49895D01*
X20079Y50474D01*
Y51101D01*
X19839Y51679D01*
X19396Y52122D01*
X18817Y52362D01*
D02*
G37*
G36*
X8581D02*
X7954D01*
X7376Y52122D01*
X6933Y51679D01*
X6693Y51101D01*
Y50474D01*
X6933Y49895D01*
X7376Y49452D01*
X7954Y49213D01*
X8581D01*
X9160Y49452D01*
X9603Y49895D01*
X9843Y50474D01*
Y51101D01*
X9603Y51679D01*
X9160Y52122D01*
X8581Y52362D01*
D02*
G37*
G36*
X75524Y48984D02*
X74476D01*
X73462Y48713D01*
X72554Y48188D01*
X71812Y47446D01*
X71490Y46888D01*
X71079Y46616D01*
X70843Y46705D01*
X70492Y46850D01*
X69866D01*
X69287Y46611D01*
X68844Y46168D01*
X68604Y45589D01*
Y44962D01*
X68622Y44918D01*
X68205Y44640D01*
X67861Y44984D01*
X67282Y45224D01*
X66656D01*
X66077Y44984D01*
X65634Y44541D01*
X65394Y43962D01*
Y43336D01*
X65634Y42757D01*
X66077Y42314D01*
X66656Y42074D01*
X67282D01*
X67861Y42314D01*
X68304Y42757D01*
X68544Y43336D01*
Y43962D01*
X68526Y44006D01*
X68943Y44285D01*
X69287Y43940D01*
X69866Y43701D01*
X70217D01*
X70315Y43209D01*
X69974Y43067D01*
X69531Y42624D01*
X69291Y42046D01*
Y41419D01*
X69531Y40840D01*
X69937Y40435D01*
X69957Y40157D01*
X69937Y39880D01*
X69531Y39475D01*
X69291Y38896D01*
Y38269D01*
X69531Y37691D01*
X69974Y37248D01*
X70553Y37008D01*
X71179D01*
X71758Y37248D01*
X72201Y37691D01*
X72441Y38269D01*
Y38896D01*
X72201Y39475D01*
X71796Y39880D01*
X71776Y40157D01*
X71796Y40435D01*
X72201Y40840D01*
X72404Y41330D01*
X72690Y41507D01*
X72933Y41593D01*
X73462Y41287D01*
X74476Y41016D01*
X75524D01*
X76538Y41287D01*
X77446Y41812D01*
X78188Y42554D01*
X78713Y43462D01*
X78984Y44475D01*
Y45524D01*
X78713Y46538D01*
X78188Y47446D01*
X77446Y48188D01*
X76538Y48713D01*
X75524Y48984D01*
D02*
G37*
G36*
X14880Y43307D02*
X14254D01*
X13675Y43067D01*
X13232Y42624D01*
X12992Y42046D01*
Y41419D01*
X13232Y40840D01*
X13675Y40397D01*
X14254Y40157D01*
X14880D01*
X15459Y40397D01*
X15902Y40840D01*
X16142Y41419D01*
Y42046D01*
X15902Y42624D01*
X15459Y43067D01*
X14880Y43307D01*
D02*
G37*
G36*
X10943D02*
X10317D01*
X9738Y43067D01*
X9295Y42624D01*
X9055Y42046D01*
Y41419D01*
X9295Y40840D01*
X9738Y40397D01*
X10317Y40157D01*
X10943D01*
X11522Y40397D01*
X11965Y40840D01*
X12205Y41419D01*
Y42046D01*
X11965Y42624D01*
X11522Y43067D01*
X10943Y43307D01*
D02*
G37*
G36*
X84500Y38953D02*
X84000D01*
Y38824D01*
X83474Y38683D01*
X82573Y38163D01*
X81837Y37427D01*
X81317Y36526D01*
X81047Y35520D01*
Y35500D01*
X84500D01*
Y38953D01*
D02*
G37*
G36*
X87000D02*
X85500D01*
Y35000D01*
Y31047D01*
X87000D01*
Y35000D01*
Y38953D01*
D02*
G37*
G36*
X84500Y34500D02*
X81047D01*
Y34480D01*
X81317Y33474D01*
X81837Y32573D01*
X82573Y31837D01*
X83474Y31317D01*
X84000Y31176D01*
Y31047D01*
X84500D01*
Y34500D01*
D02*
G37*
G36*
X5313Y26575D02*
X4687D01*
X4108Y26335D01*
X3665Y25892D01*
X3425Y25313D01*
Y24687D01*
X3665Y24108D01*
X4108Y23665D01*
X4687Y23425D01*
X5313D01*
X5892Y23665D01*
X6335Y24108D01*
X6575Y24687D01*
Y25313D01*
X6335Y25892D01*
X5892Y26335D01*
X5313Y26575D01*
D02*
G37*
G36*
X34072Y20028D02*
X33172D01*
X32340Y19683D01*
X31703Y19046D01*
X31691Y19017D01*
X31146Y18989D01*
X30813Y19322D01*
X30235Y19561D01*
X29608D01*
X29029Y19322D01*
X28586Y18879D01*
X28346Y18300D01*
Y17673D01*
X28586Y17095D01*
X29029Y16652D01*
X29608Y16412D01*
X30235D01*
X30813Y16652D01*
X31016Y16854D01*
X31596Y16739D01*
X31703Y16481D01*
X32340Y15845D01*
X33172Y15500D01*
X34072D01*
X34904Y15845D01*
X35541Y16481D01*
X35630Y16697D01*
X36253Y16914D01*
X36496Y16813D01*
X37123D01*
X37702Y17053D01*
X38145Y17496D01*
X38160Y17532D01*
X38692D01*
X38822Y17218D01*
X39265Y16775D01*
X39844Y16535D01*
X40471D01*
X41050Y16775D01*
X41493Y17218D01*
X41732Y17797D01*
Y18424D01*
X41493Y19002D01*
X41050Y19445D01*
X40471Y19685D01*
X39844D01*
X39265Y19445D01*
X38822Y19002D01*
X38807Y18966D01*
X38275D01*
X38145Y19280D01*
X37702Y19723D01*
X37123Y19963D01*
X36496D01*
X35917Y19723D01*
X35475Y19280D01*
X35335Y19252D01*
X34904Y19683D01*
X34072Y20028D01*
D02*
G37*
G36*
X56828D02*
X55928D01*
X55096Y19683D01*
X54459Y19046D01*
X54114Y18214D01*
Y17313D01*
X54459Y16481D01*
X55096Y15845D01*
X55928Y15500D01*
X56828D01*
X57660Y15845D01*
X58297Y16481D01*
X58423Y16784D01*
X59001Y16895D01*
X59219Y16677D01*
X59798Y16437D01*
X60424D01*
X61003Y16677D01*
X61446Y17120D01*
X61686Y17698D01*
Y18325D01*
X61446Y18904D01*
X61003Y19347D01*
X60424Y19587D01*
X59798D01*
X59219Y19347D01*
X58856Y18984D01*
X58320Y18991D01*
X58297Y19046D01*
X57660Y19683D01*
X56828Y20028D01*
D02*
G37*
G36*
X50313Y19291D02*
X49687D01*
X49108Y19052D01*
X48665Y18609D01*
X48425Y18030D01*
Y17403D01*
X48665Y16825D01*
X49108Y16382D01*
X49687Y16142D01*
X50313D01*
X50892Y16382D01*
X51335Y16825D01*
X51575Y17403D01*
Y18030D01*
X51335Y18609D01*
X50892Y19052D01*
X50313Y19291D01*
D02*
G37*
G36*
X65594Y16929D02*
X64967D01*
X64389Y16689D01*
X63946Y16246D01*
X63706Y15668D01*
Y15041D01*
X63946Y14462D01*
X64389Y14019D01*
X64967Y13780D01*
X65594D01*
X66173Y14019D01*
X66616Y14462D01*
X66855Y15041D01*
Y15668D01*
X66616Y16246D01*
X66173Y16689D01*
X65594Y16929D01*
D02*
G37*
G36*
X53069Y16535D02*
X52443D01*
X51864Y16296D01*
X51421Y15853D01*
X51181Y15274D01*
Y14647D01*
X51421Y14069D01*
X51864Y13626D01*
X52443Y13386D01*
X53069D01*
X53648Y13626D01*
X54091Y14069D01*
X54331Y14647D01*
Y15274D01*
X54091Y15853D01*
X53648Y16296D01*
X53069Y16535D01*
D02*
G37*
%LPD*%
G36*
X28616Y167081D02*
X28355Y166614D01*
X27955D01*
X27376Y166374D01*
X26933Y165931D01*
X26693Y165353D01*
Y164726D01*
X26933Y164147D01*
X27376Y163704D01*
X27955Y163465D01*
X28581D01*
X29160Y163704D01*
X29603Y164147D01*
X29842Y164726D01*
Y165328D01*
X29912Y165390D01*
X30277Y165589D01*
X35433Y160433D01*
Y151442D01*
X35429Y151439D01*
X34941Y151291D01*
X34604Y151629D01*
X34025Y151869D01*
X33398D01*
X32952Y152174D01*
X32831Y152467D01*
X32388Y152910D01*
X31809Y153150D01*
X31183D01*
X30604Y152910D01*
X30161Y152467D01*
X29921Y151888D01*
Y151262D01*
X30161Y150683D01*
X30604Y150240D01*
X31183Y150000D01*
X31809D01*
X32255Y149695D01*
X32376Y149402D01*
X32664Y149114D01*
X32460Y148622D01*
X28543D01*
X22638Y154528D01*
X20147D01*
X20032Y154673D01*
X19882Y155020D01*
X20079Y155494D01*
Y156120D01*
X19839Y156699D01*
X19452Y157087D01*
X19839Y157474D01*
X20079Y158053D01*
Y158679D01*
X19839Y159258D01*
X19396Y159701D01*
X19131Y159811D01*
Y160343D01*
X19451Y160476D01*
X19894Y160919D01*
X20134Y161498D01*
Y162124D01*
X19894Y162703D01*
X19451Y163146D01*
X18872Y163386D01*
X18246D01*
X17667Y163146D01*
X17224Y162703D01*
X16984Y162124D01*
Y161498D01*
X17224Y160919D01*
X17667Y160476D01*
X17932Y160366D01*
Y159834D01*
X17612Y159701D01*
X17169Y159258D01*
X16929Y158679D01*
Y158053D01*
X17169Y157474D01*
X17556Y157087D01*
X17169Y156699D01*
X16929Y156120D01*
Y155494D01*
X17169Y154915D01*
X17556Y154527D01*
X17169Y154140D01*
X16929Y153561D01*
Y152935D01*
X17169Y152356D01*
X17612Y151913D01*
X17717Y151870D01*
Y147638D01*
X13780Y143701D01*
Y140748D01*
X11811D01*
Y149098D01*
X12303Y149368D01*
X12679Y149213D01*
X13305D01*
X13884Y149452D01*
X14327Y149895D01*
X14567Y150474D01*
Y151101D01*
X14327Y151679D01*
X13884Y152122D01*
X13305Y152362D01*
X12679D01*
X12303Y152207D01*
X11811Y152476D01*
Y159194D01*
X12303Y159292D01*
X12444Y158950D01*
X12888Y158508D01*
X13466Y158268D01*
X14093D01*
X14672Y158508D01*
X15115Y158950D01*
X15354Y159529D01*
Y160156D01*
X15115Y160735D01*
X14672Y161178D01*
X14093Y161417D01*
X13466D01*
X12888Y161178D01*
X12444Y160735D01*
X12303Y160393D01*
X11811Y160491D01*
Y166055D01*
X11941Y166142D01*
X12568D01*
X13147Y166382D01*
X13590Y166824D01*
X13796Y167323D01*
X28433D01*
X28616Y167081D01*
D02*
G37*
%LPC*%
G36*
X32870Y157087D02*
X32243D01*
X31665Y156847D01*
X31222Y156404D01*
X30982Y155825D01*
Y155199D01*
X31222Y154620D01*
X31665Y154177D01*
X32243Y153937D01*
X32870D01*
X33449Y154177D01*
X33892Y154620D01*
X34132Y155199D01*
Y155825D01*
X33892Y156404D01*
X33449Y156847D01*
X32870Y157087D01*
D02*
G37*
G36*
X6000Y88953D02*
X5500D01*
Y85500D01*
X8953D01*
Y85520D01*
X8683Y86526D01*
X8163Y87427D01*
X7427Y88163D01*
X6526Y88683D01*
X6000Y88824D01*
Y88953D01*
D02*
G37*
G36*
X12813Y86075D02*
X12187D01*
X11608Y85835D01*
X11165Y85392D01*
X10925Y84813D01*
Y84187D01*
X11165Y83608D01*
X11608Y83165D01*
X12187Y82925D01*
X12813D01*
X13392Y83165D01*
X13835Y83608D01*
X14075Y84187D01*
Y84813D01*
X13835Y85392D01*
X13392Y85835D01*
X12813Y86075D01*
D02*
G37*
G36*
X8953Y84500D02*
X5500D01*
Y81047D01*
X6000D01*
Y81176D01*
X6526Y81317D01*
X7427Y81837D01*
X8163Y82573D01*
X8683Y83474D01*
X8953Y84480D01*
Y84500D01*
D02*
G37*
G36*
X4500Y88953D02*
X3000D01*
Y85000D01*
Y81047D01*
X4500D01*
Y85000D01*
Y88953D01*
D02*
G37*
G36*
X54053Y67126D02*
X53427D01*
X52848Y66886D01*
X52405Y66443D01*
X52165Y65864D01*
Y65238D01*
X52405Y64659D01*
X52848Y64216D01*
X53427Y63976D01*
X54053D01*
X54632Y64216D01*
X55075Y64659D01*
X55315Y65238D01*
Y65864D01*
X55075Y66443D01*
X54632Y66886D01*
X54053Y67126D01*
D02*
G37*
G36*
X56853Y60618D02*
X56226D01*
X55648Y60378D01*
X55205Y59935D01*
X54965Y59356D01*
Y58730D01*
X55205Y58151D01*
X55648Y57708D01*
X56226Y57468D01*
X56853D01*
X57432Y57708D01*
X57875Y58151D01*
X58114Y58730D01*
Y59356D01*
X57875Y59935D01*
X57432Y60378D01*
X56853Y60618D01*
D02*
G37*
G36*
X35376Y55512D02*
X34750D01*
X34171Y55272D01*
X33728Y54829D01*
X33488Y54250D01*
Y53624D01*
X33728Y53045D01*
X34023Y52750D01*
X33665Y52392D01*
X33425Y51813D01*
Y51187D01*
X33665Y50608D01*
X34108Y50165D01*
X34687Y49925D01*
X35313D01*
X35892Y50165D01*
X36335Y50608D01*
X36575Y51187D01*
Y51813D01*
X36335Y52392D01*
X36040Y52687D01*
X36398Y53045D01*
X36638Y53624D01*
Y54250D01*
X36398Y54829D01*
X35955Y55272D01*
X35376Y55512D01*
D02*
G37*
G36*
X34813Y35575D02*
X34187D01*
X33608Y35335D01*
X33165Y34892D01*
X32925Y34313D01*
Y33687D01*
X33165Y33108D01*
X33608Y32665D01*
X34187Y32425D01*
X34813D01*
X35392Y32665D01*
X35835Y33108D01*
X36075Y33687D01*
Y34313D01*
X35835Y34892D01*
X35392Y35335D01*
X34813Y35575D01*
D02*
G37*
G36*
X46329Y29874D02*
X45702D01*
X45124Y29634D01*
X44681Y29191D01*
X43894Y29349D01*
X43463Y29528D01*
X42836D01*
X42257Y29288D01*
X41815Y28845D01*
X41575Y28266D01*
Y27639D01*
X41815Y27061D01*
X42257Y26618D01*
X42836Y26378D01*
X43463D01*
X44042Y26618D01*
X44485Y27061D01*
X45272Y26903D01*
X45702Y26724D01*
X46329D01*
X46908Y26964D01*
X47351Y27407D01*
X47591Y27986D01*
Y28613D01*
X47351Y29191D01*
X46908Y29634D01*
X46329Y29874D01*
D02*
G37*
G36*
X74500Y29000D02*
X74473D01*
X73456Y28727D01*
X72995Y28461D01*
X73133Y28360D01*
X73342Y28230D01*
X73549Y28125D01*
X73753Y28044D01*
X73956Y27988D01*
X74157Y27956D01*
X74356Y27949D01*
X74500Y27962D01*
Y29000D01*
D02*
G37*
%LPD*%
D13*
X5000Y85000D02*
X5000Y85000D01*
D14*
X90000Y195000D02*
G03*
X85000Y200000I-5000J0D01*
G01*
X80000Y-0D02*
G03*
X90000Y10000I0J10000D01*
G01*
X5000Y200000D02*
G03*
X0Y195000I0J-5000D01*
G01*
X-0Y10000D02*
G03*
X10000Y0I10000J0D01*
G01*
X-0Y195000D02*
X0Y10000D01*
X5000Y200000D02*
X85000Y200000D01*
X90000Y10000D02*
X90000Y195000D01*
X10000Y0D02*
X80000Y0D01*
D16*
X71799Y28201D02*
X75000Y25000D01*
D83*
X85000Y35000D02*
D03*
X5000Y85000D02*
D03*
D85*
X75000Y25000D02*
D03*
D86*
X2500Y85000D02*
D03*
X87500Y35000D02*
D03*
D89*
X79332Y111359D02*
D03*
X49382Y150886D02*
D03*
X12795Y141732D02*
D03*
X78583Y141130D02*
D03*
X53534Y148328D02*
D03*
X16142Y25197D02*
D03*
X77953Y57480D02*
D03*
X64567Y57874D02*
D03*
X5000Y40000D02*
D03*
X70472Y98819D02*
D03*
X62500Y86031D02*
D03*
X51425Y86147D02*
D03*
X57874Y31890D02*
D03*
X32997Y99503D02*
D03*
X24000Y86500D02*
D03*
X29985Y86505D02*
D03*
X41000Y63000D02*
D03*
X59500Y59500D02*
D03*
X15500Y141500D02*
D03*
X75000Y67500D02*
D03*
X77000D02*
D03*
X53500Y54500D02*
D03*
X15477Y78500D02*
D03*
X18504Y45669D02*
D03*
X19291Y150813D02*
D03*
X65587Y24803D02*
D03*
X33520Y153141D02*
D03*
X13386Y179921D02*
D03*
X15748D02*
D03*
X51181Y41732D02*
D03*
X49213Y43307D02*
D03*
X51181Y48425D02*
D03*
X33071Y61811D02*
D03*
X72835Y28740D02*
D03*
X9843Y120472D02*
D03*
X79716Y117638D02*
D03*
X72047Y78347D02*
D03*
X64173Y185827D02*
D03*
X42913Y147638D02*
D03*
X79350Y134961D02*
D03*
X45472Y150595D02*
D03*
X19685Y128740D02*
D03*
X79744Y108189D02*
D03*
M02*
