G04*
G04 #@! TF.GenerationSoftware,Altium Limited,Altium Designer,25.0.1 (26)*
G04*
G04 Layer_Physical_Order=4*
G04 Layer_Color=3381759*
%FSLAX25Y25*%
%MOIN*%
G70*
G04*
G04 #@! TF.SameCoordinates,5D196012-D927-4492-92D9-CD159FF3DA83*
G04*
G04*
G04 #@! TF.FilePolarity,Positive*
G04*
G01*
G75*
%ADD10C,0.00984*%
%ADD11C,0.01181*%
%ADD12C,0.00591*%
%ADD13C,0.00787*%
%ADD14C,0.00394*%
%ADD28R,0.02362X0.01968*%
%ADD40R,0.01968X0.02362*%
%ADD41R,0.04331X0.03937*%
%ADD76C,0.00492*%
%ADD78C,0.00906*%
%ADD80C,0.00748*%
%ADD82C,0.02559*%
%ADD83C,0.05906*%
%ADD84R,0.05906X0.05906*%
%ADD85C,0.06000*%
%ADD86R,0.05000X0.05906*%
%ADD87R,0.05906X0.05906*%
%ADD88C,0.15000*%
%ADD89C,0.01968*%
%ADD90C,0.01772*%
%ADD91R,0.02953X0.01575*%
%ADD92R,0.22520X0.22520*%
%ADD93O,0.00984X0.05709*%
%ADD94O,0.05709X0.00984*%
%ADD95C,0.04724*%
%ADD96C,0.03150*%
%ADD97R,0.09843X0.12598*%
%ADD98R,0.01378X0.07087*%
%ADD99C,0.01575*%
G36*
X72864Y112461D02*
X72814Y112491D01*
X72757Y112518D01*
X72695Y112541D01*
X72626Y112562D01*
X72550Y112579D01*
X72469Y112593D01*
X72287Y112612D01*
X72187Y112617D01*
X72080Y112618D01*
Y113209D01*
X72187Y113210D01*
X72469Y113234D01*
X72550Y113248D01*
X72626Y113265D01*
X72695Y113286D01*
X72757Y113309D01*
X72814Y113336D01*
X72864Y113366D01*
Y112461D01*
D02*
G37*
G36*
X17199Y113327D02*
X17264Y113291D01*
X17330Y113260D01*
X17399Y113234D01*
X17470Y113211D01*
X17543Y113192D01*
X17617Y113178D01*
X17694Y113168D01*
X17773Y113162D01*
X17854Y113159D01*
Y112667D01*
X17773Y112665D01*
X17694Y112659D01*
X17617Y112649D01*
X17543Y112634D01*
X17470Y112616D01*
X17399Y112593D01*
X17330Y112566D01*
X17264Y112535D01*
X17199Y112500D01*
X17136Y112461D01*
Y113366D01*
X17199Y113327D01*
D02*
G37*
G36*
X68024Y113147D02*
X68219Y113120D01*
X68316Y113113D01*
X68509Y113111D01*
X68604Y113116D01*
X68795Y113138D01*
X68889Y113155D01*
X69236Y112610D01*
X69151Y112596D01*
X69072Y112573D01*
X68999Y112539D01*
X68934Y112495D01*
X68875Y112441D01*
X68823Y112376D01*
X68778Y112301D01*
X68739Y112216D01*
X68707Y112120D01*
X68682Y112014D01*
X67926Y113166D01*
X68024Y113147D01*
D02*
G37*
G36*
X78625Y111744D02*
X78672Y111743D01*
X78822Y111743D01*
X78853Y110955D01*
X78703Y110955D01*
X78634Y110950D01*
X78637Y110663D01*
X78576Y110719D01*
X78511Y110768D01*
X78443Y110812D01*
X78369Y110850D01*
X78292Y110882D01*
X78211Y110908D01*
X78164Y110920D01*
X78032Y110911D01*
X77990Y110899D01*
X77963Y110886D01*
Y110950D01*
X77942Y110952D01*
X77844Y110955D01*
X77835Y111743D01*
X77933Y111746D01*
X77963Y111749D01*
Y111791D01*
X77984Y111782D01*
X78020Y111774D01*
X78071Y111766D01*
X78088Y111765D01*
X78116Y111769D01*
X78201Y111790D01*
X78282Y111817D01*
X78359Y111850D01*
X78431Y111889D01*
X78499Y111934D01*
X78563Y111984D01*
X78622Y112041D01*
X78625Y111744D01*
D02*
G37*
G36*
X17199Y111752D02*
X17264Y111717D01*
X17330Y111686D01*
X17399Y111659D01*
X17470Y111636D01*
X17543Y111618D01*
X17617Y111603D01*
X17694Y111593D01*
X17773Y111587D01*
X17854Y111585D01*
Y111092D01*
X17773Y111090D01*
X17694Y111084D01*
X17617Y111074D01*
X17543Y111059D01*
X17470Y111041D01*
X17399Y111018D01*
X17330Y110992D01*
X17264Y110960D01*
X17199Y110925D01*
X17136Y110886D01*
Y111791D01*
X17199Y111752D01*
D02*
G37*
G36*
X72864Y109311D02*
X72814Y109341D01*
X72757Y109368D01*
X72695Y109392D01*
X72626Y109412D01*
X72550Y109429D01*
X72469Y109443D01*
X72287Y109462D01*
X72187Y109467D01*
X72080Y109468D01*
Y110059D01*
X72187Y110061D01*
X72469Y110084D01*
X72550Y110098D01*
X72626Y110116D01*
X72695Y110136D01*
X72757Y110160D01*
X72814Y110186D01*
X72864Y110216D01*
Y109311D01*
D02*
G37*
G36*
X17199Y110177D02*
X17264Y110142D01*
X17330Y110111D01*
X17399Y110084D01*
X17470Y110061D01*
X17543Y110043D01*
X17617Y110028D01*
X17694Y110018D01*
X17773Y110012D01*
X17854Y110010D01*
Y109518D01*
X17773Y109516D01*
X17694Y109510D01*
X17617Y109499D01*
X17543Y109485D01*
X17470Y109466D01*
X17399Y109443D01*
X17330Y109417D01*
X17264Y109386D01*
X17199Y109351D01*
X17136Y109311D01*
Y110216D01*
X17199Y110177D01*
D02*
G37*
G36*
X71204Y110378D02*
X71283Y110311D01*
X71363Y110252D01*
X71444Y110201D01*
X71526Y110158D01*
X71609Y110122D01*
X71693Y110094D01*
X71779Y110075D01*
X71865Y110063D01*
X71953Y110059D01*
Y109468D01*
X71865Y109465D01*
X71779Y109453D01*
X71693Y109433D01*
X71609Y109406D01*
X71526Y109370D01*
X71444Y109327D01*
X71363Y109276D01*
X71283Y109216D01*
X71204Y109150D01*
X71126Y109075D01*
Y110453D01*
X71204Y110378D01*
D02*
G37*
G36*
X64859Y110097D02*
X64880Y109876D01*
X64899Y109775D01*
X64924Y109681D01*
X64955Y109593D01*
X64992Y109513D01*
X65035Y109439D01*
X65084Y109371D01*
X65138Y109310D01*
X64790Y108962D01*
X64729Y109017D01*
X64662Y109065D01*
X64588Y109108D01*
X64507Y109145D01*
X64420Y109176D01*
X64326Y109202D01*
X64225Y109221D01*
X64117Y109234D01*
X64003Y109242D01*
X63883Y109244D01*
X64857Y110218D01*
X64859Y110097D01*
D02*
G37*
G36*
X79041Y107500D02*
X78981Y107556D01*
X78917Y107606D01*
X78849Y107651D01*
X78776Y107689D01*
X78699Y107721D01*
X78618Y107748D01*
X78533Y107769D01*
X78465Y107780D01*
X77987Y107748D01*
X77963Y107737D01*
Y108641D01*
X77987Y108630D01*
X78026Y108620D01*
X78079Y108611D01*
X78225Y108597D01*
X78402Y108591D01*
X78443Y108595D01*
X78533Y108609D01*
X78618Y108630D01*
X78699Y108657D01*
X78776Y108689D01*
X78849Y108727D01*
X78917Y108772D01*
X78981Y108822D01*
X79041Y108878D01*
Y107500D01*
D02*
G37*
G36*
X12037Y107737D02*
X11974Y107776D01*
X11910Y107811D01*
X11843Y107842D01*
X11774Y107869D01*
X11703Y107891D01*
X11631Y107910D01*
X11556Y107924D01*
X11479Y107935D01*
X11400Y107941D01*
X11319Y107943D01*
Y108435D01*
X11400Y108437D01*
X11479Y108443D01*
X11556Y108454D01*
X11631Y108468D01*
X11703Y108487D01*
X11774Y108509D01*
X11843Y108536D01*
X11910Y108567D01*
X11974Y108602D01*
X12037Y108641D01*
Y107737D01*
D02*
G37*
G36*
X84956Y109249D02*
X85002Y109051D01*
X85079Y108856D01*
X85186Y108663D01*
X85324Y108473D01*
X85493Y108285D01*
X85692Y108100D01*
X85922Y107917D01*
X86183Y107736D01*
X86474Y107559D01*
X82959Y107134D01*
X83223Y107396D01*
X83669Y107901D01*
X83850Y108143D01*
X84003Y108378D01*
X84128Y108606D01*
X84225Y108827D01*
X84295Y109041D01*
X84337Y109249D01*
X84350Y109449D01*
X84941D01*
X84956Y109249D01*
D02*
G37*
G36*
X63892Y107070D02*
X63885Y107025D01*
X63885Y106978D01*
X63892Y106931D01*
X63906Y106882D01*
X63927Y106833D01*
X63955Y106783D01*
X63991Y106732D01*
X64033Y106681D01*
X64083Y106628D01*
X63735Y106280D01*
X63677Y106335D01*
X63620Y106383D01*
X63564Y106424D01*
X63510Y106459D01*
X63457Y106486D01*
X63405Y106507D01*
X63354Y106521D01*
X63305Y106527D01*
X63256Y106527D01*
X63209Y106520D01*
X63906Y107115D01*
X63892Y107070D01*
D02*
G37*
G36*
X72864Y106162D02*
X72814Y106192D01*
X72757Y106218D01*
X72695Y106242D01*
X72626Y106262D01*
X72550Y106280D01*
X72469Y106294D01*
X72287Y106313D01*
X72187Y106317D01*
X72080Y106319D01*
Y106909D01*
X72187Y106911D01*
X72469Y106934D01*
X72550Y106949D01*
X72626Y106966D01*
X72695Y106986D01*
X72757Y107010D01*
X72814Y107037D01*
X72864Y107066D01*
Y106162D01*
D02*
G37*
G36*
X12037D02*
X11974Y106201D01*
X11910Y106236D01*
X11843Y106267D01*
X11774Y106294D01*
X11703Y106316D01*
X11631Y106335D01*
X11556Y106350D01*
X11479Y106360D01*
X11400Y106366D01*
X11319Y106368D01*
Y106860D01*
X11400Y106862D01*
X11479Y106869D01*
X11556Y106879D01*
X11631Y106893D01*
X11703Y106912D01*
X11774Y106934D01*
X11843Y106961D01*
X11910Y106992D01*
X11974Y107027D01*
X12037Y107066D01*
Y106162D01*
D02*
G37*
G36*
X78013Y105462D02*
X78069Y105435D01*
X78132Y105412D01*
X78201Y105391D01*
X78276Y105374D01*
X78358Y105360D01*
X78540Y105341D01*
X78640Y105336D01*
X78746Y105335D01*
Y104744D01*
X78640Y104743D01*
X78358Y104719D01*
X78276Y104705D01*
X78201Y104688D01*
X78132Y104667D01*
X78069Y104644D01*
X78013Y104617D01*
X77963Y104587D01*
Y105492D01*
X78013Y105462D01*
D02*
G37*
G36*
X17199Y105452D02*
X17264Y105417D01*
X17330Y105386D01*
X17399Y105360D01*
X17470Y105337D01*
X17543Y105318D01*
X17617Y105304D01*
X17694Y105294D01*
X17773Y105288D01*
X17854Y105285D01*
Y104793D01*
X17773Y104791D01*
X17694Y104785D01*
X17617Y104775D01*
X17543Y104760D01*
X17470Y104742D01*
X17399Y104719D01*
X17330Y104692D01*
X17264Y104661D01*
X17199Y104626D01*
X17136Y104587D01*
Y105492D01*
X17199Y105452D01*
D02*
G37*
G36*
Y103878D02*
X17264Y103843D01*
X17330Y103812D01*
X17399Y103785D01*
X17470Y103762D01*
X17543Y103744D01*
X17617Y103729D01*
X17694Y103719D01*
X17773Y103713D01*
X17854Y103711D01*
Y103218D01*
X17773Y103216D01*
X17694Y103210D01*
X17617Y103200D01*
X17543Y103185D01*
X17470Y103167D01*
X17399Y103144D01*
X17330Y103118D01*
X17264Y103086D01*
X17199Y103051D01*
X17136Y103012D01*
Y103917D01*
X17199Y103878D01*
D02*
G37*
G36*
X78013Y103887D02*
X78069Y103860D01*
X78132Y103837D01*
X78201Y103816D01*
X78276Y103799D01*
X78358Y103785D01*
X78540Y103766D01*
X78640Y103761D01*
X78746Y103760D01*
Y103169D01*
X78640Y103168D01*
X78358Y103144D01*
X78276Y103130D01*
X78201Y103113D01*
X78132Y103092D01*
X78069Y103069D01*
X78013Y103042D01*
X77963Y103012D01*
Y103917D01*
X78013Y103887D01*
D02*
G37*
G36*
X68289Y103605D02*
X68461Y103463D01*
X68546Y103405D01*
X68630Y103357D01*
X68714Y103317D01*
X68797Y103286D01*
X68880Y103264D01*
X68962Y103251D01*
X69044Y103246D01*
Y102754D01*
X68962Y102750D01*
X68880Y102736D01*
X68797Y102714D01*
X68714Y102683D01*
X68630Y102643D01*
X68546Y102594D01*
X68461Y102537D01*
X68375Y102471D01*
X68289Y102395D01*
X68203Y102311D01*
Y103689D01*
X68289Y103605D01*
D02*
G37*
G36*
X17199Y102303D02*
X17264Y102268D01*
X17330Y102237D01*
X17399Y102210D01*
X17470Y102187D01*
X17543Y102169D01*
X17617Y102154D01*
X17694Y102144D01*
X17773Y102138D01*
X17854Y102136D01*
Y101644D01*
X17773Y101642D01*
X17694Y101636D01*
X17617Y101625D01*
X17543Y101611D01*
X17470Y101592D01*
X17399Y101569D01*
X17330Y101543D01*
X17264Y101512D01*
X17199Y101477D01*
X17136Y101437D01*
Y102342D01*
X17199Y102303D01*
D02*
G37*
G36*
Y100728D02*
X17264Y100693D01*
X17330Y100662D01*
X17399Y100635D01*
X17470Y100613D01*
X17543Y100594D01*
X17617Y100580D01*
X17694Y100569D01*
X17773Y100563D01*
X17854Y100561D01*
Y100069D01*
X17773Y100067D01*
X17694Y100061D01*
X17617Y100050D01*
X17543Y100036D01*
X17470Y100017D01*
X17399Y99995D01*
X17330Y99968D01*
X17264Y99937D01*
X17199Y99902D01*
X17136Y99863D01*
Y100767D01*
X17199Y100728D01*
D02*
G37*
G36*
X12037Y99863D02*
X11974Y99902D01*
X11910Y99937D01*
X11843Y99968D01*
X11774Y99995D01*
X11703Y100017D01*
X11631Y100036D01*
X11556Y100050D01*
X11479Y100061D01*
X11400Y100067D01*
X11319Y100069D01*
Y100561D01*
X11400Y100563D01*
X11479Y100569D01*
X11556Y100580D01*
X11631Y100594D01*
X11703Y100613D01*
X11774Y100635D01*
X11843Y100662D01*
X11910Y100693D01*
X11974Y100728D01*
X12037Y100767D01*
Y99863D01*
D02*
G37*
G36*
X50797Y98701D02*
X50711Y98785D01*
X50539Y98927D01*
X50454Y98984D01*
X50370Y99033D01*
X50286Y99073D01*
X50203Y99104D01*
X50120Y99126D01*
X50038Y99139D01*
X49957Y99144D01*
Y99636D01*
X50038Y99640D01*
X50120Y99654D01*
X50203Y99676D01*
X50286Y99707D01*
X50370Y99747D01*
X50454Y99795D01*
X50539Y99853D01*
X50625Y99919D01*
X50711Y99995D01*
X50797Y100079D01*
Y98701D01*
D02*
G37*
G36*
X71261Y99420D02*
X71323Y99368D01*
X71390Y99322D01*
X71461Y99282D01*
X71536Y99248D01*
X71616Y99221D01*
X71701Y99199D01*
X71790Y99184D01*
X71884Y99175D01*
X71982Y99172D01*
X71952Y98523D01*
X72045Y99172D01*
X72864Y99192D01*
Y98288D01*
X72829Y98306D01*
X72781Y98322D01*
X72720Y98337D01*
X72646Y98349D01*
X72459Y98369D01*
X72222Y98380D01*
X71942Y98384D01*
X71848Y98381D01*
X71754Y98373D01*
X71665Y98359D01*
X71579Y98339D01*
X71497Y98313D01*
X71419Y98282D01*
X71345Y98246D01*
X71274Y98203D01*
X71208Y98155D01*
X71146Y98101D01*
X71204Y99478D01*
X71261Y99420D01*
D02*
G37*
G36*
X12037Y98288D02*
X11974Y98327D01*
X11910Y98362D01*
X11843Y98393D01*
X11774Y98420D01*
X11703Y98443D01*
X11631Y98461D01*
X11556Y98475D01*
X11479Y98486D01*
X11400Y98492D01*
X11319Y98494D01*
Y98986D01*
X11400Y98988D01*
X11479Y98994D01*
X11556Y99005D01*
X11631Y99019D01*
X11703Y99038D01*
X11774Y99060D01*
X11843Y99087D01*
X11910Y99118D01*
X11974Y99153D01*
X12037Y99192D01*
Y98288D01*
D02*
G37*
G36*
X19643Y99211D02*
X19711Y99162D01*
X19785Y99119D01*
X19866Y99082D01*
X19953Y99051D01*
X20047Y99026D01*
X20148Y99007D01*
X20255Y98993D01*
X20369Y98986D01*
X20490Y98984D01*
X19516Y98010D01*
X19514Y98131D01*
X19493Y98352D01*
X19474Y98453D01*
X19449Y98547D01*
X19418Y98634D01*
X19381Y98715D01*
X19338Y98789D01*
X19289Y98857D01*
X19234Y98918D01*
X19582Y99265D01*
X19643Y99211D01*
D02*
G37*
G36*
X67302Y98241D02*
X67311Y98147D01*
X67326Y98057D01*
X67346Y97972D01*
X67373Y97891D01*
X67405Y97814D01*
X67444Y97741D01*
X67488Y97673D01*
X67538Y97609D01*
X67594Y97549D01*
X66216D01*
X66272Y97609D01*
X66322Y97673D01*
X66367Y97741D01*
X66405Y97814D01*
X66438Y97891D01*
X66464Y97972D01*
X66485Y98057D01*
X66500Y98147D01*
X66509Y98241D01*
X66511Y98339D01*
X67299D01*
X67302Y98241D01*
D02*
G37*
G36*
X85351Y99410D02*
X85400Y99204D01*
X85481Y98989D01*
X85595Y98764D01*
X85741Y98529D01*
X85919Y98284D01*
X86131Y98030D01*
X86374Y97766D01*
X86959Y97209D01*
X83100Y97261D01*
X83413Y97533D01*
X83939Y98052D01*
X84152Y98299D01*
X84333Y98538D01*
X84481Y98768D01*
X84596Y98990D01*
X84678Y99204D01*
X84728Y99409D01*
X84744Y99606D01*
X85335D01*
X85351Y99410D01*
D02*
G37*
G36*
X72864Y96713D02*
X72839Y96724D01*
X72801Y96734D01*
X72748Y96743D01*
X72601Y96757D01*
X72276Y96769D01*
X71989Y96772D01*
Y97559D01*
X72139Y97560D01*
X72839Y97606D01*
X72864Y97618D01*
Y96713D01*
D02*
G37*
G36*
Y95138D02*
X72850Y95142D01*
X72821Y95146D01*
X72718Y95152D01*
X72489Y95154D01*
X72411Y95145D01*
X72327Y95128D01*
X72251Y95104D01*
X72185Y95073D01*
X72127Y95035D01*
X72077Y94990D01*
X72036Y94938D01*
X72004Y94879D01*
X71980Y94814D01*
X71351Y96010D01*
X71396Y95998D01*
X71456Y95987D01*
X71622Y95969D01*
X71985Y95952D01*
X72134Y95951D01*
X72646Y95981D01*
X72720Y95994D01*
X72781Y96008D01*
X72829Y96025D01*
X72864Y96043D01*
Y95138D01*
D02*
G37*
G36*
X18214Y94902D02*
X18137Y94976D01*
X18058Y95043D01*
X17978Y95102D01*
X17897Y95153D01*
X17815Y95197D01*
X17732Y95232D01*
X17647Y95260D01*
X17583Y95275D01*
X17531Y95270D01*
X17449Y95256D01*
X17374Y95239D01*
X17305Y95218D01*
X17243Y95195D01*
X17186Y95168D01*
X17136Y95138D01*
Y96043D01*
X17186Y96013D01*
X17243Y95986D01*
X17305Y95963D01*
X17374Y95942D01*
X17449Y95925D01*
X17531Y95911D01*
X17580Y95906D01*
X17647Y95921D01*
X17732Y95949D01*
X17815Y95984D01*
X17897Y96027D01*
X17978Y96079D01*
X18058Y96138D01*
X18137Y96205D01*
X18214Y96280D01*
Y94902D01*
D02*
G37*
G36*
X79041Y92150D02*
X79734Y91457D01*
X79652Y91454D01*
X79571Y91444D01*
X79492Y91427D01*
X79413Y91403D01*
X79336Y91371D01*
X79260Y91333D01*
X79185Y91287D01*
X79111Y91234D01*
X79038Y91174D01*
X78967Y91107D01*
X78949Y91125D01*
X78122Y90520D01*
X77545Y91344D01*
X78544Y91817D01*
X78590Y91882D01*
X78636Y91956D01*
X78652Y91989D01*
X78618Y92000D01*
X78533Y92021D01*
X78465Y92032D01*
X77987Y92000D01*
X77963Y91989D01*
Y92893D01*
X77987Y92882D01*
X78026Y92872D01*
X78079Y92863D01*
X78225Y92849D01*
X78402Y92843D01*
X78443Y92847D01*
X78533Y92861D01*
X78618Y92882D01*
X78699Y92909D01*
X78776Y92941D01*
X78849Y92979D01*
X78917Y93024D01*
X78981Y93074D01*
X79041Y93130D01*
Y92150D01*
D02*
G37*
G36*
X17186Y92863D02*
X17243Y92837D01*
X17305Y92813D01*
X17374Y92793D01*
X17449Y92775D01*
X17531Y92761D01*
X17713Y92743D01*
X17813Y92738D01*
X17920Y92736D01*
Y92146D01*
X17813Y92144D01*
X17531Y92121D01*
X17449Y92106D01*
X17374Y92089D01*
X17305Y92069D01*
X17243Y92045D01*
X17186Y92019D01*
X17136Y91989D01*
Y92893D01*
X17186Y92863D01*
D02*
G37*
G36*
X19006Y89685D02*
X18898Y89683D01*
X18795Y89675D01*
X18697Y89660D01*
X18603Y89639D01*
X18515Y89611D01*
X18431Y89578D01*
X18352Y89537D01*
X18277Y89491D01*
X18208Y89438D01*
X18143Y89379D01*
X17726Y89797D01*
X17785Y89861D01*
X17837Y89931D01*
X17884Y90005D01*
X17924Y90084D01*
X17958Y90168D01*
X17985Y90257D01*
X18006Y90350D01*
X18021Y90448D01*
X18030Y90552D01*
X18032Y90659D01*
X19006Y89685D01*
D02*
G37*
G36*
X78949Y89032D02*
X78967Y89050D01*
X79038Y88983D01*
X79111Y88923D01*
X79185Y88870D01*
X79260Y88825D01*
X79336Y88786D01*
X79413Y88755D01*
X79492Y88731D01*
X79571Y88713D01*
X79652Y88704D01*
X79734Y88701D01*
X79041Y88008D01*
Y87028D01*
X78981Y87084D01*
X78917Y87134D01*
X78849Y87178D01*
X78776Y87217D01*
X78699Y87249D01*
X78618Y87276D01*
X78533Y87296D01*
X78465Y87307D01*
X77987Y87275D01*
X77963Y87264D01*
Y88169D01*
X77987Y88158D01*
X78026Y88148D01*
X78079Y88139D01*
X78225Y88125D01*
X78402Y88118D01*
X78443Y88122D01*
X78533Y88137D01*
X78618Y88157D01*
X78652Y88169D01*
X78636Y88201D01*
X78590Y88276D01*
X78537Y88350D01*
X78477Y88422D01*
X78471Y88428D01*
X78424Y88474D01*
X78147Y88708D01*
X78026Y88791D01*
X77916Y88851D01*
X77819Y88889D01*
X77733Y88904D01*
X77658Y88897D01*
X77596Y88867D01*
X77545Y88814D01*
X78122Y89638D01*
X78949Y89032D01*
D02*
G37*
G36*
X23221Y85898D02*
X23171Y85957D01*
X23117Y86009D01*
X23057Y86055D01*
X22992Y86094D01*
X22922Y86128D01*
X22848Y86156D01*
X22768Y86177D01*
X22684Y86193D01*
X22594Y86202D01*
X22500Y86205D01*
Y86795D01*
X22594Y86798D01*
X22684Y86808D01*
X22768Y86823D01*
X22848Y86844D01*
X22922Y86872D01*
X22992Y86906D01*
X23057Y86945D01*
X23117Y86991D01*
X23171Y87043D01*
X23221Y87102D01*
Y85898D01*
D02*
G37*
G36*
X82250Y88187D02*
X82421Y88075D01*
X82612Y87983D01*
X82821Y87911D01*
X83049Y87860D01*
X83297Y87829D01*
X83564Y87818D01*
X83850Y87827D01*
X84155Y87857D01*
X84479Y87906D01*
X82094Y85521D01*
X82143Y85845D01*
X82173Y86150D01*
X82182Y86436D01*
X82171Y86703D01*
X82140Y86950D01*
X82089Y87179D01*
X82017Y87388D01*
X81925Y87578D01*
X81813Y87749D01*
X81681Y87901D01*
X82099Y88319D01*
X82250Y88187D01*
D02*
G37*
G36*
X61797Y85342D02*
X61737Y85399D01*
X61673Y85449D01*
X61604Y85493D01*
X61532Y85531D01*
X61455Y85564D01*
X61374Y85590D01*
X61289Y85611D01*
X61199Y85626D01*
X61105Y85635D01*
X61007Y85638D01*
Y86425D01*
X61105Y86428D01*
X61199Y86437D01*
X61289Y86452D01*
X61374Y86472D01*
X61455Y86499D01*
X61532Y86531D01*
X61604Y86570D01*
X61673Y86614D01*
X61737Y86664D01*
X61797Y86720D01*
Y85342D01*
D02*
G37*
G36*
X68083Y84899D02*
X68089Y84820D01*
X68099Y84743D01*
X68114Y84669D01*
X68132Y84596D01*
X68155Y84525D01*
X68182Y84456D01*
X68213Y84390D01*
X68248Y84325D01*
X68287Y84262D01*
X67382D01*
X67422Y84325D01*
X67457Y84390D01*
X67488Y84456D01*
X67514Y84525D01*
X67537Y84596D01*
X67556Y84669D01*
X67570Y84743D01*
X67580Y84820D01*
X67586Y84899D01*
X67589Y84980D01*
X68081D01*
X68083Y84899D01*
D02*
G37*
G36*
X66508D02*
X66514Y84820D01*
X66524Y84743D01*
X66539Y84669D01*
X66558Y84596D01*
X66580Y84525D01*
X66607Y84456D01*
X66638Y84390D01*
X66673Y84325D01*
X66712Y84262D01*
X65808D01*
X65847Y84325D01*
X65882Y84390D01*
X65913Y84456D01*
X65939Y84525D01*
X65962Y84596D01*
X65981Y84669D01*
X65995Y84743D01*
X66005Y84820D01*
X66012Y84899D01*
X66014Y84980D01*
X66506D01*
X66508Y84899D01*
D02*
G37*
G36*
X31862D02*
X31868Y84820D01*
X31879Y84743D01*
X31893Y84669D01*
X31912Y84596D01*
X31934Y84525D01*
X31961Y84456D01*
X31992Y84390D01*
X32027Y84325D01*
X32066Y84262D01*
X31162D01*
X31201Y84325D01*
X31236Y84390D01*
X31267Y84456D01*
X31294Y84525D01*
X31317Y84596D01*
X31335Y84669D01*
X31350Y84743D01*
X31360Y84820D01*
X31366Y84899D01*
X31368Y84980D01*
X31860D01*
X31862Y84899D01*
D02*
G37*
G36*
X68248Y79100D02*
X68213Y79036D01*
X68182Y78969D01*
X68155Y78900D01*
X68132Y78829D01*
X68114Y78756D01*
X68099Y78682D01*
X68089Y78605D01*
X68083Y78526D01*
X68081Y78445D01*
X67589D01*
X67586Y78526D01*
X67580Y78605D01*
X67570Y78682D01*
X67556Y78756D01*
X67537Y78829D01*
X67514Y78900D01*
X67488Y78969D01*
X67457Y79036D01*
X67422Y79100D01*
X67382Y79163D01*
X68287D01*
X68248Y79100D01*
D02*
G37*
G36*
X66673D02*
X66638Y79036D01*
X66607Y78969D01*
X66580Y78900D01*
X66558Y78829D01*
X66539Y78756D01*
X66524Y78682D01*
X66514Y78605D01*
X66508Y78526D01*
X66506Y78445D01*
X66014D01*
X66012Y78526D01*
X66005Y78605D01*
X65995Y78682D01*
X65981Y78756D01*
X65962Y78829D01*
X65939Y78900D01*
X65913Y78969D01*
X65882Y79036D01*
X65847Y79100D01*
X65808Y79163D01*
X66712D01*
X66673Y79100D01*
D02*
G37*
G36*
X65098D02*
X65063Y79036D01*
X65032Y78969D01*
X65005Y78900D01*
X64983Y78829D01*
X64964Y78756D01*
X64950Y78682D01*
X64939Y78605D01*
X64933Y78526D01*
X64931Y78445D01*
X64439D01*
X64437Y78526D01*
X64431Y78605D01*
X64420Y78682D01*
X64406Y78756D01*
X64387Y78829D01*
X64365Y78900D01*
X64338Y78969D01*
X64307Y79036D01*
X64272Y79100D01*
X64233Y79163D01*
X65137D01*
X65098Y79100D01*
D02*
G37*
G36*
X63523D02*
X63488Y79036D01*
X63457Y78969D01*
X63431Y78900D01*
X63408Y78829D01*
X63389Y78756D01*
X63375Y78682D01*
X63364Y78605D01*
X63358Y78526D01*
X63356Y78445D01*
X62864D01*
X62862Y78526D01*
X62856Y78605D01*
X62846Y78682D01*
X62831Y78756D01*
X62813Y78829D01*
X62790Y78900D01*
X62763Y78969D01*
X62732Y79036D01*
X62697Y79100D01*
X62658Y79163D01*
X63563D01*
X63523Y79100D01*
D02*
G37*
G36*
X27303D02*
X27268Y79036D01*
X27237Y78969D01*
X27210Y78900D01*
X27187Y78829D01*
X27169Y78756D01*
X27154Y78682D01*
X27144Y78605D01*
X27138Y78526D01*
X27136Y78445D01*
X26644D01*
X26642Y78526D01*
X26635Y78605D01*
X26625Y78682D01*
X26611Y78756D01*
X26592Y78829D01*
X26570Y78900D01*
X26543Y78969D01*
X26512Y79036D01*
X26477Y79100D01*
X26438Y79163D01*
X27342D01*
X27303Y79100D01*
D02*
G37*
G36*
X25728D02*
X25693Y79036D01*
X25662Y78969D01*
X25635Y78900D01*
X25613Y78829D01*
X25594Y78756D01*
X25580Y78682D01*
X25569Y78605D01*
X25563Y78526D01*
X25561Y78445D01*
X25069D01*
X25067Y78526D01*
X25061Y78605D01*
X25050Y78682D01*
X25036Y78756D01*
X25017Y78829D01*
X24995Y78900D01*
X24968Y78969D01*
X24937Y79036D01*
X24902Y79100D01*
X24863Y79163D01*
X25767D01*
X25728Y79100D01*
D02*
G37*
G36*
X24086Y79004D02*
X24053Y78977D01*
X24024Y78943D01*
X23998Y78901D01*
X23975Y78852D01*
X23956Y78796D01*
X23940Y78732D01*
X23928Y78661D01*
X23919Y78582D01*
X23912Y78403D01*
X23420Y78495D01*
X23419Y78586D01*
X23399Y78827D01*
X23387Y78897D01*
X23373Y78961D01*
X23355Y79020D01*
X23336Y79073D01*
X23313Y79121D01*
X23288Y79163D01*
X24086Y79004D01*
D02*
G37*
G36*
X54102Y79138D02*
X54093Y79100D01*
X54084Y79048D01*
X54070Y78901D01*
X54057Y78576D01*
X54055Y78290D01*
X53268D01*
X53267Y78440D01*
X53220Y79138D01*
X53209Y79163D01*
X54114D01*
X54102Y79138D01*
D02*
G37*
G36*
X69851Y79138D02*
X69841Y79100D01*
X69832Y79048D01*
X69818Y78900D01*
X69806Y78575D01*
X69803Y78288D01*
X69016D01*
X69015Y78439D01*
X68968Y79138D01*
X68957Y79163D01*
X69862D01*
X69851Y79138D01*
D02*
G37*
G36*
X49378D02*
X49368Y79100D01*
X49359Y79048D01*
X49345Y78900D01*
X49333Y78575D01*
X49331Y78288D01*
X48543D01*
X48543Y78439D01*
X48496Y79138D01*
X48485Y79163D01*
X49389D01*
X49378Y79138D01*
D02*
G37*
G36*
X47803Y79138D02*
X47793Y79100D01*
X47785Y79048D01*
X47771Y78900D01*
X47758Y78575D01*
X47756Y78288D01*
X46968D01*
X46968Y78439D01*
X46921Y79138D01*
X46910Y79163D01*
X47815D01*
X47803Y79138D01*
D02*
G37*
G36*
X39929D02*
X39919Y79100D01*
X39911Y79048D01*
X39897Y78900D01*
X39884Y78575D01*
X39882Y78288D01*
X39094D01*
X39094Y78439D01*
X39047Y79138D01*
X39036Y79163D01*
X39940D01*
X39929Y79138D01*
D02*
G37*
G36*
X38355D02*
X38345Y79100D01*
X38336Y79048D01*
X38322Y78900D01*
X38309Y78575D01*
X38307Y78288D01*
X37520D01*
X37519Y78439D01*
X37472Y79138D01*
X37461Y79163D01*
X38366D01*
X38355Y79138D01*
D02*
G37*
G36*
X72037Y77362D02*
X71955Y77359D01*
X71874Y77350D01*
X71795Y77333D01*
X71716Y77308D01*
X71639Y77277D01*
X71563Y77238D01*
X71488Y77193D01*
X71414Y77140D01*
X71342Y77080D01*
X71270Y77013D01*
X70713Y77569D01*
X70781Y77641D01*
X70841Y77713D01*
X70893Y77787D01*
X70939Y77862D01*
X70978Y77938D01*
X71009Y78015D01*
X71033Y78094D01*
X71050Y78174D01*
X71060Y78254D01*
X71063Y78337D01*
X72037Y77362D01*
D02*
G37*
G36*
X38624Y77255D02*
X38637Y77075D01*
X38649Y77002D01*
X38664Y76940D01*
X38683Y76889D01*
X38705Y76850D01*
X38730Y76822D01*
X38759Y76805D01*
X38791Y76799D01*
X37847D01*
X37835Y77362D01*
X38622D01*
X38624Y77255D01*
D02*
G37*
G36*
X77406Y77041D02*
X77417Y76905D01*
X77437Y76785D01*
X77465Y76681D01*
X77500Y76593D01*
X77543Y76521D01*
X77595Y76465D01*
X77653Y76425D01*
X77720Y76401D01*
X77795Y76393D01*
X76221D01*
X76295Y76401D01*
X76362Y76425D01*
X76421Y76465D01*
X76473Y76521D01*
X76516Y76593D01*
X76551Y76681D01*
X76579Y76785D01*
X76598Y76905D01*
X76610Y77041D01*
X76614Y77193D01*
X77402D01*
X77406Y77041D01*
D02*
G37*
G36*
X69807Y77041D02*
X69819Y76906D01*
X69839Y76786D01*
X69866Y76683D01*
X69902Y76595D01*
X69945Y76523D01*
X69996Y76467D01*
X70055Y76426D01*
X70122Y76402D01*
X70138Y76400D01*
X70163Y76416D01*
X70187Y76445D01*
X70207Y76485D01*
X70225Y76535D01*
X70239Y76597D01*
X70250Y76670D01*
X70258Y76755D01*
X70264Y76957D01*
X71052D01*
X71052Y76852D01*
X71076Y76427D01*
X71083Y76411D01*
X71090Y76405D01*
X70188Y76394D01*
X70197Y76393D01*
X70143Y76394D01*
X70106Y76393D01*
X70110Y76394D01*
X68752Y76405D01*
X68802Y76413D01*
X68847Y76437D01*
X68887Y76476D01*
X68921Y76531D01*
X68950Y76602D01*
X68974Y76689D01*
X68992Y76791D01*
X69005Y76909D01*
X69016Y77193D01*
X69803D01*
X69807Y77041D01*
D02*
G37*
G36*
X75190Y76602D02*
X74622Y75489D01*
X73323Y76393D01*
X73395Y76362D01*
X73482Y76356D01*
X73583Y76376D01*
X73700Y76421D01*
X73832Y76493D01*
X73979Y76591D01*
X74140Y76714D01*
X74509Y77039D01*
X74715Y77241D01*
X75190Y76602D01*
D02*
G37*
G36*
X52760Y75230D02*
X52772Y75094D01*
X52791Y74974D01*
X52819Y74870D01*
X52854Y74782D01*
X52898Y74710D01*
X52949Y74654D01*
X53008Y74614D01*
X53075Y74590D01*
X53150Y74582D01*
X51575D01*
X51650Y74590D01*
X51717Y74614D01*
X51776Y74654D01*
X51827Y74710D01*
X51870Y74782D01*
X51906Y74870D01*
X51933Y74974D01*
X51953Y75094D01*
X51965Y75230D01*
X51968Y75382D01*
X52756D01*
X52760Y75230D01*
D02*
G37*
G36*
X49335D02*
X49346Y75094D01*
X49366Y74974D01*
X49394Y74870D01*
X49429Y74782D01*
X49472Y74710D01*
X49524Y74654D01*
X49583Y74614D01*
X49650Y74590D01*
X49724Y74582D01*
X48150D01*
X48224Y74590D01*
X48291Y74614D01*
X48350Y74654D01*
X48402Y74710D01*
X48445Y74782D01*
X48480Y74870D01*
X48508Y74974D01*
X48528Y75094D01*
X48539Y75230D01*
X48543Y75382D01*
X49331D01*
X49335Y75230D01*
D02*
G37*
G36*
X45673D02*
X45685Y75094D01*
X45705Y74974D01*
X45732Y74870D01*
X45768Y74782D01*
X45811Y74710D01*
X45862Y74654D01*
X45921Y74614D01*
X45988Y74590D01*
X46063Y74582D01*
X44488D01*
X44563Y74590D01*
X44630Y74614D01*
X44689Y74654D01*
X44740Y74710D01*
X44783Y74782D01*
X44819Y74870D01*
X44846Y74974D01*
X44866Y75094D01*
X44878Y75230D01*
X44882Y75382D01*
X45669D01*
X45673Y75230D01*
D02*
G37*
G36*
X54736Y72835D02*
X53993Y73206D01*
X53911Y73193D01*
X53807Y73165D01*
X53719Y73130D01*
X53647Y73087D01*
X53591Y73035D01*
X53551Y72976D01*
X53527Y72909D01*
X53519Y72835D01*
Y74409D01*
X53527Y74335D01*
X53551Y74268D01*
X53591Y74209D01*
X53647Y74158D01*
X53719Y74114D01*
X53807Y74079D01*
X53911Y74051D01*
X53993Y74038D01*
X54736Y74409D01*
Y72835D01*
D02*
G37*
G36*
X39213Y73673D02*
X38425D01*
X38032Y74473D01*
X39606D01*
X39213Y73673D01*
D02*
G37*
G36*
X35374Y73477D02*
X34390D01*
X33910Y74461D01*
X35854D01*
X35374Y73477D01*
D02*
G37*
G36*
X75839Y70524D02*
X75004Y70931D01*
X74988Y70927D01*
X74880Y70884D01*
X74791Y70831D01*
X74722Y70769D01*
X74673Y70697D01*
X74643Y70615D01*
X74634Y70524D01*
Y72468D01*
X74643Y72377D01*
X74673Y72295D01*
X74722Y72224D01*
X74791Y72161D01*
X74880Y72108D01*
X74988Y72065D01*
X75004Y72061D01*
X75839Y72468D01*
Y70524D01*
D02*
G37*
G36*
X72295D02*
X71460Y70931D01*
X71445Y70927D01*
X71336Y70884D01*
X71248Y70831D01*
X71179Y70769D01*
X71130Y70697D01*
X71100Y70615D01*
X71090Y70524D01*
Y72468D01*
X71100Y72377D01*
X71130Y72295D01*
X71179Y72224D01*
X71248Y72161D01*
X71336Y72108D01*
X71445Y72065D01*
X71460Y72061D01*
X72295Y72468D01*
Y70524D01*
D02*
G37*
G36*
X5731Y72130D02*
X5629Y72080D01*
X5539Y72019D01*
X5462Y71949D01*
X5396Y71869D01*
X5342Y71780D01*
X5300Y71680D01*
X5270Y71571D01*
X5252Y71452D01*
X5246Y71323D01*
X4754D01*
X4748Y71452D01*
X4730Y71571D01*
X4700Y71680D01*
X4658Y71780D01*
X4604Y71869D01*
X4538Y71949D01*
X4461Y72019D01*
X4371Y72080D01*
X4269Y72130D01*
X4155Y72171D01*
X5845D01*
X5731Y72130D01*
D02*
G37*
G36*
X78187Y72379D02*
X78216Y72299D01*
X78266Y72228D01*
X78334Y72167D01*
X78423Y72115D01*
X78531Y72073D01*
X78659Y72040D01*
X78807Y72016D01*
X78974Y72002D01*
X79110Y71999D01*
X79149Y72000D01*
X79339Y72015D01*
X79423Y72029D01*
X79501Y72047D01*
X79571Y72069D01*
X79634Y72095D01*
X79691Y72125D01*
X79740Y72159D01*
X79782Y72197D01*
X79795Y70819D01*
X79752Y70856D01*
X79703Y70889D01*
X79646Y70918D01*
X79583Y70943D01*
X79512Y70965D01*
X79435Y70982D01*
X79350Y70996D01*
X79258Y71005D01*
X79097Y71012D01*
X78974Y71008D01*
X78807Y70994D01*
X78659Y70969D01*
X78531Y70935D01*
X78423Y70891D01*
X78334Y70837D01*
X78266Y70773D01*
X78216Y70700D01*
X78187Y70617D01*
X78177Y70524D01*
Y72468D01*
X78187Y72379D01*
D02*
G37*
G36*
X51193Y68713D02*
X50358Y69120D01*
X50342Y69116D01*
X50234Y69073D01*
X50146Y69020D01*
X50077Y68958D01*
X50027Y68886D01*
X49998Y68804D01*
X49988Y68713D01*
Y70657D01*
X49998Y70566D01*
X50027Y70485D01*
X50077Y70412D01*
X50146Y70350D01*
X50234Y70297D01*
X50342Y70254D01*
X50358Y70250D01*
X51193Y70657D01*
Y68713D01*
D02*
G37*
G36*
X47650D02*
X46815Y69120D01*
X46799Y69116D01*
X46691Y69073D01*
X46602Y69020D01*
X46533Y68958D01*
X46484Y68886D01*
X46455Y68804D01*
X46445Y68713D01*
Y70657D01*
X46455Y70566D01*
X46484Y70485D01*
X46533Y70412D01*
X46602Y70350D01*
X46691Y70297D01*
X46799Y70254D01*
X46815Y70250D01*
X47650Y70657D01*
Y68713D01*
D02*
G37*
G36*
X54736Y69513D02*
X55216Y69193D01*
X55029Y69183D01*
X54862Y69153D01*
X54736Y69112D01*
Y68713D01*
X54415Y68870D01*
X54390Y68839D01*
X54321Y68711D01*
X54272Y68563D01*
X54242Y68396D01*
X54232Y68209D01*
X53248D01*
X53241Y68396D01*
X53220Y68563D01*
X53186Y68711D01*
X53138Y68839D01*
X53076Y68947D01*
X53000Y69035D01*
X52910Y69104D01*
X52807Y69153D01*
X52690Y69183D01*
X52559Y69193D01*
X53740Y70177D01*
X53752Y70169D01*
Y70177D01*
X54736Y70657D01*
Y69513D01*
D02*
G37*
G36*
X54234Y66888D02*
X54250Y66698D01*
X54264Y66613D01*
X54282Y66536D01*
X54303Y66465D01*
X54329Y66402D01*
X54358Y66345D01*
X54392Y66296D01*
X54429Y66254D01*
X53051D01*
X53089Y66296D01*
X53122Y66345D01*
X53152Y66402D01*
X53177Y66465D01*
X53199Y66536D01*
X53216Y66613D01*
X53230Y66698D01*
X53240Y66789D01*
X53248Y66994D01*
X54232D01*
X54234Y66888D01*
D02*
G37*
G36*
X71902Y65935D02*
X71909Y65850D01*
X71922Y65774D01*
X71939Y65709D01*
X71961Y65653D01*
X71988Y65608D01*
X72020Y65573D01*
X72057Y65547D01*
X72099Y65532D01*
X72146Y65527D01*
X71161D01*
X71208Y65532D01*
X71250Y65547D01*
X71287Y65573D01*
X71319Y65608D01*
X71346Y65653D01*
X71368Y65709D01*
X71385Y65774D01*
X71398Y65850D01*
X71405Y65935D01*
X71408Y66031D01*
X71900D01*
X71902Y65935D01*
D02*
G37*
G36*
X68359D02*
X68366Y65850D01*
X68378Y65774D01*
X68396Y65709D01*
X68418Y65653D01*
X68445Y65608D01*
X68477Y65573D01*
X68514Y65547D01*
X68556Y65532D01*
X68602Y65527D01*
X67618D01*
X67665Y65532D01*
X67707Y65547D01*
X67744Y65573D01*
X67776Y65608D01*
X67803Y65653D01*
X67825Y65709D01*
X67842Y65774D01*
X67854Y65850D01*
X67862Y65935D01*
X67864Y66031D01*
X68356D01*
X68359Y65935D01*
D02*
G37*
G36*
X74752Y65527D02*
X74040Y64872D01*
X74068Y64908D01*
X74081Y64951D01*
X74081Y65002D01*
X74066Y65061D01*
X74037Y65126D01*
X73994Y65200D01*
X73937Y65280D01*
X73865Y65369D01*
X73680Y65568D01*
X74056Y65887D01*
X74752Y65527D01*
D02*
G37*
G36*
X40294Y64267D02*
X40367Y64207D01*
X40441Y64154D01*
X40516Y64108D01*
X40592Y64069D01*
X40669Y64038D01*
X40747Y64014D01*
X40827Y63997D01*
X40908Y63987D01*
X40990Y63984D01*
X40016Y63010D01*
X40013Y63092D01*
X40003Y63173D01*
X39986Y63253D01*
X39962Y63331D01*
X39930Y63408D01*
X39892Y63485D01*
X39846Y63559D01*
X39793Y63633D01*
X39733Y63706D01*
X39666Y63777D01*
X40223Y64334D01*
X40294Y64267D01*
D02*
G37*
G36*
X82891Y62933D02*
X82544Y63279D01*
X81618Y64098D01*
X81348Y64299D01*
X81097Y64463D01*
X80865Y64590D01*
X80653Y64681D01*
X80460Y64736D01*
X80286Y64754D01*
Y65246D01*
X80460Y65264D01*
X80653Y65319D01*
X80865Y65410D01*
X81097Y65537D01*
X81348Y65701D01*
X81618Y65902D01*
X82216Y66411D01*
X82891Y67067D01*
Y62933D01*
D02*
G37*
G36*
X66941Y61602D02*
Y60568D01*
X66107Y60910D01*
Y61894D01*
X66941Y61602D01*
D02*
G37*
G36*
X75492Y59067D02*
X74902D01*
X74606Y59670D01*
X75787D01*
X75492Y59067D01*
D02*
G37*
G36*
X71949D02*
X71358D01*
X71063Y59670D01*
X72244D01*
X71949Y59067D01*
D02*
G37*
G36*
X63388Y60300D02*
X63559Y60158D01*
X63644Y60100D01*
X63729Y60052D01*
X63812Y60012D01*
X63896Y59981D01*
X63978Y59959D01*
X64060Y59945D01*
X64142Y59941D01*
Y59449D01*
X64060Y59444D01*
X63978Y59431D01*
X63896Y59409D01*
X63812Y59378D01*
X63729Y59338D01*
X63644Y59289D01*
X63559Y59232D01*
X63474Y59165D01*
X63388Y59090D01*
X63301Y59006D01*
Y60384D01*
X63388Y60300D01*
D02*
G37*
G36*
X25565Y58947D02*
X25579Y58864D01*
X25601Y58782D01*
X25632Y58698D01*
X25672Y58615D01*
X25721Y58530D01*
X25778Y58446D01*
X25844Y58360D01*
X25920Y58274D01*
X26004Y58188D01*
X24626D01*
X24710Y58274D01*
X24852Y58446D01*
X24909Y58530D01*
X24958Y58615D01*
X24998Y58698D01*
X25029Y58782D01*
X25051Y58864D01*
X25065Y58947D01*
X25069Y59028D01*
X25561D01*
X25565Y58947D01*
D02*
G37*
G36*
X75495Y58535D02*
X75504Y58433D01*
X75519Y58342D01*
X75539Y58264D01*
X75566Y58197D01*
X75598Y58143D01*
X75637Y58101D01*
X75681Y58071D01*
X75731Y58053D01*
X75787Y58047D01*
X74606D01*
X74662Y58053D01*
X74713Y58071D01*
X74757Y58101D01*
X74795Y58143D01*
X74828Y58197D01*
X74854Y58264D01*
X74875Y58342D01*
X74890Y58433D01*
X74899Y58535D01*
X74902Y58649D01*
X75492D01*
X75495Y58535D01*
D02*
G37*
G36*
X71952D02*
X71961Y58433D01*
X71975Y58342D01*
X71996Y58264D01*
X72023Y58197D01*
X72055Y58143D01*
X72093Y58101D01*
X72138Y58071D01*
X72188Y58053D01*
X72244Y58047D01*
X71063D01*
X71119Y58053D01*
X71169Y58071D01*
X71214Y58101D01*
X71252Y58143D01*
X71285Y58197D01*
X71311Y58264D01*
X71332Y58342D01*
X71346Y58433D01*
X71355Y58535D01*
X71358Y58649D01*
X71949D01*
X71952Y58535D01*
D02*
G37*
G36*
X57526Y58912D02*
X57547Y58691D01*
X57566Y58590D01*
X57591Y58496D01*
X57622Y58409D01*
X57659Y58328D01*
X57702Y58254D01*
X57751Y58187D01*
X57805Y58126D01*
X57457Y57778D01*
X57396Y57832D01*
X57329Y57881D01*
X57255Y57924D01*
X57174Y57961D01*
X57086Y57992D01*
X56992Y58017D01*
X56892Y58036D01*
X56784Y58050D01*
X56670Y58057D01*
X56550Y58059D01*
X57524Y59033D01*
X57526Y58912D01*
D02*
G37*
G36*
X27413Y58836D02*
X27482Y58787D01*
X27556Y58745D01*
X27636Y58711D01*
X27723Y58684D01*
X27815Y58664D01*
X27914Y58651D01*
X28018Y58646D01*
X28129Y58647D01*
X28245Y58656D01*
X27366Y57595D01*
X27353Y57719D01*
X27314Y57946D01*
X27287Y58048D01*
X27257Y58143D01*
X27222Y58231D01*
X27182Y58311D01*
X27138Y58385D01*
X27089Y58451D01*
X27036Y58510D01*
X27351Y58891D01*
X27413Y58836D01*
D02*
G37*
G36*
X65553Y57756D02*
X65562Y57653D01*
X65576Y57555D01*
X65597Y57462D01*
X65625Y57373D01*
X65659Y57289D01*
X65699Y57210D01*
X65745Y57135D01*
X65798Y57066D01*
X65857Y57001D01*
X65440Y56584D01*
X65375Y56643D01*
X65305Y56696D01*
X65231Y56742D01*
X65152Y56782D01*
X65068Y56816D01*
X64979Y56844D01*
X64886Y56865D01*
X64788Y56879D01*
X64685Y56888D01*
X64577Y56890D01*
X65551Y57864D01*
X65553Y57756D01*
D02*
G37*
G36*
X18982Y57217D02*
X18927Y57156D01*
X18879Y57088D01*
X18836Y57014D01*
X18799Y56933D01*
X18768Y56846D01*
X18743Y56752D01*
X18723Y56651D01*
X18710Y56544D01*
X18702Y56430D01*
X18701Y56309D01*
X17726Y57283D01*
X17847Y57285D01*
X18068Y57306D01*
X18169Y57325D01*
X18263Y57351D01*
X18351Y57382D01*
X18432Y57419D01*
X18506Y57461D01*
X18573Y57510D01*
X18634Y57565D01*
X18982Y57217D01*
D02*
G37*
G36*
X66290Y56376D02*
X66305Y56170D01*
X66312Y56137D01*
X66320Y56112D01*
X66329Y56093D01*
X66339Y56082D01*
X66351Y56078D01*
X65639D01*
X65650Y56082D01*
X65660Y56093D01*
X65670Y56112D01*
X65677Y56137D01*
X65684Y56170D01*
X65690Y56211D01*
X65697Y56314D01*
X65699Y56446D01*
X66290D01*
X66290Y56376D01*
D02*
G37*
G36*
X74028Y52362D02*
X73284Y52734D01*
X73202Y52720D01*
X73098Y52693D01*
X73010Y52658D01*
X72939Y52614D01*
X72883Y52563D01*
X72843Y52504D01*
X72819Y52437D01*
X72811Y52362D01*
Y53937D01*
X72819Y53862D01*
X72843Y53795D01*
X72883Y53736D01*
X72939Y53685D01*
X73010Y53642D01*
X73098Y53606D01*
X73202Y53579D01*
X73284Y53565D01*
X74028Y53937D01*
Y52362D01*
D02*
G37*
G36*
X76376Y54031D02*
X76405Y53949D01*
X76455Y53877D01*
X76523Y53815D01*
X76612Y53762D01*
X76720Y53719D01*
X76848Y53685D01*
X76903Y53676D01*
X76968Y53691D01*
X77039Y53713D01*
X77102Y53738D01*
X77158Y53768D01*
X77208Y53801D01*
X77250Y53839D01*
Y53644D01*
X77350Y53642D01*
Y52658D01*
X77250Y52655D01*
Y52461D01*
X77208Y52498D01*
X77158Y52531D01*
X77102Y52561D01*
X77039Y52587D01*
X76968Y52608D01*
X76903Y52623D01*
X76848Y52614D01*
X76720Y52581D01*
X76612Y52538D01*
X76523Y52485D01*
X76455Y52422D01*
X76405Y52350D01*
X76376Y52269D01*
X76366Y52177D01*
Y54122D01*
X76376Y54031D01*
D02*
G37*
G36*
X8518Y52249D02*
X8531Y52167D01*
X8554Y52085D01*
X8585Y52001D01*
X8625Y51917D01*
X8673Y51833D01*
X8731Y51748D01*
X8797Y51663D01*
X8873Y51577D01*
X8957Y51490D01*
X7579D01*
X7663Y51577D01*
X7805Y51748D01*
X7862Y51833D01*
X7911Y51917D01*
X7951Y52001D01*
X7982Y52085D01*
X8004Y52167D01*
X8017Y52249D01*
X8022Y52331D01*
X8514D01*
X8518Y52249D01*
D02*
G37*
G36*
X31735Y51599D02*
X31685Y51535D01*
X31641Y51467D01*
X31602Y51394D01*
X31570Y51317D01*
X31543Y51236D01*
X31523Y51151D01*
X31516Y51111D01*
X31532Y51017D01*
X31559Y50913D01*
X31594Y50826D01*
X31638Y50753D01*
X31689Y50698D01*
X31748Y50658D01*
X31815Y50634D01*
X31890Y50626D01*
X30315D01*
X30390Y50634D01*
X30457Y50658D01*
X30516Y50698D01*
X30567Y50753D01*
X30610Y50826D01*
X30646Y50913D01*
X30673Y51017D01*
X30689Y51111D01*
X30682Y51151D01*
X30661Y51236D01*
X30635Y51317D01*
X30602Y51394D01*
X30564Y51467D01*
X30520Y51535D01*
X30470Y51599D01*
X30413Y51659D01*
X31791D01*
X31735Y51599D01*
D02*
G37*
G36*
X19490Y50670D02*
X19499Y50567D01*
X19513Y50468D01*
X19534Y50375D01*
X19562Y50286D01*
X19596Y50202D01*
X19636Y50123D01*
X19682Y50049D01*
X19735Y49979D01*
X19794Y49915D01*
X19377Y49497D01*
X19312Y49556D01*
X19242Y49609D01*
X19168Y49656D01*
X19089Y49696D01*
X19005Y49729D01*
X18916Y49757D01*
X18823Y49778D01*
X18725Y49793D01*
X18622Y49801D01*
X18514Y49803D01*
X19488Y50778D01*
X19490Y50670D01*
D02*
G37*
G36*
X60151Y49747D02*
X60169Y49697D01*
X60199Y49653D01*
X60240Y49614D01*
X60293Y49582D01*
X60358Y49555D01*
X60435Y49534D01*
X60523Y49520D01*
X60624Y49511D01*
X60736Y49508D01*
Y48917D01*
X60145Y49087D01*
Y49803D01*
X60151Y49747D01*
D02*
G37*
G36*
X57913Y49099D02*
X57217Y48739D01*
X56869Y49087D01*
X57229Y49783D01*
X57913Y49099D01*
D02*
G37*
G36*
X64615Y49630D02*
X64539Y49547D01*
X64481Y49463D01*
X64439Y49380D01*
X64414Y49296D01*
X64406Y49213D01*
X64414Y49129D01*
X64439Y49046D01*
X64481Y48962D01*
X64539Y48878D01*
X64615Y48795D01*
X64075Y48500D01*
X63990Y48579D01*
X63901Y48650D01*
X63809Y48713D01*
X63713Y48767D01*
X63614Y48813D01*
X63511Y48851D01*
X63405Y48880D01*
X63296Y48901D01*
X63183Y48913D01*
X63067Y48917D01*
Y49508D01*
X63183Y49512D01*
X63296Y49525D01*
X63405Y49545D01*
X63511Y49575D01*
X63614Y49612D01*
X63713Y49658D01*
X63809Y49712D01*
X63901Y49775D01*
X63990Y49846D01*
X64075Y49926D01*
X64615Y49630D01*
D02*
G37*
G36*
X64917Y48497D02*
X64993Y48434D01*
X65067Y48381D01*
X65139Y48338D01*
X65208Y48306D01*
X65276Y48284D01*
X65342Y48272D01*
X65406Y48271D01*
X65467Y48281D01*
X65527Y48300D01*
X64692Y47465D01*
X64711Y47525D01*
X64721Y47587D01*
X64720Y47650D01*
X64708Y47716D01*
X64686Y47784D01*
X64654Y47853D01*
X64612Y47925D01*
X64559Y47999D01*
X64495Y48075D01*
X64422Y48153D01*
X64839Y48571D01*
X64917Y48497D01*
D02*
G37*
G36*
X22791Y48103D02*
X22867Y48040D01*
X22941Y47987D01*
X23013Y47944D01*
X23082Y47912D01*
X23150Y47890D01*
X23216Y47879D01*
X23280Y47878D01*
X23341Y47887D01*
X23401Y47907D01*
X22566Y47071D01*
X22586Y47131D01*
X22595Y47193D01*
X22594Y47256D01*
X22582Y47322D01*
X22560Y47390D01*
X22528Y47460D01*
X22486Y47532D01*
X22433Y47605D01*
X22369Y47681D01*
X22296Y47759D01*
X22713Y48177D01*
X22791Y48103D01*
D02*
G37*
G36*
X25438Y45766D02*
X25430Y45708D01*
X25432Y45648D01*
X25444Y45585D01*
X25467Y45520D01*
X25500Y45452D01*
X25544Y45381D01*
X25597Y45308D01*
X25662Y45232D01*
X25736Y45154D01*
X25318Y44736D01*
X25240Y44811D01*
X25164Y44875D01*
X25091Y44929D01*
X25021Y44972D01*
X24953Y45006D01*
X24887Y45028D01*
X24825Y45041D01*
X24765Y45043D01*
X24707Y45035D01*
X24652Y45016D01*
X25456Y45821D01*
X25438Y45766D01*
D02*
G37*
G36*
X29866Y44350D02*
X29264Y44646D01*
Y45236D01*
X29866Y45531D01*
Y44350D01*
D02*
G37*
G36*
X18932Y44778D02*
X18904Y44751D01*
X18880Y44717D01*
X18858Y44676D01*
X18840Y44629D01*
X18825Y44575D01*
X18814Y44514D01*
X18806Y44446D01*
X18801Y44372D01*
X18799Y44291D01*
X18209D01*
X18207Y44372D01*
X18194Y44514D01*
X18182Y44575D01*
X18168Y44629D01*
X18150Y44676D01*
X18128Y44717D01*
X18104Y44751D01*
X18076Y44778D01*
X18045Y44799D01*
X18963D01*
X18932Y44778D01*
D02*
G37*
G36*
X60151Y45327D02*
X60169Y45277D01*
X60199Y45233D01*
X60240Y45195D01*
X60293Y45162D01*
X60358Y45136D01*
X60435Y45115D01*
X60523Y45100D01*
X60624Y45091D01*
X60736Y45088D01*
Y44498D01*
X60624Y44495D01*
X60523Y44486D01*
X60435Y44471D01*
X60358Y44451D01*
X60293Y44424D01*
X60240Y44391D01*
X60199Y44353D01*
X60169Y44309D01*
X60151Y44259D01*
X60145Y44203D01*
Y45384D01*
X60151Y45327D01*
D02*
G37*
G36*
X57913Y44177D02*
X57217Y43817D01*
X56869Y44166D01*
X57229Y44862D01*
X57913Y44177D01*
D02*
G37*
G36*
X20335Y43283D02*
X19512Y42460D01*
X19083Y43295D01*
X19500Y43713D01*
X20335Y43283D01*
D02*
G37*
G36*
X14817Y43194D02*
X14831Y43112D01*
X14853Y43029D01*
X14884Y42946D01*
X14924Y42862D01*
X14972Y42778D01*
X15030Y42693D01*
X15097Y42608D01*
X15172Y42522D01*
X15256Y42435D01*
X13878D01*
X13962Y42522D01*
X14104Y42693D01*
X14161Y42778D01*
X14210Y42862D01*
X14250Y42946D01*
X14281Y43029D01*
X14303Y43112D01*
X14316Y43194D01*
X14321Y43276D01*
X14813D01*
X14817Y43194D01*
D02*
G37*
G36*
X64060Y42198D02*
X64136Y42134D01*
X64210Y42081D01*
X64282Y42039D01*
X64352Y42006D01*
X64420Y41985D01*
X64485Y41973D01*
X64549Y41972D01*
X64611Y41981D01*
X64670Y42001D01*
X63835Y41166D01*
X63855Y41226D01*
X63864Y41287D01*
X63863Y41351D01*
X63852Y41417D01*
X63830Y41484D01*
X63798Y41554D01*
X63755Y41626D01*
X63702Y41700D01*
X63639Y41776D01*
X63565Y41854D01*
X63982Y42271D01*
X64060Y42198D01*
D02*
G37*
G36*
X25799Y41154D02*
X25579Y40539D01*
X25448Y40666D01*
X25217Y40864D01*
X25118Y40935D01*
X25029Y40987D01*
X24951Y41021D01*
X24883Y41036D01*
X24826Y41032D01*
X24780Y41010D01*
X24743Y40969D01*
X25370Y41989D01*
X25799Y41154D01*
D02*
G37*
G36*
X24311Y40366D02*
X23720D01*
X23437Y40957D01*
X24606D01*
X24311Y40366D01*
D02*
G37*
G36*
X20768D02*
X20177D01*
X19882Y40957D01*
X21063D01*
X20768Y40366D01*
D02*
G37*
G36*
X11235Y40943D02*
X11093Y40771D01*
X11035Y40687D01*
X10987Y40602D01*
X10947Y40518D01*
X10916Y40435D01*
X10894Y40352D01*
X10880Y40270D01*
X10876Y40189D01*
X10384D01*
X10379Y40270D01*
X10366Y40352D01*
X10344Y40435D01*
X10313Y40518D01*
X10273Y40602D01*
X10224Y40687D01*
X10167Y40771D01*
X10100Y40857D01*
X10025Y40943D01*
X9941Y41029D01*
X11319D01*
X11235Y40943D01*
D02*
G37*
G36*
X33305Y40831D02*
X33181Y40703D01*
X32904Y40374D01*
X32844Y40283D01*
X32800Y40201D01*
X32772Y40127D01*
X32759Y40063D01*
X32763Y40007D01*
X32783Y39961D01*
X32225Y40795D01*
X32921Y41143D01*
X33305Y40831D01*
D02*
G37*
G36*
X29866Y39429D02*
X29264Y39724D01*
Y40315D01*
X29866Y40610D01*
Y39429D01*
D02*
G37*
G36*
X24314Y39825D02*
X24323Y39727D01*
X24338Y39637D01*
X24358Y39556D01*
X24385Y39484D01*
X24417Y39421D01*
X24456Y39366D01*
X24500Y39320D01*
X24550Y39283D01*
X24606Y39255D01*
X23425D01*
X23481Y39283D01*
X23531Y39320D01*
X23576Y39366D01*
X23614Y39421D01*
X23647Y39484D01*
X23673Y39556D01*
X23694Y39637D01*
X23709Y39727D01*
X23718Y39825D01*
X23720Y39933D01*
X24311D01*
X24314Y39825D01*
D02*
G37*
G36*
X57913Y39256D02*
X57217Y38896D01*
X56869Y39244D01*
X57229Y39940D01*
X57913Y39256D01*
D02*
G37*
G36*
X60112Y40034D02*
X60095Y39979D01*
Y39917D01*
X60112Y39846D01*
X60145Y39766D01*
X60196Y39679D01*
X60262Y39582D01*
X60346Y39478D01*
X60563Y39244D01*
X60145Y38827D01*
X60024Y38944D01*
X59807Y39127D01*
X59711Y39194D01*
X59623Y39244D01*
X59544Y39278D01*
X59473Y39294D01*
X59411D01*
X59356Y39278D01*
X59310Y39244D01*
X60145Y40079D01*
X60112Y40034D01*
D02*
G37*
G36*
X33131Y35874D02*
X33034Y35773D01*
X32881Y35592D01*
X32825Y35512D01*
X32783Y35439D01*
X32756Y35373D01*
X32741Y35314D01*
Y35261D01*
X32756Y35216D01*
X32783Y35178D01*
X32087Y35874D01*
X32126Y35846D01*
X32171Y35832D01*
X32223D01*
X32282Y35846D01*
X32348Y35874D01*
X32421Y35916D01*
X32501Y35971D01*
X32588Y36041D01*
X32783Y36222D01*
X33131Y35874D01*
D02*
G37*
G36*
X63845Y35966D02*
X63921Y35902D01*
X63995Y35848D01*
X64068Y35804D01*
X64138Y35769D01*
X64207Y35745D01*
X64274Y35730D01*
X64339Y35726D01*
X64402Y35731D01*
X64463Y35746D01*
X63564Y34980D01*
X63588Y35037D01*
X63601Y35097D01*
X63604Y35159D01*
X63595Y35223D01*
X63576Y35290D01*
X63545Y35359D01*
X63504Y35430D01*
X63452Y35503D01*
X63389Y35579D01*
X63316Y35656D01*
X63767Y36040D01*
X63845Y35966D01*
D02*
G37*
G36*
X20771Y35110D02*
X20779Y35007D01*
X20794Y34917D01*
X20815Y34839D01*
X20842Y34772D01*
X20874Y34718D01*
X20912Y34676D01*
X20957Y34646D01*
X21007Y34628D01*
X21063Y34622D01*
X19882D01*
X19938Y34628D01*
X19988Y34646D01*
X20032Y34676D01*
X20071Y34718D01*
X20103Y34772D01*
X20130Y34839D01*
X20151Y34917D01*
X20165Y35007D01*
X20174Y35110D01*
X20177Y35224D01*
X20768D01*
X20771Y35110D01*
D02*
G37*
G36*
X25799Y34437D02*
X25370Y33602D01*
X24743Y34622D01*
X24780Y34581D01*
X24826Y34558D01*
X24883Y34555D01*
X24951Y34570D01*
X25029Y34603D01*
X25118Y34656D01*
X25217Y34727D01*
X25327Y34816D01*
X25578Y35051D01*
X25799Y34437D01*
D02*
G37*
G36*
X29866Y34508D02*
X29264Y34803D01*
Y35394D01*
X29866Y35689D01*
Y34508D01*
D02*
G37*
G36*
X68528Y33661D02*
X67925Y33957D01*
Y34547D01*
X68528Y34843D01*
Y33661D01*
D02*
G37*
G36*
X66449Y34786D02*
X66486Y34736D01*
X66532Y34692D01*
X66586Y34653D01*
X66650Y34621D01*
X66722Y34595D01*
X66803Y34574D01*
X66892Y34559D01*
X66991Y34550D01*
X67098Y34547D01*
X67098Y33957D01*
X66991Y33954D01*
X66892Y33945D01*
X66803Y33930D01*
X66722Y33909D01*
X66650Y33883D01*
X66586Y33850D01*
X66532Y33812D01*
X66486Y33768D01*
X66449Y33718D01*
X66421Y33661D01*
X66421Y34843D01*
X66449Y34786D01*
D02*
G37*
G36*
X60154Y35733D02*
X60179Y35590D01*
X60221Y35444D01*
X60279Y35295D01*
X60354Y35143D01*
X60446Y34989D01*
X60555Y34831D01*
X60680Y34671D01*
X60822Y34508D01*
X60981Y34343D01*
X60165Y33488D01*
X59925Y33719D01*
X59494Y34084D01*
X59303Y34217D01*
X59128Y34317D01*
X58969Y34384D01*
X58826Y34418D01*
X58700Y34419D01*
X58589Y34387D01*
X58495Y34323D01*
X60145Y35874D01*
X60154Y35733D01*
D02*
G37*
G36*
X12945Y33652D02*
X12953Y33566D01*
X12965Y33491D01*
X12982Y33425D01*
X13004Y33370D01*
X13032Y33324D01*
X13063Y33289D01*
X13100Y33264D01*
X13142Y33249D01*
X13189Y33244D01*
X12205D01*
X12252Y33249D01*
X12293Y33264D01*
X12330Y33289D01*
X12362Y33324D01*
X12389Y33370D01*
X12411Y33425D01*
X12429Y33491D01*
X12441Y33566D01*
X12448Y33652D01*
X12451Y33748D01*
X12943D01*
X12945Y33652D01*
D02*
G37*
G36*
X24311Y31705D02*
X23720D01*
X23437Y32296D01*
X24606D01*
X24311Y31705D01*
D02*
G37*
G36*
X14138Y32071D02*
X14128Y32022D01*
X14131Y31967D01*
X14146Y31906D01*
X14175Y31840D01*
X14216Y31767D01*
X14270Y31689D01*
X14337Y31604D01*
X14417Y31514D01*
X14509Y31418D01*
X14268Y30963D01*
X13572Y31311D01*
X14161Y32114D01*
X14138Y32071D01*
D02*
G37*
G36*
X24314Y31164D02*
X24323Y31066D01*
X24338Y30976D01*
X24358Y30895D01*
X24385Y30823D01*
X24417Y30760D01*
X24456Y30705D01*
X24500Y30659D01*
X24550Y30622D01*
X24606Y30594D01*
X23425D01*
X23481Y30622D01*
X23531Y30659D01*
X23576Y30705D01*
X23614Y30760D01*
X23647Y30823D01*
X23673Y30895D01*
X23694Y30976D01*
X23709Y31066D01*
X23718Y31164D01*
X23720Y31271D01*
X24311D01*
X24314Y31164D01*
D02*
G37*
G36*
X69980Y28752D02*
X69390D01*
X69095Y29355D01*
X70276D01*
X69980Y28752D01*
D02*
G37*
G36*
X45816Y29747D02*
X45823Y29651D01*
X45835Y29567D01*
X45853Y29493D01*
X45875Y29431D01*
X45902Y29379D01*
X45935Y29339D01*
X45972Y29309D01*
X46014Y29290D01*
X46062Y29282D01*
X45049Y28483D01*
X44908Y29624D01*
X45813Y29853D01*
X45816Y29747D01*
D02*
G37*
G36*
X44258Y29278D02*
X44117Y28137D01*
X43104Y28936D01*
X43151Y28942D01*
X43193Y28957D01*
X43231Y28979D01*
X43263Y29009D01*
X43290Y29048D01*
X43313Y29094D01*
X43330Y29148D01*
X43342Y29211D01*
X43350Y29281D01*
X43352Y29360D01*
X44258Y29278D01*
D02*
G37*
G36*
X62033Y28895D02*
X62051Y28692D01*
X62081Y28513D01*
X62122Y28358D01*
X62175Y28227D01*
X62240Y28119D01*
X62317Y28036D01*
X62406Y27976D01*
X62506Y27940D01*
X62618Y27928D01*
X60256D01*
X60368Y27940D01*
X60469Y27976D01*
X60557Y28036D01*
X60634Y28119D01*
X60699Y28227D01*
X60752Y28358D01*
X60793Y28513D01*
X60823Y28692D01*
X60840Y28895D01*
X60846Y29122D01*
X62028D01*
X62033Y28895D01*
D02*
G37*
G36*
X57865Y28150D02*
X57834Y28146D01*
X57799Y28134D01*
X57758Y28113D01*
X57711Y28085D01*
X57659Y28048D01*
X57539Y27950D01*
X57506Y27920D01*
X56681Y26270D01*
X55011Y27940D01*
X55103Y27874D01*
X55211Y27840D01*
X55337D01*
X55479Y27874D01*
X55637Y27940D01*
X55813Y28041D01*
X56005Y28174D01*
X56213Y28341D01*
X56593Y28694D01*
X56789Y28918D01*
X56825Y28970D01*
X56854Y29016D01*
X56874Y29057D01*
X56886Y29093D01*
X56890Y29124D01*
X57865Y28150D01*
D02*
G37*
G36*
X14579Y27177D02*
X13964Y26957D01*
X13851Y27066D01*
X13644Y27240D01*
X13551Y27306D01*
X13464Y27356D01*
X13383Y27391D01*
X13310Y27412D01*
X13243Y27418D01*
X13183Y27410D01*
X13129Y27386D01*
X14149Y28012D01*
X14579Y27177D01*
D02*
G37*
G36*
X5891Y27801D02*
X5807Y27735D01*
X5733Y27655D01*
X5669Y27561D01*
X5615Y27453D01*
X5571Y27331D01*
X5536Y27196D01*
X5512Y27046D01*
X5497Y26883D01*
X5492Y26705D01*
X4508D01*
X4503Y26883D01*
X4488Y27046D01*
X4464Y27196D01*
X4429Y27331D01*
X4385Y27453D01*
X4331Y27561D01*
X4267Y27655D01*
X4193Y27735D01*
X4109Y27801D01*
X4016Y27853D01*
X5984D01*
X5891Y27801D01*
D02*
G37*
G36*
X5494Y26337D02*
X5510Y26147D01*
X5524Y26062D01*
X5541Y25984D01*
X5563Y25914D01*
X5589Y25850D01*
X5618Y25794D01*
X5652Y25745D01*
X5689Y25703D01*
X4311D01*
X4348Y25745D01*
X4382Y25794D01*
X4411Y25850D01*
X4437Y25914D01*
X4459Y25984D01*
X4476Y26062D01*
X4490Y26147D01*
X4500Y26238D01*
X4508Y26443D01*
X5492D01*
X5494Y26337D01*
D02*
G37*
G36*
X15334Y26428D02*
X15403Y26375D01*
X15477Y26329D01*
X15557Y26289D01*
X15641Y26255D01*
X15729Y26227D01*
X15823Y26206D01*
X15921Y26191D01*
X16024Y26183D01*
X16132Y26181D01*
X15157Y25207D01*
X15156Y25315D01*
X15147Y25418D01*
X15132Y25516D01*
X15111Y25609D01*
X15084Y25698D01*
X15050Y25782D01*
X15010Y25861D01*
X14963Y25935D01*
X14911Y26005D01*
X14851Y26070D01*
X15269Y26487D01*
X15334Y26428D01*
D02*
G37*
G36*
X60572Y25955D02*
X60631Y26019D01*
X61256Y25394D01*
X61235Y25386D01*
X61199Y25362D01*
X61180Y25347D01*
X61324Y25203D01*
X61247Y25188D01*
X61167Y25164D01*
X61083Y25129D01*
X60996Y25084D01*
X60905Y25030D01*
X60811Y24965D01*
X60613Y24806D01*
X60509Y24712D01*
X60402Y24608D01*
X59845Y25165D01*
X60046Y25383D01*
X60128Y25477D01*
X60202Y25574D01*
X60321Y25759D01*
X60366Y25846D01*
X60400Y25930D01*
X60425Y26010D01*
X60440Y26087D01*
X60572Y25955D01*
D02*
G37*
G36*
X66368Y25417D02*
X66447Y25350D01*
X66527Y25291D01*
X66608Y25240D01*
X66690Y25197D01*
X66773Y25161D01*
X66857Y25134D01*
X66943Y25114D01*
X67029Y25102D01*
X67117Y25098D01*
Y24508D01*
X67029Y24504D01*
X66943Y24492D01*
X66857Y24472D01*
X66773Y24445D01*
X66690Y24409D01*
X66608Y24366D01*
X66527Y24315D01*
X66447Y24256D01*
X66368Y24189D01*
X66290Y24114D01*
Y25492D01*
X66368Y25417D01*
D02*
G37*
G36*
X63390Y26228D02*
X63437Y26094D01*
X63516Y25976D01*
X63626Y25874D01*
X63768Y25787D01*
X63941Y25717D01*
X64146Y25661D01*
X64382Y25622D01*
X64650Y25598D01*
X64949Y25591D01*
Y24100D01*
X65191D01*
X65193Y24201D01*
X65981D01*
X65983Y24100D01*
X66276D01*
X66220Y24040D01*
X66170Y23976D01*
X66126Y23908D01*
X66087Y23835D01*
X66055Y23758D01*
X66039Y23709D01*
X66044Y23689D01*
X66079Y23601D01*
X66123Y23529D01*
X66174Y23473D01*
X66233Y23433D01*
X66300Y23409D01*
X66375Y23401D01*
X65984D01*
X65981Y23311D01*
X65193D01*
X65191Y23401D01*
X64800D01*
X64875Y23409D01*
X64942Y23433D01*
X65001Y23473D01*
X65052Y23529D01*
X65095Y23601D01*
X65131Y23689D01*
X65136Y23709D01*
X65120Y23758D01*
X65087Y23835D01*
X65049Y23908D01*
X65004Y23976D01*
X64954Y24040D01*
X64949Y24046D01*
Y24016D01*
X63374Y24027D01*
Y26378D01*
X63390Y26228D01*
D02*
G37*
G36*
X60517Y23240D02*
X59730D01*
X59336Y24039D01*
X60911D01*
X60517Y23240D01*
D02*
G37*
G36*
X53921Y22366D02*
X53945Y22299D01*
X53985Y22240D01*
X54041Y22189D01*
X54113Y22146D01*
X54201Y22110D01*
X54305Y22083D01*
X54425Y22063D01*
X54561Y22051D01*
X54712Y22047D01*
Y21260D01*
X54561Y21256D01*
X54425Y21244D01*
X54305Y21224D01*
X54201Y21197D01*
X54113Y21161D01*
X54041Y21118D01*
X53985Y21067D01*
X53945Y21008D01*
X53921Y20941D01*
X53913Y20866D01*
Y22441D01*
X53921Y22366D01*
D02*
G37*
G36*
X46075Y19181D02*
X45127Y19644D01*
X45106Y19642D01*
X44958Y19618D01*
X44831Y19585D01*
X44722Y19541D01*
X44634Y19489D01*
X44565Y19426D01*
X44516Y19354D01*
X44486Y19273D01*
X44476Y19181D01*
Y21126D01*
X44486Y21035D01*
X44516Y20953D01*
X44565Y20881D01*
X44634Y20819D01*
X44722Y20766D01*
X44831Y20722D01*
X44958Y20689D01*
X45106Y20665D01*
X45127Y20663D01*
X46075Y21126D01*
Y19181D01*
D02*
G37*
G36*
X72725Y21359D02*
X72896Y21217D01*
X72981Y21160D01*
X73066Y21111D01*
X73149Y21071D01*
X73233Y21040D01*
X73315Y21018D01*
X73397Y21005D01*
X73479Y21000D01*
Y20508D01*
X73397Y20504D01*
X73315Y20491D01*
X73233Y20468D01*
X73149Y20437D01*
X73066Y20398D01*
X72981Y20349D01*
X72896Y20291D01*
X72811Y20225D01*
X72725Y20150D01*
X72638Y20065D01*
Y21443D01*
X72725Y21359D01*
D02*
G37*
G36*
X42138Y19181D02*
X41154Y19661D01*
Y20646D01*
X42138Y21126D01*
Y19181D01*
D02*
G37*
G36*
X38178Y19060D02*
X38104Y18984D01*
X37981Y18838D01*
X37931Y18768D01*
X37888Y18701D01*
X37854Y18636D01*
X37827Y18573D01*
X37808Y18512D01*
X37797Y18454D01*
X37794Y18398D01*
X36819Y19372D01*
X36876Y19375D01*
X36934Y19387D01*
X36995Y19405D01*
X37058Y19432D01*
X37123Y19467D01*
X37190Y19509D01*
X37260Y19559D01*
X37332Y19617D01*
X37482Y19756D01*
X38178Y19060D01*
D02*
G37*
G36*
X41094Y18423D02*
X41105Y18419D01*
X41122Y18416D01*
X41145Y18413D01*
X41210Y18409D01*
X41413Y18406D01*
Y17815D01*
X41353Y17815D01*
X41094Y17797D01*
X41089Y17793D01*
Y18427D01*
X41094Y18423D01*
D02*
G37*
G36*
X49174Y17182D02*
X49152Y17208D01*
X49124Y17231D01*
X49089Y17251D01*
X49046Y17269D01*
X48996Y17284D01*
X48939Y17296D01*
X48875Y17305D01*
X48792Y17311D01*
X48401Y16551D01*
X47381Y17177D01*
X47437Y17155D01*
X47503Y17153D01*
X47581Y17169D01*
X47669Y17205D01*
X47768Y17259D01*
X47878Y17333D01*
X47998Y17425D01*
X48272Y17666D01*
X48425Y17815D01*
X48640Y17587D01*
Y17908D01*
X48713Y17910D01*
X48839Y17922D01*
X48893Y17933D01*
X48940Y17947D01*
X48981Y17965D01*
X49015Y17985D01*
X49043Y18009D01*
X49065Y18036D01*
X49080Y18066D01*
X49174Y17182D01*
D02*
G37*
G36*
X65527Y17040D02*
X65035D01*
X64789Y17544D01*
X65773D01*
X65527Y17040D01*
D02*
G37*
G36*
X43170Y17177D02*
X42150Y16551D01*
X42191Y16587D01*
X42213Y16633D01*
X42217Y16691D01*
X42202Y16758D01*
X42168Y16836D01*
X42116Y16925D01*
X42045Y17025D01*
X41956Y17134D01*
X41720Y17386D01*
X42335Y17606D01*
X43170Y17177D01*
D02*
G37*
G36*
X65531Y16816D02*
X65544Y16734D01*
X65566Y16651D01*
X65598Y16568D01*
X65637Y16485D01*
X65686Y16400D01*
X65744Y16315D01*
X65810Y16230D01*
X65885Y16144D01*
X65970Y16057D01*
X64592D01*
X64676Y16144D01*
X64818Y16315D01*
X64875Y16400D01*
X64924Y16485D01*
X64964Y16568D01*
X64995Y16651D01*
X65017Y16734D01*
X65030Y16816D01*
X65035Y16898D01*
X65527D01*
X65531Y16816D01*
D02*
G37*
G36*
X53029Y16307D02*
X53042Y16258D01*
X53073Y16174D01*
X53113Y16091D01*
X53161Y16006D01*
X53219Y15922D01*
X53285Y15836D01*
X53361Y15750D01*
X53445Y15664D01*
X52067D01*
X52151Y15750D01*
X52293Y15922D01*
X52350Y16006D01*
X52399Y16091D01*
X52439Y16174D01*
X52470Y16258D01*
X52483Y16307D01*
X52264Y16756D01*
X53248D01*
X53029Y16307D01*
D02*
G37*
G36*
X10152Y196258D02*
X10010Y196086D01*
X9953Y196002D01*
X9904Y195917D01*
X9864Y195833D01*
X9833Y195750D01*
X9811Y195668D01*
X9798Y195585D01*
X9793Y195504D01*
X9301D01*
X9297Y195585D01*
X9284Y195668D01*
X9261Y195750D01*
X9230Y195833D01*
X9190Y195917D01*
X9142Y196002D01*
X9084Y196086D01*
X9018Y196172D01*
X8942Y196258D01*
X8858Y196344D01*
X10236D01*
X10152Y196258D01*
D02*
G37*
G36*
X77683Y195502D02*
X77563Y195502D01*
X77449Y195495D01*
X77342Y195483D01*
X77242Y195464D01*
X77148Y195440D01*
X77060Y195409D01*
X76980Y195372D01*
X76905Y195330D01*
X76838Y195281D01*
X76777Y195226D01*
X76433Y195578D01*
X76487Y195639D01*
X76536Y195706D01*
X76579Y195780D01*
X76616Y195861D01*
X76648Y195948D01*
X76673Y196043D01*
X76693Y196143D01*
X76708Y196251D01*
X76716Y196366D01*
X76719Y196487D01*
X77683Y195502D01*
D02*
G37*
G36*
X85351Y192068D02*
X85257Y192050D01*
X85174Y192019D01*
X85100Y191975D01*
X85036Y191918D01*
X84982Y191849D01*
X84938Y191766D01*
X84903Y191671D01*
X84879Y191563D01*
X84864Y191442D01*
X84859Y191308D01*
X83954D01*
X83949Y191479D01*
X83936Y191637D01*
X83915Y191782D01*
X83885Y191915D01*
X83846Y192035D01*
X83798Y192142D01*
X83743Y192237D01*
X83678Y192318D01*
X83605Y192387D01*
X83523Y192443D01*
X85351Y192068D01*
D02*
G37*
G36*
X83398Y188547D02*
X83421Y188303D01*
X83442Y188204D01*
X83469Y188120D01*
X83502Y188051D01*
X83541Y187997D01*
X83586Y187959D01*
X83636Y187936D01*
X83693Y187929D01*
X82191D01*
X82247Y187936D01*
X82298Y187959D01*
X82343Y187997D01*
X82382Y188051D01*
X82414Y188120D01*
X82441Y188204D01*
X82462Y188303D01*
X82477Y188417D01*
X82486Y188547D01*
X82489Y188692D01*
X83395D01*
X83398Y188547D01*
D02*
G37*
G36*
X65160Y185735D02*
X65170Y185654D01*
X65187Y185574D01*
X65211Y185496D01*
X65243Y185418D01*
X65281Y185342D01*
X65327Y185267D01*
X65380Y185194D01*
X65440Y185121D01*
X65507Y185050D01*
X64950Y184493D01*
X64879Y184560D01*
X64806Y184620D01*
X64733Y184673D01*
X64658Y184719D01*
X64582Y184757D01*
X64504Y184789D01*
X64426Y184813D01*
X64346Y184830D01*
X64265Y184840D01*
X64183Y184843D01*
X65157Y185817D01*
X65160Y185735D01*
D02*
G37*
G36*
X84315Y184416D02*
X83663Y185697D01*
Y186977D01*
X84315D01*
Y184416D01*
D02*
G37*
G36*
X24941Y184876D02*
X24726Y184659D01*
X24727Y184582D01*
X24750Y184330D01*
X24770Y184228D01*
X24795Y184142D01*
X24826Y184071D01*
X24863Y184016D01*
X24906Y183976D01*
X24954Y183952D01*
X25008Y183945D01*
X23654D01*
X23708Y183952D01*
X23756Y183976D01*
X23798Y184016D01*
X23835Y184071D01*
X23866Y184142D01*
X23892Y184228D01*
X23911Y184330D01*
X23926Y184449D01*
X23934Y184582D01*
X23937Y184732D01*
X24419D01*
X24052Y185098D01*
X24317Y185385D01*
X24941Y184876D01*
D02*
G37*
G36*
X54252Y184730D02*
X54547D01*
X54491Y184670D01*
X54441Y184606D01*
X54397Y184537D01*
X54358Y184465D01*
X54326Y184388D01*
X54299Y184307D01*
X54290Y184267D01*
X54297Y184228D01*
X54323Y184142D01*
X54354Y184071D01*
X54391Y184016D01*
X54433Y183976D01*
X54481Y183952D01*
X54535Y183945D01*
X54252D01*
X54252Y183940D01*
X53465D01*
X53464Y183945D01*
X53181D01*
X53235Y183952D01*
X53283Y183976D01*
X53326Y184016D01*
X53363Y184071D01*
X53394Y184142D01*
X53419Y184228D01*
X53427Y184267D01*
X53417Y184307D01*
X53391Y184388D01*
X53358Y184465D01*
X53320Y184537D01*
X53276Y184606D01*
X53225Y184670D01*
X53169Y184730D01*
X53465D01*
X53465Y184732D01*
X54252D01*
X54252Y184730D01*
D02*
G37*
G36*
X48346D02*
X48642D01*
X48586Y184670D01*
X48535Y184606D01*
X48491Y184537D01*
X48453Y184465D01*
X48420Y184388D01*
X48394Y184307D01*
X48384Y184267D01*
X48392Y184228D01*
X48417Y184142D01*
X48448Y184071D01*
X48485Y184016D01*
X48528Y183976D01*
X48576Y183952D01*
X48630Y183945D01*
X48347D01*
X48346Y183940D01*
X47559D01*
X47559Y183945D01*
X47276D01*
X47330Y183952D01*
X47378Y183976D01*
X47420Y184016D01*
X47457Y184071D01*
X47488Y184142D01*
X47514Y184228D01*
X47521Y184267D01*
X47512Y184307D01*
X47485Y184388D01*
X47453Y184465D01*
X47414Y184537D01*
X47370Y184606D01*
X47320Y184670D01*
X47264Y184730D01*
X47559D01*
X47559Y184732D01*
X48346D01*
X48346Y184730D01*
D02*
G37*
G36*
X42441D02*
X42736D01*
X42680Y184670D01*
X42630Y184606D01*
X42586Y184537D01*
X42547Y184465D01*
X42515Y184388D01*
X42488Y184307D01*
X42479Y184267D01*
X42486Y184228D01*
X42512Y184142D01*
X42543Y184071D01*
X42580Y184016D01*
X42622Y183976D01*
X42670Y183952D01*
X42724Y183945D01*
X42441D01*
X42441Y183940D01*
X41654D01*
X41653Y183945D01*
X41370D01*
X41424Y183952D01*
X41472Y183976D01*
X41515Y184016D01*
X41552Y184071D01*
X41583Y184142D01*
X41608Y184228D01*
X41616Y184267D01*
X41606Y184307D01*
X41580Y184388D01*
X41547Y184465D01*
X41509Y184537D01*
X41465Y184606D01*
X41414Y184670D01*
X41358Y184730D01*
X41653D01*
X41654Y184732D01*
X42441D01*
X42441Y184730D01*
D02*
G37*
G36*
X36536D02*
X36831D01*
X36775Y184670D01*
X36724Y184606D01*
X36680Y184537D01*
X36642Y184465D01*
X36609Y184388D01*
X36583Y184307D01*
X36573Y184267D01*
X36581Y184228D01*
X36606Y184142D01*
X36637Y184071D01*
X36674Y184016D01*
X36717Y183976D01*
X36765Y183952D01*
X36819Y183945D01*
X36536D01*
X36535Y183940D01*
X35748D01*
X35748Y183945D01*
X35465D01*
X35519Y183952D01*
X35567Y183976D01*
X35609Y184016D01*
X35646Y184071D01*
X35677Y184142D01*
X35703Y184228D01*
X35710Y184267D01*
X35701Y184307D01*
X35674Y184388D01*
X35642Y184465D01*
X35603Y184537D01*
X35559Y184606D01*
X35509Y184670D01*
X35453Y184730D01*
X35748D01*
X35748Y184732D01*
X36535D01*
X36536Y184730D01*
D02*
G37*
G36*
X30630D02*
X30925D01*
X30869Y184670D01*
X30819Y184606D01*
X30775Y184537D01*
X30736Y184465D01*
X30704Y184388D01*
X30677Y184307D01*
X30668Y184267D01*
X30675Y184228D01*
X30701Y184142D01*
X30732Y184071D01*
X30769Y184016D01*
X30811Y183976D01*
X30859Y183952D01*
X30913Y183945D01*
X30630D01*
X30630Y183940D01*
X29842D01*
X29842Y183945D01*
X29559D01*
X29613Y183952D01*
X29661Y183976D01*
X29704Y184016D01*
X29741Y184071D01*
X29772Y184142D01*
X29797Y184228D01*
X29805Y184267D01*
X29795Y184307D01*
X29769Y184388D01*
X29736Y184465D01*
X29698Y184537D01*
X29654Y184606D01*
X29603Y184670D01*
X29547Y184730D01*
X29842D01*
X29842Y184732D01*
X30630D01*
X30630Y184730D01*
D02*
G37*
G36*
X60159Y184632D02*
X60453D01*
X60397Y184572D01*
X60347Y184508D01*
X60302Y184439D01*
X60264Y184367D01*
X60231Y184290D01*
X60207Y184215D01*
X60228Y184142D01*
X60259Y184071D01*
X60296Y184016D01*
X60339Y183976D01*
X60387Y183952D01*
X60441Y183945D01*
X60161D01*
X60160Y183940D01*
X60158Y183842D01*
X59370D01*
X59367Y183940D01*
X59367Y183945D01*
X59087D01*
X59141Y183952D01*
X59189Y183976D01*
X59231Y184016D01*
X59268Y184071D01*
X59299Y184142D01*
X59321Y184215D01*
X59296Y184290D01*
X59264Y184367D01*
X59225Y184439D01*
X59181Y184508D01*
X59131Y184572D01*
X59075Y184632D01*
X59368D01*
X59370Y184732D01*
X60158D01*
X60159Y184632D01*
D02*
G37*
G36*
X63996Y176292D02*
X63406D01*
X63110Y176882D01*
X64291D01*
X63996Y176292D01*
D02*
G37*
G36*
X62028D02*
X61437D01*
X61142Y176882D01*
X62323D01*
X62028Y176292D01*
D02*
G37*
G36*
X58091D02*
X57500D01*
X57205Y176882D01*
X58386D01*
X58091Y176292D01*
D02*
G37*
G36*
X56122D02*
X55532D01*
X55236Y176882D01*
X56417D01*
X56122Y176292D01*
D02*
G37*
G36*
X52264Y176218D02*
X51516D01*
X51226Y176882D01*
X52553D01*
X52264Y176218D01*
D02*
G37*
G36*
X50295Y176134D02*
X49547D01*
X49244Y176882D01*
X50598D01*
X50295Y176134D01*
D02*
G37*
G36*
X46358D02*
X45610D01*
X45307Y176882D01*
X46661D01*
X46358Y176134D01*
D02*
G37*
G36*
X44390D02*
X43642D01*
X43339Y176882D01*
X44693D01*
X44390Y176134D01*
D02*
G37*
G36*
X40453D02*
X39705D01*
X39402Y176882D01*
X40756D01*
X40453Y176134D01*
D02*
G37*
G36*
X38484D02*
X37736D01*
X37433Y176882D01*
X38787D01*
X38484Y176134D01*
D02*
G37*
G36*
X34547D02*
X33799D01*
X33496Y176882D01*
X34850D01*
X34547Y176134D01*
D02*
G37*
G36*
X32579D02*
X31831D01*
X31528Y176882D01*
X32882D01*
X32579Y176134D01*
D02*
G37*
G36*
X28642D02*
X27894D01*
X27591Y176882D01*
X28945D01*
X28642Y176134D01*
D02*
G37*
G36*
X26673D02*
X25925D01*
X25622Y176882D01*
X26976D01*
X26673Y176134D01*
D02*
G37*
G36*
X40498Y175034D02*
X40564Y174979D01*
X40630Y174930D01*
X40697Y174888D01*
X40764Y174852D01*
X40831Y174823D01*
X40898Y174801D01*
X40966Y174785D01*
X41035Y174776D01*
X41103Y174774D01*
X40226Y173897D01*
X40224Y173965D01*
X40215Y174034D01*
X40199Y174102D01*
X40176Y174169D01*
X40148Y174237D01*
X40112Y174303D01*
X40070Y174370D01*
X40021Y174436D01*
X39966Y174502D01*
X39904Y174567D01*
X40433Y175096D01*
X40498Y175034D01*
D02*
G37*
G36*
X48255Y173268D02*
X48205Y173314D01*
X48150Y173356D01*
X48091Y173393D01*
X48027Y173425D01*
X47959Y173452D01*
X47887Y173474D01*
X47810Y173492D01*
X47729Y173504D01*
X47643Y173511D01*
X47553Y173514D01*
Y174262D01*
X47643Y174264D01*
X47729Y174272D01*
X47810Y174284D01*
X47887Y174301D01*
X47959Y174323D01*
X48027Y174350D01*
X48091Y174382D01*
X48150Y174419D01*
X48205Y174461D01*
X48255Y174508D01*
Y173268D01*
D02*
G37*
G36*
X33609Y174025D02*
X33544Y173955D01*
X33485Y173883D01*
X33433Y173809D01*
X33389Y173733D01*
X33351Y173655D01*
X33320Y173576D01*
X33297Y173494D01*
X33280Y173411D01*
X33270Y173326D01*
X33268Y173238D01*
X32293Y174213D01*
X32381Y174215D01*
X32466Y174225D01*
X32549Y174241D01*
X32631Y174265D01*
X32711Y174296D01*
X32788Y174333D01*
X32864Y174378D01*
X32938Y174430D01*
X33010Y174488D01*
X33080Y174554D01*
X33609Y174025D01*
D02*
G37*
G36*
X56777Y172146D02*
X56714Y172205D01*
X56647Y172259D01*
X56576Y172306D01*
X56502Y172347D01*
X56423Y172382D01*
X56342Y172410D01*
X56257Y172432D01*
X56168Y172448D01*
X56075Y172458D01*
X55979Y172461D01*
Y173209D01*
X56075Y173212D01*
X56168Y173221D01*
X56257Y173237D01*
X56342Y173259D01*
X56423Y173287D01*
X56502Y173322D01*
X56576Y173363D01*
X56647Y173410D01*
X56714Y173464D01*
X56777Y173524D01*
Y172146D01*
D02*
G37*
G36*
X28645Y172074D02*
X28654Y171982D01*
X28670Y171893D01*
X28692Y171808D01*
X28721Y171726D01*
X28755Y171648D01*
X28796Y171574D01*
X28843Y171503D01*
X28897Y171436D01*
X28957Y171372D01*
X27579D01*
X27639Y171436D01*
X27692Y171503D01*
X27739Y171574D01*
X27780Y171648D01*
X27815Y171726D01*
X27843Y171808D01*
X27865Y171893D01*
X27881Y171982D01*
X27891Y172074D01*
X27894Y172170D01*
X28642D01*
X28645Y172074D01*
D02*
G37*
G36*
X58247Y169527D02*
X58314Y169473D01*
X58385Y169426D01*
X58459Y169385D01*
X58537Y169350D01*
X58619Y169322D01*
X58704Y169300D01*
X58793Y169284D01*
X58885Y169275D01*
X58981Y169272D01*
Y168524D01*
X58885Y168520D01*
X58793Y168511D01*
X58704Y168495D01*
X58619Y168473D01*
X58537Y168445D01*
X58459Y168410D01*
X58385Y168369D01*
X58314Y168322D01*
X58247Y168269D01*
X58183Y168209D01*
Y169587D01*
X58247Y169527D01*
D02*
G37*
G36*
X13044Y168321D02*
X13216Y168180D01*
X13300Y168122D01*
X13385Y168073D01*
X13468Y168034D01*
X13552Y168002D01*
X13634Y167980D01*
X13717Y167967D01*
X13798Y167963D01*
Y167471D01*
X13717Y167466D01*
X13634Y167453D01*
X13552Y167431D01*
X13468Y167400D01*
X13385Y167360D01*
X13300Y167311D01*
X13216Y167253D01*
X13130Y167187D01*
X13044Y167112D01*
X12957Y167028D01*
Y168405D01*
X13044Y168321D01*
D02*
G37*
G36*
X41530Y167430D02*
X41542Y167252D01*
X41552Y167176D01*
X41566Y167108D01*
X41583Y167049D01*
X41603Y166998D01*
X41626Y166955D01*
X41652Y166921D01*
X41681Y166895D01*
X40614Y166940D01*
X40646Y166964D01*
X40674Y166995D01*
X40699Y167034D01*
X40720Y167082D01*
X40739Y167137D01*
X40754Y167200D01*
X40765Y167271D01*
X40773Y167350D01*
X40780Y167532D01*
X41528D01*
X41530Y167430D01*
D02*
G37*
G36*
X60043Y164877D02*
X60054Y164792D01*
X60071Y164708D01*
X60096Y164627D01*
X60127Y164547D01*
X60165Y164470D01*
X60210Y164394D01*
X60262Y164320D01*
X60321Y164248D01*
X60387Y164178D01*
X59866Y163641D01*
X59795Y163706D01*
X59723Y163765D01*
X59649Y163816D01*
X59574Y163861D01*
X59496Y163898D01*
X59416Y163928D01*
X59335Y163951D01*
X59251Y163967D01*
X59166Y163975D01*
X59079Y163977D01*
X60039Y164965D01*
X60043Y164877D01*
D02*
G37*
G36*
X7908Y164277D02*
X7908Y163082D01*
X7941Y162756D01*
X7991Y162467D01*
X8057Y162215D01*
X8141Y161999D01*
X8241Y161819D01*
X8357Y161676D01*
X7983Y161354D01*
X7856Y161456D01*
X7688Y161550D01*
X7476Y161638D01*
X7222Y161718D01*
X6926Y161792D01*
X6206Y161918D01*
X5316Y162015D01*
X4807Y162054D01*
X7942Y164748D01*
X7908Y164277D01*
D02*
G37*
G36*
X14402Y160619D02*
X14717Y160461D01*
X14812Y160422D01*
X14990Y160366D01*
X15072Y160349D01*
X15150Y160338D01*
X15223Y160335D01*
X15354Y159843D01*
X15268Y159838D01*
X15185Y159823D01*
X15105Y159798D01*
X15028Y159764D01*
X14954Y159720D01*
X14884Y159666D01*
X14816Y159602D01*
X14752Y159528D01*
X14691Y159444D01*
X14632Y159351D01*
X14288Y160685D01*
X14402Y160619D01*
D02*
G37*
G36*
X45536Y156063D02*
X44782Y156434D01*
X44705Y156421D01*
X44602Y156394D01*
X44516Y156358D01*
X44445Y156315D01*
X44390Y156264D01*
X44350Y156205D01*
X44327Y156138D01*
X44319Y156063D01*
Y157638D01*
X44327Y157563D01*
X44350Y157496D01*
X44390Y157437D01*
X44445Y157386D01*
X44516Y157343D01*
X44602Y157307D01*
X44705Y157280D01*
X44782Y157267D01*
X45536Y157638D01*
Y156063D01*
D02*
G37*
G36*
X41993D02*
X41239Y156434D01*
X41161Y156421D01*
X41059Y156394D01*
X40972Y156358D01*
X40901Y156315D01*
X40846Y156264D01*
X40807Y156205D01*
X40783Y156138D01*
X40775Y156063D01*
Y157638D01*
X40783Y157563D01*
X40807Y157496D01*
X40846Y157437D01*
X40901Y157386D01*
X40972Y157343D01*
X41059Y157307D01*
X41161Y157280D01*
X41239Y157267D01*
X41993Y157638D01*
Y156063D01*
D02*
G37*
G36*
X38449D02*
X37696Y156434D01*
X37618Y156421D01*
X37516Y156394D01*
X37429Y156358D01*
X37358Y156315D01*
X37303Y156264D01*
X37264Y156205D01*
X37240Y156138D01*
X37232Y156063D01*
Y157638D01*
X37240Y157563D01*
X37264Y157496D01*
X37303Y157437D01*
X37358Y157386D01*
X37429Y157343D01*
X37516Y157307D01*
X37618Y157280D01*
X37696Y157267D01*
X38449Y157638D01*
Y156063D01*
D02*
G37*
G36*
X49473D02*
X48673Y156457D01*
Y157244D01*
X49473Y157638D01*
Y156063D01*
D02*
G37*
G36*
X47870Y157563D02*
X47894Y157496D01*
X47933Y157437D01*
X47988Y157386D01*
X48059Y157343D01*
X48145Y157307D01*
X48248Y157280D01*
X48366Y157260D01*
X48500Y157248D01*
X48649Y157244D01*
Y156457D01*
X48500Y156453D01*
X48366Y156441D01*
X48248Y156421D01*
X48145Y156394D01*
X48059Y156358D01*
X47988Y156315D01*
X47933Y156264D01*
X47894Y156205D01*
X47870Y156138D01*
X47862Y156063D01*
Y157638D01*
X47870Y157563D01*
D02*
G37*
G36*
X34906Y156063D02*
X34106Y156457D01*
Y157244D01*
X34906Y157638D01*
Y156063D01*
D02*
G37*
G36*
X33903Y156255D02*
X33836Y156184D01*
X33776Y156112D01*
X33722Y156038D01*
X33676Y155963D01*
X33636Y155887D01*
X33603Y155810D01*
X33577Y155731D01*
X33558Y155652D01*
X33546Y155571D01*
X33541Y155489D01*
X32599Y156495D01*
X32681Y156495D01*
X32762Y156503D01*
X32842Y156518D01*
X32920Y156541D01*
X32997Y156570D01*
X33073Y156608D01*
X33149Y156653D01*
X33222Y156705D01*
X33295Y156765D01*
X33367Y156832D01*
X33903Y156255D01*
D02*
G37*
G36*
X19269Y156443D02*
X19447Y156305D01*
X19535Y156249D01*
X19622Y156202D01*
X19707Y156163D01*
X19791Y156133D01*
X19874Y156111D01*
X19955Y156098D01*
X20036Y156094D01*
X20057Y155602D01*
X19975Y155597D01*
X19892Y155584D01*
X19810Y155561D01*
X19727Y155529D01*
X19645Y155489D01*
X19563Y155439D01*
X19481Y155380D01*
X19399Y155312D01*
X19317Y155234D01*
X19235Y155148D01*
X19177Y156525D01*
X19269Y156443D01*
D02*
G37*
G36*
X51735Y156743D02*
X51707Y156679D01*
X51703Y156601D01*
X51724Y156509D01*
X51769Y156405D01*
X51838Y156287D01*
X51931Y156155D01*
X51949Y156132D01*
X52022Y156094D01*
X52096Y156064D01*
X52170Y156044D01*
X52244Y156034D01*
X52318Y156033D01*
X52393Y156041D01*
X52468Y156059D01*
X52297Y155745D01*
X52356Y155681D01*
X52229Y155621D01*
X51809Y154849D01*
X51786Y154923D01*
X51757Y154997D01*
X51724Y155069D01*
X51686Y155142D01*
X51643Y155214D01*
X51548Y155349D01*
X50489Y155890D01*
X51787Y156795D01*
X51735Y156743D01*
D02*
G37*
G36*
X20496Y152608D02*
X19761Y152971D01*
X19685Y152949D01*
X19607Y152919D01*
X19536Y152883D01*
X19469Y152840D01*
X19408Y152791D01*
X19353Y152735D01*
X19302Y152672D01*
X19095Y154035D01*
X19162Y153988D01*
X19233Y153946D01*
X19306Y153910D01*
X19383Y153878D01*
X19464Y153851D01*
X19548Y153829D01*
X19635Y153811D01*
X19719Y153800D01*
X20496Y154183D01*
Y152608D01*
D02*
G37*
G36*
X76925Y154559D02*
X76928Y154477D01*
X76937Y154393D01*
X76952Y154308D01*
X76973Y154220D01*
X77000Y154130D01*
X77032Y154039D01*
X77116Y153850D01*
X77167Y153753D01*
X77224Y153653D01*
X75892Y154005D01*
X75976Y154058D01*
X76051Y154114D01*
X76117Y154176D01*
X76175Y154241D01*
X76224Y154311D01*
X76263Y154385D01*
X76294Y154463D01*
X76317Y154545D01*
X76330Y154632D01*
X76334Y154723D01*
X76925Y154559D01*
D02*
G37*
G36*
X34906Y153429D02*
X34955Y153424D01*
X35054Y153421D01*
X34954Y152633D01*
X34906Y152632D01*
Y152240D01*
X34355Y152511D01*
X34346Y152507D01*
X34273Y152468D01*
X34204Y152424D01*
X34138Y152375D01*
X34165Y152605D01*
X34106Y152633D01*
Y153421D01*
X34269Y153501D01*
X34298Y153744D01*
X34350Y153683D01*
X34408Y153628D01*
X34454Y153592D01*
X34906Y153814D01*
Y153429D01*
D02*
G37*
G36*
X41993Y152126D02*
X41239Y152497D01*
X41161Y152484D01*
X41059Y152457D01*
X40972Y152421D01*
X40901Y152378D01*
X40846Y152327D01*
X40807Y152268D01*
X40783Y152201D01*
X40775Y152126D01*
Y153701D01*
X40783Y153626D01*
X40807Y153559D01*
X40846Y153500D01*
X40901Y153449D01*
X40972Y153405D01*
X41059Y153370D01*
X41161Y153342D01*
X41239Y153330D01*
X41993Y153701D01*
Y152126D01*
D02*
G37*
G36*
X38449D02*
X37696Y152497D01*
X37618Y152484D01*
X37516Y152457D01*
X37429Y152421D01*
X37358Y152378D01*
X37303Y152327D01*
X37264Y152268D01*
X37240Y152201D01*
X37232Y152126D01*
Y153701D01*
X37240Y153626D01*
X37264Y153559D01*
X37303Y153500D01*
X37358Y153449D01*
X37429Y153405D01*
X37516Y153370D01*
X37618Y153342D01*
X37696Y153330D01*
X38449Y153701D01*
Y152126D01*
D02*
G37*
G36*
X74709Y152623D02*
X74721Y152536D01*
X74740Y152451D01*
X74768Y152367D01*
X74803Y152284D01*
X74847Y152201D01*
X74898Y152120D01*
X74957Y152041D01*
X75024Y151962D01*
X75098Y151884D01*
X73721D01*
X73795Y151962D01*
X73862Y152041D01*
X73921Y152120D01*
X73972Y152201D01*
X74016Y152284D01*
X74051Y152367D01*
X74079Y152451D01*
X74098Y152536D01*
X74110Y152623D01*
X74114Y152711D01*
X74705D01*
X74709Y152623D01*
D02*
G37*
G36*
X7954Y154493D02*
X8034Y153285D01*
X8087Y152957D01*
X8152Y152667D01*
X8230Y152414D01*
X8320Y152198D01*
X8423Y152020D01*
X8539Y151879D01*
X8121Y151461D01*
X7981Y151577D01*
X7802Y151680D01*
X7586Y151770D01*
X7333Y151848D01*
X7043Y151913D01*
X6715Y151965D01*
X5947Y152032D01*
X5507Y152046D01*
X5029Y152047D01*
X7953Y154971D01*
X7954Y154493D01*
D02*
G37*
G36*
X46455Y151953D02*
X45799Y151384D01*
X45193Y151892D01*
X45270Y151969D01*
X45511Y152240D01*
X45531Y152272D01*
X45542Y152296D01*
X45544Y152312D01*
X45536Y152321D01*
X46455Y151953D01*
D02*
G37*
G36*
X50024Y152323D02*
X50236D01*
X50237Y152149D01*
X50294Y151267D01*
X50307Y151221D01*
X49484Y151657D01*
X49215Y151405D01*
X49004Y151616D01*
X48654Y151550D01*
X48807Y151813D01*
X48659Y151961D01*
X49473Y153254D01*
X50024Y152323D01*
D02*
G37*
G36*
X47862Y151941D02*
X47842Y151933D01*
X47824Y151910D01*
X47808Y151870D01*
X47794Y151815D01*
X47782Y151744D01*
X47773Y151658D01*
X47757Y151303D01*
X47756Y151154D01*
X46968D01*
X46575Y151953D01*
X47862Y151941D01*
D02*
G37*
G36*
X43443Y151154D02*
X42656D01*
X42262Y151953D01*
X43837D01*
X43443Y151154D01*
D02*
G37*
G36*
X32256Y150933D02*
X32093Y150624D01*
X32054Y150530D01*
X32021Y150439D01*
X31996Y150353D01*
X31977Y150270D01*
X31967Y150192D01*
X31963Y150118D01*
X31471Y150000D01*
X31466Y150086D01*
X31451Y150169D01*
X31427Y150250D01*
X31393Y150327D01*
X31349Y150402D01*
X31295Y150474D01*
X31231Y150544D01*
X31158Y150610D01*
X31075Y150674D01*
X30982Y150735D01*
X32325Y151044D01*
X32256Y150933D01*
D02*
G37*
G36*
X34474Y150927D02*
X34538Y150876D01*
X34607Y150832D01*
X34680Y150794D01*
X34756Y150761D01*
X34837Y150735D01*
X34923Y150714D01*
X34954Y150709D01*
X35122Y150719D01*
X35177Y150731D01*
X35217Y150744D01*
X35240Y150759D01*
X35248Y150775D01*
X35260Y149506D01*
X35252Y149581D01*
X35227Y149648D01*
X35187Y149707D01*
X35131Y149758D01*
X35059Y149802D01*
X34971Y149837D01*
X34876Y149862D01*
X34837Y149853D01*
X34756Y149826D01*
X34680Y149794D01*
X34607Y149755D01*
X34538Y149711D01*
X34474Y149661D01*
X34414Y149605D01*
Y150983D01*
X34474Y150927D01*
D02*
G37*
G36*
X49679Y149948D02*
X49613Y149922D01*
X49553Y149887D01*
X49501Y149845D01*
X49456Y149794D01*
X49418Y149734D01*
X49386Y149667D01*
X49362Y149591D01*
X49345Y149506D01*
X49334Y149414D01*
X49331Y149313D01*
X48543Y149780D01*
X48542Y149883D01*
X48512Y150312D01*
X48501Y150380D01*
X48474Y150498D01*
X48457Y150548D01*
X49679Y149948D01*
D02*
G37*
G36*
X13644Y150042D02*
X13610Y149993D01*
X13581Y149937D01*
X13555Y149873D01*
X13533Y149803D01*
X13516Y149725D01*
X13502Y149641D01*
X13492Y149549D01*
X13484Y149345D01*
X13412D01*
X13374Y149004D01*
X12008Y148992D01*
X12101Y149003D01*
X12185Y149033D01*
X12259Y149083D01*
X12323Y149153D01*
X12377Y149243D01*
X12421Y149353D01*
X12456Y149482D01*
X12480Y149631D01*
X12482Y149645D01*
X12468Y149725D01*
X12451Y149803D01*
X12429Y149873D01*
X12404Y149937D01*
X12374Y149993D01*
X12341Y150042D01*
X12303Y150084D01*
X13681D01*
X13644Y150042D01*
D02*
G37*
G36*
X41122Y149413D02*
X41136Y149406D01*
X41158Y149400D01*
X41190Y149394D01*
X41230Y149389D01*
X41337Y149382D01*
X41566Y149379D01*
Y148591D01*
X41481Y148591D01*
X41158Y148570D01*
X41136Y148564D01*
X41122Y148556D01*
X41118Y148548D01*
Y149422D01*
X41122Y149413D01*
D02*
G37*
G36*
X14591Y147244D02*
X13837Y147615D01*
X13760Y147602D01*
X13657Y147575D01*
X13571Y147539D01*
X13500Y147496D01*
X13445Y147445D01*
X13405Y147386D01*
X13382Y147319D01*
X13374Y147244D01*
Y148819D01*
X13382Y148744D01*
X13405Y148677D01*
X13445Y148618D01*
X13500Y148567D01*
X13571Y148524D01*
X13657Y148488D01*
X13760Y148461D01*
X13837Y148448D01*
X14591Y148819D01*
Y147244D01*
D02*
G37*
G36*
X41130Y148437D02*
X41122Y148432D01*
X41116Y148415D01*
X41110Y148388D01*
X41105Y148349D01*
X41097Y148239D01*
X41091Y147885D01*
X40304D01*
X40145Y148449D01*
X41130Y148437D01*
D02*
G37*
G36*
X22823Y148634D02*
X22773Y148626D01*
X22728Y148602D01*
X22688Y148563D01*
X22654Y148508D01*
X22625Y148437D01*
X22601Y148351D01*
X22583Y148248D01*
X22570Y148130D01*
X22559Y147847D01*
X21772D01*
X21768Y147998D01*
X21756Y148133D01*
X21736Y148253D01*
X21709Y148357D01*
X21673Y148445D01*
X21630Y148517D01*
X21579Y148573D01*
X21520Y148613D01*
X21453Y148637D01*
X21378Y148646D01*
X22823Y148634D01*
D02*
G37*
G36*
X42208Y148905D02*
X42280Y148844D01*
X42354Y148792D01*
X42429Y148746D01*
X42505Y148707D01*
X42582Y148676D01*
X42661Y148652D01*
X42741Y148635D01*
X42821Y148625D01*
X42904Y148622D01*
X41929Y147648D01*
X41926Y147730D01*
X41916Y147811D01*
X41899Y147890D01*
X41875Y147969D01*
X41844Y148046D01*
X41805Y148122D01*
X41760Y148197D01*
X41707Y148271D01*
X41647Y148344D01*
X41580Y148415D01*
X42136Y148972D01*
X42208Y148905D01*
D02*
G37*
G36*
X71503Y148307D02*
X71515Y148221D01*
X71535Y148136D01*
X71564Y148053D01*
X71601Y147971D01*
X71646Y147892D01*
X71699Y147814D01*
X71760Y147738D01*
X71830Y147664D01*
X71907Y147592D01*
X70532Y147513D01*
X70603Y147596D01*
X70667Y147679D01*
X70724Y147763D01*
X70773Y147847D01*
X70814Y147932D01*
X70848Y148016D01*
X70874Y148102D01*
X70893Y148187D01*
X70904Y148274D01*
X70908Y148360D01*
X71499Y148396D01*
X71503Y148307D01*
D02*
G37*
G36*
X46181Y145867D02*
X46182Y145735D01*
X46219Y145148D01*
X46229Y145113D01*
X46240Y145089D01*
X45662D01*
X45394Y144686D01*
X45389Y144836D01*
X45375Y144969D01*
X45352Y145088D01*
X45351Y145089D01*
X45335D01*
X45345Y145109D01*
X45319Y145190D01*
X45277Y145277D01*
X45225Y145347D01*
X45164Y145403D01*
X45094Y145442D01*
X45070Y145449D01*
X45067Y145447D01*
X44850Y145192D01*
X44769Y145079D01*
X44708Y144976D01*
X44667Y144883D01*
X44644Y144799D01*
X44640Y144725D01*
X44656Y144661D01*
X44690Y144606D01*
X44025Y145354D01*
X44648Y146145D01*
X44926Y145867D01*
Y146261D01*
X45015Y146269D01*
X45094Y146292D01*
X45164Y146332D01*
X45225Y146387D01*
X45277Y146458D01*
X45319Y146544D01*
X45352Y146647D01*
X45375Y146765D01*
X45389Y146899D01*
X45394Y147048D01*
X46181Y145867D01*
D02*
G37*
G36*
X69724Y146017D02*
X69726Y145877D01*
X69759Y145424D01*
X69774Y145336D01*
X69792Y145259D01*
X69812Y145192D01*
X69836Y145135D01*
X69862Y145089D01*
X68957D01*
X68961Y145105D01*
X68964Y145140D01*
X68972Y145363D01*
X68976Y146127D01*
X69724Y146017D01*
D02*
G37*
G36*
X68287Y145089D02*
X67382D01*
X67409Y145135D01*
X67432Y145192D01*
X67452Y145259D01*
X67470Y145336D01*
X67485Y145424D01*
X67507Y145630D01*
X67518Y145877D01*
X67520Y146017D01*
X68268Y146127D01*
X68287Y145089D01*
D02*
G37*
G36*
X66575Y146017D02*
X66576Y145877D01*
X66609Y145424D01*
X66624Y145336D01*
X66642Y145259D01*
X66663Y145192D01*
X66686Y145135D01*
X66712Y145089D01*
X65808D01*
X65811Y145105D01*
X65815Y145140D01*
X65822Y145363D01*
X65827Y146127D01*
X66575Y146017D01*
D02*
G37*
G36*
X65137Y145089D02*
X64233D01*
X64259Y145135D01*
X64282Y145192D01*
X64303Y145259D01*
X64321Y145336D01*
X64336Y145424D01*
X64358Y145630D01*
X64369Y145877D01*
X64370Y146017D01*
X65118Y146127D01*
X65137Y145089D01*
D02*
G37*
G36*
X63425Y146017D02*
X63427Y145877D01*
X63459Y145424D01*
X63475Y145336D01*
X63493Y145259D01*
X63513Y145192D01*
X63536Y145135D01*
X63563Y145089D01*
X62658D01*
X62662Y145105D01*
X62665Y145140D01*
X62672Y145363D01*
X62677Y146127D01*
X63425Y146017D01*
D02*
G37*
G36*
X61988Y145089D02*
X61083D01*
X61109Y145135D01*
X61133Y145192D01*
X61153Y145259D01*
X61171Y145336D01*
X61186Y145424D01*
X61208Y145630D01*
X61219Y145877D01*
X61221Y146017D01*
X61968Y146127D01*
X61988Y145089D01*
D02*
G37*
G36*
X60276Y146017D02*
X60277Y145877D01*
X60310Y145424D01*
X60325Y145336D01*
X60343Y145259D01*
X60364Y145192D01*
X60387Y145135D01*
X60413Y145089D01*
X59508D01*
X59512Y145105D01*
X59515Y145140D01*
X59523Y145363D01*
X59528Y146127D01*
X60276Y146017D01*
D02*
G37*
G36*
X58838Y145089D02*
X57934D01*
X57960Y145135D01*
X57983Y145192D01*
X58004Y145259D01*
X58021Y145336D01*
X58037Y145424D01*
X58059Y145630D01*
X58069Y145877D01*
X58071Y146017D01*
X58819Y146127D01*
X58838Y145089D01*
D02*
G37*
G36*
X57126Y146017D02*
X57127Y145877D01*
X57160Y145424D01*
X57175Y145336D01*
X57193Y145259D01*
X57214Y145192D01*
X57237Y145135D01*
X57263Y145089D01*
X56359D01*
X56362Y145105D01*
X56366Y145140D01*
X56373Y145363D01*
X56378Y146127D01*
X57126Y146017D01*
D02*
G37*
G36*
X55689Y145089D02*
X54784D01*
X54810Y145135D01*
X54833Y145192D01*
X54854Y145259D01*
X54872Y145336D01*
X54887Y145424D01*
X54909Y145630D01*
X54920Y145877D01*
X54921Y146017D01*
X55669Y146127D01*
X55689Y145089D01*
D02*
G37*
G36*
X50883Y145649D02*
X50912Y145254D01*
X50922Y145200D01*
X50935Y145155D01*
X50949Y145118D01*
X50964Y145089D01*
X50217Y145268D01*
X50231Y145269D01*
X50244Y145281D01*
X50255Y145304D01*
X50265Y145337D01*
X50273Y145380D01*
X50280Y145434D01*
X50289Y145572D01*
X50292Y145753D01*
X50882D01*
X50883Y145649D01*
D02*
G37*
G36*
X49331Y145814D02*
X49378Y145113D01*
X49389Y145089D01*
X48485D01*
X48496Y145113D01*
X48506Y145152D01*
X48515Y145204D01*
X48529Y145352D01*
X48541Y145677D01*
X48543Y145964D01*
X49331D01*
X49331Y145814D01*
D02*
G37*
G36*
X47756D02*
X47803Y145113D01*
X47815Y145089D01*
X46910D01*
X46921Y145113D01*
X46931Y145152D01*
X46940Y145204D01*
X46954Y145352D01*
X46966Y145677D01*
X46968Y145964D01*
X47756D01*
X47756Y145814D01*
D02*
G37*
G36*
X41457D02*
X41504Y145113D01*
X41515Y145089D01*
X40611D01*
X40622Y145113D01*
X40632Y145152D01*
X40641Y145204D01*
X40655Y145352D01*
X40667Y145677D01*
X40669Y145964D01*
X41457D01*
X41457Y145814D01*
D02*
G37*
G36*
X36289Y146419D02*
X36270Y146363D01*
X36260Y146307D01*
X36257Y146252D01*
X36263Y146197D01*
X36278Y146143D01*
X36301Y146089D01*
X36331Y146036D01*
X36371Y145984D01*
X36418Y145932D01*
X36237Y145750D01*
X36490Y145758D01*
X36492Y145660D01*
X36512Y145432D01*
X36524Y145379D01*
X36538Y145336D01*
X36555Y145304D01*
X36575Y145283D01*
X36598Y145273D01*
X36623Y145274D01*
X35886Y145089D01*
X35908Y145126D01*
X35927Y145169D01*
X35943Y145218D01*
X35958Y145274D01*
X35970Y145336D01*
X35988Y145480D01*
X35994Y145562D01*
X35996Y145654D01*
X35858Y145768D01*
X35788Y145816D01*
X35718Y145858D01*
X35648Y145893D01*
X35579Y145922D01*
X35510Y145943D01*
X35441Y145959D01*
X35373Y145968D01*
X36316Y146476D01*
X36289Y146419D01*
D02*
G37*
G36*
X31768Y145761D02*
X31784Y145599D01*
X31797Y145528D01*
X31815Y145464D01*
X31836Y145407D01*
X31861Y145357D01*
X31890Y145314D01*
X31923Y145277D01*
X31960Y145248D01*
X31162Y145089D01*
X31183Y145126D01*
X31202Y145169D01*
X31219Y145218D01*
X31234Y145274D01*
X31246Y145336D01*
X31264Y145480D01*
X31269Y145562D01*
X31274Y145744D01*
X31766Y145853D01*
X31768Y145761D01*
D02*
G37*
G36*
X30288Y145726D02*
X30294Y145647D01*
X30304Y145570D01*
X30318Y145495D01*
X30337Y145423D01*
X30360Y145352D01*
X30386Y145283D01*
X30417Y145216D01*
X30452Y145152D01*
X30492Y145089D01*
X29587D01*
X29626Y145152D01*
X29661Y145216D01*
X29692Y145283D01*
X29719Y145352D01*
X29742Y145423D01*
X29760Y145495D01*
X29775Y145570D01*
X29785Y145647D01*
X29791Y145726D01*
X29793Y145807D01*
X30285D01*
X30288Y145726D01*
D02*
G37*
G36*
X28713D02*
X28719Y145647D01*
X28729Y145570D01*
X28744Y145495D01*
X28762Y145423D01*
X28785Y145352D01*
X28812Y145283D01*
X28843Y145216D01*
X28878Y145152D01*
X28917Y145089D01*
X28012D01*
X28051Y145152D01*
X28087Y145216D01*
X28117Y145283D01*
X28144Y145352D01*
X28167Y145423D01*
X28185Y145495D01*
X28200Y145570D01*
X28210Y145647D01*
X28216Y145726D01*
X28218Y145807D01*
X28711D01*
X28713Y145726D01*
D02*
G37*
G36*
X27402Y146319D02*
X27254Y145993D01*
X27218Y145896D01*
X27165Y145717D01*
X27149Y145636D01*
X27147Y145623D01*
X27154Y145570D01*
X27169Y145495D01*
X27187Y145423D01*
X27210Y145352D01*
X27237Y145283D01*
X27268Y145216D01*
X27303Y145152D01*
X27342Y145089D01*
X26438D01*
X26477Y145152D01*
X26512Y145216D01*
X26543Y145283D01*
X26570Y145352D01*
X26592Y145423D01*
X26611Y145495D01*
X26616Y145525D01*
X26599Y145580D01*
X26564Y145655D01*
X26520Y145727D01*
X26465Y145795D01*
X26401Y145859D01*
X26327Y145919D01*
X26242Y145975D01*
X26148Y146028D01*
X27464Y146438D01*
X27402Y146319D01*
D02*
G37*
G36*
X23988Y145726D02*
X23994Y145647D01*
X24005Y145570D01*
X24019Y145495D01*
X24038Y145423D01*
X24060Y145352D01*
X24087Y145283D01*
X24118Y145216D01*
X24153Y145152D01*
X24192Y145089D01*
X23288D01*
X23327Y145152D01*
X23362Y145216D01*
X23393Y145283D01*
X23420Y145352D01*
X23442Y145423D01*
X23461Y145495D01*
X23475Y145570D01*
X23486Y145647D01*
X23492Y145726D01*
X23494Y145807D01*
X23986D01*
X23988Y145726D01*
D02*
G37*
G36*
X22560Y145814D02*
X22606Y145113D01*
X22618Y145089D01*
X21713D01*
X21724Y145113D01*
X21734Y145152D01*
X21743Y145204D01*
X21757Y145352D01*
X21769Y145677D01*
X21772Y145964D01*
X22559D01*
X22560Y145814D01*
D02*
G37*
G36*
X13192Y143127D02*
X13192Y143124D01*
X13374Y143122D01*
X13339Y143114D01*
X13307Y143091D01*
X13280Y143051D01*
X13255Y142996D01*
X13235Y142925D01*
X13228Y142890D01*
X13236Y142858D01*
X13263Y142777D01*
X13295Y142701D01*
X13334Y142628D01*
X13378Y142559D01*
X13428Y142495D01*
X13484Y142435D01*
X13190D01*
X13189Y142335D01*
X12402D01*
X12352Y142435D01*
X12106D01*
X12162Y142495D01*
X12213Y142559D01*
X12257Y142628D01*
X12257Y142628D01*
X12008Y143134D01*
X12399Y143131D01*
X12402Y143225D01*
X13189D01*
X13192Y143127D01*
D02*
G37*
G36*
X16062Y142479D02*
X16086Y142413D01*
X16121Y142337D01*
X16160Y142265D01*
X16205Y142196D01*
X16255Y142131D01*
X14884Y142268D01*
X14945Y142322D01*
X14999Y142380D01*
X15047Y142444D01*
X15089Y142513D01*
X15102Y142541D01*
X14810Y143134D01*
X16385D01*
X16062Y142479D01*
D02*
G37*
G36*
X84970Y142047D02*
X84493Y142046D01*
X83285Y141965D01*
X82957Y141913D01*
X82667Y141848D01*
X82414Y141771D01*
X82198Y141680D01*
X82020Y141577D01*
X81879Y141461D01*
X81461Y141879D01*
X81577Y142019D01*
X81680Y142198D01*
X81770Y142413D01*
X81848Y142667D01*
X81913Y142957D01*
X81966Y143285D01*
X82032Y144053D01*
X82046Y144493D01*
X82047Y144971D01*
X84970Y142047D01*
D02*
G37*
G36*
X6977Y142764D02*
X6795Y142509D01*
X6655Y142264D01*
X6555Y142031D01*
X6496Y141807D01*
X6478Y141595D01*
X6500Y141392D01*
X6564Y141200D01*
X6668Y141019D01*
X6814Y140848D01*
X6235Y140592D01*
X6196Y140622D01*
X4798Y141575D01*
X3352Y142550D01*
X7199Y143029D01*
X6977Y142764D01*
D02*
G37*
G36*
X13587Y141138D02*
X13551Y141066D01*
X13519Y140991D01*
X13491Y140912D01*
X13468Y140831D01*
X13449Y140747D01*
X13434Y140659D01*
X13417Y140474D01*
X13415Y140377D01*
X12628Y140172D01*
X12624Y140271D01*
X12614Y140364D01*
X12597Y140451D01*
X12573Y140532D01*
X12542Y140607D01*
X12505Y140676D01*
X12460Y140739D01*
X12409Y140795D01*
X12351Y140846D01*
X12286Y140890D01*
X13627Y141206D01*
X13587Y141138D01*
D02*
G37*
G36*
X16450Y141214D02*
X16446Y141136D01*
X16451Y141059D01*
X16465Y140983D01*
X16488Y140907D01*
X16521Y140832D01*
X16562Y140758D01*
X16611Y140684D01*
X16670Y140611D01*
X16738Y140538D01*
X16055Y140108D01*
X15985Y140175D01*
X15841Y140293D01*
X15768Y140344D01*
X15694Y140389D01*
X15620Y140429D01*
X15544Y140463D01*
X15467Y140492D01*
X15390Y140516D01*
X15311Y140534D01*
X16462Y141292D01*
X16450Y141214D01*
D02*
G37*
G36*
X78799Y140169D02*
X78722Y140149D01*
X78646Y140124D01*
X78570Y140093D01*
X78496Y140058D01*
X78422Y140017D01*
X78348Y139970D01*
X78276Y139919D01*
X78133Y139800D01*
X78063Y139733D01*
X77361Y140145D01*
X77429Y140217D01*
X77487Y140290D01*
X77537Y140364D01*
X77577Y140438D01*
X77609Y140513D01*
X77631Y140588D01*
X77644Y140664D01*
X77647Y140740D01*
X77642Y140817D01*
X77627Y140894D01*
X78799Y140169D01*
D02*
G37*
G36*
X39901Y139927D02*
X39866Y139862D01*
X39835Y139796D01*
X39808Y139727D01*
X39786Y139656D01*
X39767Y139583D01*
X39753Y139508D01*
X39742Y139432D01*
X39736Y139353D01*
X39734Y139272D01*
X39242D01*
X39240Y139353D01*
X39234Y139432D01*
X39224Y139508D01*
X39209Y139583D01*
X39191Y139656D01*
X39168Y139727D01*
X39141Y139796D01*
X39110Y139862D01*
X39075Y139927D01*
X39036Y139990D01*
X39940D01*
X39901Y139927D01*
D02*
G37*
G36*
X38326D02*
X38291Y139862D01*
X38260Y139796D01*
X38234Y139727D01*
X38211Y139656D01*
X38192Y139583D01*
X38178Y139508D01*
X38168Y139432D01*
X38162Y139353D01*
X38159Y139272D01*
X37667D01*
X37665Y139353D01*
X37659Y139432D01*
X37649Y139508D01*
X37634Y139583D01*
X37616Y139656D01*
X37593Y139727D01*
X37566Y139796D01*
X37535Y139862D01*
X37500Y139927D01*
X37461Y139990D01*
X38366D01*
X38326Y139927D01*
D02*
G37*
G36*
X52509Y139940D02*
X52482Y139883D01*
X52459Y139821D01*
X52438Y139752D01*
X52421Y139676D01*
X52407Y139595D01*
X52388Y139413D01*
X52384Y139313D01*
X52382Y139206D01*
X51791D01*
X51790Y139313D01*
X51766Y139595D01*
X51752Y139676D01*
X51735Y139752D01*
X51714Y139821D01*
X51691Y139883D01*
X51664Y139940D01*
X51634Y139990D01*
X52539D01*
X52509Y139940D01*
D02*
G37*
G36*
X54098Y139961D02*
X54084Y139922D01*
X54072Y139874D01*
X54061Y139817D01*
X54045Y139674D01*
X54035Y139495D01*
X54032Y139277D01*
X53442Y139156D01*
X53439Y139252D01*
X53421Y139435D01*
X53404Y139523D01*
X53383Y139608D01*
X53358Y139690D01*
X53328Y139769D01*
X53293Y139845D01*
X53253Y139919D01*
X53209Y139990D01*
X54114D01*
X54098Y139961D01*
D02*
G37*
G36*
X43086Y139975D02*
X43082Y139945D01*
X43078Y139901D01*
X43067Y139452D01*
X43066Y139167D01*
X42279Y139063D01*
X42278Y139214D01*
X42233Y139848D01*
X42219Y139908D01*
X42203Y139955D01*
X42186Y139990D01*
X43090D01*
X43086Y139975D01*
D02*
G37*
G36*
X43069Y138662D02*
X43078Y138569D01*
X43094Y138479D01*
X43115Y138395D01*
X43142Y138314D01*
X43176Y138239D01*
X43216Y138167D01*
X43261Y138101D01*
X43313Y138038D01*
X43371Y137980D01*
X41994Y137932D01*
X42048Y137994D01*
X42096Y138059D01*
X42139Y138129D01*
X42176Y138203D01*
X42208Y138281D01*
X42233Y138363D01*
X42253Y138449D01*
X42267Y138539D01*
X42276Y138632D01*
X42279Y138730D01*
X43066Y138760D01*
X43069Y138662D01*
D02*
G37*
G36*
X40028Y138465D02*
X40042Y138382D01*
X40067Y138302D01*
X40102Y138226D01*
X40146Y138154D01*
X40201Y138086D01*
X40265Y138021D01*
X40339Y137960D01*
X40423Y137902D01*
X40517Y137848D01*
X39197Y137453D01*
X39261Y137571D01*
X39411Y137894D01*
X39447Y137991D01*
X39500Y138170D01*
X39517Y138251D01*
X39527Y138327D01*
X39531Y138398D01*
X40023Y138551D01*
X40028Y138465D01*
D02*
G37*
G36*
X26449Y137377D02*
X26363Y137461D01*
X26191Y137603D01*
X26107Y137661D01*
X26022Y137709D01*
X25938Y137749D01*
X25855Y137780D01*
X25772Y137803D01*
X25690Y137816D01*
X25609Y137820D01*
Y138312D01*
X25690Y138317D01*
X25772Y138330D01*
X25855Y138352D01*
X25938Y138383D01*
X26022Y138423D01*
X26107Y138472D01*
X26191Y138529D01*
X26277Y138596D01*
X26363Y138671D01*
X26449Y138755D01*
Y137377D01*
D02*
G37*
G36*
X77779Y137677D02*
X77789Y137551D01*
X77807Y137435D01*
X77831Y137328D01*
X77862Y137230D01*
X77900Y137142D01*
X77945Y137063D01*
X77997Y136993D01*
X78056Y136933D01*
X78122Y136882D01*
X76595Y137013D01*
X76669Y137015D01*
X76736Y137034D01*
X76795Y137071D01*
X76846Y137125D01*
X76890Y137196D01*
X76925Y137285D01*
X76953Y137390D01*
X76972Y137514D01*
X76984Y137654D01*
X76988Y137812D01*
X77776D01*
X77779Y137677D01*
D02*
G37*
G36*
X34121Y137114D02*
X33979Y136942D01*
X33921Y136857D01*
X33873Y136773D01*
X33833Y136689D01*
X33802Y136606D01*
X33780Y136523D01*
X33766Y136441D01*
X33762Y136360D01*
X33270D01*
X33265Y136441D01*
X33252Y136523D01*
X33230Y136606D01*
X33199Y136689D01*
X33159Y136773D01*
X33110Y136857D01*
X33053Y136942D01*
X32986Y137028D01*
X32911Y137114D01*
X32827Y137200D01*
X34205D01*
X34121Y137114D01*
D02*
G37*
G36*
X12235Y137013D02*
X11772Y136348D01*
X11134Y136873D01*
X11510Y137332D01*
X12235Y137013D01*
D02*
G37*
G36*
X78648Y135356D02*
X78838Y135354D01*
Y134567D01*
X78688Y134566D01*
X78648Y134564D01*
Y134272D01*
X78588Y134328D01*
X78523Y134378D01*
X78455Y134422D01*
X78382Y134461D01*
X78305Y134493D01*
X78224Y134520D01*
X78174Y134532D01*
X77987Y134520D01*
X77963Y134508D01*
Y134563D01*
X77956Y134564D01*
X77858Y134567D01*
Y135354D01*
X77956Y135357D01*
X77963Y135358D01*
Y135413D01*
X77987Y135402D01*
X78026Y135392D01*
X78079Y135383D01*
X78125Y135379D01*
X78139Y135381D01*
X78224Y135402D01*
X78305Y135428D01*
X78382Y135461D01*
X78455Y135499D01*
X78523Y135543D01*
X78588Y135593D01*
X78648Y135650D01*
Y135356D01*
D02*
G37*
G36*
X54036Y136125D02*
X54049Y136038D01*
X54071Y135955D01*
X54102Y135876D01*
X54141Y135800D01*
X54189Y135727D01*
X54246Y135659D01*
X54311Y135593D01*
X54386Y135532D01*
X54469Y135474D01*
X53119Y135194D01*
X53181Y135289D01*
X53284Y135476D01*
X53325Y135567D01*
X53361Y135657D01*
X53390Y135746D01*
X53412Y135833D01*
X53429Y135919D01*
X53438Y136003D01*
X53442Y136087D01*
X54032Y136216D01*
X54036Y136125D01*
D02*
G37*
G36*
X38232Y136074D02*
X38293Y136027D01*
X38363Y135981D01*
X38441Y135936D01*
X38527Y135893D01*
X38724Y135808D01*
X38836Y135767D01*
X39084Y135689D01*
X37871Y135035D01*
X37900Y135140D01*
X37919Y135239D01*
X37929Y135334D01*
X37929Y135424D01*
X37921Y135510D01*
X37903Y135591D01*
X37876Y135667D01*
X37840Y135738D01*
X37794Y135804D01*
X37739Y135866D01*
X38180Y136122D01*
X38232Y136074D01*
D02*
G37*
G36*
X12037Y134508D02*
X11987Y134538D01*
X11930Y134565D01*
X11868Y134588D01*
X11799Y134609D01*
X11724Y134626D01*
X11642Y134640D01*
X11461Y134659D01*
X11360Y134664D01*
X11254Y134665D01*
Y135256D01*
X11360Y135257D01*
X11642Y135281D01*
X11724Y135295D01*
X11799Y135312D01*
X11868Y135333D01*
X11930Y135356D01*
X11987Y135383D01*
X12037Y135413D01*
Y134508D01*
D02*
G37*
G36*
X51290Y135125D02*
X51231Y135060D01*
X51178Y134991D01*
X51132Y134916D01*
X51092Y134837D01*
X51058Y134753D01*
X51030Y134664D01*
X51009Y134571D01*
X50995Y134473D01*
X50986Y134370D01*
X50984Y134262D01*
X50010Y135236D01*
X50118Y135238D01*
X50221Y135247D01*
X50319Y135261D01*
X50412Y135283D01*
X50501Y135310D01*
X50585Y135344D01*
X50664Y135384D01*
X50739Y135430D01*
X50808Y135483D01*
X50873Y135542D01*
X51290Y135125D01*
D02*
G37*
G36*
X31242Y134700D02*
X31151Y134634D01*
X31069Y134566D01*
X30997Y134495D01*
X30934Y134423D01*
X30881Y134348D01*
X30837Y134271D01*
X30804Y134192D01*
X30779Y134111D01*
X30765Y134028D01*
X30760Y133943D01*
X30268Y134036D01*
X30264Y134112D01*
X30253Y134191D01*
X30234Y134274D01*
X30207Y134360D01*
X30173Y134450D01*
X30131Y134543D01*
X30024Y134738D01*
X29959Y134841D01*
X29887Y134947D01*
X31242Y134700D01*
D02*
G37*
G36*
X72864Y132933D02*
X72814Y132963D01*
X72757Y132990D01*
X72695Y133014D01*
X72626Y133034D01*
X72550Y133051D01*
X72469Y133065D01*
X72287Y133084D01*
X72187Y133089D01*
X72080Y133090D01*
Y133681D01*
X72187Y133683D01*
X72469Y133706D01*
X72550Y133720D01*
X72626Y133738D01*
X72695Y133758D01*
X72757Y133782D01*
X72814Y133808D01*
X72864Y133838D01*
Y132933D01*
D02*
G37*
G36*
X17150Y133834D02*
X17179Y133831D01*
X17282Y133825D01*
X17955Y133817D01*
X18043Y133030D01*
X17896Y133029D01*
X17350Y132995D01*
X17278Y132983D01*
X17219Y132968D01*
X17171Y132952D01*
X17136Y132933D01*
Y133838D01*
X17150Y133834D01*
D02*
G37*
G36*
X36905Y133460D02*
X36763Y133288D01*
X36705Y133203D01*
X36657Y133119D01*
X36617Y133035D01*
X36586Y132952D01*
X36564Y132870D01*
X36551Y132787D01*
X36546Y132706D01*
X36054D01*
X36050Y132787D01*
X36036Y132870D01*
X36014Y132952D01*
X35983Y133035D01*
X35943Y133119D01*
X35895Y133203D01*
X35837Y133288D01*
X35770Y133374D01*
X35695Y133460D01*
X35611Y133546D01*
X36989D01*
X36905Y133460D01*
D02*
G37*
G36*
X78797Y132205D02*
X78838Y132205D01*
Y131696D01*
X78882Y131147D01*
X78818Y131198D01*
X78750Y131244D01*
X78679Y131285D01*
X78603Y131320D01*
X78524Y131350D01*
X78442Y131374D01*
X78355Y131393D01*
X78348Y131394D01*
X77987Y131370D01*
X77963Y131359D01*
Y132263D01*
X77987Y132252D01*
X78026Y132242D01*
X78079Y132233D01*
X78214Y132220D01*
X78285Y132233D01*
X78369Y132255D01*
X78448Y132284D01*
X78523Y132318D01*
X78592Y132359D01*
X78657Y132407D01*
X78717Y132460D01*
X78772Y132520D01*
X78797Y132205D01*
D02*
G37*
G36*
X17161Y132252D02*
X17199Y132242D01*
X17252Y132233D01*
X17399Y132219D01*
X17724Y132207D01*
X18011Y132205D01*
Y131417D01*
X17861Y131417D01*
X17161Y131370D01*
X17136Y131359D01*
Y132263D01*
X17161Y132252D01*
D02*
G37*
G36*
X6126Y132252D02*
X5941Y132131D01*
X5778Y132003D01*
X5637Y131868D01*
X5518Y131725D01*
X5420Y131576D01*
X5344Y131419D01*
X5289Y131255D01*
X5257Y131084D01*
X5246Y130905D01*
X4754D01*
X4743Y131084D01*
X4710Y131255D01*
X4656Y131419D01*
X4580Y131576D01*
X4482Y131725D01*
X4363Y131868D01*
X4222Y132003D01*
X4059Y132131D01*
X3874Y132252D01*
X3668Y132365D01*
X6332D01*
X6126Y132252D01*
D02*
G37*
G36*
X86563Y132456D02*
X86062Y131971D01*
X85859Y131737D01*
X85686Y131509D01*
X85546Y131286D01*
X85436Y131070D01*
X85358Y130858D01*
X85311Y130653D01*
X85295Y130453D01*
X84705D01*
X84689Y130653D01*
X84642Y130858D01*
X84564Y131070D01*
X84454Y131286D01*
X84314Y131509D01*
X84141Y131737D01*
X83938Y131971D01*
X83704Y132210D01*
X83140Y132706D01*
X86860D01*
X86563Y132456D01*
D02*
G37*
G36*
X67038Y131188D02*
X66979Y131123D01*
X66926Y131053D01*
X66880Y130979D01*
X66840Y130900D01*
X66806Y130816D01*
X66779Y130728D01*
X66758Y130634D01*
X66743Y130536D01*
X66734Y130433D01*
X66732Y130325D01*
X65758Y131299D01*
X65866Y131301D01*
X65969Y131310D01*
X66067Y131324D01*
X66161Y131345D01*
X66249Y131373D01*
X66333Y131407D01*
X66412Y131447D01*
X66487Y131493D01*
X66556Y131546D01*
X66621Y131605D01*
X67038Y131188D01*
D02*
G37*
G36*
X78021Y130619D02*
X78041Y130601D01*
X78074Y130585D01*
X78121Y130570D01*
X78180Y130559D01*
X78253Y130549D01*
X78439Y130536D01*
X78679Y130532D01*
Y129941D01*
X78552Y129940D01*
X78180Y129914D01*
X78121Y129902D01*
X78074Y129888D01*
X78041Y129872D01*
X78021Y129853D01*
X78014Y129833D01*
Y130640D01*
X78021Y130619D01*
D02*
G37*
G36*
X17171Y130670D02*
X17220Y130654D01*
X17280Y130639D01*
X17354Y130627D01*
X17541Y130608D01*
X17778Y130596D01*
X18068Y130592D01*
X17955Y129805D01*
X17136Y129784D01*
Y130689D01*
X17171Y130670D01*
D02*
G37*
G36*
X31622Y128580D02*
X31515Y128607D01*
X31414Y128623D01*
X31317Y128631D01*
X31224Y128629D01*
X31137Y128618D01*
X31054Y128598D01*
X30975Y128568D01*
X30901Y128529D01*
X30832Y128481D01*
X30767Y128423D01*
X30518Y128869D01*
X30566Y128923D01*
X30614Y128985D01*
X30659Y129055D01*
X30703Y129133D01*
X30746Y129220D01*
X30827Y129418D01*
X30865Y129529D01*
X30937Y129777D01*
X31622Y128580D01*
D02*
G37*
G36*
X78013Y129084D02*
X78069Y129057D01*
X78132Y129034D01*
X78201Y129013D01*
X78276Y128996D01*
X78358Y128982D01*
X78540Y128963D01*
X78640Y128958D01*
X78746Y128957D01*
Y128366D01*
X78640Y128365D01*
X78358Y128341D01*
X78276Y128327D01*
X78201Y128310D01*
X78132Y128289D01*
X78069Y128266D01*
X78013Y128239D01*
X77963Y128209D01*
Y129114D01*
X78013Y129084D01*
D02*
G37*
G36*
X10702Y129276D02*
X10781Y129209D01*
X10861Y129150D01*
X10942Y129098D01*
X11024Y129055D01*
X11107Y129020D01*
X11191Y128992D01*
X11277Y128972D01*
X11363Y128961D01*
X11380Y128960D01*
X11642Y128982D01*
X11724Y128996D01*
X11799Y129013D01*
X11868Y129034D01*
X11930Y129057D01*
X11987Y129084D01*
X12037Y129114D01*
Y128209D01*
X11987Y128239D01*
X11930Y128266D01*
X11868Y128289D01*
X11799Y128310D01*
X11724Y128327D01*
X11642Y128341D01*
X11461Y128360D01*
X11387Y128363D01*
X11363Y128362D01*
X11277Y128350D01*
X11191Y128331D01*
X11107Y128303D01*
X11024Y128268D01*
X10942Y128224D01*
X10861Y128173D01*
X10781Y128114D01*
X10702Y128047D01*
X10624Y127972D01*
Y129350D01*
X10702Y129276D01*
D02*
G37*
G36*
X18883Y129962D02*
X18956Y129903D01*
X19030Y129852D01*
X19105Y129809D01*
X19181Y129773D01*
X19258Y129746D01*
X19336Y129727D01*
X19415Y129716D01*
X19495Y129713D01*
X19576Y129718D01*
X18739Y128692D01*
X19675Y127756D01*
X19593Y127753D01*
X19512Y127743D01*
X19433Y127726D01*
X19354Y127702D01*
X19277Y127671D01*
X19200Y127632D01*
X19126Y127586D01*
X19052Y127533D01*
X18979Y127473D01*
X18908Y127406D01*
X18351Y127963D01*
X18418Y128034D01*
X18478Y128107D01*
X18531Y128181D01*
X18577Y128256D01*
X18616Y128332D01*
X18647Y128409D01*
X18671Y128488D01*
X18688Y128567D01*
X18698Y128648D01*
X18699Y128691D01*
X18694Y128732D01*
X18677Y128812D01*
X18654Y128891D01*
X18625Y128969D01*
X18589Y129045D01*
X18547Y129121D01*
X18499Y129195D01*
X18444Y129268D01*
X18383Y129340D01*
X18316Y129411D01*
X18811Y130030D01*
X18883Y129962D01*
D02*
G37*
G36*
X65348Y128567D02*
X65426Y128500D01*
X65506Y128441D01*
X65587Y128390D01*
X65669Y128347D01*
X65753Y128311D01*
X65837Y128284D01*
X65922Y128264D01*
X66009Y128252D01*
X66096Y128248D01*
Y127657D01*
X66009Y127654D01*
X65922Y127642D01*
X65837Y127622D01*
X65753Y127594D01*
X65669Y127559D01*
X65587Y127516D01*
X65506Y127465D01*
X65426Y127406D01*
X65348Y127339D01*
X65270Y127264D01*
Y128642D01*
X65348Y128567D01*
D02*
G37*
G36*
X72864Y126634D02*
X72814Y126664D01*
X72757Y126691D01*
X72695Y126714D01*
X72626Y126735D01*
X72550Y126752D01*
X72469Y126766D01*
X72287Y126785D01*
X72187Y126790D01*
X72080Y126791D01*
Y127382D01*
X72187Y127383D01*
X72469Y127407D01*
X72550Y127421D01*
X72626Y127438D01*
X72695Y127459D01*
X72757Y127482D01*
X72814Y127509D01*
X72864Y127539D01*
Y126634D01*
D02*
G37*
G36*
X17150Y127535D02*
X17179Y127531D01*
X17282Y127525D01*
X17955Y127518D01*
X18068Y126731D01*
X17917Y126730D01*
X17354Y126696D01*
X17280Y126683D01*
X17220Y126669D01*
X17171Y126653D01*
X17136Y126634D01*
Y127539D01*
X17150Y127535D01*
D02*
G37*
G36*
X32760Y126286D02*
X32722Y126225D01*
X32687Y126158D01*
X32658Y126087D01*
X32633Y126012D01*
X32612Y125932D01*
X32596Y125847D01*
X32585Y125757D01*
X32578Y125663D01*
X32576Y125564D01*
X32084D01*
X32080Y125636D01*
X32071Y125701D01*
X32055Y125762D01*
X32032Y125816D01*
X32003Y125866D01*
X31968Y125910D01*
X31926Y125948D01*
X31878Y125981D01*
X31823Y126009D01*
X31762Y126031D01*
X32804Y126344D01*
X32760Y126286D01*
D02*
G37*
G36*
X72864Y125059D02*
X72814Y125089D01*
X72757Y125116D01*
X72695Y125140D01*
X72626Y125160D01*
X72550Y125177D01*
X72469Y125191D01*
X72287Y125210D01*
X72187Y125215D01*
X72080Y125216D01*
Y125807D01*
X72187Y125809D01*
X72469Y125832D01*
X72550Y125846D01*
X72626Y125864D01*
X72695Y125884D01*
X72757Y125908D01*
X72814Y125934D01*
X72864Y125964D01*
Y125059D01*
D02*
G37*
G36*
X17186Y125934D02*
X17243Y125908D01*
X17305Y125884D01*
X17374Y125864D01*
X17449Y125846D01*
X17531Y125832D01*
X17713Y125813D01*
X17813Y125809D01*
X17920Y125807D01*
Y125216D01*
X17813Y125215D01*
X17531Y125191D01*
X17449Y125177D01*
X17374Y125160D01*
X17305Y125140D01*
X17243Y125116D01*
X17186Y125089D01*
X17136Y125059D01*
Y125964D01*
X17186Y125934D01*
D02*
G37*
G36*
X24783Y125247D02*
X24852Y125194D01*
X24926Y125148D01*
X25005Y125108D01*
X25089Y125074D01*
X25178Y125046D01*
X25271Y125025D01*
X25370Y125010D01*
X25473Y125002D01*
X25581Y125000D01*
X24606Y124026D01*
X24604Y124133D01*
X24596Y124237D01*
X24581Y124335D01*
X24560Y124428D01*
X24533Y124517D01*
X24499Y124601D01*
X24459Y124680D01*
X24412Y124754D01*
X24359Y124824D01*
X24300Y124888D01*
X24718Y125306D01*
X24783Y125247D01*
D02*
G37*
G36*
X72864Y123485D02*
X72803Y123522D01*
X72738Y123555D01*
X72669Y123584D01*
X72595Y123609D01*
X72516Y123631D01*
X72433Y123648D01*
X72345Y123662D01*
X72157Y123677D01*
X72055Y123679D01*
X72106Y124270D01*
X72218Y124271D01*
X72585Y124300D01*
X72657Y124313D01*
X72721Y124328D01*
X72776Y124346D01*
X72824Y124367D01*
X72864Y124389D01*
Y123485D01*
D02*
G37*
G36*
X17186Y124359D02*
X17243Y124333D01*
X17305Y124309D01*
X17374Y124289D01*
X17449Y124272D01*
X17531Y124257D01*
X17713Y124239D01*
X17813Y124234D01*
X17920Y124232D01*
Y123642D01*
X17813Y123640D01*
X17531Y123617D01*
X17449Y123602D01*
X17374Y123585D01*
X17305Y123565D01*
X17243Y123541D01*
X17186Y123515D01*
X17136Y123485D01*
Y124389D01*
X17186Y124359D01*
D02*
G37*
G36*
X66251Y123314D02*
X66192Y123249D01*
X66139Y123179D01*
X66092Y123105D01*
X66052Y123026D01*
X66019Y122942D01*
X65991Y122853D01*
X65970Y122760D01*
X65955Y122662D01*
X65947Y122559D01*
X65945Y122451D01*
X64970Y123425D01*
X65078Y123427D01*
X65181Y123436D01*
X65280Y123450D01*
X65373Y123471D01*
X65462Y123499D01*
X65546Y123533D01*
X65625Y123573D01*
X65699Y123619D01*
X65769Y123672D01*
X65833Y123731D01*
X66251Y123314D01*
D02*
G37*
G36*
X72864Y121910D02*
X72814Y121940D01*
X72757Y121967D01*
X72695Y121990D01*
X72626Y122010D01*
X72550Y122028D01*
X72469Y122042D01*
X72287Y122061D01*
X72187Y122065D01*
X72080Y122067D01*
Y122658D01*
X72187Y122659D01*
X72469Y122683D01*
X72550Y122697D01*
X72626Y122714D01*
X72695Y122734D01*
X72757Y122758D01*
X72814Y122785D01*
X72864Y122815D01*
Y121910D01*
D02*
G37*
G36*
X17197Y122777D02*
X17262Y122744D01*
X17331Y122715D01*
X17405Y122690D01*
X17484Y122668D01*
X17567Y122651D01*
X17655Y122637D01*
X17844Y122622D01*
X17945Y122620D01*
X17894Y122029D01*
X17782Y122028D01*
X17415Y121999D01*
X17343Y121986D01*
X17279Y121971D01*
X17224Y121953D01*
X17176Y121933D01*
X17136Y121910D01*
Y122815D01*
X17197Y122777D01*
D02*
G37*
G36*
X24783Y122491D02*
X24852Y122438D01*
X24926Y122392D01*
X25005Y122352D01*
X25089Y122318D01*
X25178Y122290D01*
X25271Y122269D01*
X25370Y122255D01*
X25473Y122246D01*
X25581Y122244D01*
X24606Y121270D01*
X24604Y121378D01*
X24596Y121481D01*
X24581Y121579D01*
X24560Y121672D01*
X24533Y121761D01*
X24499Y121845D01*
X24459Y121924D01*
X24412Y121998D01*
X24359Y122068D01*
X24300Y122133D01*
X24718Y122550D01*
X24783Y122491D01*
D02*
G37*
G36*
X6561Y122453D02*
X6042Y121952D01*
X5831Y121714D01*
X5652Y121483D01*
X5506Y121260D01*
X5392Y121044D01*
X5311Y120837D01*
X5262Y120637D01*
X5246Y120444D01*
X4754D01*
X4738Y120637D01*
X4689Y120837D01*
X4608Y121044D01*
X4494Y121260D01*
X4348Y121483D01*
X4169Y121714D01*
X3958Y121952D01*
X3715Y122199D01*
X3130Y122715D01*
X6870D01*
X6561Y122453D01*
D02*
G37*
G36*
X78013Y121210D02*
X78069Y121183D01*
X78132Y121160D01*
X78201Y121139D01*
X78276Y121122D01*
X78358Y121108D01*
X78540Y121089D01*
X78640Y121084D01*
X78746Y121083D01*
Y120492D01*
X78640Y120491D01*
X78358Y120467D01*
X78276Y120453D01*
X78201Y120436D01*
X78132Y120415D01*
X78069Y120392D01*
X78013Y120365D01*
X77963Y120335D01*
Y121240D01*
X78013Y121210D01*
D02*
G37*
G36*
X64166Y120693D02*
X64245Y120626D01*
X64325Y120567D01*
X64406Y120516D01*
X64488Y120472D01*
X64571Y120437D01*
X64656Y120409D01*
X64741Y120390D01*
X64828Y120378D01*
X64915Y120374D01*
Y119783D01*
X64828Y119780D01*
X64741Y119768D01*
X64656Y119748D01*
X64571Y119720D01*
X64488Y119685D01*
X64406Y119642D01*
X64325Y119591D01*
X64245Y119532D01*
X64166Y119465D01*
X64089Y119390D01*
Y120768D01*
X64166Y120693D01*
D02*
G37*
G36*
X77992Y119649D02*
X78031Y119635D01*
X78078Y119623D01*
X78136Y119613D01*
X78278Y119596D01*
X78458Y119586D01*
X78676Y119583D01*
X78797Y118993D01*
X78701Y118990D01*
X78517Y118972D01*
X78430Y118956D01*
X78345Y118935D01*
X78263Y118909D01*
X78184Y118879D01*
X78108Y118844D01*
X78034Y118805D01*
X77963Y118760D01*
Y119665D01*
X77992Y119649D01*
D02*
G37*
G36*
X79014Y116949D02*
X78954Y117005D01*
X78889Y117055D01*
X78821Y117099D01*
X78748Y117138D01*
X78671Y117170D01*
X78590Y117197D01*
X78505Y117218D01*
X78446Y117227D01*
X77987Y117197D01*
X77963Y117185D01*
Y118090D01*
X77987Y118079D01*
X78026Y118069D01*
X78079Y118060D01*
X78225Y118046D01*
X78383Y118040D01*
X78416Y118043D01*
X78505Y118058D01*
X78590Y118079D01*
X78671Y118105D01*
X78748Y118138D01*
X78821Y118176D01*
X78889Y118220D01*
X78954Y118271D01*
X79014Y118327D01*
Y116949D01*
D02*
G37*
G36*
X84956Y118394D02*
X84967Y118305D01*
X84985Y118225D01*
X85010Y118155D01*
X85043Y118095D01*
X85083Y118044D01*
X85130Y118002D01*
X85184Y117971D01*
X85246Y117948D01*
X85314Y117936D01*
X84017Y117784D01*
X84082Y117813D01*
X84141Y117851D01*
X84193Y117899D01*
X84237Y117956D01*
X84276Y118022D01*
X84307Y118098D01*
X84331Y118183D01*
X84348Y118277D01*
X84358Y118380D01*
X84362Y118493D01*
X84952D01*
X84956Y118394D01*
D02*
G37*
G36*
X64954Y117937D02*
X65033Y117870D01*
X65113Y117811D01*
X65194Y117760D01*
X65276Y117717D01*
X65359Y117681D01*
X65443Y117654D01*
X65529Y117634D01*
X65615Y117622D01*
X65703Y117618D01*
Y117028D01*
X65615Y117024D01*
X65529Y117012D01*
X65443Y116992D01*
X65359Y116965D01*
X65276Y116929D01*
X65194Y116886D01*
X65113Y116835D01*
X65033Y116776D01*
X64954Y116709D01*
X64876Y116634D01*
Y118012D01*
X64954Y117937D01*
D02*
G37*
G36*
X22297Y116293D02*
X22304Y116216D01*
X22314Y116146D01*
X22330Y116081D01*
X22349Y116023D01*
X22373Y115972D01*
X22401Y115927D01*
X22433Y115888D01*
X22470Y115855D01*
X22511Y115829D01*
X21502Y115780D01*
X21540Y115810D01*
X21575Y115847D01*
X21605Y115890D01*
X21632Y115940D01*
X21654Y115997D01*
X21672Y116060D01*
X21686Y116129D01*
X21696Y116205D01*
X21702Y116288D01*
X21704Y116377D01*
X22295D01*
X22297Y116293D01*
D02*
G37*
G36*
X72864Y115611D02*
X72814Y115640D01*
X72757Y115667D01*
X72695Y115691D01*
X72626Y115711D01*
X72550Y115728D01*
X72469Y115743D01*
X72287Y115761D01*
X72187Y115766D01*
X72080Y115768D01*
Y116358D01*
X72187Y116360D01*
X72469Y116383D01*
X72550Y116398D01*
X72626Y116415D01*
X72695Y116435D01*
X72757Y116459D01*
X72814Y116485D01*
X72864Y116515D01*
Y115611D01*
D02*
G37*
G36*
X17199Y116476D02*
X17264Y116441D01*
X17330Y116410D01*
X17399Y116383D01*
X17470Y116361D01*
X17543Y116342D01*
X17617Y116328D01*
X17694Y116317D01*
X17773Y116311D01*
X17854Y116309D01*
Y115817D01*
X17773Y115815D01*
X17694Y115809D01*
X17617Y115798D01*
X17543Y115784D01*
X17470Y115765D01*
X17399Y115743D01*
X17330Y115716D01*
X17264Y115685D01*
X17199Y115650D01*
X17136Y115611D01*
Y116515D01*
X17199Y116476D01*
D02*
G37*
G36*
X24783Y116192D02*
X24852Y116139D01*
X24926Y116093D01*
X25005Y116052D01*
X25089Y116019D01*
X25178Y115991D01*
X25271Y115970D01*
X25370Y115955D01*
X25473Y115947D01*
X25581Y115945D01*
X24606Y114971D01*
X24604Y115078D01*
X24596Y115181D01*
X24581Y115280D01*
X24560Y115373D01*
X24533Y115462D01*
X24499Y115546D01*
X24459Y115625D01*
X24412Y115699D01*
X24359Y115769D01*
X24300Y115833D01*
X24718Y116251D01*
X24783Y116192D01*
D02*
G37*
G36*
X17312Y114815D02*
X17336Y114798D01*
X17368Y114783D01*
X17407Y114770D01*
X17454Y114759D01*
X17507Y114750D01*
X17637Y114738D01*
X17712Y114735D01*
X17795Y114734D01*
Y114242D01*
X17712Y114241D01*
X17507Y114226D01*
X17454Y114217D01*
X17407Y114206D01*
X17368Y114193D01*
X17336Y114178D01*
X17312Y114161D01*
X17295Y114142D01*
Y114834D01*
X17312Y114815D01*
D02*
G37*
G36*
X72864Y114036D02*
X72814Y114066D01*
X72757Y114092D01*
X72695Y114116D01*
X72626Y114136D01*
X72550Y114154D01*
X72469Y114168D01*
X72287Y114187D01*
X72187Y114191D01*
X72080Y114193D01*
Y114784D01*
X72187Y114785D01*
X72469Y114809D01*
X72550Y114823D01*
X72626Y114840D01*
X72695Y114860D01*
X72757Y114884D01*
X72814Y114911D01*
X72864Y114941D01*
Y114036D01*
D02*
G37*
D10*
X38575Y20154D02*
X43307D01*
X36810Y18388D02*
X38575Y20154D01*
X12598Y148031D02*
X12992Y148425D01*
Y150787D01*
X65354Y61417D02*
X66092D01*
X66107Y61402D02*
X67338D01*
X68110Y60630D01*
X66092Y61417D02*
X66107Y61402D01*
X5000Y29377D02*
X5312Y29688D01*
X5000Y25000D02*
Y29377D01*
Y30000D02*
X5312Y29688D01*
X53740Y65551D02*
Y69685D01*
X34882Y63810D02*
X35433Y63258D01*
Y62992D02*
Y63258D01*
X34882Y63810D02*
Y75630D01*
X75197Y53150D02*
X77953D01*
X77008Y71496D02*
X77017Y71505D01*
X80482D01*
X80491Y71515D01*
X73465Y71496D02*
X77008D01*
X43307Y20154D02*
X47244D01*
X52559Y69685D02*
X53740D01*
X55905D01*
X48819D02*
X52362D01*
X45276D02*
X48819D01*
X69921Y71496D02*
X73465D01*
D11*
X57874Y29133D02*
Y29134D01*
X54626Y25885D02*
X57874Y29133D01*
X58681Y35098D02*
X59390D01*
X61437Y33051D01*
X61221Y25984D02*
X61437Y26200D01*
Y33051D01*
D12*
X68029Y112468D02*
G03*
X67716Y112205I1398J-1974D01*
G01*
X69427Y112913D02*
G03*
X68029Y112468I0J-2420D01*
G01*
X68528Y114522D02*
G03*
X68857Y114488I329J1579D01*
G01*
X67716Y114961D02*
G03*
X68528Y114522I1141J1141D01*
G01*
X80709Y113386D02*
X84646Y109449D01*
Y105354D02*
Y109449D01*
X80709Y113386D02*
Y115748D01*
X12992Y28346D02*
Y28346D01*
Y28346D02*
X16142Y25197D01*
X65995Y55659D02*
Y56446D01*
X64567Y57874D02*
X65995Y56446D01*
X20666Y84666D02*
X22500Y86500D01*
X24000D01*
X20666Y81788D02*
Y84666D01*
X20591Y81713D02*
X20666Y81788D01*
X69685Y107251D02*
X70058D01*
X70695Y106614D01*
X75413D01*
X48130Y16905D02*
Y17102D01*
X48640Y17613D01*
X47244Y16217D02*
X47441D01*
X48130Y16905D01*
X48640Y17613D02*
X49896D01*
X50000Y17717D01*
X42913Y16610D02*
X43307Y16217D01*
X41413Y18110D02*
X42913Y16610D01*
X50587Y142615D02*
Y145753D01*
X51181Y146347D01*
Y146720D01*
X50512Y142539D02*
X50587Y142615D01*
X18504Y44291D02*
X20472Y42323D01*
X18504Y44291D02*
Y45669D01*
X20472Y42126D02*
Y42323D01*
X20472Y42126D02*
X20472Y42126D01*
X20472Y33465D02*
Y42126D01*
X65995Y55659D02*
X66535Y55118D01*
X65059Y50492D02*
X65847D01*
X63779Y49213D02*
X65059Y50492D01*
X65847D02*
X66535Y51181D01*
X60020Y49213D02*
X63779D01*
X66142Y46850D01*
X64961Y34252D02*
X69685D01*
X64961Y34252D02*
X64961Y34252D01*
X65587Y24803D02*
X68110D01*
X69685Y26378D01*
Y30315D01*
X24016Y46457D02*
X25532Y44941D01*
X18504Y50787D02*
X20472Y48819D01*
X21654D02*
X24016Y46457D01*
X20472Y48819D02*
X21654D01*
X59370Y49862D02*
X60020Y49213D01*
X58681Y49862D02*
X59370D01*
X58829Y44793D02*
X61043D01*
X58681Y44941D02*
X58829Y44793D01*
X61043D02*
X65285Y40551D01*
X64961Y34252D02*
Y34429D01*
X58681Y40020D02*
X59370D01*
X64961Y34429D01*
X76630Y155020D02*
X77165Y155555D01*
X76378Y153150D02*
X76630Y153401D01*
Y155020D01*
X77165Y155555D02*
Y161811D01*
X74410Y151181D02*
Y154331D01*
X76001Y155922D01*
X40157Y18110D02*
X41413D01*
X69427Y112913D02*
X75413D01*
X68857Y114488D02*
X75413D01*
X69338Y116063D02*
X75413D01*
X68078Y117323D02*
X69338Y116063D01*
X64173Y117323D02*
X68078D01*
X70423Y109764D02*
X75413D01*
X58141Y175885D02*
X59716D01*
X56866Y174802D02*
X59049D01*
X55827Y175841D02*
X56866Y174802D01*
X57795Y176231D02*
X58141Y175885D01*
X59716D02*
X74728Y160873D01*
X57795Y176231D02*
Y180413D01*
X59049Y174802D02*
X73491Y160361D01*
X50000Y134252D02*
X52087Y136339D01*
Y142539D01*
X53737Y134846D02*
X53937Y134646D01*
X53737Y134846D02*
Y142464D01*
X53661Y142539D02*
X53737Y142464D01*
X14587Y89291D02*
X14626Y89331D01*
X17677D02*
X19016Y90669D01*
X14626Y89331D02*
X17677D01*
X19706Y93307D02*
X20079D01*
X18840Y92441D02*
X19706Y93307D01*
X14587Y92441D02*
X18840D01*
X14587Y95591D02*
X18917D01*
X72441Y149606D02*
X73228Y148819D01*
X72441Y149606D02*
Y154387D01*
X65748Y130315D02*
X68819Y133386D01*
X75413D01*
X14587Y123937D02*
X22913D01*
X25591Y121260D01*
X5000Y142244D02*
Y145000D01*
X9055Y136221D02*
Y138189D01*
X5000Y142244D02*
X9055Y138189D01*
X5000Y155000D02*
X9449Y150551D01*
Y140157D02*
Y150551D01*
Y140157D02*
X10630Y138976D01*
Y137795D02*
Y138976D01*
Y137795D02*
X11890Y136535D01*
X14587D01*
X9055Y136221D02*
X10315Y134961D01*
X14587D01*
X9921Y128661D02*
X14587D01*
X14961Y125330D02*
X15143Y125512D01*
X24094D02*
X25591Y124016D01*
X15143Y125512D02*
X24094D01*
X65748Y120079D02*
X68032Y122362D01*
X63386Y120079D02*
X65748D01*
X64961Y122441D02*
X66494Y123975D01*
X75376D01*
X68032Y122362D02*
X75413D01*
X64567Y127953D02*
X70866D01*
X63779Y125197D02*
X64567Y125984D01*
X70906D01*
X71203Y146907D02*
X71260Y146850D01*
X71203Y146907D02*
Y154900D01*
X70866Y127953D02*
X71732Y127087D01*
X70906Y125984D02*
X71378Y125512D01*
X24409Y33465D02*
X26043Y35098D01*
X24016Y33071D02*
X24409Y33465D01*
X26043Y35098D02*
X31319D01*
X24409Y42126D02*
X26516Y40020D01*
X31319D01*
X25532Y44941D02*
X31319D01*
X24016Y41732D02*
X24409Y42126D01*
X24016Y37795D02*
Y41732D01*
Y29134D02*
Y33071D01*
X18227Y122324D02*
X25591Y114961D01*
X14587Y122362D02*
X14624Y122324D01*
X18227D01*
X17653Y120724D02*
X22000Y116377D01*
Y115008D02*
X22047Y114961D01*
X22000Y115008D02*
Y116377D01*
X14650Y120724D02*
X17653D01*
X14587Y120787D02*
X14650Y120724D01*
X84646Y105354D02*
X85000Y105000D01*
X81496Y116535D02*
Y118898D01*
X80709Y115748D02*
X81496Y116535D01*
X80976Y119417D02*
X81496Y118898D01*
X78878Y119288D02*
X79007Y119417D01*
X75489Y119288D02*
X78878D01*
X79007Y119417D02*
X80976D01*
X75413Y119213D02*
X75489Y119288D01*
X84657Y115343D02*
X85000Y115000D01*
X84657Y115343D02*
Y118493D01*
X82362Y120787D02*
X84657Y118493D01*
X76560Y120787D02*
X82362D01*
X76378Y120606D02*
X76560Y120787D01*
X76196D02*
X76378Y120606D01*
X75413Y120787D02*
X76196D01*
X81039Y93688D02*
X81890Y92837D01*
X81039Y93688D02*
Y96787D01*
X81890Y97638D01*
Y88110D02*
Y92837D01*
Y88110D02*
X85000Y85000D01*
X81890Y97638D02*
Y99606D01*
X80709Y100787D02*
X81890Y99606D01*
X80709Y100787D02*
Y102362D01*
X81890Y101575D02*
Y102756D01*
X79606Y105039D02*
X81890Y102756D01*
Y101575D02*
X82677Y100787D01*
X83858D01*
X79606Y103465D02*
X80709Y102362D01*
X75413Y103465D02*
X79606D01*
X85039Y95039D02*
Y99606D01*
X85000Y95000D02*
X85039Y95039D01*
X83858Y100787D02*
X85039Y99606D01*
X75413Y105039D02*
X79606D01*
X75376Y123975D02*
X75413Y123937D01*
X71378Y125512D02*
X75413D01*
X63701Y175276D02*
X77165Y161811D01*
X76001Y155922D02*
Y161401D01*
X72441Y154387D02*
X74728Y156674D01*
X73491Y157187D02*
Y160361D01*
X74728Y156674D02*
Y160873D01*
X71203Y154900D02*
X73491Y157187D01*
X61732Y175669D02*
X76001Y161401D01*
X55827Y175841D02*
Y180413D01*
X81811Y130936D02*
Y132756D01*
X81220Y133347D02*
X81811Y132756D01*
X80744Y129869D02*
X81811Y130936D01*
X79045Y129869D02*
X80744D01*
X78679Y130236D02*
X79045Y129869D01*
X75413Y130236D02*
X78679D01*
X81220Y133347D02*
Y141220D01*
X83208Y128661D02*
X85000Y130453D01*
Y135000D01*
X75413Y128661D02*
X83208D01*
X81220Y141220D02*
X85000Y145000D01*
X71732Y127087D02*
X75413D01*
X63701Y175276D02*
Y180413D01*
X61732Y175669D02*
Y180413D01*
X71653Y57087D02*
Y60630D01*
X75197Y57087D02*
Y60630D01*
X14779Y125512D02*
X14961Y125330D01*
X14587Y125512D02*
X14779D01*
D13*
X79322Y111349D02*
X79332Y111359D01*
X75424Y111349D02*
X79322D01*
X75413Y111339D02*
X75424Y111349D01*
X49382Y151206D02*
X49843Y151667D01*
Y152323D01*
X50433Y152913D01*
X49382Y150886D02*
Y151206D01*
X48937Y142539D02*
Y151683D01*
X47362Y142539D02*
Y152323D01*
X46772Y152913D02*
X47362Y152323D01*
X13021Y139790D02*
X14228Y138583D01*
X12598Y144095D02*
X12795Y143898D01*
Y141732D02*
Y143898D01*
Y141732D02*
X13021Y141506D01*
Y139790D02*
Y141506D01*
X77382Y139609D02*
X78583Y140810D01*
Y141130D01*
X77291Y136535D02*
X77382Y136626D01*
Y139609D01*
X75413Y136535D02*
X77291D01*
X15748Y148031D02*
X16142D01*
X12598D02*
X15748D01*
X69409Y75945D02*
X70579D01*
X45472Y151613D02*
X46772Y152913D01*
X55244Y86031D02*
X62500D01*
X53699Y84486D02*
X55244Y86031D01*
X53661Y78290D02*
Y81713D01*
X52362Y76991D02*
X53661Y78290D01*
X52362Y73622D02*
Y76991D01*
X70472Y98819D02*
X70513Y98778D01*
X75376D01*
X71033Y95079D02*
X71352D01*
X71464Y97165D02*
X75413D01*
X69012Y94002D02*
Y96488D01*
X75376Y98778D02*
X75413Y98740D01*
X71496Y86850D02*
Y92835D01*
X71247Y96949D02*
X71464Y97165D01*
X69012Y96488D02*
X69474Y96949D01*
X71496Y92835D02*
X72640Y93978D01*
X71352Y95079D02*
X71826Y95553D01*
X72640Y93978D02*
X75376D01*
X71826Y95553D02*
X75376D01*
X69474Y96949D02*
X71247D01*
X69098Y101471D02*
X71229D01*
X72347Y100353D02*
X75376D01*
X71229Y101471D02*
X72347Y100353D01*
X69012Y94002D02*
X69921Y93093D01*
X75376Y100353D02*
X75413Y100315D01*
X66905Y96846D02*
Y99278D01*
X69098Y101471D01*
X53699Y81750D02*
Y84486D01*
X53661Y81713D02*
X53699Y81750D01*
X38819Y65181D02*
X41000Y63000D01*
X38819Y65181D02*
Y75630D01*
X15500Y141219D02*
Y141500D01*
Y141219D02*
X16857Y139862D01*
X15597Y141597D02*
Y143550D01*
X15500Y141500D02*
X15597Y141597D01*
X22165Y142539D02*
Y149606D01*
X15597Y143550D02*
X16142Y144095D01*
X43150Y156850D02*
X50630D01*
X31102Y50079D02*
Y52362D01*
Y50079D02*
X31319Y49862D01*
X50039Y152323D02*
X50630Y152913D01*
X48937Y151683D02*
X49577Y152323D01*
X50039D01*
X50630Y156850D02*
X52362Y155118D01*
X52756D01*
X65354Y22441D02*
X65587Y22674D01*
Y24803D01*
X58661Y21654D02*
X60123Y23116D01*
X52756Y21654D02*
X58661D01*
X60123Y24887D02*
X61221Y25984D01*
X60123Y23116D02*
Y24887D01*
X20227Y150197D02*
X21063D01*
X19291Y150813D02*
X19611D01*
X20227Y150197D01*
X18504Y133885D02*
Y136929D01*
X16850Y138583D02*
X18504Y136929D01*
X17380Y139862D02*
X20079Y137164D01*
Y133071D02*
Y137164D01*
X18652Y153396D02*
X21506D01*
X18504Y153248D02*
X18652Y153396D01*
X21506D02*
X21654Y153543D01*
X21063Y150197D02*
X21654Y149606D01*
X14228Y138583D02*
X16850D01*
X16857Y139862D02*
X17380D01*
X59764Y180315D02*
Y180413D01*
Y185335D01*
X18819Y131811D02*
X20079Y133071D01*
X36220Y149606D02*
Y149703D01*
X33711Y150294D02*
X35630D01*
X36220Y149703D01*
X42638Y142539D02*
X42672Y142505D01*
Y137288D02*
X42707Y137253D01*
X42672Y137288D02*
Y142505D01*
X33520Y153141D02*
X33634Y153027D01*
X35949D02*
X36063Y152913D01*
X33634Y153027D02*
X35949D01*
X36063Y152913D02*
X39606D01*
X32557Y155512D02*
X32603D01*
X41063Y142539D02*
Y147520D01*
X40157Y149606D02*
X40697Y149066D01*
Y147885D02*
X41063Y147520D01*
X40697Y147885D02*
Y149066D01*
X40157Y149575D02*
X40748Y148985D01*
X41566D02*
X42913Y147638D01*
X40748Y148985D02*
X41566D01*
X24331Y180413D02*
Y184820D01*
X25197Y185686D01*
Y185827D01*
X14587Y133386D02*
X14624Y133423D01*
X18043D01*
X18504Y133885D01*
X14587Y131811D02*
X18819D01*
X9843Y119259D02*
X11464Y117638D01*
X9843Y119259D02*
Y120472D01*
X11464Y117638D02*
X14587D01*
X71653Y53150D02*
X75197D01*
X75413Y117638D02*
X79716D01*
X39409Y76221D02*
Y77126D01*
X39488Y77205D01*
Y81713D01*
X38819Y75630D02*
X39409Y76221D01*
X37913Y77677D02*
X38228Y77362D01*
Y76221D02*
X38819Y75630D01*
X38228Y76221D02*
Y77362D01*
X37913Y77677D02*
Y81713D01*
X75451Y90904D02*
X78207D01*
X79744Y92441D01*
X75413Y90866D02*
X75451Y90904D01*
X78207Y89254D02*
X79744Y87717D01*
X75413Y89291D02*
X75451Y89254D01*
X78207D01*
X70579Y75945D02*
X70658Y76024D01*
Y76957D01*
X72047Y78347D01*
X69409Y75945D02*
Y81713D01*
X69921Y86457D02*
X75066Y81312D01*
Y77034D02*
Y81312D01*
X73661Y75433D02*
X74252Y76024D01*
X73465Y75433D02*
X73661D01*
X74252Y76024D02*
Y76221D01*
X75066Y77034D01*
X69921Y86457D02*
Y93093D01*
X75376Y93978D02*
X75413Y94016D01*
X75376Y95553D02*
X75413Y95591D01*
X64173Y185827D02*
X65669Y184331D01*
Y180413D02*
Y184331D01*
X32603Y155512D02*
X33942Y156850D01*
X36063D01*
X45472Y150595D02*
Y151613D01*
X43049Y150240D02*
Y152813D01*
Y150240D02*
X45787Y147502D01*
Y145867D02*
Y147502D01*
X42949Y152913D02*
X43049Y152813D01*
X39606Y152913D02*
X42949D01*
X43049Y152813D02*
X43150Y152913D01*
X75413Y131811D02*
X79449D01*
X79528Y131890D01*
X75413Y134961D02*
X79350Y134961D01*
X36063Y156850D02*
X39606D01*
X30236Y180413D02*
Y185433D01*
X53858Y180413D02*
Y185433D01*
X47953Y180413D02*
Y185433D01*
X42047Y180413D02*
Y185433D01*
X36142Y180413D02*
Y185433D01*
X39606Y156850D02*
X43150D01*
X50630D02*
X50630Y156850D01*
X52362Y73622D02*
X55905D01*
X48937Y73740D02*
Y81713D01*
X48819Y73622D02*
X48937Y73740D01*
X45276Y75984D02*
X47362Y78071D01*
Y81713D01*
X45276Y73622D02*
Y75984D01*
X14624Y127124D02*
X18069D01*
X19685Y128740D01*
X18086Y130199D02*
X19544Y128740D01*
X14624Y130199D02*
X18086D01*
X19544Y128740D02*
X19685D01*
X14587Y130236D02*
X14624Y130199D01*
X14587Y127087D02*
X14624Y127124D01*
X44926Y145867D02*
X45787D01*
X44250Y142577D02*
Y145191D01*
X44213Y142539D02*
X44250Y142577D01*
Y145191D02*
X44926Y145867D01*
X45787Y142539D02*
Y145867D01*
X71496Y86850D02*
X77008Y81339D01*
X75413Y92441D02*
X79744D01*
X75413Y108189D02*
X79744D01*
X75413Y87717D02*
X79744D01*
X77008Y75433D02*
Y81339D01*
D14*
X90000Y195000D02*
G03*
X85000Y200000I-5000J0D01*
G01*
X80000Y-0D02*
G03*
X90000Y10000I0J10000D01*
G01*
X5000Y200000D02*
G03*
X0Y195000I0J-5000D01*
G01*
X-0Y10000D02*
G03*
X10000Y0I10000J0D01*
G01*
X-0Y195000D02*
X0Y10000D01*
X5000Y200000D02*
X85000Y200000D01*
X90000Y10000D02*
X90000Y195000D01*
X10000Y0D02*
X80000Y0D01*
D28*
X45276Y73622D02*
D03*
Y69685D02*
D03*
X43307Y20154D02*
D03*
Y16217D02*
D03*
X47244D02*
D03*
Y20154D02*
D03*
X50630Y152913D02*
D03*
Y156850D02*
D03*
X52362Y69685D02*
D03*
Y73622D02*
D03*
X55905Y69685D02*
D03*
Y73622D02*
D03*
X69921Y71496D02*
D03*
Y75433D02*
D03*
X46693Y152913D02*
D03*
Y156850D02*
D03*
X36063Y152913D02*
D03*
Y156850D02*
D03*
X39606Y152913D02*
D03*
Y156850D02*
D03*
X43150Y152913D02*
D03*
Y156850D02*
D03*
X12205Y148031D02*
D03*
X12205Y144095D02*
D03*
X15748Y148031D02*
D03*
Y144095D02*
D03*
X21654Y153543D02*
D03*
Y149606D02*
D03*
X52756Y21654D02*
D03*
Y17717D02*
D03*
X65354Y18504D02*
D03*
Y22441D02*
D03*
X73465Y71496D02*
D03*
Y75433D02*
D03*
X77008Y71496D02*
D03*
Y75433D02*
D03*
X75197Y60630D02*
D03*
Y64567D02*
D03*
X71653Y60630D02*
D03*
Y64567D02*
D03*
X68110Y60630D02*
D03*
Y64567D02*
D03*
X75197Y53150D02*
D03*
Y57087D02*
D03*
X71653Y53150D02*
D03*
Y57087D02*
D03*
X69685Y34252D02*
D03*
Y30315D02*
D03*
X12992Y28346D02*
D03*
Y32283D02*
D03*
X66535Y55118D02*
D03*
Y51181D02*
D03*
X48819Y73622D02*
D03*
Y69685D02*
D03*
D40*
X40157Y149606D02*
D03*
X36220D02*
D03*
X38819Y75630D02*
D03*
X34882D02*
D03*
X20472Y42126D02*
D03*
X24409D02*
D03*
X20472Y33465D02*
D03*
X24409D02*
D03*
D41*
X61221Y25984D02*
D03*
X54528Y25984D02*
D03*
D76*
X9547Y165744D02*
X11337Y163955D01*
X9547Y165744D02*
Y197047D01*
X19686Y165440D02*
X27283Y157843D01*
X10532Y166280D02*
X11372Y165440D01*
X19686D01*
X11337Y163955D02*
X19239D01*
X26299Y156894D01*
Y149638D02*
Y156894D01*
X27283Y150046D02*
Y157843D01*
X28740Y149981D02*
Y159252D01*
X20276Y167717D02*
X28740Y159252D01*
X12255Y167717D02*
X20276D01*
X51424Y24924D02*
Y33451D01*
X57992Y40020D01*
X48941Y22441D02*
X51424Y24924D01*
X50031Y26038D02*
Y35031D01*
X47993Y24000D02*
X50031Y26038D01*
Y35031D02*
X55500Y40500D01*
X48480Y26858D02*
Y35980D01*
X54000Y41500D01*
X47417Y25794D02*
X48480Y26858D01*
X8809Y80669D02*
X9135Y80344D01*
Y70756D02*
X11024Y68867D01*
X9135Y70756D02*
Y80344D01*
X11224Y59161D02*
X14589Y62526D01*
X12241Y72474D02*
X14589Y70126D01*
Y62526D02*
Y70126D01*
X12517Y54078D02*
Y58207D01*
X17283Y62973D02*
Y74318D01*
X12517Y58207D02*
X17283Y62973D01*
X11224Y53057D02*
Y59161D01*
X9793Y52347D02*
Y59701D01*
X12813Y62720D02*
Y69570D01*
X9793Y59701D02*
X12813Y62720D01*
X11024Y63023D02*
Y68867D01*
X8268Y60267D02*
X11024Y63023D01*
X8268Y50787D02*
Y60267D01*
X5906Y47244D02*
Y60100D01*
X9154Y63348D02*
Y67169D01*
X5906Y60100D02*
X9154Y63348D01*
X12241Y72474D02*
Y81873D01*
X10755Y71628D02*
Y80977D01*
Y71628D02*
X12813Y69570D01*
X9793Y81939D02*
X10755Y80977D01*
X10778Y83337D02*
X12241Y81873D01*
X5000Y71323D02*
X9154Y67169D01*
X5000Y71323D02*
Y75000D01*
X17821Y85200D02*
X23997Y91376D01*
X17821Y76667D02*
Y85200D01*
Y76667D02*
X18735Y75753D01*
X19307Y77933D02*
X20267Y76972D01*
X19307Y77933D02*
Y84769D01*
X25485Y90946D01*
X14200Y57748D02*
X18735Y62283D01*
Y75753D01*
X15652Y57140D02*
X20267Y61756D01*
Y76972D01*
X21754Y67817D02*
X23666Y69729D01*
X17717Y56299D02*
X21754Y60337D01*
Y67817D01*
X13593Y76587D02*
Y82491D01*
Y76587D02*
X14589Y75590D01*
X16010D01*
X17283Y74318D01*
X13593Y82491D02*
X22667Y91565D01*
X14359Y20472D02*
X18898D01*
X8661Y26170D02*
Y44488D01*
Y26170D02*
X14359Y20472D01*
X10630Y26772D02*
Y41732D01*
X14961Y22441D02*
X48941D01*
X10630Y26772D02*
X14961Y22441D01*
X15309Y29402D02*
X20711Y24000D01*
X15309Y29402D02*
Y30270D01*
X20711Y24000D02*
X47993D01*
X13296Y32283D02*
X15309Y30270D01*
X12992Y32283D02*
X13296D01*
X22394Y25794D02*
X47417D01*
X16535Y31653D02*
X22394Y25794D01*
X12697Y32579D02*
Y49443D01*
Y32579D02*
X12992Y32283D01*
X11243Y98740D02*
X14587D01*
X9793Y97290D02*
X11243Y98740D01*
X9793Y81939D02*
Y97290D01*
Y52347D02*
X12697Y49443D01*
X57992Y44941D02*
X58681D01*
X55500Y42449D02*
X57992Y44941D01*
X55500Y40500D02*
Y42449D01*
X65502Y59695D02*
X70079Y55118D01*
X62598Y59695D02*
X65502D01*
X70079Y55118D02*
X79528D01*
X80709Y53937D01*
Y21654D02*
Y53937D01*
X77953Y18898D02*
X80709Y21654D01*
X74410Y18898D02*
X77953D01*
X65354Y9843D02*
X74410Y18898D01*
X29528Y9843D02*
X65354D01*
X18898Y20472D02*
X29528Y9843D01*
X5906Y47244D02*
X8661Y44488D01*
X68898Y50796D02*
X70312Y49382D01*
X78177D01*
X68898Y50796D02*
Y52774D01*
X78177Y49382D02*
X79488Y48071D01*
X14567Y41732D02*
Y49714D01*
X11224Y53057D02*
X14567Y49714D01*
X12517Y54078D02*
X16535Y50059D01*
Y31653D02*
Y50059D01*
X8809Y80669D02*
Y98737D01*
X14200Y54493D02*
Y57748D01*
X15652Y55207D02*
Y57140D01*
X62433Y53150D02*
X68522D01*
X56540Y59043D02*
X62433Y53150D01*
X67500Y103000D02*
X71301D01*
X72353Y101947D02*
X75356D01*
X75413Y101890D01*
X71301Y103000D02*
X72353Y101947D01*
X23666Y69729D02*
Y81639D01*
X10778Y83337D02*
Y96365D01*
X14200Y54493D02*
X15557Y53136D01*
X15652Y55207D02*
X16282Y54577D01*
X25485Y90946D02*
Y100590D01*
X23997Y91376D02*
Y100003D01*
X22667Y91565D02*
Y99183D01*
X10778Y96365D02*
X11578Y97165D01*
X8809Y98737D02*
X10387Y100315D01*
X21035Y105039D02*
X25485Y100590D01*
X20535Y103465D02*
X23997Y100003D01*
X14587Y105039D02*
X21035D01*
X14587Y103465D02*
X20535D01*
X19961Y101890D02*
X22667Y99183D01*
X14587Y100315D02*
X18185D01*
X20500Y98000D01*
X18217Y109764D02*
X19516Y108465D01*
X27607D01*
X14587Y101890D02*
X19961D01*
X27607Y108465D02*
X32536Y113393D01*
X45059Y99390D02*
X51500D01*
X31614Y85945D02*
X45059Y99390D01*
X63873Y110228D02*
X65077Y109024D01*
Y92404D02*
Y109024D01*
Y92404D02*
X67835Y89646D01*
X62992Y107370D02*
X63909Y106454D01*
Y91603D02*
X66260Y89252D01*
X62992Y107370D02*
Y107480D01*
X63909Y91603D02*
Y106454D01*
X69155Y68898D02*
X70698D01*
X74262Y65334D01*
Y65305D02*
Y65334D01*
X75000Y64567D02*
X75197D01*
X74262Y65305D02*
X75000Y64567D01*
X54000Y41500D02*
Y45870D01*
X57992Y49862D01*
X58681D01*
X57992Y40020D02*
X58681D01*
X35039Y38130D02*
Y46081D01*
X32008Y35098D02*
X35039Y38130D01*
X16282Y54577D02*
X22031D01*
X21608Y53136D02*
X28108Y46637D01*
X15557Y53136D02*
X21608D01*
X22031Y54577D02*
X28679Y47929D01*
X33192D01*
X28108Y46637D02*
X33092D01*
X33858Y41732D02*
Y45871D01*
X33092Y46637D02*
X33858Y45871D01*
X33192Y47929D02*
X35039Y46081D01*
X65281Y15354D02*
Y18430D01*
X65354Y18504D01*
X31614Y81713D02*
Y85945D01*
X10387Y100315D02*
X14587D01*
X26890Y59004D02*
X28217Y57677D01*
X26890Y59004D02*
Y81713D01*
X28217Y57677D02*
X28346D01*
X68522Y53150D02*
X68898Y52774D01*
X23666Y81639D02*
X23740Y81713D01*
X36244Y142633D02*
X36339Y142539D01*
X35453Y146549D02*
Y146949D01*
X33553Y146413D02*
Y148017D01*
X34419Y145379D02*
Y145546D01*
X35453Y146549D02*
X36244Y145758D01*
X33553Y146413D02*
X34419Y145546D01*
X36244Y142633D02*
Y145758D01*
X77054Y20754D02*
X79488Y23189D01*
X71935Y20754D02*
X77054D01*
X79488Y23189D02*
Y48071D01*
X31860Y40561D02*
X32687D01*
X31319Y40020D02*
X31860Y40561D01*
X32687D02*
X33858Y41732D01*
X31319Y35098D02*
X32008D01*
X30039Y142539D02*
Y147290D01*
X27283Y150046D02*
X30039Y147290D01*
X28013Y135887D02*
X30442Y138316D01*
X31493D01*
X32844Y139668D01*
X10532Y166280D02*
Y173455D01*
X12274Y175197D01*
X5000Y164685D02*
Y165000D01*
Y164685D02*
X9449Y160236D01*
Y157941D02*
Y160236D01*
Y157941D02*
X18504Y148886D01*
Y142663D02*
X18525Y142642D01*
X18504Y142663D02*
Y148886D01*
X18525Y140319D02*
Y142642D01*
Y140319D02*
X22957Y135887D01*
X20685Y139551D02*
X22170Y138066D01*
X20685Y139551D02*
Y142445D01*
X20591Y142539D02*
X20685Y142445D01*
X22170Y138066D02*
X27152D01*
X22957Y135887D02*
X28013D01*
X32844Y139668D02*
Y139699D01*
X33189Y140044D02*
Y142539D01*
X32844Y139699D02*
X33189Y140044D01*
X33516Y135351D02*
Y137903D01*
X28290Y130125D02*
X33516Y135351D01*
X30514Y133793D02*
Y135339D01*
X27306Y130585D02*
X30514Y133793D01*
Y135339D02*
X30691Y135515D01*
X68110Y195276D02*
X76478D01*
X77689Y196486D02*
X77704D01*
X76478Y195276D02*
X77689Y196486D01*
X66535Y193701D02*
X68110Y195276D01*
X63779Y188189D02*
X66535Y190945D01*
Y193701D01*
X24016Y188189D02*
X63779D01*
X22441Y186614D02*
X24016Y188189D01*
X16437Y175197D02*
X22441Y181201D01*
Y186614D01*
X12274Y175197D02*
X16437D01*
X13780Y159843D02*
X14026Y160089D01*
X19833D01*
X18545Y155848D02*
X22558D01*
X23740Y154666D01*
X19833Y160089D02*
X24586Y155335D01*
X18504Y155807D02*
X18545Y155848D01*
X24586Y155335D02*
X24586D01*
X24874Y155047D01*
X36300Y131969D02*
Y134249D01*
X31132Y131496D02*
X35827D01*
X36300Y131969D01*
X29331Y129694D02*
X31132Y131496D01*
X31524Y129528D02*
X31890D01*
X29331Y125779D02*
Y129694D01*
X30315Y128319D02*
X31524Y129528D01*
X30315Y126187D02*
Y128319D01*
X39488Y138946D02*
X39777Y138657D01*
Y137260D02*
X40059Y136977D01*
X37913Y136040D02*
Y142539D01*
Y136040D02*
X38811Y135143D01*
X39777Y137260D02*
Y138657D01*
X38811Y134743D02*
Y135143D01*
X39488Y138946D02*
Y142539D01*
X23740D02*
Y154666D01*
X28290Y125428D02*
X29583Y124135D01*
X27306Y125020D02*
Y130585D01*
Y125020D02*
X28599Y123727D01*
X28290Y125428D02*
Y130125D01*
X32047Y126973D02*
X32330Y126691D01*
X29583Y125527D02*
X30568Y124542D01*
X29583Y125527D02*
Y125527D01*
X32330Y125564D02*
X32536Y125358D01*
X29331Y125779D02*
X29583Y125527D01*
X30568Y114209D02*
Y124542D01*
X31552Y113801D02*
Y124950D01*
X30315Y126187D02*
X31552Y124950D01*
X32330Y125564D02*
Y126691D01*
X32536Y113393D02*
Y125358D01*
X29583Y114617D02*
Y124135D01*
X28599Y115207D02*
Y123727D01*
X31717Y149852D02*
X33553Y148017D01*
X26890Y142539D02*
Y146212D01*
X26597Y146505D02*
X26890Y146212D01*
X26597Y146505D02*
Y146904D01*
X24874Y146191D02*
Y155047D01*
X25221Y142633D02*
Y145844D01*
X24874Y146191D02*
X25221Y145844D01*
Y142633D02*
X25315Y142539D01*
X26299Y149638D02*
X28465Y147473D01*
Y142539D02*
Y147473D01*
X28740Y149981D02*
X31520Y147201D01*
X31717Y149852D02*
Y151354D01*
X31520Y142633D02*
Y147201D01*
X31496Y151575D02*
X31717Y151354D01*
X31520Y142633D02*
X31614Y142539D01*
X52756Y14961D02*
Y17717D01*
X66260Y81713D02*
Y89252D01*
X67835Y81713D02*
Y89646D01*
X34419Y145379D02*
X34764Y145035D01*
Y142539D02*
Y145035D01*
X14587Y109764D02*
X18217D01*
X26384Y111417D02*
X29583Y114617D01*
X26792Y110433D02*
X30568Y114209D01*
X25991Y112598D02*
X28599Y115207D01*
X27200Y109449D02*
X31552Y113801D01*
X21654Y112598D02*
X25991D01*
X20866Y111417D02*
X26384D01*
X20459Y110433D02*
X26792D01*
X20051Y109449D02*
X27200D01*
X9843Y109449D02*
Y117154D01*
X7964Y119033D02*
Y122733D01*
Y119033D02*
X9843Y117154D01*
X5000Y120444D02*
X8733Y116711D01*
X5000Y120444D02*
Y125000D01*
X8733Y108984D02*
Y116711D01*
X7964Y127941D02*
X8699Y127206D01*
Y123468D02*
Y127206D01*
X5000Y130905D02*
X7964Y127941D01*
Y122733D02*
X8699Y123468D01*
X8733Y108984D02*
X11102Y106614D01*
X5000Y130905D02*
Y135000D01*
X9843Y109449D02*
X11102Y108189D01*
X14587D01*
X11102Y106614D02*
X14587D01*
X18161Y111339D02*
X20051Y109449D01*
X14587Y111339D02*
X18161D01*
X17978Y112913D02*
X20459Y110433D01*
X14587Y112913D02*
X17978D01*
X17795Y114488D02*
X20866Y111417D01*
X14587Y114488D02*
X17795D01*
X18189Y116063D02*
X21654Y112598D01*
X14587Y116063D02*
X18189D01*
X25315Y57485D02*
Y81713D01*
X77199Y62632D02*
X79567Y65000D01*
X66617Y62632D02*
X77199D01*
X65979Y63269D02*
X66617Y62632D01*
X79567Y65000D02*
X85000D01*
X65979Y63269D02*
Y66304D01*
X63110Y69173D02*
Y81713D01*
Y69173D02*
X65979Y66304D01*
X64685Y69997D02*
X68110Y66571D01*
X64685Y69997D02*
Y81713D01*
X68110Y64567D02*
Y66571D01*
X67835Y70218D02*
Y81713D01*
Y70218D02*
X69155Y68898D01*
X68621Y67651D02*
X70145D01*
X66260Y70012D02*
Y81713D01*
Y70012D02*
X68621Y67651D01*
X71653Y64567D02*
Y66142D01*
X70145Y67651D02*
X71653Y66142D01*
X11578Y97165D02*
X14587D01*
D78*
X41262Y34102D02*
X45360Y30004D01*
X39707Y33458D02*
Y45207D01*
X43945Y49445D01*
X39707Y33458D02*
X43805Y29360D01*
X41262Y44563D02*
X45500Y48801D01*
X41262Y34102D02*
Y44563D01*
X45360Y28955D02*
Y30004D01*
X43805Y28608D02*
Y29360D01*
X45360Y28955D02*
X46016Y28299D01*
X43150Y27953D02*
X43805Y28608D01*
X47876Y89500D02*
X57699D01*
X60645Y92446D02*
Y133874D01*
X57699Y89500D02*
X60645Y92446D01*
X59090Y93090D02*
Y134518D01*
X47232Y91055D02*
X57055D01*
X59090Y93090D01*
X45778Y87402D02*
X47876Y89500D01*
X44222Y88046D02*
X47232Y91055D01*
X41073Y67484D02*
X43945Y64612D01*
X41073Y67484D02*
Y81703D01*
X42628Y68128D02*
X45500Y65256D01*
X42628Y68128D02*
Y81703D01*
X43945Y49445D02*
Y64612D01*
X45500Y48801D02*
Y65256D01*
X45778Y81722D02*
Y87402D01*
X44222Y81722D02*
Y88046D01*
X60645Y133874D02*
X60645Y133874D01*
X62992Y136221D01*
X69916D02*
X80768Y147072D01*
X69272Y137776D02*
X79213Y147716D01*
X80654Y190778D02*
X83876D01*
X80768Y147072D02*
Y188692D01*
X81298Y189222D02*
X82411D01*
X80768Y188692D02*
X81298Y189222D01*
X79213Y147716D02*
Y189336D01*
X80654Y190778D01*
X59090Y134518D02*
X62348Y137776D01*
X62992Y136221D02*
X69916D01*
X62348Y137776D02*
X69272D01*
X84406Y191308D02*
Y194406D01*
X82411Y189222D02*
X82942Y188692D01*
Y187058D02*
X85000Y185000D01*
X83876Y190778D02*
X84406Y191308D01*
X82942Y187058D02*
Y188692D01*
X84406Y194406D02*
X85000Y195000D01*
X44213Y81713D02*
X44222Y81722D01*
X45778Y81722D02*
X45787Y81713D01*
X42628Y81703D02*
X42638Y81713D01*
X41063D02*
X41073Y81703D01*
D80*
X29454Y164549D02*
G03*
X28268Y165039I-1187J-1189D01*
G01*
X29456Y164547D02*
G03*
X29454Y164549I-1188J-1188D01*
G01*
X33471Y166831D02*
G03*
X32283Y167323I-1188J-1188D01*
G01*
X56752Y149787D02*
Y156298D01*
X55295Y149184D02*
X55385Y149094D01*
X55295Y145128D02*
Y147472D01*
X56752Y149787D02*
X56841Y149698D01*
X55385Y147562D02*
Y149094D01*
X56752Y145128D02*
Y146869D01*
X56841Y146958D01*
Y149698D01*
X55295Y149184D02*
Y155694D01*
Y147472D02*
X55385Y147562D01*
X26299Y169764D02*
X35794Y160269D01*
X26299Y169764D02*
Y180413D01*
X35794Y160269D02*
X52780D01*
X28268Y170669D02*
Y180413D01*
X56752Y145128D02*
X56766Y145114D01*
X52780Y160269D02*
X56752Y156298D01*
X56766Y142585D02*
X56811Y142539D01*
X56766Y142585D02*
Y145114D01*
X41781Y168159D02*
X50995D01*
X41154Y167532D02*
X41781Y168159D01*
X41373Y169616D02*
X51598D01*
X38110Y172879D02*
X41373Y169616D01*
X41112Y166091D02*
X41154Y166133D01*
X38110Y172879D02*
Y180413D01*
X41154Y166133D02*
Y167532D01*
X51598Y169616D02*
X63051Y158163D01*
X59944Y167060D02*
X66201Y160804D01*
X44016Y174980D02*
Y180413D01*
X50995Y168159D02*
X61594Y157560D01*
X44016Y174980D02*
X48140Y170856D01*
X55921Y167047D02*
X58173D01*
X59075Y164961D02*
X64744Y159291D01*
X63051Y145128D02*
Y158163D01*
X48140Y170856D02*
X52112D01*
X55921Y167047D01*
X58185Y167060D02*
X59944D01*
X58173Y167047D02*
X58185Y167060D01*
X29456Y164547D02*
X35190Y158812D01*
X33471Y166831D02*
X38373Y161929D01*
X35190Y158812D02*
X52177D01*
X38373Y161929D02*
X53334D01*
X52177Y158812D02*
X55295Y155694D01*
X69350Y145128D02*
Y161752D01*
X55213Y170835D02*
X60268D01*
X69350Y161752D01*
X55274Y172835D02*
X57480D01*
X51890Y176218D02*
X55274Y172835D01*
X49921Y176127D02*
X55213Y170835D01*
X60075Y168898D02*
X67894Y161079D01*
X57480Y168898D02*
X60075D01*
X59055Y164961D02*
X59075D01*
X66201Y145128D02*
Y160804D01*
X67894Y145128D02*
Y161079D01*
X64744Y145128D02*
Y159291D01*
X51890Y176218D02*
Y180413D01*
X49921Y176127D02*
Y180413D01*
X45984Y175072D02*
Y180413D01*
Y175072D02*
X47168Y173888D01*
X48888D01*
X61594Y145128D02*
Y157560D01*
X40079Y174921D02*
X41112Y173888D01*
X40079Y174921D02*
Y180413D01*
X53937Y163386D02*
X59902Y157421D01*
X30315Y172047D02*
X38976Y163386D01*
X53334Y161929D02*
X58445Y156818D01*
X38976Y163386D02*
X53937D01*
X58445Y145128D02*
Y156818D01*
X59902Y145128D02*
Y157421D01*
X30315Y172047D02*
Y174016D01*
X32283Y173228D02*
X34173Y175118D01*
Y180413D01*
X32205Y175906D02*
Y180413D01*
X30315Y174016D02*
X32205Y175906D01*
X55281Y142585D02*
Y145114D01*
X55236Y142539D02*
X55281Y142585D01*
Y145114D02*
X55295Y145128D01*
X58431Y142585D02*
Y145114D01*
X58445Y145128D01*
X59915Y142585D02*
X59961Y142539D01*
X59915Y142585D02*
Y145114D01*
X59902Y145128D02*
X59915Y145114D01*
X58386Y142539D02*
X58431Y142585D01*
X61581Y145114D02*
X61594Y145128D01*
X61535Y142539D02*
X61581Y142585D01*
Y145114D01*
X63065Y142585D02*
X63110Y142539D01*
X63065Y142585D02*
Y145114D01*
X63051Y145128D02*
X63065Y145114D01*
X64730Y142585D02*
Y145114D01*
X64744Y145128D01*
X64685Y142539D02*
X64730Y142585D01*
X66215D02*
X66260Y142539D01*
X66215Y142585D02*
Y145114D01*
X66201Y145128D02*
X66215Y145114D01*
X67880Y142585D02*
Y145114D01*
X67894Y145128D01*
X67835Y142539D02*
X67880Y142585D01*
X69364D02*
X69409Y142539D01*
X69364Y142585D02*
Y145114D01*
X69350Y145128D02*
X69364Y145114D01*
D82*
X56378Y17764D02*
D03*
X33622D02*
D03*
D83*
X5000Y195000D02*
D03*
X85000Y145000D02*
D03*
Y155000D02*
D03*
Y165000D02*
D03*
Y135000D02*
D03*
Y125000D02*
D03*
Y115000D02*
D03*
Y105000D02*
D03*
Y65000D02*
D03*
Y75000D02*
D03*
Y85000D02*
D03*
Y95000D02*
D03*
Y25000D02*
D03*
Y35000D02*
D03*
Y45000D02*
D03*
Y55000D02*
D03*
X5000Y85000D02*
D03*
Y95000D02*
D03*
Y125000D02*
D03*
Y115000D02*
D03*
Y135000D02*
D03*
Y145000D02*
D03*
Y155000D02*
D03*
Y165000D02*
D03*
Y105000D02*
D03*
Y75000D02*
D03*
Y65000D02*
D03*
X85000Y195000D02*
D03*
D84*
X5000Y185000D02*
D03*
X85000Y175000D02*
D03*
X5000Y175000D02*
D03*
X85000Y185000D02*
D03*
D85*
X75000Y25000D02*
D03*
Y45000D02*
D03*
D86*
X2500Y195000D02*
D03*
Y165000D02*
D03*
Y155000D02*
D03*
Y145000D02*
D03*
Y135000D02*
D03*
Y125000D02*
D03*
Y115000D02*
D03*
Y105000D02*
D03*
Y95000D02*
D03*
Y85000D02*
D03*
Y75000D02*
D03*
Y65000D02*
D03*
X87500Y25000D02*
D03*
Y35000D02*
D03*
Y45000D02*
D03*
Y55000D02*
D03*
Y65000D02*
D03*
Y75000D02*
D03*
Y85000D02*
D03*
Y95000D02*
D03*
Y105000D02*
D03*
Y115000D02*
D03*
Y125000D02*
D03*
Y135000D02*
D03*
Y145000D02*
D03*
Y155000D02*
D03*
Y165000D02*
D03*
X87500Y195000D02*
D03*
D87*
X2756Y185000D02*
D03*
Y175000D02*
D03*
X87244Y185000D02*
D03*
X87244Y175000D02*
D03*
D88*
X10000Y10000D02*
D03*
X80000D02*
D03*
D89*
X36810Y18388D02*
D03*
X79332Y111359D02*
D03*
X49382Y150886D02*
D03*
X12795Y141732D02*
D03*
X78583Y141130D02*
D03*
X12992Y150787D02*
D03*
X53534Y148328D02*
D03*
X16142Y25197D02*
D03*
X62598Y59695D02*
D03*
X64220Y63218D02*
D03*
X65354Y61417D02*
D03*
X77953Y57480D02*
D03*
X64567Y57874D02*
D03*
X10630Y41732D02*
D03*
X14567D02*
D03*
X56540Y59043D02*
D03*
X5000Y25000D02*
D03*
Y40000D02*
D03*
X70472Y98819D02*
D03*
X71033Y95079D02*
D03*
X62500Y86031D02*
D03*
X51425Y86147D02*
D03*
X53740Y65551D02*
D03*
X43504Y34843D02*
D03*
X57874Y31890D02*
D03*
Y29134D02*
D03*
X23593Y62598D02*
D03*
X66905Y96846D02*
D03*
X32997Y99503D02*
D03*
X54242Y93758D02*
D03*
X12500Y84500D02*
D03*
X24000Y86500D02*
D03*
X20500Y98000D02*
D03*
X19056Y106762D02*
D03*
X51500Y99390D02*
D03*
X29985Y86505D02*
D03*
X54500Y102500D02*
D03*
X70079Y104722D02*
D03*
X69685Y107251D02*
D03*
X67500Y103000D02*
D03*
X41000Y63000D02*
D03*
X59500Y59500D02*
D03*
X15500Y141500D02*
D03*
X77953Y53150D02*
D03*
X75000Y67500D02*
D03*
X77000D02*
D03*
X80491Y71515D02*
D03*
X35063Y53937D02*
D03*
X53500Y54500D02*
D03*
X15477Y78500D02*
D03*
X34500Y34000D02*
D03*
X35000Y51500D02*
D03*
X31102Y52362D02*
D03*
X51181Y146720D02*
D03*
X65281Y15354D02*
D03*
X63686Y113051D02*
D03*
X52756Y155118D02*
D03*
X18504Y45669D02*
D03*
X28346Y57677D02*
D03*
X66969Y43649D02*
D03*
X17717Y56299D02*
D03*
X8268Y50787D02*
D03*
X18504D02*
D03*
X35453Y146949D02*
D03*
X71935Y20754D02*
D03*
X70179Y45276D02*
D03*
X19016Y90669D02*
D03*
X76378Y153150D02*
D03*
X74410Y151181D02*
D03*
X9547Y197047D02*
D03*
X12255Y167717D02*
D03*
X19291Y150813D02*
D03*
X33516Y137903D02*
D03*
X18504Y153248D02*
D03*
X30691Y135515D02*
D03*
X18559Y161811D02*
D03*
X16449Y170879D02*
D03*
X77704Y196486D02*
D03*
X71083Y197264D02*
D03*
X13780Y159843D02*
D03*
X18504Y158366D02*
D03*
Y155807D02*
D03*
X36300Y134249D02*
D03*
X27152Y138066D02*
D03*
X31890Y129528D02*
D03*
X40059Y136977D02*
D03*
X38811Y134743D02*
D03*
X28268Y165039D02*
D03*
Y170669D02*
D03*
X59764Y185335D02*
D03*
X22047Y133838D02*
D03*
X32047Y126973D02*
D03*
X26597Y146904D02*
D03*
X33711Y150294D02*
D03*
X65587Y24803D02*
D03*
X52756Y14961D02*
D03*
X40157Y18110D02*
D03*
X50000Y17717D02*
D03*
X25315Y57485D02*
D03*
X37008Y102362D02*
D03*
X62992Y107480D02*
D03*
X63873Y110228D02*
D03*
X67716Y114961D02*
D03*
Y112205D02*
D03*
X70423Y109764D02*
D03*
X42707Y137253D02*
D03*
X41112Y166091D02*
D03*
X33520Y153141D02*
D03*
X31496Y151575D02*
D03*
X32557Y155512D02*
D03*
X48819Y121653D02*
D03*
X47244Y102362D02*
D03*
X40945Y105905D02*
D03*
X50000Y134252D02*
D03*
X53937Y134646D02*
D03*
X54724Y122047D02*
D03*
X32047Y110429D02*
D03*
X46457Y137402D02*
D03*
X13386Y179921D02*
D03*
X15748D02*
D03*
X20079Y93307D02*
D03*
X18917Y95591D02*
D03*
X25197Y185827D02*
D03*
X51181Y41732D02*
D03*
X49213Y43307D02*
D03*
X51181Y48425D02*
D03*
X35433Y62992D02*
D03*
X33071Y61811D02*
D03*
X72835Y28740D02*
D03*
X70866Y38583D02*
D03*
Y41732D02*
D03*
X62205Y47244D02*
D03*
X62157Y51000D02*
D03*
X43504Y37599D02*
D03*
X19921Y2953D02*
D03*
X70079D02*
D03*
X60111Y18012D02*
D03*
X29921Y17987D02*
D03*
X73228Y148819D02*
D03*
X70866Y131496D02*
D03*
X25591Y121260D02*
D03*
X70965Y120079D02*
D03*
X9843Y120472D02*
D03*
X9921Y128661D02*
D03*
X10236Y131496D02*
D03*
X25591Y124016D02*
D03*
X64961Y122441D02*
D03*
X63386Y120079D02*
D03*
X65748Y130315D02*
D03*
X64567Y127953D02*
D03*
X63779Y125197D02*
D03*
X64173Y117323D02*
D03*
X71260Y146850D02*
D03*
X32283Y167323D02*
D03*
X22047Y114961D02*
D03*
X25591D02*
D03*
X79716Y117638D02*
D03*
X46016Y28299D02*
D03*
X43150Y27953D02*
D03*
X72047Y78347D02*
D03*
X57480Y172835D02*
D03*
Y168898D02*
D03*
X59055Y164961D02*
D03*
X64173Y185827D02*
D03*
X42913Y147638D02*
D03*
X18917Y197264D02*
D03*
X63447Y193148D02*
D03*
X60236Y191339D02*
D03*
X57589Y193213D02*
D03*
X54388Y191905D02*
D03*
X51116Y193455D02*
D03*
X48425Y192126D02*
D03*
X44819Y193323D02*
D03*
X42126Y192126D02*
D03*
X38851Y193411D02*
D03*
X35319Y193499D02*
D03*
X33858Y190945D02*
D03*
X36614Y191339D02*
D03*
X31830Y193301D02*
D03*
X30709Y190157D02*
D03*
X28740Y192913D02*
D03*
X25591Y190551D02*
D03*
X25599Y193213D02*
D03*
X79528Y131890D02*
D03*
X79350Y134961D02*
D03*
X71476Y158287D02*
D03*
X30236Y185433D02*
D03*
X53858D02*
D03*
X47953D02*
D03*
X42047D02*
D03*
X36142D02*
D03*
X32283Y173228D02*
D03*
X45472Y150595D02*
D03*
X19685Y128740D02*
D03*
X79744Y87717D02*
D03*
Y108189D02*
D03*
Y92441D02*
D03*
D90*
X48888Y173888D02*
D03*
X41112D02*
D03*
D91*
X58681Y49862D02*
D03*
X58681Y44941D02*
D03*
Y40020D02*
D03*
X58681Y35098D02*
D03*
X31319Y49862D02*
D03*
X31319Y44941D02*
D03*
Y40020D02*
D03*
X31319Y35098D02*
D03*
D92*
X45000Y112126D02*
D03*
D93*
X20591Y81713D02*
D03*
X22165D02*
D03*
X23740D02*
D03*
X25315D02*
D03*
X26890D02*
D03*
X28465D02*
D03*
X30039D02*
D03*
X31614D02*
D03*
X33189Y81713D02*
D03*
X34764D02*
D03*
X36339Y81713D02*
D03*
X37913D02*
D03*
X39488D02*
D03*
X41063D02*
D03*
X42638D02*
D03*
X44213D02*
D03*
X45787D02*
D03*
X47362D02*
D03*
X48937Y81713D02*
D03*
X50512Y81713D02*
D03*
X52087Y81713D02*
D03*
X53661Y81713D02*
D03*
X55236Y81713D02*
D03*
X56811Y81713D02*
D03*
X58386D02*
D03*
X59961D02*
D03*
X61535D02*
D03*
X63110D02*
D03*
X64685D02*
D03*
X66260D02*
D03*
X67835D02*
D03*
X69409Y81713D02*
D03*
Y142539D02*
D03*
X67835D02*
D03*
X66260D02*
D03*
X64685D02*
D03*
X63110D02*
D03*
X61535D02*
D03*
X59961D02*
D03*
X58386D02*
D03*
X56811D02*
D03*
X55236D02*
D03*
X53661D02*
D03*
X52087D02*
D03*
X50512D02*
D03*
X48937D02*
D03*
X47362D02*
D03*
X45787D02*
D03*
X44213D02*
D03*
X42638D02*
D03*
X41063D02*
D03*
X39488D02*
D03*
X37913D02*
D03*
X36339D02*
D03*
X34764D02*
D03*
X33189D02*
D03*
X31614D02*
D03*
X30039D02*
D03*
X28465D02*
D03*
X26890D02*
D03*
X25315D02*
D03*
X23740D02*
D03*
X22165D02*
D03*
X20591D02*
D03*
D94*
X75413Y87717D02*
D03*
Y89291D02*
D03*
Y90866D02*
D03*
Y92441D02*
D03*
Y94016D02*
D03*
Y95591D02*
D03*
Y97165D02*
D03*
Y98740D02*
D03*
Y100315D02*
D03*
Y101890D02*
D03*
Y103465D02*
D03*
Y105039D02*
D03*
Y106614D02*
D03*
Y108189D02*
D03*
Y109764D02*
D03*
Y111339D02*
D03*
Y112913D02*
D03*
Y114488D02*
D03*
Y116063D02*
D03*
Y117638D02*
D03*
Y119213D02*
D03*
Y120787D02*
D03*
Y122362D02*
D03*
Y123937D02*
D03*
Y125512D02*
D03*
Y127087D02*
D03*
Y128661D02*
D03*
Y130236D02*
D03*
Y131811D02*
D03*
Y133386D02*
D03*
Y134961D02*
D03*
Y136535D02*
D03*
X14587D02*
D03*
X14587Y134961D02*
D03*
Y133386D02*
D03*
Y131811D02*
D03*
Y130236D02*
D03*
Y128661D02*
D03*
Y127087D02*
D03*
Y125512D02*
D03*
Y123937D02*
D03*
X14587Y122362D02*
D03*
X14587Y120787D02*
D03*
X14587Y119213D02*
D03*
X14587Y117638D02*
D03*
X14587Y116063D02*
D03*
X14587Y114488D02*
D03*
Y112913D02*
D03*
Y111339D02*
D03*
Y109764D02*
D03*
Y108189D02*
D03*
Y106614D02*
D03*
Y105039D02*
D03*
Y103465D02*
D03*
X14587Y101890D02*
D03*
Y100315D02*
D03*
X14587Y98740D02*
D03*
Y97165D02*
D03*
Y95591D02*
D03*
Y94016D02*
D03*
Y92441D02*
D03*
Y90866D02*
D03*
Y89291D02*
D03*
Y87717D02*
D03*
D95*
X5000Y30000D02*
D03*
Y40000D02*
D03*
D96*
X24016Y46457D02*
D03*
X65285Y40551D02*
D03*
X64961Y34252D02*
D03*
X24016Y29134D02*
D03*
Y37795D02*
D03*
X66142Y46850D02*
D03*
D97*
X73347Y187894D02*
D03*
X16654D02*
D03*
D98*
X65669Y180413D02*
D03*
X61732D02*
D03*
X57795D02*
D03*
X53858D02*
D03*
X49921D02*
D03*
X45984D02*
D03*
X42047D02*
D03*
X38110D02*
D03*
X34173D02*
D03*
X30236D02*
D03*
X26299D02*
D03*
X63701D02*
D03*
X59764D02*
D03*
X55827D02*
D03*
X51890D02*
D03*
X47953D02*
D03*
X44016D02*
D03*
X40079D02*
D03*
X36142D02*
D03*
X32205D02*
D03*
X28268D02*
D03*
X24331D02*
D03*
D99*
X61221Y25984D02*
X62402Y24803D01*
X65481D01*
M02*
